<?xml version="1.0" encoding="utf-8"?>
<!-- Generator: Adobe Illustrator 24.2.3, SVG Export Plug-In . SVG Version: 6.00 Build 0)  -->
<svg version="1.1" id="Capa_1" xmlns="http://www.w3.org/2000/svg" xmlns:xlink="http://www.w3.org/1999/xlink" x="0px" y="0px"
	 viewBox="0 0 121 122" style="enable-background:new 0 0 121 122;" xml:space="preserve">
<style type="text/css">
	.st0{fill:#005F5E;}
</style>
<g>
	<path class="st0" d="M85.8,41.7c1.5-1.5,2.5-3.3,2.7-5.4c0.2-2.5-0.6-5-2.4-6.8c-1.8-1.8-4.2-2.7-6.7-2.4c-2.1,0.2-4,1.2-5.5,2.7
		l-9,9c-0.2,0.2-0.6,0.2-0.8,0l-8.9-9c-1.5-1.5-3.4-2.5-5.5-2.7c-2.5-0.2-4.9,0.7-6.7,2.4c-1.8,1.8-2.7,4.2-2.4,6.8
		c0.2,2.1,1.2,3.9,2.7,5.4l6.3,6.3v18.6c0,0.6,0.2,1.2,0.7,1.6l5,5c0.4,0.4,0.7,1,0.7,1.6v28.9h16.6V55L85.8,41.7z M69.6,100.7H58.9
		V73.6c0-0.6-0.2-1.2-0.7-1.6l-5-5c-0.4-0.4-0.7-1-0.7-1.6V49.5h3V58c0,0.3,0.3,0.6,0.6,0.6H61c0.3,0,0.6,0.3,0.6,0.6v5.5
		c0,0.5,0.6,0.8,1,0.4l2-2l5-5V100.7z"/>
	<path class="st0" d="M35.2,49.3c-0.3,0-0.5,0-0.7,0c-2.1,0.2-4,1.2-5.5,2.7l-5.1,5.1L18.7,52c-1.5-1.5-3.4-2.5-5.5-2.7
		c-0.3,0-0.5,0-0.7,0c-2.2,0-4.3,0.9-5.9,2.5c-1.8,1.8-2.7,4.2-2.4,6.8c0.2,2.1,1.2,3.9,2.7,5.4L8.9,66v18.6c0,0.6,0.2,1.2,0.7,1.6
		l5,5c0.4,0.4,0.7,1,0.7,1.6v10.9h16.6V73l9.1-9.1c1.5-1.5,2.5-3.3,2.7-5.4c0.2-2.5-0.6-5-2.4-6.8C39.5,50.2,37.4,49.3,35.2,49.3z
		 M28.8,100.7H18.2v-9.2c0-0.6-0.2-1.2-0.7-1.6l-5-5c-0.4-0.4-0.7-1-0.7-1.6V67.5h3v8.4c0,0.3,0.3,0.6,0.6,0.6h4.8
		c0.3,0,0.6,0.3,0.6,0.6v5.5c0,0.5,0.6,0.8,1,0.4l2-2l5-5V100.7z"/>
	<path class="st0" d="M115.5,51.7c-1.6-1.6-3.7-2.5-5.9-2.5c-0.2,0-0.5,0-0.7,0c-2.1,0.2-4,1.2-5.5,2.7l-5.1,5.1L93.2,52
		c-1.5-1.5-3.4-2.5-5.5-2.7c-0.2,0-0.5,0-0.7,0c-2.2,0-4.3,0.9-5.9,2.5c-1.8,1.8-2.7,4.2-2.4,6.8c0.2,2.1,1.2,3.9,2.7,5.4l2.1,2.1
		v18.6c0,0.6,0.2,1.2,0.7,1.6l5,5c0.4,0.4,0.7,1,0.7,1.6v10.9h16.6V73l9.1-9.1c1.5-1.5,2.5-3.3,2.7-5.4
		C118.2,56,117.3,53.5,115.5,51.7z M103.3,100.7H92.6v-9.2c0-0.6-0.2-1.2-0.7-1.6l-5-5c-0.4-0.4-0.7-1-0.7-1.6V67.5h3v8.4
		c0,0.3,0.3,0.6,0.6,0.6h4.8c0.3,0,0.6,0.3,0.6,0.6v5.5c0,0.5,0.6,0.8,1,0.4l2-2l0,0l5-5V100.7z"/>
</g>
</svg>
