<svg xmlns="http://www.w3.org/2000/svg" width="50" height="50" viewBox="0 0 50 50">
  <g id="Grupo_2044" data-name="Grupo 2044" transform="translate(149.91 -207.59)">
    <g id="Grupo_1981" data-name="Grupo 1981" transform="translate(-149.91 207.59)">
      <g id="Grupo_1980" data-name="Grupo 1980">
        <path id="Trazado_2347" data-name="Trazado 2347" d="M-124.91,207.59a25,25,0,0,0-25,25,25,25,0,0,0,25,25,25,25,0,0,0,25-25h0A25,25,0,0,0-124.91,207.59Zm0,48.333a23.334,23.334,0,0,1-23.333-23.333,23.334,23.334,0,0,1,23.333-23.333,23.334,23.334,0,0,1,23.333,23.333h0A23.334,23.334,0,0,1-124.91,255.923Z" transform="translate(149.91 -207.59)" fill="#00a99c"/>
      </g>
    </g>
    <path id="Trazado_2292" data-name="Trazado 2292" d="M-135.133,236.382a2.792,2.792,0,0,1,.484-.376q7.665-3.619,15.334-7.231a.831.831,0,0,1,.777.011q7.667,3.618,15.335,7.229a2.475,2.475,0,0,1,.455.367v.316a2.571,2.571,0,0,1-.477.387q-2.392,1.145-4.8,2.26a.435.435,0,0,0-.3.471c.013,1.561-.005,3.122.012,4.682a3.061,3.061,0,0,1-.561,1.807,6.584,6.584,0,0,1-1.766,1.7.415.415,0,0,0-.212.415,5.576,5.576,0,0,1,0,.632,1.081,1.081,0,0,0,.485,1.152,1.43,1.43,0,0,1,.247,2.008l-.044.054a.732.732,0,0,0-.132.448c.053.82.138,1.639.2,2.458.039.5-.148.7-.651.7h-1.233c-.48,0-.668-.2-.63-.691.064-.82.144-1.638.2-2.458a.724.724,0,0,0-.126-.449,1.514,1.514,0,0,1,.232-2.129,1.486,1.486,0,0,1,.231-.153.34.34,0,0,0,.22-.36c-.014-.272,0-.546,0-.86l-.333.147a15.544,15.544,0,0,1-14.121-.327,7.845,7.845,0,0,1-2.357-1.834,3.412,3.412,0,0,1-.91-2.417c.038-1.507,0-3.015.016-4.523a.434.434,0,0,0-.294-.474q-2.408-1.111-4.8-2.259a2.657,2.657,0,0,1-.478-.384Zm22.8,3.884c-.134-.069-.215-.117-.3-.158l-6.324-3.168a2.782,2.782,0,0,1-.252-.131.5.5,0,0,1-.2-.684.5.5,0,0,1,.644-.216c.077.032.154.069.228.109q3.558,1.777,7.113,3.559a.54.54,0,0,0,.531.012q3.093-1.471,6.193-2.928a2.227,2.227,0,0,0,.211-.127c-.077-.04-.122-.069-.17-.09q-7.04-3.315-14.084-6.622a.574.574,0,0,0-.432.016q-6.162,2.884-12.315,5.785c-.634.3-1.268.6-1.951.922.524.245,1,.467,1.475.691q6.382,3.01,12.761,6.024a.54.54,0,0,0,.532-.005c.336-.174.683-.326,1.027-.488Zm-16.222-.295v.353c0,1.349.02,2.7-.008,4.048a2.342,2.342,0,0,0,.616,1.639,7.439,7.439,0,0,0,1.907,1.542,13.537,13.537,0,0,0,5.956,1.816,14.222,14.222,0,0,0,7.989-1.66.406.406,0,0,0,.244-.415c-.009-1.937-.005-3.88-.006-5.819,0-.09-.009-.18-.015-.3-.153.069-.277.12-.4.177q-3.143,1.477-6.283,2.96a.831.831,0,0,1-.779,0q-4.408-2.086-8.825-4.157c-.12-.058-.243-.11-.4-.181Zm17.712,6.825.124.073c.383-.455.794-.889,1.134-1.374a1.555,1.555,0,0,0,.249-.83c.023-1.506.011-3.012.01-4.518,0-.047-.009-.095-.016-.174-.438.207-.841.407-1.255.582a.366.366,0,0,0-.252.4c.009,1.867.006,3.729.006,5.592Zm-.516,5.021a.5.5,0,0,0,.512-.493.5.5,0,0,0-.493-.512.5.5,0,0,0-.512.492.509.509,0,0,0,.493.513Zm-.2,3.012h.415l-.172-1.955-.08,0Z" transform="translate(-6.364 -9.084)" fill="#00a99c" stroke="#00a99c" stroke-width="1.215"/>
    <path id="Trazado_2353" data-name="Trazado 2353" d="M-114.029,266.689a15.8,15.8,0,0,1-4.059.527,15.784,15.784,0,0,1-15.784-15.784" transform="translate(-6.907 -18.881)" fill="none" stroke="#00a99c" stroke-linecap="round" stroke-linejoin="round" stroke-width="2.235"/>
    <path id="Trazado_2354" data-name="Trazado 2354" d="M-82.77,251.432a15.754,15.754,0,0,1-5.744,12.18" transform="translate(-26.441 -18.881)" fill="none" stroke="#00a99c" stroke-linecap="round" stroke-linejoin="round" stroke-width="2.235"/>
    <path id="Trazado_2355" data-name="Trazado 2355" d="M-129.576,231.049a15.773,15.773,0,0,1,13.338-7.341,15.762,15.762,0,0,1,12.717,6.434" transform="translate(-8.757 -6.941)" fill="none" stroke="#00a99c" stroke-linecap="round" stroke-linejoin="round" stroke-width="2.235"/>
  </g>
</svg>
