<svg id="Grupo_1991" data-name="Grupo 1991" xmlns="http://www.w3.org/2000/svg" width="50" height="50" viewBox="0 0 50 50">
  <g id="Grupo_1973" data-name="Grupo 1973" transform="translate(26.668 12.495)">
    <g id="Grupo_1972" data-name="Grupo 1972">
      <path id="Trazado_2343" data-name="Trazado 2343" d="M264.751,124.311l-.535-1.761a3.825,3.825,0,0,0-7.243,0l-.535,1.761a9.891,9.891,0,0,0-.276,4.583,4.311,4.311,0,0,0,2.22,3l-.6,13.394a2.639,2.639,0,0,0,.667,2.052,2.911,2.911,0,0,0,4.112.184q.1-.088.184-.184a2.6,2.6,0,0,0,.667-2l-.6-13.452a4.31,4.31,0,0,0,2.217-3A9.891,9.891,0,0,0,264.751,124.311Zm-1.366,4.293a2.642,2.642,0,0,1-1.729,1.991.833.833,0,0,0-.539.817l.633,14.068a.964.964,0,0,1-.25.755,1.288,1.288,0,0,1-1.812,0,1,1,0,0,1-.245-.81l.628-14.013a.833.833,0,0,0-.539-.817A2.642,2.642,0,0,1,257.8,128.6a8.218,8.218,0,0,1,.229-3.8l.535-1.762a2.161,2.161,0,0,1,4.053,0l.535,1.762A8.23,8.23,0,0,1,263.385,128.6Z" transform="translate(-256.012 -119.955)" fill="#00a99c"/>
    </g>
  </g>
  <g id="Grupo_1975" data-name="Grupo 1975" transform="translate(14.167 12.5)">
    <g id="Grupo_1974" data-name="Grupo 1974">
      <path id="Trazado_2344" data-name="Trazado 2344" d="M144.333,120a.833.833,0,0,0-.833.833v7.155l-2.256,2.256a.833.833,0,0,0-.244.631l.729,14.583a1.135,1.135,0,0,1-.315.849,1.173,1.173,0,0,1-1.659.007l-.007-.007a1.135,1.135,0,0,1-.315-.849l.734-14.583a.833.833,0,0,0-.243-.631l-2.257-2.256v-7.155a.833.833,0,1,0-1.667,0v7.5a.833.833,0,0,0,.244.589l2.238,2.239-.711,14.216a2.815,2.815,0,1,0,5.623.274q.007-.137,0-.274l-.711-14.216,2.238-2.239a.833.833,0,0,0,.244-.589v-7.5A.833.833,0,0,0,144.333,120Z" transform="translate(-136 -120)" fill="#00a99c"/>
    </g>
  </g>
  <g id="Grupo_1977" data-name="Grupo 1977" transform="translate(16.667 12.5)">
    <g id="Grupo_1976" data-name="Grupo 1976">
      <path id="Trazado_2345" data-name="Trazado 2345" d="M160.833,120a.833.833,0,0,0-.833.833V127.5a.833.833,0,1,0,1.667,0v-6.667A.833.833,0,0,0,160.833,120Z" transform="translate(-160 -120)" fill="#00a99c"/>
    </g>
  </g>
  <g id="Grupo_1979" data-name="Grupo 1979" transform="translate(19.167 12.5)">
    <g id="Grupo_1978" data-name="Grupo 1978">
      <path id="Trazado_2346" data-name="Trazado 2346" d="M184.833,120a.833.833,0,0,0-.833.833V127.5a.833.833,0,1,0,1.667,0v-6.667A.833.833,0,0,0,184.833,120Z" transform="translate(-184 -120)" fill="#00a99c"/>
    </g>
  </g>
  <g id="Grupo_1981" data-name="Grupo 1981">
    <g id="Grupo_1980" data-name="Grupo 1980">
      <path id="Trazado_2347" data-name="Trazado 2347" d="M25,0A25,25,0,1,0,50,25,25,25,0,0,0,25,0Zm0,48.333A23.333,23.333,0,1,1,48.333,25,23.333,23.333,0,0,1,25,48.333Z" fill="#00a99c"/>
    </g>
  </g>
  <g id="Grupo_1983" data-name="Grupo 1983" transform="translate(22.303 39.89)">
    <g id="Grupo_1982" data-name="Grupo 1982">
      <path id="Trazado_2348" data-name="Trazado 2348" d="M219.514,383.7a.833.833,0,0,0-.91-.748l-.032,0h0a15.31,15.31,0,0,1-3.532,0,.834.834,0,1,0-.194,1.656,16.88,16.88,0,0,0,3.917,0A.833.833,0,0,0,219.514,383.7Z" transform="translate(-214.113 -382.949)" fill="#00a99c"/>
    </g>
  </g>
  <g id="Grupo_1985" data-name="Grupo 1985" transform="translate(35.343 13.964)">
    <g id="Grupo_1984" data-name="Grupo 1984">
      <path id="Trazado_2349" data-name="Trazado 2349" d="M341.7,134.351a.833.833,0,0,0-1.174-.1l0,0a.833.833,0,0,0-.1,1.174,15,15,0,0,1-.884,20.289.833.833,0,1,0,1.177,1.181A16.667,16.667,0,0,0,341.7,134.351Z" transform="translate(-339.295 -134.053)" fill="#00a99c"/>
    </g>
  </g>
  <g id="Grupo_1988" data-name="Grupo 1988" transform="translate(18.581 8.336)">
    <g id="Grupo_1987" data-name="Grupo 1987">
      <g id="Grupo_1986" data-name="Grupo 1986">
        <path id="Trazado_2350" data-name="Trazado 2350" d="M186.356,105.743h0Z" transform="translate(-185.522 -103.064)" fill="#00a99c"/>
        <path id="Trazado_2351" data-name="Trazado 2351" d="M188.731,80.49a16.814,16.814,0,0,0-9.809.6.833.833,0,1,0,.584,1.559,15.139,15.139,0,0,1,8.833-.542.833.833,0,1,0,.392-1.62Z" transform="translate(-178.382 -80.027)" fill="#00a99c"/>
      </g>
    </g>
  </g>
  <g id="Grupo_1990" data-name="Grupo 1990" transform="translate(8.332 14.843)">
    <g id="Grupo_1989" data-name="Grupo 1989">
      <path id="Trazado_2352" data-name="Trazado 2352" d="M86.031,163.229a15,15,0,0,1-1.507-19.407.833.833,0,0,0-1.332-1l-.014.02a16.667,16.667,0,0,0,1.673,21.568.835.835,0,1,0,1.181-1.18Z" transform="translate(-79.989 -142.488)" fill="#00a99c"/>
    </g>
  </g>
</svg>
