<svg xmlns="http://www.w3.org/2000/svg" width="49.64" height="49.64" viewBox="0 0 49.64 49.64">
  <g id="Grupo_2045" data-name="Grupo 2045" transform="translate(316.216 -207.445)">
    <g id="Grupo_1981" data-name="Grupo 1981" transform="translate(-316.216 207.445)">
      <g id="Grupo_1980" data-name="Grupo 1980">
        <path id="Trazado_2347" data-name="Trazado 2347" d="M-291.4,207.445a24.82,24.82,0,0,0-24.82,24.82,24.82,24.82,0,0,0,24.82,24.82,24.82,24.82,0,0,0,24.82-24.82h0A24.82,24.82,0,0,0-291.4,207.445Zm0,47.986a23.166,23.166,0,0,1-23.166-23.166A23.166,23.166,0,0,1-291.4,209.1a23.166,23.166,0,0,1,23.166,23.166h0A23.166,23.166,0,0,1-291.4,255.431Z" transform="translate(316.216 -207.445)" fill="#00a99c"/>
      </g>
    </g>
    <path id="Trazado_2356" data-name="Trazado 2356" d="M-291.37,252.411l6.806-6.806a.686.686,0,0,0,0-.969l-.138-.138,1.873-1.873a9.617,9.617,0,0,0,4.286,1.491,9.637,9.637,0,0,0,6.21-1.536.414.414,0,0,0,.118-.574.415.415,0,0,0-.574-.118,8.81,8.81,0,0,1-5.674,1.4,8.8,8.8,0,0,1-5.368-2.533,8.748,8.748,0,0,1-1.631-2.254h1.515a7.444,7.444,0,0,0,1.05,1.319,7.415,7.415,0,0,0,5.279,2.187,7.417,7.417,0,0,0,5.279-2.187,7.418,7.418,0,0,0,2.186-5.279,7.419,7.419,0,0,0-2.186-5.279,7.419,7.419,0,0,0-5.279-2.186,7.417,7.417,0,0,0-5.279,2.186,7.467,7.467,0,0,0-1.05,1.319h-1.514a8.742,8.742,0,0,1,1.63-2.253,8.8,8.8,0,0,1,12.426,0,8.729,8.729,0,0,1,2.574,6.184v.029a8.732,8.732,0,0,1-2.53,6.169.414.414,0,0,0,0,.587.415.415,0,0,0,.586,0A9.554,9.554,0,0,0-268,234.545v-.032a9.556,9.556,0,0,0-2.816-6.768,9.627,9.627,0,0,0-13.6,0,9.567,9.567,0,0,0-1.963,2.84h-1.167a.93.93,0,0,0-.765.4.93.93,0,0,0-.1.858l.162.423a.415.415,0,0,0,.535.24.415.415,0,0,0,.24-.536l-.162-.423a.094.094,0,0,1,.011-.092.1.1,0,0,1,.082-.043h5.164a5.668,5.668,0,0,0-.938,3.131,5.668,5.668,0,0,0,.938,3.13h-5.164a.1.1,0,0,1-.082-.043.094.094,0,0,1-.011-.092l1.019-2.665a.93.93,0,0,0,0-.663l-.178-.466a.415.415,0,0,0-.536-.239.414.414,0,0,0-.239.535l.178.466a.1.1,0,0,1,0,.071l-1.019,2.665a.924.924,0,0,0-.061.331.929.929,0,0,0,.163.527.928.928,0,0,0,.765.4h1.167a9.591,9.591,0,0,0,.688,1.263l-1.87,1.87-.137-.137a.681.681,0,0,0-.484-.2.679.679,0,0,0-.484.2l-6.807,6.806a2.893,2.893,0,0,0-.848,2.052,2.893,2.893,0,0,0,.848,2.052,2.906,2.906,0,0,0,4.1,0Zm8.428-21.827a6.682,6.682,0,0,1,.632-.733,6.593,6.593,0,0,1,4.693-1.944,6.592,6.592,0,0,1,4.693,1.944,6.591,6.591,0,0,1,1.944,4.693,6.59,6.59,0,0,1-1.944,4.692,6.592,6.592,0,0,1-4.693,1.944,6.593,6.593,0,0,1-4.693-1.944,6.688,6.688,0,0,1-.633-.733h1.225a5.687,5.687,0,0,0,4.1,1.743,5.709,5.709,0,0,0,5.7-5.7,5.71,5.71,0,0,0-5.7-5.7,5.687,5.687,0,0,0-4.1,1.743Zm.451,3.96a4.879,4.879,0,0,1,4.874-4.874,4.879,4.879,0,0,1,4.874,4.874,4.879,4.879,0,0,1-4.874,4.874,4.879,4.879,0,0,1-4.874-4.874Zm-4.484,7.68,1.772-1.772a9.6,9.6,0,0,0,.787.891,9.6,9.6,0,0,0,.9.795l-1.773,1.773-.89-.89Zm-7.913,9.6a2.076,2.076,0,0,1,0-2.932l6.7-6.7,2.931,2.932-6.7,6.7a2.075,2.075,0,0,1-2.931,0Z" transform="translate(-8.648 -7.603)" fill="#00a99c" stroke="#00a99c" stroke-width="0.6"/>
    <path id="Trazado_2357" data-name="Trazado 2357" d="M-298.5,246.153a15.638,15.638,0,0,1-1.58-6.873,15.7,15.7,0,0,1,15.7-15.7" transform="translate(-7.015 -7.015)" fill="none" stroke="#00a99c" stroke-linecap="round" stroke-linejoin="round" stroke-width="1.5"/>
    <path id="Trazado_2358" data-name="Trazado 2358" d="M-262.415,251.355a15.7,15.7,0,0,1-15.7,15.7,15.625,15.625,0,0,1-7.552-1.933" transform="translate(-13.281 -19.09)" fill="none" stroke="#00a99c" stroke-linecap="round" stroke-linejoin="round" stroke-width="1.5"/>
  </g>
</svg>
