<svg xmlns="http://www.w3.org/2000/svg" width="48.64" height="48.64" viewBox="0 0 48.64 48.64">
  <g id="Grupo_2046" data-name="Grupo 2046" transform="translate(499.511 -207.445)">
    <g id="Grupo_1981" data-name="Grupo 1981" transform="translate(-499.511 207.445)">
      <g id="Grupo_1980" data-name="Grupo 1980">
        <path id="Trazado_2347" data-name="Trazado 2347" d="M-475.191,207.445a24.32,24.32,0,0,0-24.32,24.32,24.32,24.32,0,0,0,24.32,24.32,24.321,24.321,0,0,0,24.32-24.32h0A24.32,24.32,0,0,0-475.191,207.445Zm0,47.019a22.7,22.7,0,0,1-22.7-22.7,22.7,22.7,0,0,1,22.7-22.7,22.7,22.7,0,0,1,22.7,22.7h0A22.7,22.7,0,0,1-475.191,254.464Z" transform="translate(499.511 -207.445)" fill="#00a99c"/>
      </g>
    </g>
    <path id="Trazado_2359" data-name="Trazado 2359" d="M-481.827,245.7a15.323,15.323,0,0,1-1.549-6.734,15.383,15.383,0,0,1,15.384-15.384" transform="translate(-7.198 -7.198)" fill="none" stroke="#00a99c" stroke-linecap="round" stroke-linejoin="round" stroke-width="1.5"/>
    <path id="Trazado_2360" data-name="Trazado 2360" d="M-446.179,251.355a15.383,15.383,0,0,1-15.383,15.383,15.312,15.312,0,0,1-7.4-1.894" transform="translate(-13.629 -19.59)" fill="none" stroke="#00a99c" stroke-linecap="round" stroke-linejoin="round" stroke-width="1.5"/>
    <path id="Trazado_2361" data-name="Trazado 2361" d="M-455.541,245.636c0,.8.017,1.6-.008,2.389a3.2,3.2,0,0,1-.174.973,2.448,2.448,0,0,1-2.263,1.6c-.73.011-1.461,0-2.192,0-.422,0-.6.185-.607.611,0,.317.006.634-.007.95a1.443,1.443,0,0,1-1.418,1.418q-2.57.026-5.139,0a1.474,1.474,0,0,1-1.443-1.457,8.637,8.637,0,0,0-1.134-4.3,14.951,14.951,0,0,0-1.541-2.092,8.834,8.834,0,0,1,.625-12.006,8.979,8.979,0,0,1,14.128,2.015,8.752,8.752,0,0,1,1.141,4.449,3.241,3.241,0,0,1,0,.487,1.487,1.487,0,0,0,.518,1.378,11.816,11.816,0,0,1,.976,1.118,1.471,1.471,0,0,1-.748,2.389A5.249,5.249,0,0,1-455.541,245.636Zm-9.248,6.96h2.362c.473,0,.648-.175.65-.644,0-.252,0-.5,0-.755a1.5,1.5,0,0,1,1.579-1.6c.722-.009,1.445.008,2.167-.008a1.463,1.463,0,0,0,1.444-1.149,2.434,2.434,0,0,0,.041-.532c0-.9,0-1.8,0-2.7a.524.524,0,0,1,.6-.6c.243,0,.487.007.73,0a.487.487,0,0,0,.415-.736,1.259,1.259,0,0,0-.158-.214c-.436-.514-.864-1.034-1.313-1.536a1.106,1.106,0,0,1-.28-.772,19.7,19.7,0,0,0-.117-2.548,7.983,7.983,0,0,0-9.443-6.5,8,8,0,0,0-6.386,7.766,7.136,7.136,0,0,0,1.69,4.877c.3.351.587.715.874,1.077a9.571,9.571,0,0,1,1.7,3.15,11.141,11.141,0,0,1,.433,2.78c.023.508.172.643.676.644Z" transform="translate(-11.593 -10.574)" fill="#00a99c" stroke="#00a99c" stroke-width="0.7"/>
  </g>
</svg>
