<svg xmlns="http://www.w3.org/2000/svg" width="98.708" height="82.034" viewBox="0 0 98.708 82.034">
  <g id="Grupo_1460" data-name="Grupo 1460" transform="translate(-738.852 -363.772)">
    <path id="Trazado_1874" data-name="Trazado 1874" d="M778.505,395.7c3.223-16.172,19.107-32.666,41.42-31.907,20.86.71,35.491,16.625,38.456,31.879-.771.2-.881.146-1.053-.511a39.84,39.84,0,0,0-18.342-24.738,38.087,38.087,0,0,0-14.675-5.265,40.1,40.1,0,0,0-44.543,29.216c-.062.227-.124.453-.179.682C779.4,395.84,779.4,395.84,778.505,395.7Z" transform="translate(-30.308)"/>
    <path id="Trazado_1875" data-name="Trazado 1875" d="M858.343,576.154c-2.921,14.687-16.4,29.886-35.895,31.724a40.973,40.973,0,0,1-44.005-31.652c.677-.288.921-.2,1.073.4a40.195,40.195,0,0,0,32.278,29.929,35.446,35.446,0,0,0,9.848.413c15.723-1.726,26.933-9.828,33.561-24.187a52.664,52.664,0,0,0,2.046-5.995C857.488,576.045,857.462,576.013,858.343,576.154Z" transform="translate(-30.261 -162.267)"/>
    <path id="Trazado_1876" data-name="Trazado 1876" d="M806.649,516.877l-1.593,2.44c-.139.214-.271.432-.414.643a1.292,1.292,0,0,1-2.365.012c-.568-.847-1.112-1.71-1.667-2.565-.106-.163-.215-.324-.392-.59-.021.266-.045.424-.045.582,0,1.629.009,3.258-.007,4.887a1.354,1.354,0,0,1-1.743,1.424,1.312,1.312,0,0,1-.959-1.33q-.019-4.681,0-9.361a1.359,1.359,0,0,1,1-1.372,1.6,1.6,0,0,1,1.911.668c.925,1.48,1.831,2.972,2.745,4.458.1.164.209.324.36.558.149-.217.272-.381.379-.554.906-1.468,1.8-2.942,2.715-4.407a1.626,1.626,0,0,1,2.1-.658,1.347,1.347,0,0,1,.833,1.362c0,3.061,0,6.123,0,9.185a1.367,1.367,0,1,1-2.721.037c-.022-1.589-.008-3.179-.009-4.769v-.617Z" transform="translate(-44.793 -112.961)"/>
    <path id="Trazado_1877" data-name="Trazado 1877" d="M871.586,414.645c-.835.185-.838.164-1.1-.638-3.522-10.887-10.59-18.429-21.31-22.479a31.811,31.811,0,0,0-9.994-1.937,34.212,34.212,0,0,0-34.363,24.624c-.2.666-.607.5-1.166.468a34.673,34.673,0,0,1,8.059-14.663,34.094,34.094,0,0,1,23.5-11.37C855.829,387.323,868.938,402.665,871.586,414.645Z" transform="translate(-49.532 -18.955)"/>
    <path id="Trazado_1878" data-name="Trazado 1878" d="M871.858,576.171c-2.82,12.1-14.483,24.585-30.814,25.932a35.1,35.1,0,0,1-37.038-25.909c.78-.258.874-.193,1.133.609,3.535,10.939,10.661,18.471,21.43,22.514a31.205,31.205,0,0,0,8.419,1.808,33.175,33.175,0,0,0,18.138-3.428,34,34,0,0,0,17.657-21.033C870.985,576.015,871.07,575.967,871.858,576.171Z" transform="translate(-49.8 -162.26)"/>
    <path id="Trazado_1879" data-name="Trazado 1879" d="M1122.623,519.7c.6.733,1.165,1.411,1.718,2.1.642.8.647,1.506.028,2.029a1.5,1.5,0,0,1-2.136-.341c-.723-.879-1.45-1.759-2.109-2.686a1.352,1.352,0,0,0-1.3-.578c-1.181.028-1.181.008-1.182,1.2,0,.412.006.825,0,1.237a1.379,1.379,0,1,1-2.749-.017c-.009-2.356,0-4.713,0-7.069,0-.707-.011-1.414,0-2.12a1.285,1.285,0,0,1,1.225-1.4,42.469,42.469,0,0,1,5.751.172,3.431,3.431,0,0,1,3.068,3.241,3.89,3.89,0,0,1-2.045,4.087Zm-4.946-1.942c1.029,0,2.005.024,2.98-.007a1.562,1.562,0,0,0,1.531-1.421,1.518,1.518,0,0,0-1.327-1.773c-1.043-.092-2.1-.021-3.184-.021Z" transform="translate(-287.418 -113.316)"/>
    <path id="Trazado_1880" data-name="Trazado 1880" d="M1067.793,519.082v2.351c.246.017.476.045.705.046,1.551.007,3.1-.006,4.654.017a1.2,1.2,0,0,1,1.191,1.09,1.242,1.242,0,0,1-.993,1.275,1.521,1.521,0,0,1-.348.051c-2.16,0-4.32.018-6.48,0a1.362,1.362,0,0,1-1.474-1.483q-.027-4.536,0-9.073a1.364,1.364,0,0,1,1.476-1.482c2.12-.025,4.242-.021,6.362,0a1.248,1.248,0,0,1,1.359,1.242,1.2,1.2,0,0,1-1.327,1.194c-1.511.034-3.024.033-4.536.011-.488-.008-.635.144-.63.636.016,1.669,0,1.664,1.65,1.672,1.021,0,2.042,0,3.06.058a1.163,1.163,0,0,1,1.025,1.119,1.185,1.185,0,0,1-.87,1.186,3.228,3.228,0,0,1-.813.092C1070.491,519.087,1069.177,519.082,1067.793,519.082Z" transform="translate(-249.315 -113.184)"/>
    <path id="Trazado_1881" data-name="Trazado 1881" d="M744.785,511.244a1.607,1.607,0,0,1,1.653,1.065q2.068,4.644,4.115,9.3a1.3,1.3,0,0,1-.575,1.8,1.346,1.346,0,0,1-1.811-.73c-.239-.493-.446-1-.647-1.512a.556.556,0,0,0-.6-.424c-1.452.021-2.9-.005-4.356.025a.777.777,0,0,0-.547.369c-.257.482-.431,1.007-.658,1.506a1.356,1.356,0,0,1-1.791.778,1.288,1.288,0,0,1-.565-1.8q2.051-4.651,4.117-9.3A1.635,1.635,0,0,1,744.785,511.244Zm1.521,7.058-1.558-3.7-1.55,3.7Z" transform="translate(0 -112.716)"/>
    <path id="Trazado_1882" data-name="Trazado 1882" d="M885.072,576.142a29.492,29.492,0,0,1-56.133.067c.73-.276.882-.192,1.158.508,3.927,9.947,11.027,16.285,21.558,18.366a28.4,28.4,0,0,0,32.275-18.47C884.165,575.959,884.554,576.061,885.072,576.142Z" transform="translate(-68.857 -162.262)"/>
    <path id="Trazado_1883" data-name="Trazado 1883" d="M884.792,432.893c-.642.209-.923,0-1.161-.6-3.863-9.818-10.866-16.1-21.231-18.284a28.435,28.435,0,0,0-32.577,18.412c-.236.656-.617.565-1.21.5A29.659,29.659,0,0,1,854.2,412.542C871.066,411.164,882.17,423.308,884.792,432.893Z" transform="translate(-68.608 -37.195)"/>
    <path id="Trazado_1884" data-name="Trazado 1884" d="M863.219,517.939c0-1.491,0-2.981,0-4.472a1.348,1.348,0,0,1,1.451-1.539c1.469-.009,2.942,0,4.406.1a3.878,3.878,0,0,1,3.489,2.8,4.181,4.181,0,0,1-1.353,4.557,5.8,5.8,0,0,1-3.614,1c-.372,0-.746.022-1.117,0-.424-.027-.608.113-.579.566.034.547.013,1.1.007,1.647a1.349,1.349,0,1,1-2.688-.013C863.213,521.037,863.219,519.488,863.219,517.939Zm2.725-.036c.874,0,1.7.052,2.508-.014a1.659,1.659,0,0,0,1.515-1.6,1.582,1.582,0,0,0-1.379-1.8,23.155,23.155,0,0,0-2.645-.021Z" transform="translate(-95.057 -113.239)"/>
    <path id="Trazado_1885" data-name="Trazado 1885" d="M991.78,514.39v2.42h2.234c.687,0,1.374-.006,2.06,0,.937.01,1.465.464,1.464,1.242s-.531,1.249-1.455,1.262c-1.275.017-2.551,0-3.827.007-.135,0-.271.021-.5.04,0,.195,0,.382,0,.568,0,.923.013,1.845-.005,2.767a1.347,1.347,0,0,1-2.667.233,3.1,3.1,0,0,1-.057-.642q-.005-4.328,0-8.655c0-1.248.506-1.757,1.744-1.76q2.973-.007,5.946,0a2.483,2.483,0,0,1,.809.114,1.146,1.146,0,0,1,.8,1.125,1.131,1.131,0,0,1-.822,1.162,2.767,2.767,0,0,1-.809.106c-1.413.01-2.826,0-4.239,0Z" transform="translate(-191.217 -113.198)"/>
    <path id="Trazado_1886" data-name="Trazado 1886" d="M898.588,451.113c-.587.183-.929.042-1.23-.57a22.54,22.54,0,0,0-16.811-12.927,22.9,22.9,0,0,0-24.827,12.93c-.33.721-.4.75-1.2.534,2.429-6.872,10.838-15.2,22.868-14.808C888.3,436.625,896.245,444.371,898.588,451.113Z" transform="translate(-88.408 -55.404)"/>
    <path id="Trazado_1887" data-name="Trazado 1887" d="M854.329,576.209c.845-.222.907-.179,1.254.519,3.558,7.158,9.208,11.628,17.12,12.965a22.78,22.78,0,0,0,24.545-13.042c.282-.615.667-.6,1.283-.476a22.7,22.7,0,0,1-4.561,7.139,23.428,23.428,0,0,1-14.372,7.48A23.856,23.856,0,0,1,854.329,576.209Z" transform="translate(-88.264 -162.283)"/>
    <path id="Trazado_1888" data-name="Trazado 1888" d="M917.07,521.16c1.5,0,2.911,0,4.319,0a3.292,3.292,0,0,1,.812.089,1.205,1.205,0,0,1,0,2.333,3.013,3.013,0,0,1-.754.087q-2.679.011-5.358,0c-1.289,0-1.759-.483-1.759-1.784q0-4.386,0-8.773c0-.962.533-1.578,1.356-1.581a1.41,1.41,0,0,1,1.382,1.575c.009,2.394,0,4.789,0,7.183C917.071,520.55,917.07,520.8,917.07,521.16Z" transform="translate(-134.123 -112.943)"/>
    <path id="Trazado_1889" data-name="Trazado 1889" d="M881.236,576.206a1.119,1.119,0,0,1,1.421.51,16.519,16.519,0,0,0,12.013,7.462c6.986.827,12.551-1.753,16.629-7.479a1.106,1.106,0,0,1,1.372-.5c-1.142,4.056-8.735,8.8-14.384,9.126A18.152,18.152,0,0,1,881.236,576.206Z" transform="translate(-108.83 -162.313)"/>
    <path id="Trazado_1890" data-name="Trazado 1890" d="M881.32,469.519a18.01,18.01,0,0,1,16.464-9.162c7.375.292,13.024,5.119,14.952,9.174a1.135,1.135,0,0,1-1.372-.524,16.489,16.489,0,0,0-12.055-7.5c-6.944-.809-12.516,1.763-16.583,7.472A1.133,1.133,0,0,1,881.32,469.519Z" transform="translate(-108.894 -73.813)"/>
    <path id="Trazado_1891" data-name="Trazado 1891" d="M962.375,517.641c0-1.512,0-3.023,0-4.534a1.388,1.388,0,1,1,2.751.006q.006,4.534,0,9.068a1.389,1.389,0,1,1-2.751-.006C962.371,520.664,962.375,519.152,962.375,517.641Z" transform="translate(-170.846 -112.938)"/>
    <path id="Trazado_1892" data-name="Trazado 1892" d="M1041.138,517.641c0,1.511,0,3.023,0,4.534a1.389,1.389,0,1,1-2.751.006q-.006-4.534,0-9.068a1.389,1.389,0,1,1,2.751-.007C1041.142,514.618,1041.138,516.129,1041.138,517.641Z" transform="translate(-228.944 -112.938)"/>
  </g>
</svg>
