<svg id="Grupo_1458" data-name="Grupo 1458" xmlns="http://www.w3.org/2000/svg" width="155.746" height="34.196" viewBox="0 0 155.746 34.196">
  <path id="Trazado_1802" data-name="Trazado 1802" d="M-2456.269,1811.962h-34.156v-34.2h21.263v.594c0,5.525.008,11.05-.006,16.575a9.3,9.3,0,0,1-.569,3.563,3.682,3.682,0,0,1-3.337,2.439c-2.7.207-4.109-.645-5.217-3.133l-.392-.88-5.6,1.513a10.336,10.336,0,0,0,8.624,8.182,12.541,12.541,0,0,0,5.749-.421c3.638-1.2,5.466-3.935,6.171-7.523a20.722,20.722,0,0,0,.353-3.836c.037-5.448.016-10.9.016-16.344v-.724h7.1Z" transform="translate(2490.425 -1777.766)"/>
  <path id="Trazado_1803" data-name="Trazado 1803" d="M-2226.668,1884.316a1.887,1.887,0,0,1-2.279-1.037c-1.213-2-2.634-3.876-3.973-5.8-.105-.151-.241-.282-.466-.541v7.37h-1.854v-10.36a12.749,12.749,0,0,1,1.32.015.834.834,0,0,1,.5.314q2.224,2.907,4.421,5.834a1.834,1.834,0,0,0,.461.492v-6.611h1.869Z" transform="translate(2291.214 -1852.843)"/>
  <path id="Trazado_1804" data-name="Trazado 1804" d="M-1984.363,1885.321c1.645-.494,4.21-.794,5.351.288a4.657,4.657,0,0,1,2.888-.707,2.406,2.406,0,0,1,2.4,2.273c.1,1.242.1,2.494.126,3.742.015.631,0,1.263,0,1.936h-1.832v-.6c0-1.347.019-2.694-.006-4.04-.029-1.567-.919-2.15-2.368-1.62-.381.139-.432.319-.424.709.038,1.838.017,3.678.017,5.555h-1.724v-1.828c0-.981.018-1.963-.005-2.943-.031-1.286-.665-1.815-1.93-1.647-.225.03-.449.077-.735.126v6.3h-1.756Z" transform="translate(2095.365 -1861.38)"/>
  <path id="Trazado_1805" data-name="Trazado 1805" d="M-2159.395,1803.33c-.647,0-1.26.019-1.87-.015a.561.561,0,0,1-.385-.307c-.254-.62-.491-1.249-.688-1.889a.494.494,0,0,0-.563-.422q-1.962.025-3.924,0a.476.476,0,0,0-.531.393c-.2.62-.442,1.226-.639,1.847-.087.276-.2.414-.518.4-.552-.026-1.107-.007-1.743-.007.619-1.675,1.18-3.3,1.82-4.9.792-1.973,1.656-3.917,2.474-5.881.129-.308.31-.376.633-.429a1.685,1.685,0,0,1,2.1,1.324c1.176,3.177,2.471,6.309,3.717,9.46A4.022,4.022,0,0,1-2159.395,1803.33Zm-7.306-4.308h3.7l-1.779-4.6-.149.006Z" transform="translate(2240.483 -1788.943)"/>
  <path id="Trazado_1806" data-name="Trazado 1806" d="M-2026.306,1884.219c-.616,0-1.155.026-1.689-.016a.633.633,0,0,1-.422-.346c-.23-.547-.417-1.112-.606-1.676a.514.514,0,0,0-.571-.427q-1.79.037-3.581,0a.511.511,0,0,0-.573.42c-.185.565-.363,1.134-.6,1.679a.688.688,0,0,1-.477.349c-.494.047-1,.017-1.592.017.288-.806.531-1.561.825-2.294,1.022-2.542,2.069-5.075,3.091-7.618a.773.773,0,0,1,.759-.521,1.5,1.5,0,0,1,1.846,1.174c1.092,2.948,2.29,5.856,3.445,8.781C-2026.4,1883.863-2026.372,1883.993-2026.306,1884.219Zm-5.011-8.308-.145,0-1.661,4.313h3.472Z" transform="translate(2135.998 -1852.704)"/>
  <path id="Trazado_1807" data-name="Trazado 1807" d="M-2217.025,1793.6a21.452,21.452,0,0,0-2.362-.475,3.275,3.275,0,0,0-3.7,3.285,9.281,9.281,0,0,0,.122,2.121,3.023,3.023,0,0,0,3.2,2.641,24.069,24.069,0,0,0,2.954-.428l.482,1.461a7,7,0,0,1-3.249.767c-3.461.118-5.574-1.94-5.666-5.515a6.058,6.058,0,0,1,1.34-4.352,5.609,5.609,0,0,1,5.678-1.656c.056.01.11.034.166.05C-2216.018,1792.074-2216.345,1791.917-2217.025,1793.6Z" transform="translate(2283.412 -1788.322)"/>
  <path id="Trazado_1808" data-name="Trazado 1808" d="M-2262.553,1800.632l.51,1.561c-1.79,1.057-5.841,1.315-7.605-.866a7.023,7.023,0,0,1,.176-8.392c1.908-2.1,5.458-1.978,7.311-.778l-.557,1.545c-1.962-.709-3.9-1.216-5.4.76a5.11,5.11,0,0,0,.072,5.5C-2266.5,1801.839-2264.553,1801.243-2262.553,1800.632Z" transform="translate(2319.093 -1788.33)"/>
  <path id="Trazado_1809" data-name="Trazado 1809" d="M-1850.7,1808.42c-.016,2.31-1.133,3.857-3.13,4.321a3.97,3.97,0,0,1-4.862-3.256,4.819,4.819,0,0,1,1.016-4.27,3.86,3.86,0,0,1,4.332-1.022,3.825,3.825,0,0,1,2.6,3.422C-1850.706,1807.88-1850.713,1808.152-1850.7,1808.42Zm-1.932-.121a9.884,9.884,0,0,0-.3-1.369,1.79,1.79,0,0,0-1.845-1.281,1.828,1.828,0,0,0-1.778,1.3,4.233,4.233,0,0,0-.071,2.661,1.859,1.859,0,0,0,1.964,1.519,1.905,1.905,0,0,0,1.846-1.6C-1852.726,1809.162-1852.7,1808.777-1852.632,1808.3Z" transform="translate(1997.343 -1798.193)"/>
  <path id="Trazado_1810" data-name="Trazado 1810" d="M-2040.414,1808.4a4.384,4.384,0,0,1-1.707,3.738,4.006,4.006,0,0,1-6.276-2.471,5.2,5.2,0,0,1,.321-3.436,3.846,3.846,0,0,1,3.882-2.241,3.881,3.881,0,0,1,3.613,3.1C-2040.492,1807.524-2040.468,1807.967-2040.414,1808.4Zm-1.924,0a11.326,11.326,0,0,0-.353-1.483,1.808,1.808,0,0,0-1.931-1.243,1.887,1.887,0,0,0-1.7,1.341,4.276,4.276,0,0,0-.008,2.775,1.823,1.823,0,0,0,1.791,1.368,1.8,1.8,0,0,0,1.879-1.315A12.9,12.9,0,0,0-2042.338,1808.406Z" transform="translate(2145.472 -1798.224)"/>
  <path id="Trazado_1811" data-name="Trazado 1811" d="M-2085.493,1872.062c.746-.034,1.4-.108,2.043-.082a2.446,2.446,0,0,1,2.574,2.177c.194,1.9.166,3.824.234,5.77h-1.895c0-1.443.006-2.861,0-4.279a4.906,4.906,0,0,0-.1-.969,1.3,1.3,0,0,0-1.328-1.2,1.943,1.943,0,0,0-.344-.009c-1.155.076-1.169.092-1.169,1.232v5.218h-1.752v-11.337l1.739-.284Z" transform="translate(2175.67 -1848.442)"/>
  <path id="Trazado_1812" data-name="Trazado 1812" d="M-1945.041,1807.556c.134-1.253-.414-1.89-1.663-1.9a8.5,8.5,0,0,0-1.093.045c-.358.043-.709.139-1.1.219l-.237-1.542a7.22,7.22,0,0,1,4.253-.118,2.359,2.359,0,0,1,1.685,2.261c.072,1.958.021,3.92.021,5.937a11.854,11.854,0,0,1-4.714.23,2.451,2.451,0,0,1-2.077-2.7,2.537,2.537,0,0,1,2.48-2.422C-1946.687,1807.5-1945.879,1807.556-1945.041,1807.556Zm.04,3.681c0-.6,0-1.129,0-1.662a.833.833,0,0,0-.012-.341c-.058-.116-.181-.281-.279-.283a9.8,9.8,0,0,0-1.823.047,1.054,1.054,0,0,0-.9,1.159,1.073,1.073,0,0,0,1.016,1.066C-1946.363,1811.285-1945.714,1811.237-1945,1811.237Z" transform="translate(2068.517 -1798.234)"/>
  <path id="Trazado_1813" data-name="Trazado 1813" d="M-1805.306,1812.783h-1.945v-4.458c0-2.152-.673-2.713-2.811-2.341l-.314.052v6.735h-1.91v-8.095a10.972,10.972,0,0,1,4.386-.375,2.911,2.911,0,0,1,2.579,3.118C-1805.253,1809.185-1805.306,1810.956-1805.306,1812.783Z" transform="translate(1961.033 -1798.424)"/>
  <path id="Trazado_1814" data-name="Trazado 1814" d="M-1920,1889.176h-5.117a1.781,1.781,0,0,0,1.763,1.985,7.153,7.153,0,0,0,1.32-.008,11.722,11.722,0,0,0,1.257-.269c.032.144.068.268.085.395.157,1.2.152,1.26-1.053,1.357a8.981,8.981,0,0,1-2.676-.063c-2-.458-2.723-2.1-2.673-4.092a3.877,3.877,0,0,1,1.713-3.4c2.462-1.58,5.245,0,5.379,3.035C-1919.987,1888.438-1920,1888.764-1920,1889.176Zm-1.878-1.346a1.538,1.538,0,0,0-1.52-1.8,1.675,1.675,0,0,0-1.732,1.8Z" transform="translate(2050.66 -1861.054)"/>
  <path id="Trazado_1815" data-name="Trazado 1815" d="M-2183.161,1892.912c-2.534.035-4.025-2.137-3.742-4.693a3.629,3.629,0,0,1,2.7-3.427,3.659,3.659,0,0,1,4.744,3.272,6.847,6.847,0,0,1-.118,2.051A3.454,3.454,0,0,1-2183.161,1892.912Zm1.986-4.067-.061-.017c-.017-.268-.017-.539-.055-.8a2,2,0,0,0-1.608-1.8,1.738,1.738,0,0,0-1.9,1.092,3.672,3.672,0,0,0,.042,3.018,1.635,1.635,0,0,0,1.6,1.018,1.628,1.628,0,0,0,1.623-1.069A9.8,9.8,0,0,0-2181.175,1888.845Z" transform="translate(2253.506 -1861.196)"/>
  <path id="Trazado_1816" data-name="Trazado 1816" d="M-1808.593,1885.039a7.075,7.075,0,0,1,3.666-.188,2.363,2.363,0,0,1,1.9,2.433c.057,1.746.014,3.5.014,5.273a11.918,11.918,0,0,1-4.295.263,2.28,2.28,0,0,1-2.04-2.609,2.317,2.317,0,0,1,2.309-2.2c.738-.066,1.486-.012,2.239-.012a1.351,1.351,0,0,0-1.3-1.75,6.745,6.745,0,0,0-1.149.012c-.359.035-.711.131-1.129.213Zm3.865,5.368a2.833,2.833,0,0,0-.014-.688c-.042-.162-.2-.41-.321-.416a6.956,6.956,0,0,0-1.651.055.925.925,0,0,0-.823,1.119,1.012,1.012,0,0,0,1.02.974,6.892,6.892,0,0,0,.749.01C-1804.495,1891.462-1804.754,1891.49-1804.728,1890.407Z" transform="translate(1958.74 -1861.231)"/>
  <path id="Trazado_1817" data-name="Trazado 1817" d="M-2116.141,1810.928c.94.116,1.825.234,2.712.329a.939.939,0,0,0,.558-.088c.238-.148.585-.363.6-.57a1.084,1.084,0,0,0-.375-.858,11.766,11.766,0,0,0-1.709-.8,2.817,2.817,0,0,1-1.8-1.584,2.369,2.369,0,0,1,1.625-3.138,6.489,6.489,0,0,1,3.844.184c-.112.522-.219,1.019-.316,1.475-.7-.1-1.356-.218-2.018-.279a1.909,1.909,0,0,0-.786.134.749.749,0,0,0-.212,1.361,4.512,4.512,0,0,0,.914.473c.472.21.968.372,1.429.6a2.36,2.36,0,0,1,1.374,2.761,2.337,2.337,0,0,1-2.015,1.8,7.69,7.69,0,0,1-3.7-.19c-.385-.117-.437-.3-.355-.623C-2116.279,1811.571-2116.206,1811.216-2116.141,1810.928Z" transform="translate(2198.441 -1798.246)"/>
  <path id="Trazado_1818" data-name="Trazado 1818" d="M-2076.91,1804.438l-.324,1.469c-.676-.1-1.313-.217-1.956-.284a1.258,1.258,0,0,0-.725.117c-.251.147-.587.4-.6.628a1.048,1.048,0,0,0,.418.833c.661.377,1.4.617,2.086.953a2.314,2.314,0,0,1,1.489,2.742,1.961,1.961,0,0,1-1.306,1.629,6.7,6.7,0,0,1-4.564-.014.518.518,0,0,1-.209-.438,11.156,11.156,0,0,1,.238-1.119c.925.116,1.808.237,2.7.329a1.073,1.073,0,0,0,.614-.1c.226-.131.54-.341.559-.542a1.116,1.116,0,0,0-.32-.837,4.533,4.533,0,0,0-1.109-.589c-.365-.168-.75-.292-1.111-.468a2.316,2.316,0,0,1-1.462-2.546,2.474,2.474,0,0,1,2.118-2.064A7.079,7.079,0,0,1-2076.91,1804.438Z" transform="translate(2172.061 -1798.273)"/>
  <path id="Trazado_1819" data-name="Trazado 1819" d="M-1906.315,1795.97h2.99v1.569h-2.879a1.343,1.343,0,0,0-.088.307c0,1.1-.034,2.193.005,3.287.058,1.584.8,2.1,2.355,1.689.218-.058.438-.107.689-.168.106.5.2.967.312,1.485a4.515,4.515,0,0,1-4.049.021,2.794,2.794,0,0,1-1.214-2.7c-.037-2.441-.007-4.883-.018-7.324,0-.318.119-.447.421-.484.474-.059.944-.143,1.476-.226Z" transform="translate(2035.919 -1789.99)"/>
  <path id="Trazado_1820" data-name="Trazado 1820" d="M-2309.28,1802.994c.23-.506.451-.991.689-1.516.162.075.291.142.426.2a9.014,9.014,0,0,0,1.175.459,1.89,1.89,0,0,0,2.59-2.007c.01-2.31,0-4.62,0-6.93v-.667h2.063v.589c0,2.214.009,4.427-.006,6.641a8.7,8.7,0,0,1-.14,1.549,2.953,2.953,0,0,1-2.452,2.5A5.335,5.335,0,0,1-2309.28,1802.994Z" transform="translate(2349.014 -1789.291)"/>
  <path id="Trazado_1821" data-name="Trazado 1821" d="M-1998.354,1805.994c-1.274-.333-2.52-.662-3.493.53a3.571,3.571,0,0,0-.085,3.72c1.009,1.432,2.44.9,3.86.69l.246,1.477a4.327,4.327,0,0,1-6.531-4.111,4.1,4.1,0,0,1,2.962-4.127,5.154,5.154,0,0,1,3.113.17.532.532,0,0,1,.252.445A10.342,10.342,0,0,1-1998.354,1805.994Z" transform="translate(2110.976 -1798.251)"/>
  <path id="Trazado_1822" data-name="Trazado 1822" d="M-2111.824,1883.487c-.044-.051-.024-.038-.02-.022.361,1.5.611,1.4-1.04,1.686a4.907,4.907,0,0,1-1.821-.087,2.159,2.159,0,0,1-1.688-2.211c-.049-2.557-.015-5.116-.015-7.75l1.724-.3v2.333h2.791v1.532h-2.663c0,1.424-.04,2.781.021,4.133a.884.884,0,0,0,.957.828C-2113.01,1883.62-2112.443,1883.541-2111.824,1883.487Z" transform="translate(2198.457 -1853.519)"/>
  <path id="Trazado_1823" data-name="Trazado 1823" d="M-2303.266,1897.338a3.241,3.241,0,0,1-3.244-3.5,3.244,3.244,0,0,1,3.2-3.533,3.239,3.239,0,0,1,3.247,3.5A3.243,3.243,0,0,1-2303.266,1897.338Zm-1.734-3.517a10.063,10.063,0,0,0,.37,1.336,1.354,1.354,0,0,0,1.33.843,1.38,1.38,0,0,0,1.349-.818,3.062,3.062,0,0,0,0-2.726,1.382,1.382,0,0,0-1.351-.812,1.365,1.365,0,0,0-1.332.841A9.389,9.389,0,0,0-2305,1893.821Z" transform="translate(2346.851 -1865.622)"/>
  <path id="Trazado_1824" data-name="Trazado 1824" d="M-1835.45,1891.146a9.946,9.946,0,0,1,.183,1.166.508.508,0,0,1-.3.377,5.688,5.688,0,0,1-3.126.093,3.76,3.76,0,0,1-2.624-4.115,3.837,3.837,0,0,1,2.759-3.819,4.73,4.73,0,0,1,2.884.141.526.526,0,0,1,.255.434,8.17,8.17,0,0,1-.289,1.094c-1.264-.305-2.6-.672-3.384.745a3.011,3.011,0,0,0,.133,3.334C-1838.046,1891.841-1836.723,1891.322-1835.45,1891.146Z" transform="translate(1983.701 -1861.233)"/>
  <path id="Trazado_1825" data-name="Trazado 1825" d="M-2268.383,1880.87h-2.411v5.323h-1.53v-.739c0-2,.043-4-.01-6-.073-2.728,1.659-3.477,3.936-2.942.091.022.181.047.343.09-.094.419-.184.816-.273,1.216-2.264-.555-2.532.462-2.426,1.749h2.372Z" transform="translate(2320.172 -1854.724)"/>
  <path id="Trazado_1826" data-name="Trazado 1826" d="M-2139.33,1886.531c-.8,0-1.5.008-2.2,0-.422-.006-.494.222-.491.587.013,1.71.006,3.421.005,5.131v.656h-1.752c-.014-.147-.039-.294-.04-.442,0-2.191.008-4.382-.011-6.573a.511.511,0,0,1,.438-.592,8.357,8.357,0,0,1,3.809-.251c.429.08.564.229.434.646C-2139.231,1886-2139.282,1886.32-2139.33,1886.531Z" transform="translate(2219.844 -1861.42)"/>
  <path id="Trazado_1827" data-name="Trazado 1827" d="M-1881.117,1885.187l-.284,1.336c-.759,0-1.458,0-2.158,0-.448,0-.573.2-.566.643.025,1.691.01,3.382.01,5.073v.66h-1.745c-.011-.2-.031-.381-.031-.566,0-2.114.013-4.228-.013-6.341-.006-.46.163-.615.58-.727A7.682,7.682,0,0,1-1881.117,1885.187Z" transform="translate(2018.503 -1861.422)"/>
  <path id="Trazado_1828" data-name="Trazado 1828" d="M-1876.561,1805.059h1.818v8.368h-1.818Z" transform="translate(2011.209 -1799.072)"/>
  <path id="Trazado_1829" data-name="Trazado 1829" d="M-1967.144,1805.061h1.86v8.365h-1.86Z" transform="translate(2081.923 -1799.074)"/>
  <path id="Trazado_1830" data-name="Trazado 1830" d="M-1857.968,1885.64h1.707v7.824h-1.707Z" transform="translate(1996.695 -1861.978)"/>
  <path id="Trazado_1831" data-name="Trazado 1831" d="M-1968.4,1789.324a1.142,1.142,0,0,1,1.2-1.183,1.183,1.183,0,0,1,1.169,1.236,1.16,1.16,0,0,1-1.222,1.172A1.111,1.111,0,0,1-1968.4,1789.324Z" transform="translate(2082.901 -1785.865)"/>
  <path id="Trazado_1832" data-name="Trazado 1832" d="M-1877.937,1789.37a1.156,1.156,0,0,1,1.165-1.229,1.194,1.194,0,0,1,1.222,1.189,1.171,1.171,0,0,1-1.181,1.219A1.144,1.144,0,0,1-1877.937,1789.37Z" transform="translate(2012.284 -1785.865)"/>
  <path id="Trazado_1833" data-name="Trazado 1833" d="M-1856.944,1871.1a1.154,1.154,0,0,1-1.166,1.106,1.133,1.133,0,0,1-1.079-1.127,1.093,1.093,0,0,1,1.127-1.121A1.116,1.116,0,0,1-1856.944,1871.1Z" transform="translate(1997.648 -1849.735)"/>
</svg>
