<svg xmlns="http://www.w3.org/2000/svg" width="142.737" height="37.764" viewBox="0 0 142.737 37.764">
  <g id="Grupo_1459" data-name="Grupo 1459" transform="translate(-434 -4583)">
    <g id="Grupo_1459-2" data-name="Grupo 1459" transform="translate(434 4583)">
      <path id="Trazado_1834" data-name="Trazado 1834" d="M116.784,177.688a1.276,1.276,0,0,0-1.333-1.234,1.308,1.308,0,0,0-1.234,1.234v.074A1.276,1.276,0,0,0,115.55,179a1.308,1.308,0,0,0,1.234-1.234Zm-1.283,1.876a1.823,1.823,0,0,1-1.9-1.752v-.148a1.891,1.891,0,0,1,3.776,0v.123a1.817,1.817,0,0,1-1.851,1.777H115.5" transform="translate(-91.09 -142.343)"/>
      <path id="Trazado_1835" data-name="Trazado 1835" d="M135.013,179.806l-2.123-2.271-.2-.247v2.518H132.1V176.4h.568l2.049,2.271.2.247V176.4h.617v3.406Z" transform="translate(-105.024 -142.734)"/>
      <path id="Trazado_1836" data-name="Trazado 1836" d="M149.8,179.806V176.4h2.937v.543h-2.32v.864h1.8v.518h-1.8v.963h2.32v.518Z" transform="translate(-118.355 -142.734)"/>
      <path id="Trazado_1837" data-name="Trazado 1837" d="M171.707,179.954a2.111,2.111,0,0,1-1.407-.518l.3-.444a1.833,1.833,0,0,0,1.061.42c.518,0,.74-.247.74-.666V176.4h.617v2.37a1.19,1.19,0,0,1-1.308,1.185" transform="translate(-133.795 -142.734)"/>
      <path id="Trazado_1838" data-name="Trazado 1838" d="M184.9,179.806V176.4h2.937v.543h-2.32v.864h1.777v.518h-1.777v.963h2.32v.518Z" transform="translate(-144.791 -142.734)"/>
      <path id="Trazado_1839" data-name="Trazado 1839" d="M203.016,179.806H202.5l-1.086-2.592-1.086,2.592h-.518L198.4,176.4h.666l1.012,2.666,1.111-2.666h.469l1.135,2.666,1.037-2.666h.642Z" transform="translate(-154.959 -142.734)"/>
      <rect id="Rectángulo_236" data-name="Rectángulo 236" width="0.617" height="3.406" transform="translate(50.031 33.666)"/>
      <path id="Trazado_1840" data-name="Trazado 1840" d="M232.352,179.728a3.626,3.626,0,0,1-1.752-.444l.222-.494a3.217,3.217,0,0,0,1.58.42c.691,0,1.012-.247,1.012-.494,0-.815-2.715-.271-2.715-1.506,0-.642.642-1.111,1.678-1.111a2.921,2.921,0,0,1,1.6.494l-.321.42a2.381,2.381,0,0,0-1.283-.395c-.642,0-1.037.222-1.037.518,0,.74,2.715.247,2.715,1.53-.049.642-.74,1.061-1.7,1.061" transform="translate(-179.212 -142.508)"/>
      <path id="Trazado_1841" data-name="Trazado 1841" d="M250.238,179.806V178.35h-2.221v1.456H247.4V176.4h.617v1.456h2.221V176.4h.617v3.406Z" transform="translate(-191.865 -142.734)"/>
      <path id="Trazado_1842" data-name="Trazado 1842" d="M274.916,179.806h-.543l-1.061-2.592-1.086,2.592h-.543L270.3,176.4h.666l1.012,2.666,1.086-2.666h.494l1.135,2.666,1.037-2.666h.642Z" transform="translate(-209.113 -142.734)"/>
      <path id="Trazado_1843" data-name="Trazado 1843" d="M299.459,177.762a1.276,1.276,0,0,0-1.333-1.234,1.308,1.308,0,0,0-1.234,1.234v.074a1.276,1.276,0,0,0,1.333,1.234,1.308,1.308,0,0,0,1.234-1.234Zm-1.284,1.876a1.787,1.787,0,0,1-1.876-1.752v-.148a1.893,1.893,0,0,1,3.776,0v.123a1.817,1.817,0,0,1-1.851,1.777h-.049" transform="translate(-228.696 -142.418)"/>
      <path id="Trazado_1844" data-name="Trazado 1844" d="M317.092,177.512c0-.247-.2-.494-.716-.494h-1.234v1.012h1.308c.444,0,.666-.222.666-.494Zm.222,2.369c-.173,0-.247-.247-.247-.543l-.025-.346c-.025-.346-.148-.469-.765-.469h-1.16v1.382H314.5V176.5h1.777c.963,0,1.407.395,1.407.938,0,.37-.173.716-.815.839.617.049.765.346.765.74v.271a.7.7,0,0,0,.2.568v.025Z" transform="translate(-242.403 -142.809)"/>
      <path id="Trazado_1845" data-name="Trazado 1845" d="M331,179.806V176.4h.617v2.888h2.542v.518Z" transform="translate(-254.831 -142.734)"/>
      <path id="Trazado_1846" data-name="Trazado 1846" d="M349.337,178.078a1.146,1.146,0,0,0-1.283-1.135h-1.037v2.345h1.037a1.146,1.146,0,0,0,1.283-1.135Zm-1.283,1.728H346.4V176.4h1.654a1.7,1.7,0,0,1,1.876,1.654v.123a1.712,1.712,0,0,1-1.876,1.629" transform="translate(-266.43 -142.734)"/>
      <path id="Trazado_1847" data-name="Trazado 1847" d="M362.9,189.159v-.173c.247,0,.42-.2.42-.518h-.247V187.9h.568v.494a.691.691,0,0,1-.642.74.148.148,0,0,0-.1.025" transform="translate(-278.857 -151.395)"/>
      <rect id="Rectángulo_237" data-name="Rectángulo 237" width="0.617" height="3.406" transform="translate(87.326 33.666)"/>
      <path id="Trazado_1848" data-name="Trazado 1848" d="M385.412,179.806l-2.1-2.271-.2-.247v2.518H382.5V176.4h.592l2.024,2.271.222.247V176.4h.592v3.406Z" transform="translate(-293.62 -142.734)"/>
      <path id="Trazado_1849" data-name="Trazado 1849" d="M401.524,176.943v2.863h-.617v-2.863H399.5V176.4h3.431v.543Z" transform="translate(-306.424 -142.734)"/>
      <path id="Trazado_1850" data-name="Trazado 1850" d="M416.5,179.806V176.4h2.937v.543h-2.345v.864h1.8v.518h-1.8v.963h2.345v.518Z" transform="translate(-319.228 -142.734)"/>
      <path id="Trazado_1851" data-name="Trazado 1851" d="M434.067,177.512c0-.247-.2-.494-.716-.494h-1.234v1.012H433.4c.444,0,.666-.222.666-.494v-.025Zm.222,2.369c-.173,0-.247-.247-.247-.543l-.025-.346c-.025-.346-.148-.469-.765-.469h-1.135v1.382H431.5V176.5h1.752c.963,0,1.407.395,1.407.938,0,.37-.173.716-.815.839.617.049.765.346.765.74v.271a.677.677,0,0,0,.2.568v.025Z" transform="translate(-330.525 -142.809)"/>
      <path id="Trazado_1852" data-name="Trazado 1852" d="M450.458,176.986a1.836,1.836,0,0,0-1.283-.543,1.288,1.288,0,0,0-1.358,1.185v.148a1.272,1.272,0,0,0,1.407,1.234,1.737,1.737,0,0,0,1.259-.543l.37.395a2.351,2.351,0,0,1-1.678.691A1.82,1.82,0,0,1,447.2,177.8v-.123a1.891,1.891,0,0,1,2-1.777,2.336,2.336,0,0,1,1.654.691Z" transform="translate(-342.35 -142.357)"/>
      <path id="Trazado_1853" data-name="Trazado 1853" d="M467.259,177.762a1.276,1.276,0,0,0-1.333-1.234,1.308,1.308,0,0,0-1.234,1.234v.074a1.276,1.276,0,0,0,1.333,1.234,1.308,1.308,0,0,0,1.234-1.234Zm-1.283,1.876a1.787,1.787,0,0,1-1.876-1.752v-.148a1.893,1.893,0,0,1,3.776,0v.123a1.817,1.817,0,0,1-1.851,1.777h-.049" transform="translate(-355.079 -142.418)"/>
      <path id="Trazado_1854" data-name="Trazado 1854" d="M485.313,179.806l-2.1-2.271-.2-.247v2.518H482.4V176.4h.592l2.024,2.271.222.247V176.4h.617v3.406Z" transform="translate(-368.862 -142.734)"/>
      <path id="Trazado_1855" data-name="Trazado 1855" d="M503.113,179.806l-2.1-2.271-.2-.247v2.518H500.2V176.4h.592l2.024,2.271.222.247V176.4h.617v3.406Z" transform="translate(-382.269 -142.734)"/>
      <path id="Trazado_1856" data-name="Trazado 1856" d="M518,179.806V176.4h2.937v.543h-2.32v.864h1.777v.518h-1.777v.963h2.32v.518Z" transform="translate(-395.675 -142.734)"/>
      <path id="Trazado_1857" data-name="Trazado 1857" d="M535.483,176.986a1.849,1.849,0,0,0-1.308-.543,1.288,1.288,0,0,0-1.357,1.185v.148a1.272,1.272,0,0,0,1.407,1.234,1.737,1.737,0,0,0,1.259-.543l.37.395a2.351,2.351,0,0,1-1.678.691A1.82,1.82,0,0,1,532.2,177.8v-.123a1.891,1.891,0,0,1,2-1.777,2.336,2.336,0,0,1,1.654.691Z" transform="translate(-406.37 -142.357)"/>
      <path id="Trazado_1858" data-name="Trazado 1858" d="M551.124,176.943v2.863h-.617v-2.863H549.1V176.4h3.431v.543Z" transform="translate(-419.099 -142.734)"/>
      <path id="Trazado_1859" data-name="Trazado 1859" d="M566.1,179.806V176.4h2.937v.543h-2.32v.864h1.777v.518h-1.777v.963h2.32v.518Z" transform="translate(-431.903 -142.734)"/>
      <path id="Trazado_1860" data-name="Trazado 1860" d="M584.112,178.078a1.146,1.146,0,0,0-1.283-1.135h-1.037v2.345h1.037a1.146,1.146,0,0,0,1.283-1.135Zm-1.259,1.728H581.2V176.4h1.654a1.715,1.715,0,0,1,1.876,1.654v.123a1.712,1.712,0,0,1-1.876,1.629" transform="translate(-443.276 -142.734)"/>
      <rect id="Rectángulo_238" data-name="Rectángulo 238" width="0.568" height="0.568" transform="translate(142.169 36.505)"/>
      <path id="Trazado_1861" data-name="Trazado 1861" d="M120.447,81.517c.346-2.1,1.481-3.455,3.159-3.455,1.752,0,2.937,1.358,3.159,3.455Zm3.135-8.417c-5.381,0-9.182,4.418-9.182,10v.074c0,5.948,4.048,9.947,9.749,9.947a9.313,9.313,0,0,0,7.9-3.9l-3.53-3.085a5.328,5.328,0,0,1-4.048,1.95,3.822,3.822,0,0,1-3.949-3.159h12.193c.025-.469.025-.963.025-1.382.025-5.6-2.863-10.441-9.157-10.441" transform="translate(-91.692 -64.93)"/>
      <path id="Trazado_1862" data-name="Trazado 1862" d="M203.547,73.1a6.724,6.724,0,0,0-5.455,3.11V73.52H191.7V92.648h6.393V82.282c0-2.1,1.135-3.209,2.69-3.209,1.506,0,2.567,1.135,2.567,3.209V92.648h6.393V80.134c0-4.344-2.345-7.034-6.2-7.034" transform="translate(-149.913 -64.93)"/>
      <path id="Trazado_1863" data-name="Trazado 1863" d="M301.6,60.038h-5.06l-2.468,9.675-2.838-9.749h-5.282l-2.789,9.7-2.394-9.626h-9.256V55.2h-6.393v4.838H263l.889,5.405h1.259v7.775c0,4.566,2.3,6.319,6.121,6.319a8.973,8.973,0,0,0,4.443-1.086V73.169a5.52,5.52,0,0,1-2.419.642c-1.185,0-1.752-.568-1.752-1.9V65.468h4.542l4,13.871h5.479l3.036-9.947,2.962,9.947h5.529L301.6,63.888v15.3H308V60.038Z" transform="translate(-203.615 -51.448)"/>
      <path id="Trazado_1864" data-name="Trazado 1864" d="M460.647,73.1a6.724,6.724,0,0,0-5.455,3.11V73.52H448.8V92.648h6.393V82.282c0-2.1,1.135-3.209,2.69-3.209s2.567,1.135,2.567,3.209V92.648h6.393V80.134c0-4.344-2.32-7.034-6.2-7.034" transform="translate(-343.555 -64.93)"/>
      <path id="Trazado_1865" data-name="Trazado 1865" d="M530.147,81.517c.346-2.1,1.481-3.455,3.159-3.455,1.752,0,2.937,1.333,3.159,3.455Zm12.316,2.049c0-5.628-2.888-10.465-9.182-10.465-5.381,0-9.182,4.418-9.182,10v.074c0,5.948,4.048,9.922,9.749,9.922a9.313,9.313,0,0,0,7.9-3.9l-3.53-3.085a5.328,5.328,0,0,1-4.048,1.95,3.822,3.822,0,0,1-3.949-3.159h12.193a12.027,12.027,0,0,0,.049-1.333" transform="translate(-400.27 -64.93)"/>
      <path id="Trazado_1866" data-name="Trazado 1866" d="M425.717,43.357A3.212,3.212,0,1,1,422.509,40a3.284,3.284,0,0,1,3.209,3.357" transform="translate(-321.336 -40)"/>
      <rect id="Rectángulo_239" data-name="Rectángulo 239" width="4.566" height="1.135" transform="translate(6.664 22.93)"/>
      <rect id="Rectángulo_240" data-name="Rectángulo 240" width="6.763" height="1.135" transform="translate(5.553 24.732)"/>
      <rect id="Rectángulo_241" data-name="Rectángulo 241" width="10.07" height="1.135" transform="translate(3.9 26.558)"/>
      <path id="Trazado_1867" data-name="Trazado 1867" d="M39.237,97.3v.074a7.693,7.693,0,0,1-15.278,0l-.025-.074H22.7l.025.1a9.154,9.154,0,0,0,8.861,8.046A9.154,9.154,0,0,0,40.446,97.4v-.1Z" transform="translate(-22.626 -83.157)"/>
      <path id="Trazado_1868" data-name="Trazado 1868" d="M56.364,54.523,56.29,54.4l-.074.123a6.179,6.179,0,0,0-.716,2.715c0,1.086.3,1.728.79,1.728s.79-.642.79-1.728a6.179,6.179,0,0,0-.716-2.715" transform="translate(-47.33 -50.846)"/>
      <path id="Trazado_1869" data-name="Trazado 1869" d="M23.239,75.623l-.074-.123-.049.123a6.093,6.093,0,0,0-.716,2.715c0,1.086.3,1.728.79,1.728s.79-.642.79-1.728a5.892,5.892,0,0,0-.74-2.715" transform="translate(-22.4 -66.738)"/>
      <path id="Trazado_1870" data-name="Trazado 1870" d="M89.464,75.523,89.39,75.4l-.074.123a6.179,6.179,0,0,0-.716,2.715c0,1.086.3,1.728.79,1.728s.79-.642.79-1.728a6.179,6.179,0,0,0-.716-2.715" transform="translate(-72.26 -66.663)"/>
      <path id="Trazado_1871" data-name="Trazado 1871" d="M52.609,79.011h.321c.79,0,.913.321.913,1.481v2.69c0,1.358-.148,1.678-.815,1.678h-.42Zm.543-1.111H51.4v8.046h1.58c1.777,0,2.049-.815,2.049-2.74V80.862c.025-2.2-.074-2.962-1.876-2.962" transform="translate(-44.242 -68.545)"/>
      <path id="Trazado_1872" data-name="Trazado 1872" d="M72.506,80.094V79.23a1.406,1.406,0,0,0-1.58-1.53c-1.234,0-1.826.716-1.826,2.172v3.974c0,1.382.568,2.049,1.826,2.049,1.086,0,1.6-.494,1.6-1.555v-.963H71.4v.642c0,.568-.173.839-.543.839-.2,0-.518,0-.518-.987v-3.9c0-.987.123-1.259.568-1.259.222,0,.518.074.518.716v.642Z" transform="translate(-57.573 -68.395)"/>
      <path id="Trazado_1873" data-name="Trazado 1873" d="M36.521,77.9v6.072c0,.913-.271.987-.518.987-.37,0-.543-.3-.543-.839v-.642H34.3v.963c0,1.037.518,1.555,1.6,1.555,1.234,0,1.826-.642,1.826-2.049V77.9Z" transform="translate(-31.363 -68.545)"/>
    </g>
  </g>
</svg>
