<svg xmlns="http://www.w3.org/2000/svg" width="134.106" height="70.699" viewBox="0 0 134.106 70.699">
  <g id="Grupo_1452" data-name="Grupo 1452" transform="translate(-1164 -4715)">
    <g id="Grupo_1452-2" data-name="Grupo 1452" transform="translate(1164 4715)">
      <path id="Trazado_1618" data-name="Trazado 1618" d="M699.846,1343.512a7.281,7.281,0,0,0-7.716,5.815,25.3,25.3,0,0,0-.6,6.036c.015,4.89,0,9.781.013,14.671a3.605,3.605,0,0,1-.378,1.606,1.281,1.281,0,0,1-.578.617,2.44,2.44,0,0,1-3.413-.969,2.1,2.1,0,0,1-.291-.985,11.079,11.079,0,0,1-.052-2.182c.074-.361-.131-.729-.112-1.113.26-5.276.126-10.555.108-15.833a25.71,25.71,0,0,0-.2-3.725,10.669,10.669,0,0,1-.073-1.168c-.045-1.192-.5-1.655-1.707-1.76a4.322,4.322,0,0,1-1.237-.231,1.882,1.882,0,0,1-1.089-2.264,1.672,1.672,0,0,1,1.692-1.4,11.843,11.843,0,0,1,2.47.177,3.774,3.774,0,0,0,1.563-.067,4.615,4.615,0,0,1,1.164-.115,1.223,1.223,0,0,1,1.245.965,5.534,5.534,0,0,1,.157,1.832c-.021.149-.131.356.079.439.185.073.3-.1.4-.231a12.991,12.991,0,0,1,2.941-2.644,9.078,9.078,0,0,1,4.226-1.432,12.468,12.468,0,0,1,5.481.5,9.041,9.041,0,0,1,4.87,3.682,15.868,15.868,0,0,1,2.08,4.905,19.293,19.293,0,0,1,.318,4.926c-.009,3.566-.016,7.132.006,10.7.011,1.8.1,3.6.128,5.4.008.583-.069,1.168-.1,1.752-.034.653-.61,1.01-1.353.9a25.9,25.9,0,0,1-2.768-.369,5.977,5.977,0,0,0-2.784.358,4.583,4.583,0,0,1-2.045.134,1.284,1.284,0,0,1-1-1.031,4.279,4.279,0,0,1-.091-.624,6.7,6.7,0,0,1,.222-1.915,1.47,1.47,0,0,1,1.511-1.114c.676-.018,1.354.017,2.029-.011a1.209,1.209,0,0,0,1.207-1.251c.04-1,.042-2.012.11-3.015.253-3.741.123-7.487.08-11.228a14.149,14.149,0,0,0-.931-5.652,4.785,4.785,0,0,0-3.216-2.795A6.964,6.964,0,0,0,699.846,1343.512Z" transform="translate(-641.627 -1334.388)" fill="#030303"/>
      <path id="Trazado_1619" data-name="Trazado 1619" d="M843.6,1358.138c0-2.362.03-4.725-.012-7.087a10.278,10.278,0,0,0-.673-3.617,5.936,5.936,0,0,0-3.923-3.537,8.194,8.194,0,0,0-6.678.591,6.559,6.559,0,0,0-2.181,2.242c-.151.225-.3.452-.469.661-.231.282-.422.245-.549-.1a1.977,1.977,0,0,1-.1-.439,4.393,4.393,0,0,0-.923-2.173c-.775-1.009-.743-1.175.186-2.045a11.105,11.105,0,0,1,3.67-2.406,12.818,12.818,0,0,1,2.985-.667,14.9,14.9,0,0,1,4.8.177,10.763,10.763,0,0,1,6.845,4.085,9.055,9.055,0,0,1,1.65,4.656c.527,5.732.2,11.478.289,17.217.007.48.04.961.083,1.44a1.048,1.048,0,0,0,.995.939c.463.031.931-.005,1.4-.019a1.164,1.164,0,0,1,1.3.822,5.693,5.693,0,0,1,.251.724,1.643,1.643,0,0,1-1.186,2.251,4.512,4.512,0,0,1-2.515.182,14.112,14.112,0,0,0-5.114.012,9.065,9.065,0,0,1-2.6.122c-.954-.115-1.593-.534-1.565-1.663a4.451,4.451,0,0,1,.2-1.463,1.723,1.723,0,0,1,1.956-1.3c.285.015.572.029.857.016a.845.845,0,0,0,.88-.837,27,27,0,0,0,.17-3.554c-.008-1.746,0-3.491,0-5.237Z" transform="translate(-759.395 -1334.389)" fill="#030303"/>
      <path id="Trazado_1620" data-name="Trazado 1620" d="M962.811,1312.581a6.641,6.641,0,0,1,4.82,1.487,4.365,4.365,0,0,1,1.583,3.214,4.607,4.607,0,0,1-1.619,3.931,5.775,5.775,0,0,1-1.934,1.035c-1.4.494-2.81.972-4.2,1.5a5.761,5.761,0,0,0-2.924,2.01c-.165.242-.486.6-.329.762.23.232.46-.192.7-.314a3.976,3.976,0,0,1,4.144.229c.573.356,1.1.78,1.652,1.177a4.908,4.908,0,0,0,1.6.8,1.528,1.528,0,0,0,1.94-1.436c.012-.4-.139-.5-.508-.336a1.07,1.07,0,0,1-1.472-.453,1.278,1.278,0,0,1,.42-1.6,2.051,2.051,0,0,1,3.16,1.586,4.034,4.034,0,0,1-.77,3.07,3.349,3.349,0,0,1-2.619,1.373,3.422,3.422,0,0,1-1.467-.39,23.613,23.613,0,0,1-2.77-1.767,3.941,3.941,0,0,0-3-.647,2.2,2.2,0,0,0-.779.436c-.178.127-.179.258.058.354.738.3.911.617.71,1.258a1.385,1.385,0,0,1-1.491.742,2.294,2.294,0,0,1-1.644-2.057,5.5,5.5,0,0,1,2.39-5.263,13.115,13.115,0,0,1,3.932-1.864,10.734,10.734,0,0,0,3.5-1.491,3.1,3.1,0,0,0-.076-4.784,4.988,4.988,0,0,0-3.78-.766,5.214,5.214,0,0,0-1.909.625,3.191,3.191,0,0,0-1.143,1.3c-.142.261-.051.4.229.5a1.333,1.333,0,0,1,1.056,1.364,1.888,1.888,0,0,1-1.607,1.472,2.037,2.037,0,0,1-2.087-2.045,4.471,4.471,0,0,1,2.336-3.948A7.827,7.827,0,0,1,962.811,1312.581Z" transform="translate(-863.7 -1312.565)" fill="#030303"/>
      <path id="Trazado_1621" data-name="Trazado 1621" d="M484.8,1674.119h19c.19,0,.442-.051.433.245-.01.329-.291.24-.484.237-11.764-.151-23.529-.028-35.293-.064-.862,0-1.724.04-2.586.063-.221.006-.488,0-.485-.268,0-.319.312-.208.5-.208q9.457-.008,18.914,0Z" transform="translate(-465.393 -1606.07)" fill="#030303"/>
      <path id="Trazado_1622" data-name="Trazado 1622" d="M990.739,1674.1q9.456,0,18.912.006c.2,0,.534-.124.536.215,0,.3-.306.266-.531.263-11.192-.158-22.384-.027-33.576-.064a29.059,29.059,0,0,0-3.334.057,6.822,6.822,0,0,0-1.026,0c-.2.052-.429-.014-.437-.263-.009-.275.24-.211.408-.211q9.434,0,18.867.007h.181Z" transform="translate(-876.082 -1606.054)" fill="#030303"/>
      <path id="Trazado_1623" data-name="Trazado 1623" d="M475.416,1602.131c.677,0,1.355.01,2.032,0,.32-.007.481.087.455.436-.021.284,0,.572,0,.857,0,.261-.15.374-.4.387s-.44-.082-.435-.34c.008-.5-.241-.6-.683-.576a7.115,7.115,0,0,1-1.53-.032c-.267-.046-.287.149-.3.339-.022.4.021.809-.035,1.216-.039.282.194.333.425.333.557,0,1.114,0,1.671-.01.277-.006.416.072.4.384-.012.281-.1.416-.4.4-.57-.022-1.143,0-1.712-.046-.25-.019-.344.064-.347.28q-.012.857,0,1.715c0,.266.133.341.413.318a7.538,7.538,0,0,1,1.573-.019c.435.055.557-.136.574-.476.015-.3.068-.48.433-.467.4.014.362.272.362.53a5.744,5.744,0,0,0,.01.586c.054.507.008.568-.511.568q-2.009,0-4.018,0c-.2,0-.448.054-.5-.251s.182-.327.391-.376a.411.411,0,0,0,.34-.459c0-1.4,0-2.8,0-4.2,0-.276-.1-.464-.4-.5-.191-.026-.361-.093-.334-.337.032-.286.253-.249.446-.249.692,0,1.385,0,2.077,0Z" transform="translate(-471.478 -1547.635)" fill="#030303"/>
      <path id="Trazado_1624" data-name="Trazado 1624" d="M824.911,1609.744c.24,0,.481-.007.721,0a.309.309,0,0,1,.273.206.2.2,0,0,1-.082.277c-.664.257-.582.924-.75,1.423-.3.891-.5,1.814-.734,2.728-.067.267-.235.315-.469.3s-.454-.065-.5-.346c-.164-.921-.578-1.765-.814-2.663-.032-.121-.052-.307-.218-.287s-.08.2-.112.305c-.272.888-.55,1.774-.807,2.667-.087.3-.273.352-.543.321s-.354-.176-.42-.434c-.308-1.2-.651-2.4-.979-3.6-.054-.2-.219-.273-.371-.369a.309.309,0,0,1-.153-.385c.056-.16.2-.164.335-.164l1.173,0c.164,0,.305.038.339.224a.312.312,0,0,1-.168.379c-.292.135-.313.341-.229.633.146.5.243,1.02.365,1.53.029.122,0,.306.186.313s.225-.164.268-.31c.234-.789.475-1.577.7-2.368.069-.243.175-.393.454-.411a.441.441,0,0,1,.494.362c.251.832.49,1.668.739,2.5.04.135.011.355.191.365.218.013.215-.226.246-.372a15.526,15.526,0,0,1,.377-1.574c.09-.281.1-.571-.264-.713a.311.311,0,0,1-.217-.393c.056-.183.237-.153.384-.157.2-.005.391,0,.586,0Z" transform="translate(-752.398 -1553.799)" fill="#030303"/>
      <path id="Trazado_1625" data-name="Trazado 1625" d="M944.43,1602.112c.692,0,1.384.01,2.075,0,.287-.006.42.089.408.387s-.007.6,0,.9c.007.249-.061.406-.352.4-.266-.008-.509-.053-.493-.379.022-.453-.184-.568-.6-.538a13.85,13.85,0,0,1-1.443,0c-.334-.011-.464.131-.449.457a6.622,6.622,0,0,1-.006.9c-.034.362.13.5.465.493.526-.007,1.053,0,1.578-.029.254-.015.417.014.419.309,0,.269.01.518-.388.5-.541-.023-1.083,0-1.624-.015-.3-.006-.481.1-.437.414a10.086,10.086,0,0,1-.011,1.386c0,.3.118.443.427.438.556-.008,1.113,0,1.67,0,.309,0,.486-.144.48-.463s.159-.465.473-.452c.344.014.3.271.3.493.022,1.189.021,1.187-1.158,1.185-1.083,0-2.166,0-3.249,0a1.3,1.3,0,0,1-.4-.039.3.3,0,0,1-.2-.321.225.225,0,0,1,.227-.234c.5-.023.573-.361.562-.753-.031-1.1.064-2.193-.053-3.289-.019-.174.058-.358.048-.534-.018-.3-.049-.612-.479-.627a.3.3,0,0,1-.3-.371c.031-.226.221-.209.387-.209h2.121Z" transform="translate(-852.242 -1547.62)" fill="#030303"/>
      <path id="Trazado_1626" data-name="Trazado 1626" d="M900.35,1603.758c0,.361.012.722,0,1.082a.433.433,0,0,0,.429.519c.233.021.383.1.358.354-.027.268-.232.266-.438.264-.526-.005-1.052,0-1.578,0-.221,0-.4-.068-.427-.306s.142-.286.341-.31c.4-.048.467-.353.444-.666a27.737,27.737,0,0,1-.007-3.733,6.2,6.2,0,0,0-.058-.941c-.023-.25-.2-.344-.422-.4-.187-.049-.342-.151-.291-.381s.236-.2.4-.2a5.906,5.906,0,0,0,.9-.034c.285-.043.484.108.43.418a12.085,12.085,0,0,1-.064,1.6.3.3,0,0,0,.058.338c.125.094.253.02.374-.053a1.671,1.671,0,0,1,2.614,1.54c.025.66.013,1.323,0,1.984-.007.28.054.466.359.515.231.038.412.153.361.42-.046.245-.265.2-.44.2q-.789,0-1.579,0c-.2,0-.41.017-.443-.261s.137-.323.359-.341a.459.459,0,0,0,.451-.516c0-.722.02-1.444-.009-2.165-.026-.631-.4-.911-1.1-.882a.923.923,0,0,0-1.008.959c0,.331,0,.661,0,.992Z" transform="translate(-817.146 -1545.096)" fill="#030303"/>
      <path id="Trazado_1627" data-name="Trazado 1627" d="M976.942,1602.238c0,.872.007,1.745,0,2.617,0,.273.05.459.355.529a.42.42,0,0,1,.372.486c-.043.312-.3.238-.5.245-.24.008-.481,0-.722,0-.122,0-.275.006-.318-.12-.157-.457-.365-.269-.609-.08a1.75,1.75,0,0,1-2.181-.429c-.648-.81-.558-3.149.189-3.814a1.625,1.625,0,0,1,2.016-.291c.42.235.46.21.46-.283,0-.211-.011-.422,0-.631.022-.4-.1-.679-.532-.749-.188-.03-.308-.131-.267-.34s.2-.193.354-.2h.045c1.345-.043,1.345-.043,1.344,1.3q0,.88,0,1.76Zm-.875,1.478c0-.319.007-.575,0-.83a1.086,1.086,0,0,0-2.043-.456,2.87,2.87,0,0,0-.138,2.271,1.115,1.115,0,0,0,1.837.419C976.2,1604.7,976.029,1604.158,976.067,1603.716Z" transform="translate(-877.399 -1545.236)" fill="#030303"/>
      <path id="Trazado_1628" data-name="Trazado 1628" d="M532.249,1616.389c-.286,0-.572.006-.858,0a.331.331,0,0,1-.35-.289c-.034-.23.146-.291.312-.3.409-.016.489-.258.487-.6q-.011-2.1,0-4.2c0-.331-.079-.549-.464-.575-.261-.017-.336-.24-.325-.463s.206-.244.372-.222c.432.057.942-.214,1.268.323.074.121.248.027.364-.054a1.747,1.747,0,0,1,2.618,1.039,3.534,3.534,0,0,1-.089,2.672,1.7,1.7,0,0,1-2.486.706c-.321-.2-.4-.1-.391.216,0,.21.01.422,0,.632-.015.3.088.49.415.526.2.021.346.118.312.355-.031.219-.195.241-.37.241h-.813Zm.461-4.192h0a7.089,7.089,0,0,1-.005.81.814.814,0,0,0,.609.925,1.256,1.256,0,0,0,1.355-.345,2.653,2.653,0,0,0-.008-2.69,1.169,1.169,0,0,0-1.32-.429.936.936,0,0,0-.629,1.011Q532.71,1611.837,532.71,1612.2Z" transform="translate(-518.684 -1553.794)" fill="#030303"/>
      <path id="Trazado_1629" data-name="Trazado 1629" d="M651.129,1612.44c0-.376.009-.752,0-1.128-.015-.54-.293-.79-.869-.8-.713-.011-1.136.26-1.151.788-.023.781,0,1.564-.011,2.345,0,.3.189.389.427.425.216.033.328.136.3.361s-.182.251-.36.25c-.572,0-1.143-.006-1.714,0a.334.334,0,0,1-.377-.309c-.019-.21.155-.271.331-.286.382-.032.515-.283.518-.616.008-.842,0-1.684-.006-2.526,0-.227-.065-.4-.339-.447s-.5-.187-.459-.511.336-.226.542-.239c.225-.015.451-.006.677-.007.177,0,.328.03.366.246.056.319.238.238.427.125a1.956,1.956,0,0,1,.849-.376,1.6,1.6,0,0,1,1.759,1.87c-.033.614-.027,1.231-.039,1.846a.545.545,0,0,0,.507.627c.222.03.323.14.294.363s-.192.241-.368.242q-.812,0-1.624,0c-.224,0-.386-.094-.4-.333s.16-.257.334-.275c.306-.032.392-.229.389-.5-.005-.376,0-.752,0-1.128Z" transform="translate(-613.126 -1553.804)" fill="#030303"/>
      <path id="Trazado_1630" data-name="Trazado 1630" d="M1146.654,1612.385c0,.286.015.572,0,.857-.029.44-.008.82.569.868a.255.255,0,0,1,.227.292.3.3,0,0,1-.308.273c-.6.007-1.2.006-1.8,0a.31.31,0,0,1-.317-.318c-.012-.184.14-.258.3-.275.4-.042.473-.3.469-.637-.008-.646,0-1.293,0-1.939-.008-.714-.307-1-1.022-.994a.963.963,0,0,0-1.072,1.04c0,.661.009,1.323-.007,1.984-.008.31.107.487.414.533.21.032.407.107.364.359s-.255.258-.462.256c-.511,0-1.022,0-1.533,0-.232,0-.433-.06-.453-.328s.2-.25.375-.277c.326-.049.442-.247.437-.57q-.019-1.24,0-2.48c.005-.315-.081-.519-.414-.587-.244-.05-.427-.2-.4-.467.038-.312.31-.217.5-.227.24-.013.481-.006.721-.006.139,0,.294.005.335.166.1.408.3.31.553.138a1.585,1.585,0,0,1,2.418.644,4.1,4.1,0,0,1,.113,1.428c0,.09,0,.18,0,.27Z" transform="translate(-1014.678 -1553.805)" fill="#030303"/>
      <path id="Trazado_1631" data-name="Trazado 1631" d="M479.4,1566.667q6.751,0,13.5,0c.214,0,.558-.066.539.23-.017.273-.357.237-.595.221-.179-.012-.358-.043-.537-.043q-12.892,0-25.784,0a3.385,3.385,0,0,0-.628.047c-.212.039-.485.008-.5-.247-.013-.288.276-.206.453-.207Q472.623,1566.664,479.4,1566.667Z" transform="translate(-465.396 -1518.843)" fill="#030303"/>
      <path id="Trazado_1632" data-name="Trazado 1632" d="M506.983,1609.781c.211,0,.421,0,.632,0,.16,0,.308.03.342.22a.308.308,0,0,1-.171.377c-.7.309-1,1.01-1.485,1.532a.388.388,0,0,0-.058.531,14.519,14.519,0,0,0,1.054,1.4,1.019,1.019,0,0,0,.495.3.278.278,0,0,1,.232.334.29.29,0,0,1-.292.239c-.481.006-.962,0-1.443,0a.246.246,0,0,1-.263-.2c-.03-.14-.021-.284.121-.356.314-.158.21-.337.05-.535-.6-.74-.582-.73-1.18,0-.187.23-.263.38.014.573a.3.3,0,0,1,.105.364c-.057.16-.2.162-.337.161q-.654,0-1.308,0c-.177,0-.331-.034-.365-.25s.123-.26.276-.343a4.808,4.808,0,0,0,1.609-1.821c.079-.121-.007-.262-.108-.365-.521-.527-.8-1.279-1.525-1.62a.288.288,0,0,1-.152-.345c.041-.164.172-.193.315-.194l1.263-.008c.14,0,.28.007.339.162a.3.3,0,0,1-.138.39c-.28.156-.192.293-.033.491.578.721.565.722,1.193.034.182-.2.292-.35-.032-.509a.311.311,0,0,1-.188-.371c.049-.193.21-.187.362-.188C506.532,1609.78,506.758,1609.781,506.983,1609.781Z" transform="translate(-496.021 -1553.844)" fill="#030303"/>
      <path id="Trazado_1633" data-name="Trazado 1633" d="M1004.349,1611.869c0,.541.006,1.083,0,1.625,0,.266.055.472.344.556a.369.369,0,0,1,.278.452c-.038.25-.238.231-.419.231q-.361,0-.722,0c-.124,0-.272-.013-.305-.144-.105-.412-.292-.3-.539-.125a1.579,1.579,0,0,1-2.474-1.075,13.472,13.472,0,0,1-.07-2.2.758.758,0,0,0-.385-.791.33.33,0,0,1-.164-.423c.054-.187.22-.179.371-.177,1.328.01,1.1-.15,1.106,1.033.005.722,0,1.444,0,2.166.006.619.224.941.642.978.826.073,1.4-.23,1.45-.854.056-.733.023-1.473.01-2.209a.493.493,0,0,0-.4-.483c-.226-.058-.344-.186-.295-.422s.259-.207.435-.21c1.131-.02,1.131-.02,1.139,1.132,0,.316,0,.632,0,.948Z" transform="translate(-899.291 -1553.852)" fill="#030303"/>
      <path id="Trazado_1634" data-name="Trazado 1634" d="M716.423,1612.435a7.02,7.02,0,0,1-.054,1.222c-.056.219.113.324.247.442a.359.359,0,0,1,.152.394c-.058.187-.217.18-.37.18-.18,0-.361-.006-.541,0s-.315-.045-.341-.221c-.067-.452-.242-.273-.455-.1a1.591,1.591,0,0,1-2.518-.751,1.552,1.552,0,0,1,.886-1.635,4.966,4.966,0,0,1,1.485-.2c.189-.031.474.079.55-.192a.905.905,0,0,0-.205-.844,1.22,1.22,0,0,0-1.735.259c-.107.246-.309.262-.527.235a.333.333,0,0,1-.311-.373c0-.213-.018-.445.164-.586a2.731,2.731,0,0,1,2.636-.342,1.719,1.719,0,0,1,.939,1.626C716.42,1611.814,716.423,1612.085,716.423,1612.435Zm-1.689,0a1.214,1.214,0,0,0-1.206.454.7.7,0,0,0,.349,1.061,1.52,1.52,0,0,0,1.28-.279.846.846,0,0,0,.358-.982C715.38,1612.291,715.01,1612.472,714.734,1612.435Z" transform="translate(-666.01 -1553.791)" fill="#030303"/>
      <path id="Trazado_1635" data-name="Trazado 1635" d="M1060.426,1612.536a6.3,6.3,0,0,1-.052,1.143c-.055.219.117.323.247.443a.359.359,0,0,1,.152.393c-.06.186-.22.177-.372.177-.2,0-.391,0-.586,0-.091,0-.218,0-.242-.086-.2-.71-.509-.2-.755-.063a1.677,1.677,0,0,1-2.092-.5,1.377,1.377,0,0,1,.329-1.855,1.616,1.616,0,0,1,1.243-.4,1.589,1.589,0,0,0,.582-.025c.243-.044.587.093.612-.338a.876.876,0,0,0-.566-.883,2.919,2.919,0,0,0-1.031.012c-.144.028-.309.09-.334.264-.039.281-.159.448-.465.426-.169-.012-.365-.024-.392-.224-.036-.276-.092-.575.18-.792a2.348,2.348,0,0,1,1.071-.445c1.353-.227,2.435.273,2.469,1.87C1060.431,1611.925,1060.426,1612.2,1060.426,1612.536Zm-1.667-.148a3.107,3.107,0,0,0-.45,0,1.174,1.174,0,0,0-.933.7.653.653,0,0,0,.17.7.831.831,0,0,0,.99.213c.422-.159.909-.371.99-.856C1059.614,1612.628,1059.658,1612.32,1058.759,1612.388Z" transform="translate(-945.264 -1553.811)" fill="#030303"/>
      <path id="Trazado_1636" data-name="Trazado 1636" d="M879.955,1669.491c.315.029.588-.122.663-.6a8.848,8.848,0,0,1,.336-1.356c.1-.292.043-.453-.242-.562-.166-.063-.363-.161-.292-.381.078-.246.292-.211.492-.149.144.045.287.09.432.128a.463.463,0,0,1,.359.654c-.244.805-.451,1.62-.638,2.44-.069.3-.347.36-.6.391-.686.084-1.378.121-2.06.231-.37.06-.579-.077-.629-.393-.115-.728-.261-1.448-.416-2.168a.489.489,0,0,1,.031-.307c.131-.251.055-.388-.194-.484-.155-.061-.328-.154-.248-.362.072-.187.245-.193.422-.146.16.042.324.067.484.11.439.12.542.353.287.724a.762.762,0,0,0-.135.636,7,7,0,0,1,.223,1.378.326.326,0,0,0,.279.358c.211.025.274-.135.318-.308q.244-.961.5-1.919c.07-.264-.092-.353-.295-.413s-.4-.176-.349-.4c.069-.28.322-.2.529-.154.1.021.208.032.311.054.433.091.565.277.466.7a12.979,12.979,0,0,1-.49,1.824C879.363,1669.367,879.473,1669.5,879.955,1669.491Z" transform="translate(-799.486 -1599.81)" fill="#030303"/>
      <path id="Trazado_1637" data-name="Trazado 1637" d="M715.649,1669.479c.357.046.582-.152.666-.589.1-.5.237-.993.375-1.484.074-.265-.086-.347-.275-.432s-.395-.178-.29-.424.322-.163.513-.108c.159.045.321.084.476.141a.449.449,0,0,1,.3.612c-.221.811-.446,1.622-.647,2.438-.075.3-.3.365-.536.4-.759.1-1.522.178-2.282.267a.42.42,0,0,1-.472-.383,15.06,15.06,0,0,1-.387-2.306c-.018-.362.075-.643-.353-.781-.1-.031-.124-.169-.078-.279a.257.257,0,0,1,.3-.15,4.006,4.006,0,0,1,.745.173c.293.113.4.373.19.613a.949.949,0,0,0-.14.929,5.167,5.167,0,0,1,.185,1.109c0,.2.06.374.28.4.24.029.289-.172.332-.349.152-.612.292-1.228.451-1.838a.329.329,0,0,0-.277-.463c-.2-.053-.4-.158-.331-.4.073-.255.3-.184.5-.143.1.022.208.034.311.054.461.089.6.272.49.724-.145.6-.315,1.188-.487,1.778C715.092,1669.358,715.186,1669.5,715.649,1669.479Z" transform="translate(-666.107 -1599.802)" fill="#030303"/>
      <path id="Trazado_1638" data-name="Trazado 1638" d="M624.917,1612.332a11.966,11.966,0,0,1-1.351-.057c-.341-.06-.448.1-.381.451a1.392,1.392,0,0,0,2.275.859c.262-.2.424-.062.563.127.165.223.049.407-.155.523a2.319,2.319,0,0,1-3.5-1.091,2.736,2.736,0,0,1,1.409-3.417,1.832,1.832,0,0,1,2.279,1.019,3.255,3.255,0,0,1,.266,1.131c-.005.343-.143.46-.456.456S625.233,1612.332,624.917,1612.332Zm-.677-.767v0c.226,0,.451.005.677,0,.417-.011.53-.189.373-.579a.951.951,0,0,0-1.08-.614,1.133,1.133,0,0,0-.952.784c-.048.238-.008.423.3.409C623.788,1611.556,624.014,1611.564,624.24,1611.564Z" transform="translate(-592.692 -1553.728)" fill="#030303"/>
      <path id="Trazado_1639" data-name="Trazado 1639" d="M795.55,1612.292h-.316c-.813,0-.873.084-.584.839a1.351,1.351,0,0,0,2.109.548c.142-.081.26-.27.466-.073a.376.376,0,0,1-.069.666,2.254,2.254,0,0,1-3.471-1.262,2.662,2.662,0,0,1,.7-2.812,1.792,1.792,0,0,1,1.922-.421,1.832,1.832,0,0,1,1.253,1.618c.109.95.06,1-.887.956-.374-.019-.748-.052-1.122-.079Zm.154-1.826a.982.982,0,0,0-1.012.538.344.344,0,0,0-.034.42.348.348,0,0,0,.394.14,2.941,2.941,0,0,1,1.117,0c.384.065.582-.16.437-.526A.777.777,0,0,0,795.7,1610.466Z" transform="translate(-731.797 -1553.75)" fill="#030303"/>
      <path id="Trazado_1640" data-name="Trazado 1640" d="M562.94,1612.26c-.2,0-.323,0-.443,0-.651-.006-.738.136-.459.749a1.3,1.3,0,0,0,2.15.578c.281-.2.422-.06.548.13a.331.331,0,0,1-.149.525,2.476,2.476,0,0,1-2.484.083,1.9,1.9,0,0,1-.906-1.075c-.467-1.507-.2-2.886,1.375-3.52a1.827,1.827,0,0,1,2.39,1.487c.215,1.038.166,1.115-.89,1.106A10.361,10.361,0,0,0,562.94,1612.26Zm.086-.639v0c.24,0,.48.011.718,0,.376-.021.493-.222.352-.576a1.078,1.078,0,0,0-1.055-.746,1.383,1.383,0,0,0-1.078.83c-.093.3-.031.506.344.495C562.546,1611.615,562.786,1611.621,563.025,1611.621Z" transform="translate(-542.998 -1553.72)" fill="#030303"/>
      <path id="Trazado_1641" data-name="Trazado 1641" d="M877.607,1614.647c-.484.111-.907-.175-1.363-.31a.362.362,0,0,1-.274-.411c.008-.12-.012-.243,0-.361.03-.215-.121-.528.247-.582.328-.047.434.206.518.459a.658.658,0,0,0,.628.5c.427-.006.921.125,1.221-.352.254-.4-.037-.871-.614-1.008a4.159,4.159,0,0,1-1.467-.525,1.158,1.158,0,0,1,.009-1.987,2.41,2.41,0,0,1,2.605.012,1.171,1.171,0,0,1,.3,1.184.264.264,0,0,1-.268.128.476.476,0,0,1-.459-.368.655.655,0,0,0-.453-.515,1.675,1.675,0,0,0-1.171.106.48.48,0,0,0-.232.543.583.583,0,0,0,.434.523c.446.135.9.241,1.343.384a1.236,1.236,0,0,1,.074,2.417A2.038,2.038,0,0,1,877.607,1614.647Z" transform="translate(-798.688 -1553.78)" fill="#030303"/>
      <path id="Trazado_1642" data-name="Trazado 1642" d="M768.607,1605.079c0-.556-.013-1.113,0-1.668a.6.6,0,0,0-.445-.687.33.33,0,0,1-.275-.4c.043-.227.233-.193.4-.194.541,0,1.082,0,1.623-.01.185,0,.329.037.353.254a.292.292,0,0,1-.246.364c-.4.091-.492.357-.484.74.021,1.052-.029,2.106.018,3.156a1.827,1.827,0,0,1-1.895,1.883,1.985,1.985,0,0,1-1.888-.9.946.946,0,0,1-.167-.595c.015-.209-.071-.475.3-.471.287,0,.518-.008.579.381.1.673.47.88,1.3.81a.909.909,0,0,0,.823-1c0-.556,0-1.112,0-1.669Z" transform="translate(-709.106 -1547.631)" fill="#030303"/>
      <path id="Trazado_1643" data-name="Trazado 1643" d="M1120.361,1612.207a2.149,2.149,0,0,1-1.424,2.312,1.945,1.945,0,0,1-2.3-.669,2.862,2.862,0,0,1-.2-3.11,2.112,2.112,0,0,1,2.294-1.054,2.38,2.38,0,0,1,1.622,2.025C1120.371,1611.876,1120.361,1612.042,1120.361,1612.207Zm-.86-.036h-.014c0-.18.01-.361,0-.541a1.284,1.284,0,0,0-1.023-1.254c-.738-.083-1.108.177-1.383.921a2.74,2.74,0,0,0-.1,1.334c.106.8.559,1.27,1.154,1.283a1.172,1.172,0,0,0,1.324-1.071A4.364,4.364,0,0,0,1119.5,1612.171Z" transform="translate(-993.628 -1553.733)" fill="#030303"/>
      <path id="Trazado_1644" data-name="Trazado 1644" d="M1031.014,1612.232a2.406,2.406,0,0,0,.1.979,1.075,1.075,0,0,0,.99.73,1.04,1.04,0,0,0,1.113-.66.48.48,0,0,1,.688-.266c.278.193.209.453.053.675a2.059,2.059,0,0,1-2.133.944,2,2,0,0,1-1.566-1.345,3.008,3.008,0,0,1,.377-2.912,2.209,2.209,0,0,1,2.218-.614,6.442,6.442,0,0,1,.661.286.97.97,0,0,1,.557,1.193c-.041.189-.159.235-.325.239a.469.469,0,0,1-.517-.273c-.311-.744-.552-.868-1.4-.728a1.149,1.149,0,0,0-.817,1.121C1031,1611.809,1031.014,1612.022,1031.014,1612.232Z" transform="translate(-923.783 -1553.761)" fill="#030303"/>
      <path id="Trazado_1645" data-name="Trazado 1645" d="M913.216,1668.992c0,.436.009.872,0,1.307-.007.243-.04.524-.358.529-.344.006-.332-.283-.331-.527,0-.721,0-1.443.016-2.164.006-.321-.112-.468-.448-.462a3.952,3.952,0,0,1-.851-.07c-.349-.071-.471.055-.466.391.01.706.008,1.412.009,2.118a2.2,2.2,0,0,1-.012.4c-.031.168-.1.316-.32.312s-.287-.151-.3-.326c-.015-.27-.007-.54-.008-.811,0-.541-.005-1.082,0-1.623,0-.289-.042-.538-.382-.624a.288.288,0,0,1-.227-.379c.052-.209.22-.216.4-.2a22.074,22.074,0,0,0,2.828.219c.355-.018.441.259.445.555.006.451,0,.9,0,1.352Z" transform="translate(-825.944 -1600.189)" fill="#030303"/>
      <path id="Trazado_1646" data-name="Trazado 1646" d="M748.24,1666.826a15.453,15.453,0,0,0-.2,2.219.623.623,0,0,1-.564.651c-.659.15-1.313.322-1.964.5-.278.077-.5.029-.579-.248s.186-.3.362-.356c.576-.194.577-.2.464-.8-.1-.5-.167-1.006-.249-1.51-.047-.288-.152-.514-.494-.545-.2-.018-.367-.165-.333-.356.042-.241.274-.232.477-.206.667.085.839.24.949.9.094.563.174,1.128.25,1.694.034.256.085.52.408.47.291-.045.664-.044.694-.493.036-.539.07-1.079.121-1.617a.331.331,0,0,0-.261-.4c-.058-.017-.116-.032-.175-.044-.239-.05-.549-.126-.467-.41.087-.306.382-.254.642-.123a1.424,1.424,0,0,0,.394.091C748.106,1666.316,748.312,1666.515,748.24,1666.826Z" transform="translate(-692.12 -1599.533)" fill="#030303"/>
      <path id="Trazado_1647" data-name="Trazado 1647" d="M941.193,1667.7c0,.586,0,1.172,0,1.758s-.1.69-.671.676c-.256-.006-.511,0-.767,0a.353.353,0,0,1-.384-.311c-.025-.219.182-.236.338-.278a.776.776,0,0,1,.133-.022c.751-.067.769-.086.736-.854-.018-.42-.05-.84-.066-1.261-.012-.307-.15-.418-.463-.384-.827.089-.859.127-.983.979-.087.594-.218,1.181-.335,1.771a.785.785,0,0,1-.113.291.336.336,0,0,1-.471.125c-.188-.1-.178-.236-.116-.419a17.715,17.715,0,0,0,.539-2.411c.048-.252-.1-.35-.285-.448-.135-.073-.277-.167-.216-.348a.3.3,0,0,1,.4-.2,3.694,3.694,0,0,0,1.994.051c.576-.049.644.016.654.609,0,.225,0,.451,0,.677Z" transform="translate(-849.055 -1599.76)" fill="#030303"/>
      <path id="Trazado_1648" data-name="Trazado 1648" d="M773.835,1667.65c0,.63,0,1.261,0,1.891,0,.491-.129.612-.612.6-.27-.006-.541,0-.812-.009-.2,0-.359-.08-.375-.3s.173-.247.332-.289a.608.608,0,0,1,.089-.014c.818-.088.857-.121.75-.949-.051-.391-.04-.779-.052-1.169-.01-.3-.129-.426-.458-.381-.842.113-.837.1-.973.935-.092.563-.2,1.122-.313,1.682a1.857,1.857,0,0,1-.126.384.315.315,0,0,1-.446.181c-.211-.084-.214-.237-.156-.443a20.951,20.951,0,0,0,.518-2.279c.045-.279.011-.463-.272-.572-.165-.063-.3-.2-.2-.386a.324.324,0,0,1,.43-.152,3.425,3.425,0,0,0,1.9.045c.618-.065.7.012.7.644,0,.2,0,.391,0,.586Z" transform="translate(-713.205 -1599.769)" fill="#030303"/>
      <path id="Trazado_1649" data-name="Trazado 1649" d="M739.776,1602.233c-.039.777.059,1.724-.05,2.668-.036.312.084.533.432.558.223.016.384.087.357.352-.026.248-.208.26-.4.26-.541,0-1.082-.006-1.623,0-.222,0-.4-.065-.431-.3s.169-.29.359-.3c.361-.023.49-.232.489-.569,0-1.5,0-3,0-4.507,0-.343-.1-.585-.52-.563-.281.015-.28-.206-.29-.41-.01-.224.113-.289.308-.28h.045c1.321-.067,1.321-.067,1.322,1.259C739.776,1600.953,739.776,1601.51,739.776,1602.233Z" transform="translate(-686.75 -1545.192)" fill="#030303"/>
      <path id="Trazado_1650" data-name="Trazado 1650" d="M742.135,1556.513c0,.511,0,1.022,0,1.533,0,.188.085.409-.2.475-.231.053-.355-.068-.466-.258-.416-.714-.846-1.42-1.27-2.129-.047-.077-.09-.157-.141-.231s-.111-.2-.236-.169c-.156.038-.131.184-.129.3q.02,1.014.051,2.028c.005.165.058.339-.137.433a.345.345,0,0,1-.345-.015c-.181-.113-.124-.283-.108-.447a22.2,22.2,0,0,0,.019-3.153c-.007-.161-.085-.349.136-.42a.392.392,0,0,1,.494.207q.654,1.1,1.318,2.2c.086.142.109.4.342.341.2-.053.117-.28.117-.433,0-.661-.008-1.323-.025-1.984-.005-.217.045-.351.291-.348s.3.137.3.353c-.008.571,0,1.143,0,1.714Z" transform="translate(-687.62 -1508.92)" fill="#030303"/>
      <path id="Trazado_1651" data-name="Trazado 1651" d="M679.2,1607.127c0-.421,0-.841,0-1.262,0-.282-.071-.472-.405-.449-.289.02-.4-.142-.409-.414-.011-.291.149-.37.4-.351.447.035.408-.264.419-.563.008-.223-.152-.539.258-.608.5-.084.611.006.6.523-.01.6-.01.609.592.636.274.013.393.144.368.393s-.145.47-.433.387c-.495-.142-.532.137-.53.5,0,.736,0,1.473,0,2.208,0,.505.174.683.667.689.274,0,.491.058.484.384s-.225.381-.494.394c-1.1.053-1.534-.363-1.524-1.475,0-.33,0-.661,0-.992Z" transform="translate(-638.305 -1548.711)" fill="#030303"/>
      <path id="Trazado_1652" data-name="Trazado 1652" d="M1043.613,1567.212H1030.3c-.03,0-.06,0-.09,0-.158-.011-.412.047-.413-.154,0-.232.26-.131.4-.131q13.427-.009,26.854-.006c.075,0,.151,0,.226,0,.094.005.193.026.2.138s-.091.143-.187.148-.18,0-.271,0Z" transform="translate(-923.584 -1519.042)" fill="#030303"/>
      <path id="Trazado_1653" data-name="Trazado 1653" d="M906.191,1556.555c0-.556.012-1.113-.005-1.668-.008-.24.083-.33.308-.329.646,0,1.292,0,1.939,0,.184,0,.382.027.386.277,0,.266-.2.319-.4.319-.421,0-.841-.023-1.262-.034-.282-.007-.473.077-.426.417.042.306-.187.752.4.763.361.006.722-.011,1.082-.017.215,0,.4.041.4.309s-.2.3-.411.291q-.5-.012-.992-.019c-.249,0-.518-.017-.48.355.034.332-.2.82.435.834.36.008.721-.016,1.082-.019a2.413,2.413,0,0,1,.446.03c.138.025.186.141.189.272a.221.221,0,0,1-.213.247c-.766,0-1.531,0-2.3-.021-.2-.005-.19-.183-.188-.345.008-.556,0-1.112,0-1.668Z" transform="translate(-823.231 -1509.019)" fill="#030303"/>
      <path id="Trazado_1654" data-name="Trazado 1654" d="M1083.708,1609.655a1.193,1.193,0,0,1-1.266-1.423,11.639,11.639,0,0,0,0-2.291c-.023-.287-.091-.47-.415-.448s-.363-.229-.385-.448c-.028-.287.17-.336.413-.331.348.007.478-.149.4-.515-.114-.564.011-.7.51-.65.3.03.419.151.356.478-.114.593-.067.643.531.69.272.021.428.13.416.415s-.194.4-.457.364c-.436-.053-.543.157-.529.555.024.691,0,1.384.007,2.076,0,.563.129.706.693.756.254.022.392.141.393.4a.355.355,0,0,1-.366.377A2.665,2.665,0,0,1,1083.708,1609.655Z" transform="translate(-965.672 -1548.782)" fill="#030303"/>
      <path id="Trazado_1655" data-name="Trazado 1655" d="M996.171,1554.56a5.829,5.829,0,0,1,.852.043,1,1,0,0,1,.561,1.734c-.143.161-.148.3,0,.423a1.125,1.125,0,0,1,.326.986,1.264,1.264,0,0,0,.036.445c.047.142.27.34-.054.418a.387.387,0,0,1-.525-.344,3.858,3.858,0,0,1,0-.539c0-.615-.262-.873-.878-.865-.12,0-.241.005-.36,0-.318-.015-.474.1-.434.451.036.312.016.63.037.944.014.217-.047.365-.282.362s-.358-.1-.334-.368a27.662,27.662,0,0,0,.022-3.328c-.008-.267.073-.36.315-.362S995.93,1554.56,996.171,1554.56Zm.231,1.769a3.707,3.707,0,0,0,.489-.037.573.573,0,0,0,.448-.5.543.543,0,0,0-.224-.551,2.564,2.564,0,0,0-1.31-.065.336.336,0,0,0-.128.171C995.48,1556.05,995.674,1556.307,996.4,1556.329Z" transform="translate(-895.426 -1509.02)" fill="#030303"/>
      <path id="Trazado_1656" data-name="Trazado 1656" d="M588.267,1614.722h-.858a.273.273,0,0,1-.314-.251.281.281,0,0,1,.2-.354c.479-.11.529-.449.52-.86-.017-.767-.013-1.534-.005-2.3,0-.319-.039-.576-.443-.579-.245,0-.288-.175-.278-.375s.161-.222.321-.221c.286,0,.572,0,.858,0,.1,0,.249-.025.287.082.163.465.407.273.643.089a.9.9,0,0,1,.592-.173c.222,0,.451,0,.426.315-.021.253-.1.457-.424.475-.929.052-1.105.25-1.105,1.174,0,.572.006,1.143-.007,1.715-.007.306.067.523.4.609.223.058.459.163.394.456s-.336.186-.529.2C588.719,1614.733,588.492,1614.722,588.267,1614.722Z" transform="translate(-564.188 -1553.845)" fill="#030303"/>
      <path id="Trazado_1657" data-name="Trazado 1657" d="M685.449,1556.544c0-.556.014-1.112-.006-1.667-.011-.29.107-.364.371-.359.616.014,1.232.008,1.847.009.2,0,.417.007.417.285,0,.3-.23.316-.447.313-.405-.005-.81-.024-1.216-.038-.256-.009-.476.049-.424.367s-.244.792.385.816a8.086,8.086,0,0,0,.945-.017c.26-.021.516-.041.525.305s-.246.309-.483.3c-.315-.017-.631-.011-.946-.027-.291-.015-.441.064-.435.4.013.792,0,.8.792.8.3,0,.6-.02.9-.038.233-.014.444.018.444.307,0,.27-.2.285-.415.282-.616-.009-1.232-.016-1.848,0-.3.006-.437-.074-.419-.411.029-.539.008-1.081.008-1.621Z" transform="translate(-644.027 -1508.987)" fill="#030303"/>
      <path id="Trazado_1658" data-name="Trazado 1658" d="M767.635,1558.587a1.7,1.7,0,0,1-1.447-.965c-.04-.1-.151-.232-.005-.322a.291.291,0,0,1,.4.075,5.049,5.049,0,0,0,.348.413,1,1,0,0,0,1.206.143c.171-.1.34-.221.312-.453a.511.511,0,0,0-.374-.411,4.931,4.931,0,0,1-1.224-.428c-.627-.451-.781-.958-.415-1.538a1.422,1.422,0,0,1,1.771-.4,1.935,1.935,0,0,1,.7.688c.091.171.127.363-.09.465-.2.094-.333.009-.414-.2a.839.839,0,0,0-1.015-.541.619.619,0,0,0-.589.476c-.069.326.172.5.427.611.2.09.435.117.647.19a2.639,2.639,0,0,1,.534.234,1.128,1.128,0,0,1,.619,1.063,1.254,1.254,0,0,1-1.078.9A2.567,2.567,0,0,1,767.635,1558.587Z" transform="translate(-709.52 -1509.009)" fill="#030303"/>
      <path id="Trazado_1659" data-name="Trazado 1659" d="M660.769,1556.378c0,.6-.009,1.2,0,1.8,0,.213-.03.367-.27.374s-.352-.119-.334-.369c.023-.329.029-.659.048-.989a.349.349,0,0,0-.4-.42c-.376,0-.751.005-1.127.005-.29,0-.4.135-.368.426.03.313.012.63.032.945.014.225-.02.4-.291.4s-.319-.155-.3-.391c.072-1.1.044-2.191.015-3.287-.006-.211-.019-.4.274-.4.274,0,.312.172.3.394-.019.314-.014.63-.043.944a.348.348,0,0,0,.383.433c.375.012.751.01,1.127.007.3,0,.432-.157.409-.46-.024-.329-.023-.66-.045-.99-.013-.2.041-.323.262-.329s.321.113.319.334c0,.525,0,1.051,0,1.576Z" transform="translate(-621.559 -1508.945)" fill="#030303"/>
      <path id="Trazado_1660" data-name="Trazado 1660" d="M854.766,1556.038c0-.405.009-.81,0-1.215-.007-.217-.008-.4.282-.394s.286.2.284.407c-.009.721-.015,1.442-.012,2.162a.865.865,0,0,0,.889.962.886.886,0,0,0,1-.912c.022-.734,0-1.471-.019-2.206,0-.186-.049-.381.225-.394.256-.012.332.132.329.371-.011.781,0,1.561-.015,2.342-.013.844-.646,1.359-1.616,1.332a1.317,1.317,0,0,1-1.339-1.418c.009-.345,0-.69,0-1.036Z" transform="translate(-781.487 -1508.914)" fill="#030303"/>
      <path id="Trazado_1661" data-name="Trazado 1661" d="M970.717,1556.631a1.832,1.832,0,0,1-.415,1.389,1.426,1.426,0,0,1-1.579.5,1.375,1.375,0,0,1-1.088-1.188,2.9,2.9,0,0,1,.242-2.134,1.443,1.443,0,0,1,1.729-.6,1.727,1.727,0,0,1,1.11,1.548C970.718,1556.276,970.717,1556.411,970.717,1556.631Zm-2.622-.115h0c0,.165-.009.33,0,.495a1.033,1.033,0,0,0,.867,1,1.018,1.018,0,0,0,1.143-.733,2.609,2.609,0,0,0,.006-1.463,1,1,0,0,0-1.136-.738,1,1,0,0,0-.878.986C968.086,1556.215,968.1,1556.366,968.1,1556.516Z" transform="translate(-873.053 -1508.976)" fill="#030303"/>
      <path id="Trazado_1662" data-name="Trazado 1662" d="M1101.447,1611.89c0,.542.014,1.084-.005,1.625-.012.343.1.55.455.6.2.028.361.114.343.338-.021.263-.224.275-.434.272q-.768-.008-1.535,0c-.231,0-.432-.043-.472-.309s.168-.3.343-.332c.3-.056.379-.236.375-.516-.011-.828-.016-1.656,0-2.483a.616.616,0,0,0-.4-.676c-.188-.075-.37-.192-.313-.431.063-.27.3-.194.488-.194,1.164,0,1.164,0,1.163,1.157q0,.474,0,.948Z" transform="translate(-980.407 -1553.844)" fill="#030303"/>
      <path id="Trazado_1663" data-name="Trazado 1663" d="M860.453,1611.781a15.369,15.369,0,0,1-.055,1.735.487.487,0,0,0,.427.59c.237.046.414.114.362.4s-.28.224-.467.226c-.51.005-1.021,0-1.531,0-.191,0-.366-.019-.394-.265a.316.316,0,0,1,.3-.377c.353-.048.429-.268.427-.571,0-.811-.008-1.621,0-2.432a.634.634,0,0,0-.418-.671c-.193-.076-.356-.2-.295-.438s.276-.185.45-.186c1.194,0,1.194,0,1.2,1.21C860.454,1611.224,860.453,1611.449,860.453,1611.781Z" transform="translate(-784.76 -1553.852)" fill="#030303"/>
      <path id="Trazado_1664" data-name="Trazado 1664" d="M854.371,1670.128c-.406,0-.812,0-1.218,0-.228,0-.4-.076-.409-.317-.012-.263.181-.314.4-.31.406.007.812.006,1.217.022.3.012.464-.116.468-.412.007-.556,0-1.112,0-1.669,0-.291-.161-.431-.452-.448-.4-.023-.807-.07-1.211-.091-.238-.012-.386-.124-.378-.352.009-.259.226-.238.408-.221.583.054,1.165.122,1.749.167.362.028.5.218.491.562-.01.646,0,1.293-.017,1.939-.006.27.027.475.355.511a.264.264,0,0,1,.243.322.308.308,0,0,1-.335.3Z" transform="translate(-779.851 -1599.751)" fill="#030303"/>
      <path id="Trazado_1665" data-name="Trazado 1665" d="M607.642,1611.767c0,.542.015,1.084-.005,1.625a.569.569,0,0,0,.461.666c.187.047.362.133.322.359-.037.211-.214.264-.414.262-.512,0-1.023,0-1.535,0-.2,0-.423-.014-.474-.249-.056-.261.156-.308.358-.361a.529.529,0,0,0,.424-.562c0-.873-.007-1.746,0-2.618,0-.322-.2-.451-.46-.53-.2-.06-.339-.18-.31-.381.032-.223.234-.233.424-.241,1.213-.053,1.213-.055,1.213,1.13q0,.451,0,.9Z" transform="translate(-579.53 -1553.797)" fill="#030303"/>
      <path id="Trazado_1666" data-name="Trazado 1666" d="M698.278,1611.956c0,.54.012,1.081,0,1.621-.009.306.1.5.406.542.232.036.362.144.322.39s-.237.232-.419.232c-.51,0-1.021,0-1.531,0-.214,0-.4-.059-.439-.294-.039-.257.179-.27.354-.308a.546.546,0,0,0,.435-.6c.009-.84,0-1.681,0-2.522a.567.567,0,0,0-.448-.6c-.2-.059-.381-.163-.342-.4.044-.275.288-.212.473-.216,1.2-.026,1.2-.024,1.2,1.162,0,.33,0,.66,0,.991Z" transform="translate(-653.096 -1553.862)" fill="#030303"/>
      <path id="Trazado_1667" data-name="Trazado 1667" d="M944.481,1556.517c0-.525.02-1.052-.008-1.575-.016-.3.078-.415.371-.411.63.009,1.261,0,1.891.009.22,0,.446.026.429.328-.016.283-.262.263-.441.265-.435.007-.87-.021-1.305-.031-.269-.006-.443.09-.394.4s-.216.756.369.786c.344.017.69-.019,1.035-.025.226,0,.449.046.446.325s-.247.266-.436.269c-.33.006-.66-.011-.99-.02s-.47.111-.42.462c.045.31.029.629.052.943.017.224-.073.355-.3.357s-.352-.122-.337-.371c.034-.569.058-1.138.086-1.708Z" transform="translate(-854.295 -1508.996)" fill="#030303"/>
      <path id="Trazado_1668" data-name="Trazado 1668" d="M690.3,1668.5c0,.451,0,.9,0,1.351,0,.209-.051.414-.3.421-.29.008-.32-.214-.319-.44,0-.691,0-1.382.012-2.072.005-.353-.135-.51-.5-.53-.538-.028-1.074-.108-1.611-.169-.213-.024-.4-.108-.369-.358s.261-.212.432-.2c.7.043,1.406.1,2.109.148.37.025.585.166.555.589s-.006.841-.006,1.261Z" transform="translate(-645.457 -1599.891)" fill="#030303"/>
      <path id="Trazado_1669" data-name="Trazado 1669" d="M830.1,1668.469c0,.435,0,.87,0,1.3,0,.234-.028.5-.329.493s-.321-.262-.319-.5c.005-.645-.005-1.291.026-1.934.022-.45-.171-.617-.6-.636-.493-.022-.985-.083-1.477-.139-.219-.025-.448-.093-.383-.38.06-.263.3-.193.485-.18.657.045,1.314.1,1.972.139.5.029.623.151.619.66,0,.39,0,.78,0,1.17Z" transform="translate(-758.955 -1599.881)" fill="#030303"/>
      <path id="Trazado_1670" data-name="Trazado 1670" d="M881.6,1556.892c0,.435-.011.871,0,1.306.008.239-.014.439-.308.433s-.326-.2-.293-.44a18.443,18.443,0,0,0,.037-2.653c0-.312-.166-.424-.457-.414a4.738,4.738,0,0,1-.584-.006c-.157-.014-.294-.084-.3-.274s.135-.265.293-.267q1.306-.016,2.612-.012a.265.265,0,0,1,.274.295c.006.218-.137.3-.315.3-.209.006-.419-.025-.629-.035-.257-.012-.385.087-.374.371.018.464,0,.93,0,1.395Z" transform="translate(-801.735 -1509.023)" fill="#030303"/>
      <path id="Trazado_1671" data-name="Trazado 1671" d="M791.81,1556.722c0,.5-.013.992.005,1.486.009.242-.056.389-.311.383s-.336-.142-.311-.388c.088-.87.016-1.743.04-2.614.011-.382-.139-.526-.5-.5-.165.011-.33.013-.5.016-.2,0-.315-.084-.318-.292s.107-.291.311-.289c.827.006,1.654,0,2.481.01.19,0,.375.036.387.28.014.3-.219.279-.408.292-.911.061-.912.058-.922.985,0,.21,0,.421,0,.632Z" transform="translate(-728.847 -1508.99)" fill="#030303"/>
      <path id="Trazado_1672" data-name="Trazado 1672" d="M633.149,1556.922c0,.45-.009.9,0,1.349.006.236-.056.386-.318.376-.24-.009-.293-.158-.274-.37.079-.884.022-1.769.027-2.653,0-.41-.162-.536-.543-.491a2.142,2.142,0,0,1-.538-.007.268.268,0,0,1-.257-.31.261.261,0,0,1,.284-.236q1.3-.008,2.61,0a.29.29,0,0,1,.319.307c-.006.178-.16.237-.32.255-.059.006-.12.006-.18.006-.839.013-.839.013-.839.872v.9Z" transform="translate(-600.036 -1509.034)" fill="#030303"/>
      <path id="Trazado_1673" data-name="Trazado 1673" d="M830.94,1556.875c0,.451-.009.9,0,1.352.007.231-.035.4-.308.378s-.3-.184-.3-.41c.018-.886.014-1.773.037-2.659.009-.344-.142-.463-.461-.437a2.914,2.914,0,0,1-.361.009c-.223-.009-.507.02-.5-.3,0-.3.283-.258.484-.26.632-.006,1.263,0,1.895,0,.165,0,.331-.018.5-.012a.281.281,0,0,1,.287.33c0,.188-.128.258-.3.258h-.045c-.94.041-.94.041-.946.985,0,.255,0,.511,0,.767Z" transform="translate(-760.618 -1509)" fill="#030303"/>
      <path id="Trazado_1674" data-name="Trazado 1674" d="M797.7,1667.758c0,.45.006.9,0,1.349,0,.2.031.468-.277.472-.329,0-.387-.267-.368-.509.056-.7.025-1.408.032-2.113,0-.374-.093-.6-.5-.648-.234-.029-.46-.155-.373-.448.095-.319.348-.206.561-.14.921.286.92.287.918,1.272q0,.383,0,.765Z" transform="translate(-733.938 -1599.202)" fill="#030303"/>
      <path id="Trazado_1675" data-name="Trazado 1675" d="M817.079,1556.565c0,.541-.009,1.082,0,1.622.006.23-.031.39-.3.38-.253-.009-.329-.151-.313-.389a30.254,30.254,0,0,0,.008-3.332c-.009-.2,0-.364.265-.361s.341.122.337.367c-.01.571,0,1.141,0,1.712Z" transform="translate(-750.398 -1508.959)" fill="#030303"/>
      <path id="Trazado_1676" data-name="Trazado 1676" d="M724.606,1556.5c0,.554-.007,1.109,0,1.663,0,.231-.045.393-.312.377s-.307-.158-.282-.4a25.148,25.148,0,0,0,.03-3.234c-.005-.2-.1-.456.242-.458.294,0,.315.2.31.435-.011.54,0,1.079,0,1.619Z" transform="translate(-675.342 -1508.929)" fill="#030303"/>
      <path id="Trazado_1677" data-name="Trazado 1677" d="M688.232,1676.193a7.043,7.043,0,0,1,.006-.721c.016-.158.067-.356.275-.357a.338.338,0,0,1,.344.351c.014.5.007.992,0,1.488a.3.3,0,0,1-.307.323c-.213.01-.295-.143-.307-.318-.017-.254,0-.51,0-.766Z" transform="translate(-646.292 -1606.889)" fill="#030303"/>
      <path id="Trazado_1678" data-name="Trazado 1678" d="M828.613,1676.219c0,.24.007.481,0,.721a.318.318,0,0,1-.291.344.286.286,0,0,1-.328-.3c-.016-.524-.01-1.049.014-1.572a.3.3,0,0,1,.29-.3.342.342,0,0,1,.314.334C828.624,1675.708,828.613,1675.963,828.613,1676.219Z" transform="translate(-759.748 -1606.891)" fill="#030303"/>
      <path id="Trazado_1679" data-name="Trazado 1679" d="M1103.778,1599.793c-.307.008-.572-.02-.576-.434,0-.435.248-.506.608-.518.449-.016.455.292.481.592C1104.326,1599.838,1104.027,1599.784,1103.778,1599.793Z" transform="translate(-983.176 -1544.967)" fill="#030303"/>
      <path id="Trazado_1680" data-name="Trazado 1680" d="M700.884,1599.8c-.365.057-.493-.1-.5-.476,0-.41.207-.463.534-.468.365-.005.495.145.507.509C701.445,1599.794,701.208,1599.828,700.884,1599.8Z" transform="translate(-656.166 -1544.98)" fill="#030303"/>
      <path id="Trazado_1681" data-name="Trazado 1681" d="M862.978,1599.819c-.4.059-.45-.179-.456-.515-.006-.361.187-.428.477-.426.351,0,.5.16.5.525C863.506,1599.8,863.294,1599.851,862.978,1599.819Z" transform="translate(-787.788 -1544.999)" fill="#030303"/>
      <path id="Trazado_1682" data-name="Trazado 1682" d="M610.336,1599.79c-.258.007-.514-.021-.5-.358.009-.3.042-.595.487-.6s.494.27.508.582C610.843,1599.753,610.6,1599.8,610.336,1599.79Z" transform="translate(-582.65 -1544.965)" fill="#030303"/>
    </g>
  </g>
</svg>
