<?xml version="1.0" encoding="utf-8"?>
<!-- Generator: Adobe Illustrator 24.2.0, SVG Export Plug-In . SVG Version: 6.00 Build 0)  -->
<svg version="1.1" id="Layer_1" xmlns="http://www.w3.org/2000/svg" xmlns:xlink="http://www.w3.org/1999/xlink" x="0px" y="0px"
	 viewBox="0 0 243.8 154.8" style="enable-background:new 0 0 243.8 154.8;" xml:space="preserve">
<style type="text/css">
	.st0{fill:#44C8F5;}
	.st1{fill:none;stroke:#000000;stroke-width:1.3614;stroke-linecap:round;stroke-miterlimit:10;}
</style>
<g>
	<g>
		<path d="M7,83.3h5.1l3.7,8.6c0.1,0.2,0.3,0.2,0.4,0l3.7-8.6h5.1c0.1,0,0.3,0.1,0.3,0.3v24.2c0,0.1-0.1,0.3-0.3,0.3h-4.7
			c-0.1,0-0.3-0.1-0.3-0.3V93.4c0-0.1-0.1-0.1-0.1,0l-3.2,7.3c-0.3,0.7-1.3,0.7-1.5,0l-3.1-7.3c0-0.1-0.1,0-0.1,0v14.4
			c0,0.1-0.1,0.3-0.3,0.3H7c-0.1,0-0.3-0.1-0.3-0.3V83.6C6.7,83.5,6.9,83.3,7,83.3z"/>
		<path d="M28,96.4v-1.3c0-8.2,3.3-12.1,8.3-12.1c4.9,0,8.3,3.9,8.3,12.1v1.3c0,8.2-3.3,12.1-8.3,12.1C31.4,108.5,28,104.5,28,96.4z
			 M39.1,96.4v-1.3c0-6.4-1.1-8.1-2.8-8.1c-1.6,0-2.8,1.8-2.8,8.1v1.3c0,6.4,1.1,8.1,2.8,8.1C38,104.5,39.1,102.7,39.1,96.4z"/>
		<path d="M48,83.3h4.9c0.1,0,0.3,0.1,0.3,0.3v24.3c0,0.1-0.1,0.3-0.3,0.3H48c-0.1,0-0.3-0.1-0.3-0.3V83.6
			C47.7,83.4,47.8,83.3,48,83.3z"/>
		<path d="M56.7,106.7l0-3.4c0-0.3,0.3-0.5,0.6-0.4c1.7,0.7,3,1.1,4.3,1.1c1.6,0,2.9-0.6,2.9-2.1v-0.1c0-1.1-0.4-2-3-4.3
			c-3.7-3.3-5.2-4.9-5.2-7.9v-0.1c0-4,3.3-6.5,7.6-6.5c1.9,0,3.1,0.2,4.3,0.6c0.3,0.1,0.5,0.4,0.5,0.7l0,3.4c0,0.3-0.3,0.5-0.6,0.4
			c-1.4-0.6-2.3-0.9-3.6-0.9c-1.5,0-2.8,0.8-2.8,2.1v0.1c0,1.2,0.4,1.6,3,4c4.3,3.9,5.2,5.4,5.2,8.3v0.1c0,3.9-3.4,6.5-7.7,6.5
			c-1.9,0-3.6-0.3-5.1-0.9C56.9,107.3,56.7,107.1,56.7,106.7z"/>
		<path d="M72.7,83.3h4.9c0.1,0,0.3,0.1,0.3,0.3v9.6c0,0.1,0.1,0.3,0.3,0.3h4.2c0.1,0,0.3-0.1,0.3-0.3v-9.6c0-0.1,0.1-0.3,0.3-0.3
			h4.9c0.1,0,0.3,0.1,0.3,0.3v24.3c0,0.1-0.1,0.3-0.3,0.3h-4.9c-0.1,0-0.3-0.1-0.3-0.3v-9.7c0-0.1-0.1-0.3-0.3-0.3h-4.2
			c-0.1,0-0.3,0.1-0.3,0.3v9.7c0,0.1-0.1,0.3-0.3,0.3h-4.9c-0.1,0-0.3-0.1-0.3-0.3V83.6C72.5,83.4,72.6,83.3,72.7,83.3z"/>
		<path d="M91.9,83.3h11.4c0.1,0,0.3,0.1,0.3,0.3v4c0,0.1-0.1,0.3-0.3,0.3h-6c-0.1,0-0.3,0.1-0.3,0.3v5c0,0.1,0.1,0.3,0.3,0.3h5.2
			c0.1,0,0.3,0.1,0.3,0.3v4c0,0.1-0.1,0.3-0.3,0.3h-5.2c-0.1,0-0.3,0.1-0.3,0.3v5.2c0,0.1,0.1,0.3,0.3,0.3h6.1
			c0.1,0,0.3,0.1,0.3,0.3v4c0,0.1-0.1,0.3-0.3,0.3H91.9c-0.1,0-0.3-0.1-0.3-0.3V83.6C91.6,83.4,91.7,83.3,91.9,83.3z"/>
	</g>
	<g>
		<g>
			<path d="M7.1,112.9h5.8c0.2,0,0.4,0.2,0.4,0.4V128c0,0.2,0.2,0.4,0.4,0.4h4.9c0.2,0,0.4-0.2,0.4-0.4v-14.7c0-0.2,0.2-0.4,0.4-0.4
				H25c0.2,0,0.4,0.2,0.4,0.4v36.5c0,0.2-0.2,0.4-0.4,0.4h-5.8c-0.2,0-0.4-0.2-0.4-0.4v-14.9c0-0.2-0.2-0.4-0.4-0.4h-4.9
				c-0.2,0-0.4,0.2-0.4,0.4v14.9c0,0.2-0.2,0.4-0.4,0.4H7.1c-0.2,0-0.4-0.2-0.4-0.4v-36.5C6.7,113.1,6.9,112.9,7.1,112.9z"/>
			<path d="M28.1,132.5v-1.9c0-12.3,4-18.2,9.9-18.2s9.9,5.9,9.9,18.2v1.9c0,12.3-4,18.2-9.9,18.2S28.1,144.8,28.1,132.5z
				 M41.3,132.5v-1.9c0-9.6-1.3-12.2-3.3-12.2c-2,0-3.3,2.7-3.3,12.2v1.9c0,9.6,1.3,12.2,3.3,12.2C39.9,144.7,41.3,142.1,41.3,132.5
				z"/>
			<path d="M50.5,139.3v-26c0-0.2,0.2-0.4,0.4-0.4h5.7c0.2,0,0.4,0.2,0.4,0.4v26.7c0,3.4,1.2,4.7,2.8,4.7c1.6,0,2.8-1.3,2.8-4.7
				v-26.7c0-0.2,0.2-0.4,0.4-0.4h5.7c0.2,0,0.4,0.2,0.4,0.4v26c0,7.8-3.9,11.3-9.3,11.3S50.5,147.1,50.5,139.3z"/>
			<path d="M71.9,148.2l0-5.3c0-0.3,0.4-0.5,0.7-0.4c2,1.1,3.6,1.7,5.2,1.7c1.9,0,3.5-0.9,3.5-3.2v-0.1c0-1.7-0.5-3-3.6-6.5
				c-4.4-5-6.2-7.4-6.2-11.9v-0.1c0-6,3.9-9.7,9-9.7c2.3,0,3.7,0.3,5.1,0.9c0.4,0.2,0.6,0.5,0.6,1v5.3c0,0.3-0.4,0.5-0.6,0.4
				c-1.7-0.9-2.8-1.3-4.3-1.3c-1.8,0-3.4,1.2-3.4,3.2v0.1c0,1.8,0.5,2.4,3.6,6c5.1,5.9,6.2,8.2,6.2,12.4v0.1c0,5.8-4.1,9.7-9.2,9.7
				c-2.3,0-4.3-0.5-6-1.3C72.1,149,71.9,148.6,71.9,148.2z"/>
			<path d="M90,112.9h13.2c0.2,0,0.4,0.2,0.4,0.4v5.5c0,0.2-0.2,0.4-0.4,0.4h-6.7c-0.2,0-0.4,0.2-0.4,0.4v8.5c0,0.2,0.2,0.4,0.4,0.4
				h5.9c0.2,0,0.4,0.2,0.4,0.4v5.5c0,0.2-0.2,0.4-0.4,0.4h-5.9c-0.2,0-0.4,0.2-0.4,0.4v8.8c0,0.2,0.2,0.4,0.4,0.4h6.8
				c0.2,0,0.4,0.2,0.4,0.4v5.5c0,0.2-0.2,0.4-0.4,0.4H90c-0.2,0-0.4-0.2-0.4-0.4v-36.5C89.7,113.1,89.8,112.9,90,112.9z"/>
		</g>
	</g>
	<path class="st0" d="M12.2,62.2L5.8,75.4c-0.5,1,0.2,2.1,1.3,2.1h10.7c4.7,0,8.9-2.7,10.9-7L48,28.3c1.1-2.5,3.6-4.1,6.3-4.1h8.3
		c2.7,0,5.2,1.6,6.3,4.1l12.8,28c0.7,1.6-0.4,3.5-2.2,3.5l-10.2,0c-8.9,0-16.9,5.2-20.5,13.3l0,0c-0.9,2.1,0.6,4.4,2.9,4.4h42
		c8.1,0,13.4-8.3,10-15.7L81.4,13.2c-1.9-4.1-6-6.7-10.5-6.8L42,6.4c-1.7,0-3.3,1-4.1,2.6l-3,6.3c-0.5,1-1.9,0.6-1.9-0.4v-2.6
		C33,9,30.3,6.4,27,6.4h-7.6c-1.8,0-3.2,1.5-3.2,3.2v35C16.2,50.7,14.8,56.7,12.2,62.2z"/>
	<g>
		<path class="st0" d="M142.9,86v11.7h2v2.7h-7.7v-2.7h2V86h-2v-2.7h7.7V86H142.9z"/>
		<path class="st0" d="M147.9,88h2.7l0.1,2.3l0.1,0c0.7-1.6,2.2-2.6,4.1-2.6c2.7,0,4.4,1.8,4.4,4.9v7.7h-3.5v-7.1
			c0-1.4-0.7-2.2-1.9-2.2c-1.4,0-2.6,1-2.6,3.4v5.9h-3.5V88z"/>
		<path class="st0" d="M161.5,99.5l0.8-2.7c1.1,0.6,2.5,1,3.8,1c1.2,0,1.8-0.5,1.8-1.1c0-0.7-0.5-1-2-1.4c-2.3-0.5-4.1-1.5-4.1-3.7
			c0-2.4,1.8-3.8,5-3.8c1.5,0,2.9,0.3,4.1,1l-1,2.7c-0.9-0.6-2-0.9-3.1-0.9c-1.2,0-1.6,0.4-1.6,1c0,0.6,0.5,1,1.9,1.3
			c2.5,0.5,4.3,1.6,4.3,3.8c0,2.6-2.1,4-5.3,4C164.5,100.6,163,100.3,161.5,99.5z"/>
		<path class="st0" d="M173.6,88h2.7l0.1,2.1l0.1,0c0.7-1.4,2.2-2.4,4.2-2.4c3,0,5.1,2.3,5.1,6.4s-2.1,6.4-5.1,6.4
			c-1.6,0-2.8-0.7-3.5-1.7l-0.1,0v6.3h-3.5V88z M182.3,94.2c0-2.1-1-3.4-2.6-3.4c-1.6,0-2.6,1.3-2.6,3.4c0,2.1,1,3.4,2.6,3.4
			C181.3,97.6,182.3,96.3,182.3,94.2z"/>
		<path class="st0" d="M188,84.4c0-1.2,0.8-1.9,2.1-1.9c1.3,0,2,0.7,2,1.9c0,1.2-0.8,1.9-2,1.9C188.7,86.2,188,85.6,188,84.4z
			 M188.3,88h3.5v12.3h-3.5V88z"/>
		<path class="st0" d="M194.8,88h2.7l0.1,2.3l0.1,0c0.9-1.8,2.8-2.7,5-2.6v3.4c-2.9-0.3-4.5,1.2-4.5,3.8v5.4h-3.5V88z"/>
		<path class="st0" d="M204.3,84.4c0-1.2,0.8-1.9,2.1-1.9c1.3,0,2,0.7,2,1.9c0,1.2-0.8,1.9-2,1.9C205,86.2,204.3,85.6,204.3,84.4z
			 M204.6,88h3.5v12.3h-3.5V88z"/>
		<path class="st0" d="M211.2,88h2.7l0.1,2.3l0.1,0c0.7-1.6,2.2-2.6,4.1-2.6c2.7,0,4.4,1.8,4.4,4.9v7.7h-3.5v-7.1
			c0-1.4-0.7-2.2-1.9-2.2c-1.4,0-2.6,1-2.6,3.4v5.9h-3.5V88z"/>
		<path class="st0" d="M225.4,104.2l1.1-2.6c1.1,0.7,2.3,1.1,3.7,1.1c2.2,0,3.5-1,3.5-3v-0.9l-0.1,0c-0.6,1-1.9,1.8-3.5,1.8
			c-3,0-5.2-2.3-5.2-6.3c0-4.1,2.2-6.4,5.3-6.4c2,0,3.4,1,4,2.3l0.1,0l0.1-2.1h2.7v11.2c0,4.2-2.6,6.3-6.8,6.3
			C228.5,105.5,227,105,225.4,104.2z M233.8,94.2c0-2.1-1-3.4-2.6-3.4c-1.7,0-2.6,1.3-2.6,3.4c0,2.1,1,3.4,2.6,3.4
			C232.9,97.6,233.8,96.3,233.8,94.2z"/>
		<path class="st0" d="M136.2,124.5l0.8-3.2c0.9,0.6,1.9,0.9,2.9,0.9c1.6,0,2.4-1,2.4-2.7v-11.3h3.7v11.3c0,3.9-2.3,6-5.9,6
			C138.7,125.5,137.3,125.1,136.2,124.5z"/>
		<path class="st0" d="M148.9,119c0-3.9,2.5-6.3,6.2-6.3c3.6,0,5.5,2.5,5.5,5.9c0,0.6,0,1.1-0.1,1.6h-7.9c0.3,1.7,1.5,2.5,3.4,2.5
			c1.1,0,2.2-0.3,3.3-0.9l1,2.5c-1.6,0.9-3.2,1.2-4.8,1.2C151.5,125.5,148.9,123.2,148.9,119z M157.3,118.1c0-1.8-0.9-2.9-2.4-2.9
			s-2.4,1.2-2.4,2.9H157.3z"/>
		<path class="st0" d="M161.3,112.9h3.6l2.2,8.3h0.1l2.3-8.3h2.9l2.3,8.3h0.1l2-8.3h3.6l-4,12.3h-3.3l-2.3-7.7h-0.1l-2.3,7.7h-3.2
			L161.3,112.9z"/>
		<path class="st0" d="M181.8,109.3c0-1.2,0.8-1.9,2.1-1.9c1.3,0,2,0.7,2,1.9c0,1.2-0.8,1.9-2,1.9
			C182.5,111.1,181.8,110.5,181.8,109.3z M182.1,112.9h3.5v12.3h-3.5V112.9z"/>
		<path class="st0" d="M187.8,124.5l0.8-2.7c1.1,0.6,2.5,1,3.8,1c1.2,0,1.8-0.5,1.8-1.1c0-0.7-0.5-1-2-1.4c-2.3-0.5-4.1-1.5-4.1-3.7
			c0-2.4,1.8-3.8,5-3.8c1.5,0,2.9,0.3,4.1,1l-1,2.7c-0.9-0.6-2-0.9-3.1-0.9c-1.2,0-1.6,0.4-1.6,1c0,0.6,0.5,1,1.9,1.3
			c2.5,0.5,4.3,1.6,4.3,3.8c0,2.6-2.1,4-5.3,4C190.8,125.5,189.2,125.2,187.8,124.5z"/>
		<path class="st0" d="M199.9,107h3.5v7.7l0.1,0c0.6-1.2,1.9-2,3.5-2c2.6,0,4.3,1.8,4.3,4.9v7.7h-3.5v-7.1c0-1.4-0.7-2.2-1.9-2.2
			c-1.4,0-2.6,1-2.6,3.4v5.9h-3.5V107z"/>
		<path class="st0" d="M152.5,133.1v17.1h-3.6v-7h-7.2v7H138v-17.1h3.7v6.7h7.2v-6.7H152.5z"/>
		<path class="st0" d="M155.5,144c0-3.9,2.4-6.4,6.2-6.4c3.8,0,6.2,2.5,6.2,6.4c0,3.9-2.4,6.4-6.2,6.4
			C157.9,150.4,155.5,147.9,155.5,144z M164.3,144c0-2.1-1-3.4-2.6-3.4c-1.7,0-2.6,1.3-2.6,3.4s1,3.4,2.6,3.4
			C163.3,147.4,164.3,146.1,164.3,144z"/>
		<path class="st0" d="M170.3,137.8h2.7l0.1,2.3l0.1,0c0.7-1.6,2.2-2.6,4.1-2.6c1.9,0,3,1,3.6,2.6l0.1,0c0.7-1.6,2.2-2.6,4.2-2.6
			c2.6,0,4.2,1.8,4.2,4.9v7.7h-3.5v-7.1c0-1.4-0.6-2.2-1.8-2.2c-1.3,0-2.5,1-2.5,3.4v5.9h-3.5v-7.1c0-1.4-0.6-2.2-1.8-2.2
			c-1.3,0-2.5,1-2.5,3.4v5.9h-3.5V137.8z"/>
		<path class="st0" d="M191.8,143.9c0-3.9,2.5-6.3,6.2-6.3c3.6,0,5.5,2.5,5.5,5.9c0,0.6,0,1.1-0.1,1.6h-7.9c0.3,1.7,1.5,2.5,3.4,2.5
			c1.1,0,2.2-0.3,3.3-0.9l1,2.5c-1.6,0.9-3.2,1.2-4.8,1.2C194.4,150.4,191.8,148.1,191.8,143.9z M200.2,143c0-1.8-0.9-2.9-2.4-2.9
			s-2.4,1.2-2.4,2.9H200.2z"/>
		<path class="st0" d="M205,149.4l0.8-2.7c1.1,0.6,2.5,1,3.8,1c1.2,0,1.8-0.5,1.8-1.1c0-0.7-0.5-1-2-1.4c-2.3-0.5-4.1-1.5-4.1-3.7
			c0-2.4,1.8-3.8,5-3.8c1.5,0,2.9,0.3,4.1,1l-1,2.7c-0.9-0.6-2-0.9-3.1-0.9c-1.2,0-1.6,0.4-1.6,1c0,0.6,0.5,1,1.9,1.3
			c2.5,0.5,4.3,1.6,4.3,3.8c0,2.6-2.1,4-5.3,4C208,150.4,206.4,150.1,205,149.4z"/>
	</g>
	<line class="st1" x1="121.8" y1="83.4" x2="121.8" y2="150.2"/>
</g>
</svg>
