<svg xmlns="http://www.w3.org/2000/svg" width="142.547" height="39.474" viewBox="0 0 142.547 39.474">
  <g id="Grupo_1457" data-name="Grupo 1457" transform="translate(3037.315 -1457.345)">
    <path id="Trazado_1763" data-name="Trazado 1763" d="M-3027.172,1489.505l-2.654-1.452c-1.956-1.069-3.919-2.126-5.867-3.209a3.126,3.126,0,0,1-.344-5.263l.363-.273c-.091-.11-.163-.2-.242-.292a3,3,0,0,1-.675-3.128,2.907,2.907,0,0,1,2.509-2.08,4.011,4.011,0,0,1,1.027.011c.294.037.388-.025.4-.334a3.075,3.075,0,0,1,3.74-2.942,8.066,8.066,0,0,1,1.88.852c2.57,1.39,5.127,2.8,7.69,4.2.059.032.122.055.3.135a4.938,4.938,0,0,0-1.788-1.7,6.943,6.943,0,0,1,2.595-1.945,3.711,3.711,0,0,1,3.2.044c.019-.229.041-.372.041-.515q0-4.468,0-8.936a3.051,3.051,0,0,1,2.159-3.188,2.888,2.888,0,0,1,2.3.138l.4.182c.073-.182.135-.331.194-.482a3.074,3.074,0,0,1,3.215-1.985,3.032,3.032,0,0,1,2.66,2.062c.12.352.229.38.553.23a3.129,3.129,0,0,1,4.476,2.908c-.015,3.062-.006,6.124-.006,9.185,0,.108.016.216.031.405,2.449-1.006,4.2.033,5.731,1.9a4.6,4.6,0,0,0-1.643,1.7q.66-.359,1.32-.718c2.572-1.406,5.124-2.851,7.722-4.208a3.074,3.074,0,0,1,4.5,2.583c.008.418.143.486.515.434a3.008,3.008,0,0,1,3.494,2.228,2.981,2.981,0,0,1-.608,2.844c-.106.125-.218.245-.362.407.13.1.247.183.365.268a3.134,3.134,0,0,1-.043,5.082c-.628.425-1.319.759-1.986,1.125q-3.11,1.709-6.224,3.411l-.618.341a3.791,3.791,0,0,1,1.723,3.089,5.31,5.31,0,0,1-.616,2.8c-.463-.181-.888-.381-1.332-.515a12.308,12.308,0,0,0-3.5-.231,8.268,8.268,0,0,0-3.561,1.005,9.047,9.047,0,0,1-5.7.678,10.87,10.87,0,0,1-4.542-2.385c-.8-.618-1.583-1.258-2.344-1.922-.258-.226-.387-.168-.62.016-1.368,1.081-2.7,2.219-4.143,3.191a7.931,7.931,0,0,1-6.209,1.113,13.772,13.772,0,0,1-2.427-.822,8.659,8.659,0,0,0-3.261-.871,12.333,12.333,0,0,0-3.543.22,6.931,6.931,0,0,0-1.025.438c-.194.092-.335.111-.43-.123a4.883,4.883,0,0,1-.2-3.913,7.8,7.8,0,0,1,1.015-1.441A2.885,2.885,0,0,1-3027.172,1489.505Zm8.61-15.62a1.386,1.386,0,0,0,.109.2,19.422,19.422,0,0,1,2.486,4.017,5.032,5.032,0,0,1,.554,1.9c.068.882.152,1.765.3,2.637a6.029,6.029,0,0,0,3.153,4.587c1.524.812,3.12,1.493,4.692,2.213a.774.774,0,0,0,.553-.006c1.319-.54,2.657-1.042,3.934-1.669a7.4,7.4,0,0,0,4.269-6.715,8.053,8.053,0,0,1,.474-2.726,15.263,15.263,0,0,1,2.407-4.2c.136-.158.167-.284-.021-.408a2.259,2.259,0,0,0-2.341-.387,8.331,8.331,0,0,0-1.491,1.093c-.322.266-.595.591-.952.953a2.793,2.793,0,0,1-.049-.3c.005-4.156.021-8.312,0-12.467a2.381,2.381,0,0,0-.34-1.127,1.634,1.634,0,0,0-1.866-.643,1.706,1.706,0,0,0-1.191,1.633c0,3.449,0,6.9,0,10.349,0,1.09.149.818-.908.922-.522.051-.525.027-.525-.5q0-6.3,0-12.593a1.734,1.734,0,0,0-1.719-1.886,1.681,1.681,0,0,0-1.672,1.865c0,4.018.008,8.035,0,12.053,0,1.2.205.993-1.031,1.029-.348.01-.453-.116-.451-.458.014-2.327.011-4.655.013-6.982,0-1.26,0-2.521,0-3.782a1.6,1.6,0,0,0-.763-1.436,1.584,1.584,0,0,0-1.73-.07,1.731,1.731,0,0,0-.9,1.655q.007,6.275,0,12.551a2.913,2.913,0,0,1-.059.367c-.438-.508-.79-.967-1.2-1.371a3.945,3.945,0,0,0-1.066-.832C-3016.872,1472.9-3017.706,1473.384-3018.562,1473.885Zm-2.651,7.819c-.107-.046-.171-.067-.23-.1-3.741-2.045-7.477-4.1-11.228-6.125a2.22,2.22,0,0,0-1.141-.269,1.631,1.631,0,0,0-1.5,1.431,1.725,1.725,0,0,0,.92,1.758q5.353,2.933,10.708,5.864c.875.479.858.476.374,1.357-.162.3-.308.324-.584.17-1.257-.7-2.521-1.388-3.784-2.078-1.895-1.035-3.785-2.08-5.688-3.1a1.682,1.682,0,0,0-2.319.688,1.7,1.7,0,0,0,.761,2.337l9.735,5.308c.467.255.929.516,1.472.817a3.513,3.513,0,0,1-.368.167c-.425.125-.854.237-1.277.364a2.6,2.6,0,0,0-2.106,2.83c.022.25.082.368.378.339.989-.095,1.98-.178,2.972-.228a9.875,9.875,0,0,1,4.759,1.089,7.128,7.128,0,0,0,7.418-.461c.976-.653,1.877-1.419,2.8-2.146.374-.293.721-.62,1.151-.994-.429-.2-.753-.341-1.071-.5a40.559,40.559,0,0,1-4.077-2.045,7.984,7.984,0,0,1-3.576-6.853,5.875,5.875,0,0,0-.8-3.091,1.284,1.284,0,0,0-.478-.42c-.368-.187-.779-.292-1.141-.489-3.188-1.729-6.366-3.475-9.555-5.2a1.689,1.689,0,0,0-2.36.675,1.7,1.7,0,0,0,.745,2.306c1.439.8,2.888,1.585,4.333,2.375,1.713.937,3.428,1.868,5.135,2.816.107.06.239.277.205.352C-3020.8,1481.012-3021.011,1481.348-3021.213,1481.7Zm30.9,8.115c.159-.116.218-.17.286-.207q1.983-1.086,3.968-2.168c2.343-1.278,4.689-2.549,7.027-3.836a1.68,1.68,0,0,0,.868-1.784,1.679,1.679,0,0,0-2.524-1.19c-2.475,1.328-4.932,2.689-7.4,4.037l-2.437,1.336c-.18-.346-.323-.659-.5-.951-.151-.25-.1-.373.156-.512q3.412-1.85,6.81-3.724c1.5-.824,3.012-1.639,4.507-2.479a1.612,1.612,0,0,0,.86-1.469,1.719,1.719,0,0,0-2.613-1.431c-3.526,1.948-7.067,3.866-10.6,5.8-.884.485-.879.5-1.377-.353a.217.217,0,0,0-.021-.036c-.244-.291-.111-.461.177-.607.493-.251.981-.511,1.466-.777q4-2.192,8.006-4.389a1.6,1.6,0,0,0,.845-1.215,1.616,1.616,0,0,0-.711-1.659,1.653,1.653,0,0,0-1.874-.052q-3.913,2.146-7.836,4.275a26.981,26.981,0,0,1-2.528,1.227,1.422,1.422,0,0,0-.8.8,8.592,8.592,0,0,0-.551,2.667,16.767,16.767,0,0,1-.453,2.648,7.95,7.95,0,0,1-3.416,4.6,30,30,0,0,1-3.189,1.591c-.571.269-1.167.483-1.811.746a3.024,3.024,0,0,0,.274.3c1,.812,1.988,1.638,3.008,2.422a7.489,7.489,0,0,0,2.661,1.406,7.483,7.483,0,0,0,4.762-.24,19.9,19.9,0,0,1,2.812-1.1,12.964,12.964,0,0,1,5.481-.046c.27.055.429-.035.416-.3a5.063,5.063,0,0,0-.153-1.224,2.636,2.636,0,0,0-1.986-1.652C-2989.2,1490.123-2989.7,1489.992-2990.309,1489.819Z" transform="translate(0 0)"/>
    <path id="Trazado_1764" data-name="Trazado 1764" d="M-2524.161,1507l1.28-3c.33-.776.649-1.558,1-2.325.059-.13.253-.2.39-.29.029-.019.081,0,.123,0,1.169-.018,1.17-.019,1.628,1.057q.927,2.178,1.853,4.356a3.5,3.5,0,0,0,.192.325c.154-.364.285-.656.4-.953q.892-2.237,1.777-4.476a.421.421,0,0,1,.465-.313c.5.021,1.008.006,1.592.006-.279.694-.517,1.292-.759,1.889q-1.486,3.653-2.974,7.3c-.092.225-.139.462-.491.458-.328,0-.424-.194-.524-.431q-1.277-3.021-2.56-6.039c-.055-.13-.129-.251-.242-.467l-1.354,3.179c-.483,1.132-.969,2.264-1.448,3.4a.467.467,0,0,1-.487.357c-.282-.009-.368-.168-.458-.391q-1.777-4.385-3.567-8.766c-.055-.135-.1-.275-.177-.483.646,0,1.222-.013,1.8.013.09,0,.208.167.254.28.673,1.652,1.337,3.309,2,4.964.05.123.109.241.164.361Z" transform="translate(-412.004 -35.649)"/>
    <path id="Trazado_1765" data-name="Trazado 1765" d="M-2681.716,1504.3c-.008.142-.021.285-.022.427,0,1.869-.015,3.738,0,5.607,0,.367-.127.462-.452.449-.345-.014-.692-.01-1.038,0-.246.006-.343-.089-.342-.343q.01-4.424,0-8.847c0-.249.08-.367.335-.339a.153.153,0,0,0,.042,0,1.982,1.982,0,0,1,2.038.876c1.409,1.778,2.923,3.473,4.388,5.206a1.883,1.883,0,0,1,.2.407l.182-.143c.009-.1.027-.2.027-.307,0-1.883.008-3.766,0-5.649,0-.287.08-.406.374-.393.373.016.748.015,1.121,0,.26-.01.333.1.333.347q-.008,4.424,0,8.848c0,.265-.114.336-.351.33a7.762,7.762,0,0,1-.912-.012.96.96,0,0,1-.558-.27q-2.529-2.973-5.026-5.972a1.622,1.622,0,0,1-.168-.333Z" transform="translate(-286.442 -35.531)"/>
    <path id="Trazado_1766" data-name="Trazado 1766" d="M-2437.567,1505.652a4.691,4.691,0,0,1-3.454,4.513,5.52,5.52,0,0,1-5.389-1.014,4.456,4.456,0,0,1-1.548-4.447,4.624,4.624,0,0,1,3.309-3.75,5.927,5.927,0,0,1,3.951.07A4.709,4.709,0,0,1-2437.567,1505.652Zm-1.918-.076a3.118,3.118,0,0,0-3.139-3.265,3.155,3.155,0,0,0-3.491,3.168,3.171,3.171,0,0,0,3.234,3.323A3.148,3.148,0,0,0-2439.485,1505.576Z" transform="translate(-477.144 -35.065)"/>
    <path id="Trazado_1767" data-name="Trazado 1767" d="M-2375.91,1510.9c-.58,0-1.161.02-1.739-.014a.613.613,0,0,1-.387-.3c-.441-.767-.852-1.553-1.289-2.323a5.792,5.792,0,0,0-.543-.784,1.665,1.665,0,0,0-1.561-.582c-.281.027-.276.209-.276.414,0,1.052-.009,2.1.012,3.157.007.326-.09.456-.419.44-.359-.017-.72-.008-1.08,0-.259.006-.367-.089-.367-.366q.012-4.4,0-8.805c0-.276.113-.359.374-.357,1.135.009,2.271-.018,3.406.009a2.665,2.665,0,0,1,2.444,3.782,2.645,2.645,0,0,1-.542.724,5.894,5.894,0,0,1-.729.533c1.429,1.167,1.819,2.952,2.81,4.372Zm-5.791-6.779c0,.332-.021.666.011,1,.011.109.156.292.241.292a8.748,8.748,0,0,0,1.488-.068,1.182,1.182,0,0,0,.923-1.136c.021-.711-.2-1.118-.822-1.258a8.193,8.193,0,0,0-1.6-.12c-.077,0-.215.188-.226.3C-2381.719,1503.45-2381.7,1503.784-2381.7,1504.117Z" transform="translate(-529.369 -35.649)"/>
    <path id="Trazado_1768" data-name="Trazado 1768" d="M-2333.747,1505.587c.412-.514.826-1.027,1.235-1.544.636-.8,1.26-1.615,1.913-2.4a.8.8,0,0,1,.514-.252c.562-.032,1.127-.012,1.778-.012-.1.157-.143.249-.2.327-1,1.272-2,2.55-3.018,3.807-.225.278-.2.433.034.686,1.36,1.456,2.7,2.931,4.045,4.4a3.238,3.238,0,0,1,.2.307,9.174,9.174,0,0,0-1.265.01,1.943,1.943,0,0,1-1.9-.859c-1.018-1.2-2.125-2.331-3.2-3.489a1.814,1.814,0,0,0-.212-.159,2.643,2.643,0,0,0-.051.345c0,1.246-.014,2.492,0,3.738,0,.316-.1.423-.4.411a9.681,9.681,0,0,0-1.038,0c-.347.024-.452-.105-.45-.452.015-2.077.009-4.154.01-6.23,0-.831.008-1.661-.005-2.492,0-.271.085-.374.36-.361.373.018.748.019,1.121,0,.3-.014.41.086.4.4-.018,1.149-.007,2.3,0,3.447,0,.106.015.212.023.317Z" transform="translate(-568.073 -35.648)"/>
    <path id="Trazado_1769" data-name="Trazado 1769" d="M-2620.95,1510.91c-.873,0-1.745-.014-2.617.007-.386.009-.528-.093-.525-.513q.031-4.3.008-8.6c0-.337.105-.429.425-.427q2.659.016,5.317,0c.341,0,.459.1.448.453-.035,1.152.206,1.023-1.038,1.031-.956.006-1.911.011-2.866-.009-.328-.007-.446.1-.434.424.019.539.02,1.08,0,1.62-.012.328.108.438.433.433,1.093-.016,2.188,0,3.281-.019.313-.005.432.1.406.4-.015.179,0,.36,0,.54,0,.53,0,.532-.546.532-1.052,0-2.1.009-3.157-.005-.3,0-.424.079-.415.4.02.622.019,1.246,0,1.869-.01.321.128.4.421.4,1.191-.01,2.382.007,3.573-.012.338-.005.424.112.423.432,0,1.04.008,1.04-1.017,1.041h-2.119Z" transform="translate(-334.6 -35.655)"/>
    <path id="Trazado_1770" data-name="Trazado 1770" d="M-2576.409,1506.9c0,1.2-.009,2.41.007,3.614,0,.293-.092.4-.377.394-.36-.01-.721-.015-1.079.005-.338.02-.416-.128-.414-.444.011-2.354.006-4.708.006-7.062,0-.563,0-.556-.544-.551-.8.008-1.606-.005-2.409.011-.347.007-.453-.116-.432-.467.061-1.012.046-1.013,1.052-1.013,2.368,0,4.736.007,7.1-.008.37,0,.477.109.468.474-.029,1.132.185,1-1.019,1.01-.651.007-1.3.019-1.952-.01-.35-.016-.42.119-.416.434C-2576.4,1504.49-2576.41,1505.695-2576.409,1506.9Z" transform="translate(-368.963 -35.656)"/>
    <path id="Trazado_1771" data-name="Trazado 1771" d="M-2456.175,1567.024c0-1.038.011-2.076-.006-3.114-.005-.34.1-.463.449-.455.981.021.981.007.982,1,0,.526.014,1.052,0,1.578-.012.316.085.451.42.446.955-.015,1.91-.011,2.865,0,.308,0,.414-.117.408-.419-.015-.72,0-1.44-.013-2.159-.007-.311.079-.454.422-.441,1.163.044,1-.19,1.01,1.011.008,1.9,0,3.793.009,5.689,0,.35-.092.494-.467.492-1.164-.006-.95.06-.967-.935-.009-.567-.011-1.135,0-1.7.007-.286-.1-.391-.389-.388-.969.011-1.938.013-2.907,0-.322-.005-.4.13-.393.423.014.733-.007,1.467.009,2.2.007.312-.111.406-.414.4-1.243-.014-1,.1-1.013-1.007C-2456.185,1568.768-2456.175,1567.9-2456.175,1567.024Z" transform="translate(-470.562 -85.92)"/>
    <path id="Trazado_1772" data-name="Trazado 1772" d="M-2491.338,1621.139c-.458,0-.893.017-1.325-.013-.094-.007-.2-.173-.258-.288a7.727,7.727,0,0,1-.438-1.031c-.1-.333-.3-.406-.619-.4-.761.021-1.524.028-2.285,0a.511.511,0,0,0-.582.39c-.106.3-.248.587-.343.89-.105.332-.273.525-.657.47a3.321,3.321,0,0,0-.622,0c-.326.015-.383-.112-.26-.4.594-1.416,1.178-2.836,1.765-4.256.3-.729.607-1.456.9-2.19a.56.56,0,0,1,.543-.391,1.242,1.242,0,0,1,1.5.942c.827,2.038,1.761,4.033,2.65,6.046A1.318,1.318,0,0,1-2491.338,1621.139Zm-2.671-2.846-1.116-2.583-.122.03-.985,2.553Z" transform="translate(-436.064 -126.763)"/>
    <path id="Trazado_1773" data-name="Trazado 1773" d="M-2384.479,1575.859a8.087,8.087,0,0,1,1.293-.468,1.435,1.435,0,0,1,1.492.61c.165.231.27.163.461.024a3.151,3.151,0,0,1,1.05-.612,1.641,1.641,0,0,1,2.06,1.709c0,.913-.011,1.827,0,2.74.005.326-.113.439-.436.43-1.01-.025-.872.1-.879-.849-.005-.692,0-1.384,0-2.076,0-.6-.311-1-.758-1.017a1.234,1.234,0,0,0-1.129,1.064c0,.831-.009,1.661,0,2.491,0,.288-.1.385-.386.383-1.066-.009-.914.1-.92-.891,0-.664,0-1.329,0-1.993,0-.619-.313-1.037-.775-1.052a1.234,1.234,0,0,0-1.115,1.076c-.006.8-.015,1.606,0,2.408.008.345-.117.463-.458.456-.947-.02-.816.068-.82-.827-.005-1.177.01-2.353-.007-3.529-.005-.36.106-.522.475-.467a.86.86,0,0,0,.207,0C-2384.77,1575.434-2384.466,1575.459-2384.479,1575.859Z" transform="translate(-527.555 -95.563)"/>
    <path id="Trazado_1774" data-name="Trazado 1774" d="M-2455.529,1627.494a5.04,5.04,0,0,1,.031,1.3c-.205.834-.914,1.063-1.67,1.206-.26.049-.71.208-.709.314,0,.354.4.281.644.357.475.145.961.256,1.425.429a1.118,1.118,0,0,1,.769,1.082,1.305,1.305,0,0,1-.725,1.261,3.856,3.856,0,0,1-2.55.282,2.906,2.906,0,0,1-.966-.353,1.13,1.13,0,0,1,.006-2.021c.137-.085.278-.163.417-.245-.475-.743-.472-.757.263-1.357a2.342,2.342,0,0,0-.187-.144,1.467,1.467,0,0,1-.768-1.644,1.466,1.466,0,0,1,1.261-1.274,28.431,28.431,0,0,1,3.1-.153c.377-.006.212.347.234.551.02.186.051.414-.258.409C-2455.333,1627.492-2455.456,1627.494-2455.529,1627.494Zm-1.838,5.477a4.753,4.753,0,0,0,.914-.336c.294-.175.263-.477,0-.686a2.129,2.129,0,0,0-1.9-.07.64.64,0,0,0-.275.454.684.684,0,0,0,.358.443A4.5,4.5,0,0,0-2457.367,1632.971Zm.754-4.7a.855.855,0,0,0-.874-.814.912.912,0,0,0-.893.857.951.951,0,0,0,.906.854A.939.939,0,0,0-2456.613,1628.271Z" transform="translate(-467.551 -136.998)"/>
    <path id="Trazado_1775" data-name="Trazado 1775" d="M-2679.865,1615.437a10.513,10.513,0,0,0-1.339-.5,2.737,2.737,0,0,0-1.14-.029.9.9,0,0,0-.564.515.732.732,0,0,0,.257.627,13.649,13.649,0,0,0,1.215.7,8.7,8.7,0,0,1,1.283.826,1.88,1.88,0,0,1,.489,2.1,1.861,1.861,0,0,1-1.564,1.329,4.025,4.025,0,0,1-2.553-.3c-.33-.169-.539-.351-.477-.76a6.576,6.576,0,0,0,.007-.876c.193.12.315.189.429.268a2.89,2.89,0,0,0,1.9.613.875.875,0,0,0,.9-.6c.106-.358-.065-.7-.506-.942-.568-.316-1.164-.582-1.722-.913a1.971,1.971,0,0,1-1-2.459,1.9,1.9,0,0,1,1.544-1.238,4.162,4.162,0,0,1,2.48.255.5.5,0,0,1,.375.555C-2679.881,1614.854-2679.865,1615.115-2679.865,1615.437Z" transform="translate(-285.776 -126.608)"/>
    <path id="Trazado_1776" data-name="Trazado 1776" d="M-2579.375,1575.863c.4,0,.744-.023,1.083.012a.488.488,0,0,1,.314.263c.278.633.53,1.277.794,1.916.049.117.115.227.226.442.322-.782.6-1.453.874-2.126.1-.254.156-.51.539-.523a.651.651,0,0,1,.739.488,14.537,14.537,0,0,0,.942,2.07c.1-.23.208-.458.3-.691.209-.512.423-1.023.613-1.542a.4.4,0,0,1,.461-.312c.31.018.622,0,1.021,0-.244.581-.445,1.074-.658,1.562q-.646,1.484-1.3,2.964c-.088.2-.146.415-.445.413s-.383-.222-.477-.438q-.465-1.065-.932-2.129a2.013,2.013,0,0,0-.144-.222,2.411,2.411,0,0,0-.186.287c-.322.72-.627,1.448-.968,2.158a.589.589,0,0,1-.413.308.577.577,0,0,1-.406-.31c-.655-1.434-1.289-2.879-1.926-4.321A1.565,1.565,0,0,1-2579.375,1575.863Z" transform="translate(-370.809 -95.953)"/>
    <path id="Trazado_1777" data-name="Trazado 1777" d="M-2497.54,1566.245a6.691,6.691,0,0,1,1.352-.5,1.525,1.525,0,0,1,1.805,1.416c.089,1.059.049,2.13.064,3.2,0,.041-.007.115-.02.117a7.168,7.168,0,0,1-1.05.145c-.082,0-.239-.242-.243-.376-.024-.789-.008-1.579-.016-2.369-.007-.708-.289-1.082-.806-1.089a1.144,1.144,0,0,0-1.087,1.163c0,.762-.009,1.524.006,2.286.006.3-.094.423-.406.416-1.073-.024-.9.093-.9-.868-.008-1.953,0-3.907-.011-5.86,0-.365.1-.484.474-.467.886.041.843-.184.838.845C-2497.543,1564.96-2497.54,1565.62-2497.54,1566.245Z" transform="translate(-436.012 -85.919)"/>
    <path id="Trazado_1778" data-name="Trazado 1778" d="M-2684.532,1577.925a2.449,2.449,0,0,1,2.516-2.56,2.471,2.471,0,0,1,2.772,2.336,2.452,2.452,0,0,1-2.591,2.69A2.463,2.463,0,0,1-2684.532,1577.925Zm1.382-.072c0,.881.435,1.481,1.119,1.54a1.387,1.387,0,0,0,1.438-1.73c-.1-.776-.531-1.27-1.149-1.311C-2682.6,1576.293-2683.149,1576.876-2683.149,1577.852Z" transform="translate(-285.658 -95.562)"/>
    <path id="Trazado_1779" data-name="Trazado 1779" d="M-2536.662,1628.862c.019.742.474,1.171,1.3,1.268a2.9,2.9,0,0,0,1.818-.558.743.743,0,0,1-.32,1.161,3.131,3.131,0,0,1-3.646-.5,2.754,2.754,0,0,1-.005-3.347,2.487,2.487,0,0,1,3.1-.494,2.349,2.349,0,0,1,1.049,2.175c0,.287-.21.275-.412.275q-1.225,0-2.451,0C-2536.371,1628.839-2536.518,1628.854-2536.662,1628.862Zm.992-.824v0a6.436,6.436,0,0,0,.823-.014.342.342,0,0,0,.188-.279.922.922,0,0,0-.941-.763,1.048,1.048,0,0,0-1.031.735c-.064.216-.005.319.218.322C-2536.165,1628.04-2535.917,1628.038-2535.67,1628.038Z" transform="translate(-404.25 -136.608)"/>
    <path id="Trazado_1780" data-name="Trazado 1780" d="M-2430.226,1628.918c.027,1.329,1.271,1.6,3.14.751.248.577.147.937-.385,1.165a3.311,3.311,0,0,1-3.073-.077,2.526,2.526,0,0,1-1-2.893,2.325,2.325,0,0,1,2.07-1.7,2.257,2.257,0,0,1,2.568,2.375c.005.3-.115.39-.393.387-.817-.009-1.634,0-2.451,0Zm1-.8c.248,0,.5-.005.742,0,.306.008.348-.125.246-.387a.934.934,0,0,0-.934-.671,1.06,1.06,0,0,0-1,.666c-.1.254-.062.4.246.393C-2429.691,1628.116-2429.458,1628.12-2429.224,1628.119Z" transform="translate(-490.433 -136.689)"/>
    <path id="Trazado_1781" data-name="Trazado 1781" d="M-2330.771,1629.618c.171.846.072,1.066-.667,1.291a3.431,3.431,0,0,1-2.74-.121,2.525,2.525,0,0,1-1.054-3.081,2.3,2.3,0,0,1,2.572-1.578,2.228,2.228,0,0,1,2,2.5c0,.089-.238.242-.367.245q-1.308.033-2.618,0c-.366-.008-.4.127-.28.424a1.651,1.651,0,0,0,2.234.749C-2331.387,1629.937-2331.1,1629.775-2330.771,1629.618Zm-2.189-1.53v0c.248,0,.5-.005.743,0,.279.008.338-.131.256-.367a.931.931,0,0,0-.794-.688,1.019,1.019,0,0,0-1.075.526c-.238.434-.19.521.292.524C-2333.346,1628.089-2333.153,1628.088-2332.961,1628.088Z" transform="translate(-568.386 -136.658)"/>
    <path id="Trazado_1782" data-name="Trazado 1782" d="M-2651.68,1629.571c.224.711.146.963-.471,1.2a3.32,3.32,0,0,1-2.888-.068,2.567,2.567,0,0,1-.9-3.45,2.45,2.45,0,0,1,3.282-.945,2.424,2.424,0,0,1,1.142,2.249c-.018.1-.242.239-.374.243-.844.022-1.689.011-2.534.012-.451,0-.524.121-.319.516a1.675,1.675,0,0,0,2.173.658C-2652.264,1629.866-2651.977,1629.711-2651.68,1629.571Zm-2.085-1.559h0c.249,0,.5,0,.746,0,.224.005.3-.08.232-.3a1.025,1.025,0,0,0-.98-.752,1.075,1.075,0,0,0-1.019.712c-.08.229-.016.347.235.346S-2654.027,1628.012-2653.765,1628.012Z" transform="translate(-308.555 -136.581)"/>
    <path id="Trazado_1783" data-name="Trazado 1783" d="M-2601.657,1578.8c.2.8.1,1.022-.6,1.269a3.411,3.411,0,0,1-2.55,0,2.6,2.6,0,0,1-1.15-3.508,2.462,2.462,0,0,1,3.287-1.038,2.5,2.5,0,0,1,1.189,2.233c-.029.282-.2.288-.406.288-.83,0-1.661,0-2.492,0-.491,0-.556.125-.318.569a1.682,1.682,0,0,0,2.157.6C-2602.247,1579.11-2601.972,1578.948-2601.657,1578.8Zm-2.15-1.55a6.283,6.283,0,0,0,.824-.014.349.349,0,0,0,.195-.283.977.977,0,0,0-.948-.767,1.1,1.1,0,0,0-1.039.739c-.062.208,0,.323.225.323Z" transform="translate(-349.064 -95.476)"/>
    <path id="Trazado_1784" data-name="Trazado 1784" d="M-2412.785,1580.141c-.205.16-.309.244-.416.323a1.688,1.688,0,0,1-2.74-1.183c-.083-1.018-.041-2.046-.039-3.07,0-.1.1-.278.168-.283a4.783,4.783,0,0,1,.989.012c.065.008.142.245.144.377.013.8,0,1.606,0,2.409,0,.75.273,1.079.851,1.067a1.092,1.092,0,0,0,1.043-1.113c0-.775.011-1.551,0-2.326-.006-.329.084-.475.446-.462.917.032.867-.17.865.863,0,1.177-.009,2.354,0,3.531,0,.32-.093.47-.426.431a1.565,1.565,0,0,0-.373,0C-2412.617,1580.761-2412.839,1580.661-2412.785,1580.141Z" transform="translate(-503.105 -95.991)"/>
    <path id="Trazado_1785" data-name="Trazado 1785" d="M-2311.261,1575.891a6.328,6.328,0,0,1,1.245-.469,1.559,1.559,0,0,1,1.884,1.548c.051.994.034,1.992.054,2.988.006.271-.115.362-.377.36-1.1-.012-.913.119-.926-.873-.009-.678,0-1.357,0-2.036-.006-.62-.364-1.044-.851-1.026a1.2,1.2,0,0,0-1.055,1.086c0,.8-.011,1.607,0,2.41.006.308-.06.453-.411.444-1.035-.026-.887.093-.891-.883,0-1.149.01-2.3-.008-3.448-.006-.368.088-.56.489-.5a1.066,1.066,0,0,0,.29,0C-2311.488,1575.456-2311.232,1575.509-2311.261,1575.891Z" transform="translate(-586.828 -95.592)"/>
    <path id="Trazado_1786" data-name="Trazado 1786" d="M-2400.508,1626.815a1.9,1.9,0,0,1,1.544-.68,1.591,1.591,0,0,1,1.595,1.543c.049,1.022.017,2.048.024,3.072,0,.23-.1.3-.329.316-.967.053-.966.06-.967-.88q0-1,0-1.993c0-.633-.319-1.052-.8-1.058a1.186,1.186,0,0,0-1.095,1.12c0,.775-.013,1.551.006,2.325.009.348-.086.5-.465.49-1-.029-.859.087-.864-.869-.005-1.176.01-2.353-.007-3.529-.005-.358.1-.524.474-.471a.925.925,0,0,0,.249,0C-2400.778,1626.151-2400.487,1626.21-2400.508,1626.815Z" transform="translate(-514.54 -136.673)"/>
    <path id="Trazado_1787" data-name="Trazado 1787" d="M-2336.27,1579.255c.156.54.117.679-.365.872-.516.207-1.049.4-1.522-.134-.05-.056-.234-.007-.352.017a7.368,7.368,0,0,1-1.353.266,1.029,1.029,0,0,1-1.007-.845,1.187,1.187,0,0,1,.479-1.431c.5-.278,1.072-.423,1.6-.658.207-.092.591,0,.549-.419a.688.688,0,0,0-.718-.613,2,2,0,0,0-1.385.46l-.326.249c-.256-.8-.119-1.173.559-1.473a2.951,2.951,0,0,1,2.265-.082,1.28,1.28,0,0,1,.9,1.306c0,.623,0,1.246,0,1.869C-2336.949,1579.389-2336.947,1579.389-2336.27,1579.255Zm-2.046-1.37a7.228,7.228,0,0,0-1.036.57.534.534,0,0,0-.153.771.619.619,0,0,0,.819.171C-2338.193,1579.184-2338.071,1578.73-2338.316,1577.886Z" transform="translate(-563.887 -95.494)"/>
    <path id="Trazado_1788" data-name="Trazado 1788" d="M-2622.556,1567.328c0,1.079.006,2.157,0,3.236a2.32,2.32,0,0,1-1.494,2.271c-.052.019-.1.04-.157.053-.743.185-1.2-.289-.982-1.033.023-.078.146-.153.238-.181a1.167,1.167,0,0,0,.964-1.339q.006-3.132,0-6.265c0-.573,0-.573.565-.568.868.007.868.007.867.88Q-2622.557,1565.855-2622.556,1567.328Z" transform="translate(-333.666 -85.958)"/>
    <path id="Trazado_1789" data-name="Trazado 1789" d="M-2653.941,1568.288c0-.512-.008-1.025,0-1.537.005-.256-.061-.4-.353-.361-.347.043-.343-.209-.317-.436s-.144-.595.311-.571c.286.015.355-.1.361-.36a2.249,2.249,0,0,1,.58-1.6,1.907,1.907,0,0,1,1.927-.443c.466.106.219.559.248.858s-.209.218-.386.21c-.7-.033-.994.218-1.077.907-.036.3.057.46.38.422s.492.076.474.436c-.016.317.028.642-.456.577-.348-.047-.41.142-.406.448.016.969,0,1.938.013,2.907.006.342-.1.459-.452.453-.963-.017-.843.1-.849-.833,0-.36,0-.72,0-1.08Z" transform="translate(-309.882 -85.474)"/>
    <path id="Trazado_1790" data-name="Trazado 1790" d="M-2519.023,1576.861c-.429-.13-.857-.262-1.287-.388a.4.4,0,0,0-.242-.026c-.154.07-.368.146-.414.271-.037.1.106.33.23.411.474.31,1.007.536,1.453.878a1.342,1.342,0,0,1-.265,2.32,2.687,2.687,0,0,1-1.083.221,6.488,6.488,0,0,1-1.139-.19.525.525,0,0,1-.492-.669,4.5,4.5,0,0,0,0-.59,6.666,6.666,0,0,0,.853.333,3.074,3.074,0,0,0,.936.1.611.611,0,0,0,.4-.339c.036-.081-.11-.308-.229-.381-.34-.21-.716-.361-1.065-.56-.507-.288-.954-.625-.935-1.3a1.33,1.33,0,0,1,1.174-1.345,4.362,4.362,0,0,1,1.513.07C-2518.9,1575.832-2518.8,1576.114-2519.023,1576.861Z" transform="translate(-417.025 -95.728)"/>
    <path id="Trazado_1791" data-name="Trazado 1791" d="M-2303.494,1627.65c-.112-.048-.218-.1-.33-.14a5.264,5.264,0,0,0-1.028-.3c-.188-.02-.4.161-.6.252a1.793,1.793,0,0,0,.348.453c.436.292.909.528,1.348.815a1.279,1.279,0,0,1,.5,1.472,1.234,1.234,0,0,1-1.1,1,9.75,9.75,0,0,1-1.847-.093.529.529,0,0,1-.514-.691,4.167,4.167,0,0,0,0-.581,9.738,9.738,0,0,0,.942.365,2.292,2.292,0,0,0,.813.094.611.611,0,0,0,.423-.317c.041-.095-.1-.339-.219-.417-.359-.231-.754-.406-1.128-.616a1.39,1.39,0,0,1-.854-1.049,1.316,1.316,0,0,1,1.166-1.546,4.068,4.068,0,0,1,1.514.069C-2303.336,1626.59-2303.247,1626.854-2303.494,1627.65Z" transform="translate(-591.567 -136.817)"/>
    <path id="Trazado_1792" data-name="Trazado 1792" d="M-2602.066,1628.992c.271-.662.577-1.312.8-1.989.151-.456.37-.674.862-.6a5.541,5.541,0,0,0,.77.006c-.293.685-.546,1.291-.812,1.891-.408.924-.815,1.848-1.249,2.76a.568.568,0,0,1-.415.293.63.63,0,0,1-.465-.291c-.663-1.416-1.3-2.845-1.942-4.27-.115-.255-.08-.395.239-.386,1.217.034.891-.206,1.376.882.251.564.475,1.139.712,1.71Z" transform="translate(-350.403 -136.882)"/>
    <path id="Trazado_1793" data-name="Trazado 1793" d="M-2370.473,1627.708c-.4-.116-.7-.225-1-.288a1.341,1.341,0,0,0-1.465.537,1.5,1.5,0,0,0-.055,1.687,1.344,1.344,0,0,0,1.375.669,4.2,4.2,0,0,0,.918-.239c.211-.069.3-.035.327.2.072.723-.059.925-.787,1a3.544,3.544,0,0,1-2.3-.3,2.447,2.447,0,0,1-1.062-2.666,2.246,2.246,0,0,1,1.964-1.917,9.354,9.354,0,0,1,1.639.1c.349.035.5.246.453.605A5.2,5.2,0,0,0-2370.473,1627.708Z" transform="translate(-536.633 -136.873)"/>
    <path id="Trazado_1794" data-name="Trazado 1794" d="M-2559.556,1627.781c-.909-.423-1.712-.643-2.408.143a1.578,1.578,0,0,0-.144,1.68,1.314,1.314,0,0,0,1.182.726,9.2,9.2,0,0,0,1.435-.245c0,.291.009.584-.007.877,0,.06-.094.132-.16.168a3.189,3.189,0,0,1-3.478-.669,2.522,2.522,0,0,1-.341-2.553,2.1,2.1,0,0,1,1.787-1.485,8.77,8.77,0,0,1,1.8.123c.283.025.358.206.343.465C-2559.566,1627.239-2559.556,1627.469-2559.556,1627.781Z" transform="translate(-383.525 -136.892)"/>
    <path id="Trazado_1795" data-name="Trazado 1795" d="M-2624.947,1627.225c.182-.257.3-.447.438-.613a1.253,1.253,0,0,1,1.874-.1.451.451,0,0,1,.082.321,1.1,1.1,0,0,1-.121.306c-.235.573-.235.573-.8.332a.8.8,0,0,0-1.067.266,2.849,2.849,0,0,0-.458,1.161,13.415,13.415,0,0,0-.019,1.822c0,.235-.065.35-.332.347-1.15-.013-.97.14-.979-.949-.009-1.147.008-2.295-.009-3.442-.005-.352.089-.492.467-.48.793.027.793.008.845.79A1.282,1.282,0,0,0-2624.947,1627.225Z" transform="translate(-332.781 -136.677)"/>
    <path id="Trazado_1796" data-name="Trazado 1796" d="M-2573.911,1628.905c0,.677-.008,1.355,0,2.032.005.284-.1.4-.387.393-1.1-.016-.934.11-.94-.911-.008-1.175.007-2.35-.006-3.525,0-.32.1-.443.428-.434,1.026.03.894-.13.9.911C-2573.908,1627.882-2573.911,1628.394-2573.911,1628.905Z" transform="translate(-374.157 -136.937)"/>
    <path id="Trazado_1797" data-name="Trazado 1797" d="M-2347.536,1628.9c0-.677.008-1.354,0-2.031-.006-.3.094-.419.409-.407,1.025.037.886-.183.893.9.007,1.188-.006,2.376.007,3.564,0,.3-.082.415-.4.408-1.052-.023-.895.121-.9-.9C-2347.539,1629.922-2347.535,1629.411-2347.536,1628.9Z" transform="translate(-558.533 -136.939)"/>
    <path id="Trazado_1798" data-name="Trazado 1798" d="M-2533.291,1578.347c0,.651-.01,1.3,0,1.952.006.3-.1.42-.413.409-1.021-.036-.894.159-.9-.908,0-1.163.007-2.326-.007-3.488,0-.32.092-.444.427-.433,1,.035.877-.128.885.891C-2533.287,1577.3-2533.291,1577.821-2533.291,1578.347Z" transform="translate(-407.062 -95.98)"/>
    <path id="Trazado_1799" data-name="Trazado 1799" d="M-2533.451,1565.03a.782.782,0,0,1-.752.742.787.787,0,0,1-.708-.789.708.708,0,0,1,.733-.693A.7.7,0,0,1-2533.451,1565.03Z" transform="translate(-406.813 -86.597)"/>
    <path id="Trazado_1800" data-name="Trazado 1800" d="M-2346.542,1615.61a.716.716,0,0,1-.735.734.753.753,0,0,1-.747-.732.812.812,0,0,1,.719-.74A.818.818,0,0,1-2346.542,1615.61Z" transform="translate(-558.142 -127.555)"/>
    <path id="Trazado_1801" data-name="Trazado 1801" d="M-2575.477,1615.624a.726.726,0,0,1,.7-.771.8.8,0,0,1,.75.749.747.747,0,0,1-.7.734A.7.7,0,0,1-2575.477,1615.624Z" transform="translate(-373.965 -127.539)"/>
  </g>
</svg>
