<svg xmlns="http://www.w3.org/2000/svg" width="129.43" height="57.471" viewBox="0 0 129.43 57.471">
  <g id="Grupo_1428" data-name="Grupo 1428" transform="translate(-1563.269 -4488)">
    <path id="Trazado_970" data-name="Trazado 970" d="M873.466,604.863c-.933,1.008-1.7,1.9-2.535,2.723a3.811,3.811,0,0,1-5.835-.024c-.813-.81-1.567-1.679-2.433-2.614-.947.924-1.76,1.714-2.568,2.509-1.993,1.962-4.118,1.962-6.116-.009q-3.347-3.3-6.686-6.614a3.769,3.769,0,0,1-.05-5.751q3.454-3.458,6.956-6.869a3.859,3.859,0,0,1,5.717.017c.838.828,1.638,1.694,2.549,2.639.866-.854,1.649-1.628,2.434-2.4,2.032-2,4.16-2.027,6.183-.038.773.76,1.473,1.594,2.427,2.635.931-1.035,1.683-1.938,2.506-2.77a3.866,3.866,0,0,1,5.846-.055q3.457,3.39,6.888,6.807a3.736,3.736,0,0,1-.021,5.741q-3.395,3.387-6.82,6.743a3.873,3.873,0,0,1-5.919-.027C875.2,606.718,874.446,605.892,873.466,604.863Zm-10.883-10.572-3.528,3.611,3.434,3.617,3.561-3.59Zm10.953-.009-3.454,3.535,3.411,3.7,3.57-3.63Zm9.025-1.824c-.839-.863-1.682-1.773-2.575-2.632a1.357,1.357,0,0,0-2.009-.04c-.93.853-1.795,1.779-2.525,2.511l3.627,3.785Zm0,10.933-3.527-3.689-3.618,3.681c.818.85,1.645,1.771,2.542,2.619a1.388,1.388,0,0,0,2.077-.058C880.906,605.111,881.733,604.231,882.559,603.391Zm1.971-1.781c.918-.933,1.851-1.833,2.724-2.788a1.2,1.2,0,0,0,.069-1.7c-.917-.99-1.92-1.9-2.929-2.882l-3.531,3.643Zm-33-7.406c-.984,1-1.886,1.891-2.755,2.81a1.2,1.2,0,0,0-.093,1.7c.906,1,1.92,1.9,2.921,2.871l3.5-3.636Zm12.917,9.145c.857.9,1.689,1.821,2.574,2.689a1.28,1.28,0,0,0,1.856.1c.972-.89,1.847-1.887,2.7-2.77l-3.554-3.69Zm-3.76.11-3.606-3.736-3.585,3.652c.781.822,1.566,1.7,2.407,2.52a1.453,1.453,0,0,0,2.291.028C859.053,605.119,859.87,604.269,860.685,603.459Zm3.737-11.024,3.564,3.728,3.559-3.756c-.771-.793-1.585-1.685-2.46-2.513a1.4,1.4,0,0,0-2.143-.006C866.069,590.718,865.245,591.6,864.423,592.435Zm-7.408,3.747,3.636-3.693c-.842-.871-1.662-1.76-2.528-2.6a1.3,1.3,0,0,0-1.92-.159c-.954.911-1.808,1.926-2.607,2.791Z" transform="translate(761.722 3936.539)"/>
    <path id="Trazado_971" data-name="Trazado 971" d="M732.658,397.815h2.989V414.12c-1.362,0-2.746.034-4.124-.033-.229-.011-.485-.432-.647-.711q-3.077-5.31-6.127-10.636c-.15-.26-.3-.518-.6-1.019,0,.517,0,.774,0,1.031.049,3.5.083,7.01.164,10.514.016.709-.213.935-.9.884-.7-.052-1.414-.012-2.169-.012V397.78c1.356,0,2.682-.039,4,.033.263.014.573.412.743.7,2.054,3.5,4.085,7.02,6.125,10.531.148.255.314.5.545.865Z" transform="translate(863.181 4090.459)"/>
    <path id="Trazado_972" data-name="Trazado 972" d="M607.691,404.95c.1-.891.137-1.8.324-2.67a6.608,6.608,0,0,1,6.417-5.684,12.3,12.3,0,0,1,3.144.111,6.406,6.406,0,0,1,5.375,5.013,12.1,12.1,0,0,1,.156,5.713c-.88,4.187-3.989,6.339-8.429,5.9C610.117,412.876,607.766,410.032,607.691,404.95Zm3.585-.034a24.645,24.645,0,0,0,.626,3.1,3.974,3.974,0,0,0,7.359-.119,9.607,9.607,0,0,0,.006-5.943,3.971,3.971,0,0,0-7.361-.132A23.923,23.923,0,0,0,611.276,404.916Z" transform="translate(955.578 4091.457)"/>
    <path id="Trazado_973" data-name="Trazado 973" d="M835.856,404.577h5.393v2.847h-5.413V411.6h5.819v2.862h-9.319V398.238h9.331v2.715h-5.81Z" transform="translate(772.788 4090.078)"/>
    <path id="Trazado_974" data-name="Trazado 974" d="M1088.351,397.251c2.489.113,4.946.068,7.358.374a3.644,3.644,0,0,1,3.2,4.945,3.684,3.684,0,0,1-3,2.486c.372.125.549.189.728.243,1.929.591,2.879,1.693,2.983,3.464a4.243,4.243,0,0,1-2.546,4.356,4.184,4.184,0,0,1-1.507.444c-2.381.047-4.763.021-7.215.021Zm1.889,8.637v6.28c1.7-.084,3.345-.055,4.955-.275a2.68,2.68,0,0,0,2.391-3.034,2.517,2.517,0,0,0-2.407-2.7C1093.567,405.953,1091.925,405.972,1090.24,405.888Zm-.008-6.987v5.505c1.66-.078,3.272-.046,4.852-.26a2.145,2.145,0,0,0,2-2.464,2.076,2.076,0,0,0-1.924-2.419C1093.56,399.015,1091.92,399.014,1090.232,398.9Z" transform="translate(564.471 4090.881)"/>
    <path id="Trazado_975" data-name="Trazado 975" d="M1001.609,413.552c-1.819.257-1.835.25-2.428-1.265-.406-1.039-.841-2.069-1.2-3.126a.943.943,0,0,0-1.089-.726c-1.675.036-3.352.032-5.027,0a.89.89,0,0,0-1.022.683c-.38,1.114-.833,2.2-1.261,3.3-.549,1.409-.707,1.484-2.339,1.084q1.577-4.025,3.148-8.034c.976-2.481,1.98-4.95,2.924-7.443a1.107,1.107,0,0,1,1.2-.856c.636,0,.849.3,1.045.807q2.895,7.455,5.814,14.9C1001.458,413.074,1001.517,413.277,1001.609,413.552ZM994.444,399.6l-2.592,7.039h5.189Z" transform="translate(646.738 4090.945)"/>
    <path id="Trazado_976" data-name="Trazado 976" d="M1263.086,398.129v1.591H1256v5.27h6.635v1.675h-6.646v6.019h7.083v1.687h-8.983V398.129Z" transform="translate(429.613 4090.166)"/>
    <path id="Trazado_977" data-name="Trazado 977" d="M916.184,414.42h-1.921V399.8h-5.138v-1.626h12.168v1.588h-5.108Z" transform="translate(710.305 4090.127)"/>
    <path id="Trazado_978" data-name="Trazado 978" d="M1180.968,412.7h7.175v1.678h-8.97V398.177h1.795Z" transform="translate(490.569 4090.127)"/>
    <path id="Trazado_979" data-name="Trazado 979" d="M812.51,531.472V525.9a10.7,10.7,0,0,1,2.22.038,2.147,2.147,0,0,1,1.338.907c.322.622.024,1.267-.854,1.659,1,.376,1.354,1.039,1.052,1.913-.317.914-1.123,1.061-1.975,1.055C813.735,531.469,813.178,531.472,812.51,531.472Zm.69-2.839v2.5a16.047,16.047,0,0,0,2.277-.744c.154-.074.154-.994.013-1.057A16.714,16.714,0,0,0,813.2,528.633Zm.019-2.148v1.736c1.726.138,2.3-.109,2.272-.93C815.463,526.571,814.867,526.352,813.219,526.486Z" transform="translate(788.92 3986.233)"/>
    <path id="Trazado_980" data-name="Trazado 980" d="M770.424,531.528v-5.589c.685,0,1.325-.024,1.963.007.662.032,1.342.134,1.605.864a1.341,1.341,0,0,1-.815,1.766c.947.382,1.285,1.021,1.009,1.866a1.7,1.7,0,0,1-1.853,1.085C771.721,531.531,771.11,531.528,770.424,531.528Zm.657-.57c.9-.039,1.81.31,2.351-.56.161-.259.073-1.009-.09-1.075a15.239,15.239,0,0,0-2.261-.583Zm.028-2.417a19.885,19.885,0,0,0,2.173-.709c.108-.048.082-.844-.041-.894a18.156,18.156,0,0,0-2.132-.6Z" transform="translate(823.164 3986.177)"/>
    <path id="Trazado_981" data-name="Trazado 981" d="M1001.4,528.3c-.005,1.785-.972,2.842-2.6,2.84-1.65,0-2.59-1.085-2.57-2.956a2.523,2.523,0,0,1,2.551-2.809C1000.42,525.361,1001.4,526.461,1001.4,528.3Zm-.7-.014c0-1.821-1.152-2.777-2.636-2.193A2.507,2.507,0,0,0,996.983,529a1.781,1.781,0,0,0,2.239,1.534C1000.2,530.374,1000.7,529.617,1000.693,528.288Z" transform="translate(639.428 3986.626)"/>
    <path id="Trazado_982" data-name="Trazado 982" d="M1251.429,525.923c.621,0,1.084-.007,1.547,0,.8.014,1.611.094,1.9,1a1.632,1.632,0,0,1-.981,2.11l1.365,2.331-.133.214a2.709,2.709,0,0,1-.737-.472,5.419,5.419,0,0,1-.709-1.2c-.309-.7-.8-.882-1.589-.607v2.16l-.213.115c-.151-.149-.432-.3-.435-.448C1251.418,529.43,1251.429,527.729,1251.429,525.923Zm.718.375v2.559a10.9,10.9,0,0,0,1.981-.789,1.174,1.174,0,0,0,0-1.064A10.856,10.856,0,0,0,1252.147,526.3Z" transform="translate(431.777 3986.184)"/>
    <path id="Trazado_983" data-name="Trazado 983" d="M1048.407,525.971a4.536,4.536,0,0,1-.826-.007c-2.041-.384-3.194.7-2.918,2.755a2.075,2.075,0,0,0,2.926,1.632c.338-.194.3-1.045.441-1.628l-1.316-.21-.019-.384,1.89-.148c0,.876.015,1.665-.014,2.453a.592.592,0,0,1-.3.395,2.916,2.916,0,0,1-4.339-2.54c-.044-2.467,2.221-3.782,4.469-2.594Z" transform="translate(600.612 3986.727)"/>
    <path id="Trazado_984" data-name="Trazado 984" d="M1167.833,528.334h2.955c0-.634-.027-1.217.016-1.795.014-.181.216-.348.332-.522.1.161.272.321.275.484.021,1.52.024,3.041,0,4.561,0,.177-.208.351-.32.526-.1-.19-.273-.376-.284-.571-.036-.643-.014-1.289-.014-1.99h-2.962c0,.7.024,1.369-.016,2.039-.011.181-.214.351-.329.525-.108-.181-.306-.361-.309-.544q-.039-2.234,0-4.468c0-.189.2-.375.3-.562.119.2.321.4.34.609C1167.865,527.175,1167.833,527.729,1167.833,528.334Z" transform="translate(500.348 3986.105)"/>
    <path id="Trazado_985" data-name="Trazado 985" d="M686.464,529h-2.958c0,.711.024,1.385-.016,2.056-.011.18-.214.349-.329.522-.094-.162-.268-.324-.271-.487-.021-1.521-.024-3.042,0-4.563,0-.175.214-.347.329-.521a1.8,1.8,0,0,1,.276.579c.038.55.013,1.1.013,1.725h2.952c0-.594-.026-1.174.014-1.749.013-.192.2-.372.3-.558.121.171.343.341.346.514q.038,2.281-.007,4.564c0,.169-.231.333-.355.5-.1-.189-.273-.373-.284-.566C686.442,530.371,686.464,529.724,686.464,529Z" transform="translate(894.402 3986.115)"/>
    <path id="Trazado_986" data-name="Trazado 986" d="M1216.316,528.665c-.359.042-.716.1-1.076.121s-.735,0-1.17,0v1.945c.762.377,1.723-.232,2.366.624h-3.048v-5.371c1.094-.32,2.689-.22,3.183.329h-2.494v1.852l2.21.105Z" transform="translate(462.729 3986.275)"/>
    <path id="Trazado_987" data-name="Trazado 987" d="M724.917,531.352c.655-1.669,1.3-3.341,1.977-5,.077-.189.316-.313.479-.467.155.17.373.314.454.513.659,1.635,1.292,3.281,1.932,4.923l-.192.2c-.213-.2-.513-.357-.625-.6-.552-1.2-1.129-1.549-2.4-1.174-.305.09-.482.622-.714.953-.2.291-.4.586-.6.88Zm3.309-2.278-.885-2.381-.848,2.381Z" transform="translate(860.193 3986.214)"/>
    <path id="Trazado_988" data-name="Trazado 988" d="M850.623,531.5c.666-1.7,1.324-3.4,2.008-5.084.066-.162.293-.366.435-.359s.352.221.419.389c.681,1.688,1.338,3.385,2,5.079l-.266.191c-.215-.268-.452-.522-.638-.81-.212-.327-.322-.92-.576-.981a4.058,4.058,0,0,0-1.922,0c-.279.074-.4.7-.617,1.057-.156.26-.349.5-.526.744Zm3.317-2.279-.9-2.36-.857,2.36Z" transform="translate(757.907 3986.076)"/>
    <path id="Trazado_989" data-name="Trazado 989" d="M1091.94,526.855v1.74h2.266q.018.212.037.424l-2.289.213v1.914l2.44.186-.036.359h-3.038v-5.445h3.016l.056.313C1093.688,527.024,1092.778,526.568,1091.94,526.855Z" transform="translate(562.054 3985.919)"/>
    <path id="Trazado_990" data-name="Trazado 990" d="M642.823,530.608a7.154,7.154,0,0,0,1.724.1,1.409,1.409,0,0,0,.962-.752c.082-.247-.285-.746-.574-.985a5.7,5.7,0,0,0-1.176-.536,1.482,1.482,0,0,1-.923-1.656,1.382,1.382,0,0,1,1.468-1.168,5.358,5.358,0,0,1,1.379.135c.13.026.215.277.321.424a1.454,1.454,0,0,1-.448.13c-.307-.014-.641-.177-.912-.1a6.069,6.069,0,0,0-1.141.591,5.42,5.42,0,0,0,.716,1.136,3.512,3.512,0,0,0,1.009.448,1.448,1.448,0,0,1,1.016,1.591,1.477,1.477,0,0,1-1.466,1.312,5.764,5.764,0,0,1-1.479-.037c-.227-.036-.417-.295-.625-.453Z" transform="translate(927.113 3986.443)"/>
    <path id="Trazado_991" data-name="Trazado 991" d="M957.657,526.9l-1.8-.262.062-.341h4.268c-.486.872-1.25.276-1.883.655v3.482a3.593,3.593,0,0,1-.012.742,3.156,3.156,0,0,1-.292.645c-.116-.2-.326-.406-.333-.614-.034-1.085-.016-2.172-.015-3.258Z" transform="translate(672.275 3985.881)"/>
    <path id="Trazado_992" data-name="Trazado 992" d="M1127.047,527.011l-1.752-.141.036-.379h4.147l.067.286-1.814.292c0,1.193,0,2.45,0,3.708a3.377,3.377,0,0,1-.019.742,1.561,1.561,0,0,1-.308.459c-.1-.153-.293-.3-.3-.46-.025-1.334-.015-2.669-.018-4C1127.088,527.365,1127.065,527.215,1127.047,527.011Z" transform="translate(534.41 3985.72)"/>
    <path id="Trazado_993" data-name="Trazado 993" d="M893.719,526.888l-1.815-.3.066-.324h4.123l.043.335-1.776.285c0,1.192,0,2.451,0,3.71a3.462,3.462,0,0,1-.017.742,1.54,1.54,0,0,1-.3.456c-.105-.154-.3-.3-.3-.461-.029-1.055-.018-2.11-.019-3.165C893.719,527.736,893.719,527.308,893.719,526.888Z" transform="translate(724.317 3985.904)"/>
  </g>
</svg>
