<svg xmlns="http://www.w3.org/2000/svg" width="86.321" height="86.321" viewBox="0 0 86.321 86.321">
  <g id="Grupo_1461" data-name="Grupo 1461" transform="translate(581.051 14.663)">
    <path id="Trazado_1893" data-name="Trazado 1893" d="M-537.89-14.663A43.16,43.16,0,0,0-581.051,28.5,43.161,43.161,0,0,0-537.89,71.658,43.161,43.161,0,0,0-494.73,28.5,43.161,43.161,0,0,0-537.89-14.663Zm24.6,32.4a1.2,1.2,0,0,1,1.205-1.208,1.2,1.2,0,0,1,1.207,1.208V28.656a1.2,1.2,0,0,1-1.207,1.207,1.2,1.2,0,0,1-1.205-1.207Zm-21.5,10.523,5.064-11.256v0a1.068,1.068,0,0,1,1.025-.627A1.094,1.094,0,0,1-527.713,18l-5.039,11.2,0,.005a1.069,1.069,0,0,1-1.01.652,1.116,1.116,0,0,1-1.145-1.126A1.046,1.046,0,0,1-534.791,28.262Zm-11.334-10.523a1.2,1.2,0,0,1,1.206-1.208,1.2,1.2,0,0,1,1.206,1.208V28.656a1.2,1.2,0,0,1-1.206,1.207,1.2,1.2,0,0,1-1.207-1.207Zm-7.4-1.208h3.188a1.132,1.132,0,0,1,1.147,1.128,1.116,1.116,0,0,1-1.147,1.109h-3.187a1.131,1.131,0,0,1-1.149-1.128A1.116,1.116,0,0,1-553.528,16.531Zm-.022,5.38h.54a1.127,1.127,0,0,1,1.126,1.128,1.11,1.11,0,0,1-1.126,1.107h-.54a1.127,1.127,0,0,1-1.127-1.127A1.11,1.11,0,0,1-553.55,21.911Zm-19.4-4.172a1.2,1.2,0,0,1,1.207-1.208,1.2,1.2,0,0,1,1.208,1.208V28.656a1.2,1.2,0,0,1-1.206,1.207,1.2,1.2,0,0,1-1.208-1.207Zm3.759,22a.831.831,0,0,1-.827.827.815.815,0,0,1-.8-.827V33.913h-1.954a.778.778,0,0,1-.782-.769.777.777,0,0,1,.782-.779h2.806a.775.775,0,0,1,.78.779Zm1.925-5.85h-.342a.787.787,0,0,1-.8-.769.776.776,0,0,1,.8-.755h.342a.785.785,0,0,1,.8.767A.778.778,0,0,1-567.267,33.89Zm3.8,1.73v4.12a.814.814,0,0,1-.806.827.833.833,0,0,1-.827-.827V33.1a.831.831,0,0,1,.826-.829.814.814,0,0,1,.806.829Zm-.783-6.409-2.312-4.767h-1.35v0a1.029,1.029,0,0,1-1.022-1.035,1.031,1.031,0,0,1,1.022-1.035h1.588a1.808,1.808,0,0,0,1.918-1.86,1.747,1.747,0,0,0-1.918-1.759h-1.409a1.085,1.085,0,0,1-1.207-1.109c0-1.108,1.207-1.107,1.207-1.107h1.072c3.284,0,4.687,1.622,4.687,3.955a3.6,3.6,0,0,1-2.175,3.523l2.038,4.133a1.183,1.183,0,0,1,.137.514,1.2,1.2,0,0,1-1.206,1.207A1.087,1.087,0,0,1-564.248,29.211Zm6,10.529a.824.824,0,0,1-.816.827.821.821,0,0,1-.815-.827V37.068h-2.085v-.011a.78.78,0,0,1-.687-.77.768.768,0,0,1,.778-.757h1.995V33.1a.82.82,0,0,1,.815-.829.823.823,0,0,1,.816.829Zm1.979-17.373v6.29a1.2,1.2,0,0,1-1.206,1.207,1.2,1.2,0,0,1-1.208-1.207V17.739a1.2,1.2,0,0,1,1.205-1.208,1.2,1.2,0,0,1,1.209,1.208Zm1.734,13.6V39.75a.812.812,0,0,1-.813.816.815.815,0,0,1-.818-.816h0V33.183a.814.814,0,0,1,.818-.818.811.811,0,0,1,.813.818Zm1.564-2.075a.772.772,0,0,1-.781-.769.762.762,0,0,1,.781-.755h1.917a.77.77,0,0,1,.779.767.763.763,0,0,1-.779.758Zm1.079,2.481a.758.758,0,0,1-.767.755h-.324a.767.767,0,0,1-.767-.768.758.758,0,0,1,.767-.755h.324A.768.768,0,0,1-551.9,36.371Zm1.017,4.1h-2.1a.771.771,0,0,1-.78-.766.764.764,0,0,1,.78-.758h2.1a.772.772,0,0,1,.779.768A.763.763,0,0,1-550.879,40.471Zm.836-10.765h-3.484a1.131,1.131,0,0,1-1.149-1.126,1.118,1.118,0,0,1,1.149-1.11h3.484A1.132,1.132,0,0,1-548.9,28.6,1.116,1.116,0,0,1-550.043,29.706Zm7.084,10.189a.772.772,0,0,1-.806.691h-.02a.769.769,0,0,1-.647-.5l-2.422-6.785.083-.03-.085.03a.969.969,0,0,1-.055-.314.735.735,0,0,1,.761-.721.17.17,0,0,1,.049,0,.729.729,0,0,1,.654.48l2.434,6.815a.736.736,0,0,1,.054.273C-542.958,39.859-542.959,39.877-542.959,39.895Zm4.671,0a.745.745,0,0,1-.774.658h-.033v-.089l0,.089a.721.721,0,0,1-.616-.49l-1.619-4.885-.61,1.83a.691.691,0,0,1-.663.457.79.79,0,0,1-.086,0,.7.7,0,0,1-.662-.724.789.789,0,0,1,.005-.084.951.951,0,0,1,.073-.245l1.217-3.615a.727.727,0,0,1,.726-.525.731.731,0,0,1,.73.525l1.715,5.091.553,1.693a.717.717,0,0,1,.05.251A.5.5,0,0,1-538.288,39.9Zm2.455-6.609-1.259,3.606a.775.775,0,0,1-.724.529.733.733,0,0,1-.247-.043.783.783,0,0,1-.523-.738.775.775,0,0,1,.042-.252l1.258-3.6a.782.782,0,0,1,.739-.524.732.732,0,0,1,.251.042.75.75,0,0,1,.505.718A.858.858,0,0,1-535.833,33.288Zm-4.1-8.689h-1.083a1.106,1.106,0,0,1-1.117-1.11,1.11,1.11,0,0,1,1.117-1.119v0h1.419a1.749,1.749,0,0,0,1.919-1.779,1.8,1.8,0,0,0-1.919-1.84h-1.419a1.1,1.1,0,0,1-1.109-1.105,1.1,1.1,0,0,1,1.109-1.112h1.083c3.285,0,4.689,1.821,4.689,4.056S-536.65,24.6-539.935,24.6Zm9.1,16.023a4.2,4.2,0,0,1-4.2-4.2,4.2,4.2,0,0,1,4.2-4.2,4.2,4.2,0,0,1,4.2,4.2A4.2,4.2,0,0,1-530.832,40.622Zm7.423-4.656V39.75a.815.815,0,0,1-.817.816.813.813,0,0,1-.814-.816h0l0-6.567a.811.811,0,0,1,.814-.818.814.814,0,0,1,.817.818Zm-.227-6.1a1.038,1.038,0,0,1-1.008-.652l-1.127-2.412h-3.315a1.077,1.077,0,0,1-1.09-1.07,1.058,1.058,0,0,1,1.09-1.05l.571,0h1.873l-1.195-2.917a1,1,0,0,1-.112-.443,1.051,1.051,0,0,1,1.078-1.059.973.973,0,0,1,.948.614l3.315,7.386a1.049,1.049,0,0,1,.118.475A1.118,1.118,0,0,1-523.636,29.863Zm5.288,9.537a.79.79,0,0,1,.092.351.811.811,0,0,1-.815.815h-.01a.742.742,0,0,1-.713-.444l-1.368-2.817h-.846V37.3a.708.708,0,0,1-.616-.705.712.712,0,0,1,.616-.708v-.008h1.044a1,1,0,0,0,1.067-1.028.965.965,0,0,0-1.067-.971h-.846a.75.75,0,0,1-.817-.746.072.072,0,0,1,0-.015c.016-.749.81-.749.814-.75h.646a3.175,3.175,0,0,1,2.211.687,2.331,2.331,0,0,1,.7,1.785A2.261,2.261,0,0,1-519.534,37Zm1.2-10.763a1.2,1.2,0,0,1-1.186,1.225,1.232,1.232,0,0,1-1.226-1.225V17.6a1.232,1.232,0,0,1,1.226-1.227,1.2,1.2,0,0,1,1.186,1.227Zm2.319,7.234v3.784a.81.81,0,0,1-.815.814.81.81,0,0,1-.817-.814V33.086a.812.812,0,0,1,.817-.817.813.813,0,0,1,.815.817Zm3.374,4.576h-1.919a.772.772,0,0,1-.781-.769.763.763,0,0,1,.781-.757h1.919a.77.77,0,0,1,.779.766A.764.764,0,0,1-511.453,40.448Zm3.816-4.483V39.75a.814.814,0,0,1-.815.816.813.813,0,0,1-.816-.816h0V33.183a.812.812,0,0,1,.816-.818.814.814,0,0,1,.815.818Zm-.611-11.522v0a1.031,1.031,0,0,1-1.023-1.035,1.033,1.033,0,0,1,1.023-1.035h1.588a1.807,1.807,0,0,0,1.916-1.86,1.745,1.745,0,0,0-1.916-1.759h-1.408a1.087,1.087,0,0,1-1.209-1.109c0-1.108,1.209-1.107,1.209-1.107H-507c3.283,0,4.686,1.622,4.686,3.955a3.6,3.6,0,0,1-2.174,3.523l2.035,4.133a1.14,1.14,0,0,1,.139.514,1.2,1.2,0,0,1-1.205,1.207,1.086,1.086,0,0,1-1.068-.652l-2.314-4.767Zm2.136,16.028h-.026a.752.752,0,0,1-.755-.714.381.381,0,0,1,0-.044.784.784,0,0,1,.735-.769,2.313,2.313,0,0,0,2.308-2.522v0a2.315,2.315,0,0,0-2.308-2.524.786.786,0,0,1-.735-.77c0-.014,0-.027,0-.037a.753.753,0,0,1,.76-.722h.028a3.9,3.9,0,0,1,3.885,4.052v0A3.9,3.9,0,0,1-506.113,40.471Z" fill="#1a1818"/>
  </g>
</svg>
