<svg xmlns="http://www.w3.org/2000/svg" width="105.443" height="85.717" viewBox="0 0 105.443 85.717">
  <g id="Grupo_1456" data-name="Grupo 1456" transform="translate(-948 -4511)">
    <g id="R4rxG1" transform="translate(948 4511)">
      <g id="Grupo_1456-2" data-name="Grupo 1456" transform="translate(0 0)">
        <path id="Trazado_1728" data-name="Trazado 1728" d="M-3675.059-68.339c.254-.9.469-1.806.776-2.684a18.365,18.365,0,0,1,.918-2.046,21.377,21.377,0,0,1,4.8-6.319,21.121,21.121,0,0,1,4.289-3.024,20.677,20.677,0,0,1,3.923-1.653c1.006-.3,2.045-.489,3.078-.686a17.178,17.178,0,0,1,4.444-.222,30.188,30.188,0,0,1,3.393.491,18.694,18.694,0,0,1,2.354.622c.673.22,1.32.522,1.974.8a11.822,11.822,0,0,1,2.862,1.923,20.935,20.935,0,0,1,3.727,4,20.2,20.2,0,0,1,2.662,5.059,20.669,20.669,0,0,1,.984,3.629,21.374,21.374,0,0,1,.168,5.743,25.736,25.736,0,0,1-.549,3.188,19.923,19.923,0,0,1-2.017,4.995,22.177,22.177,0,0,1-2.334,3.363,5.372,5.372,0,0,1-.63.622.325.325,0,0,1-.289.014,22.611,22.611,0,0,0-5.653-1.987c-1.057-.212-2.133-.322-3.2-.508-.925-.162-1.853-.327-2.759-.566-.752-.2-.932-.694-.667-1.438.552-1.548,1.149-3.083,1.616-4.656.472-1.589.868-3.207,1.189-4.834a18.807,18.807,0,0,0,.3-4.636,12.222,12.222,0,0,0-1.434-5.331,9.828,9.828,0,0,0-1.74-2.32q-1.3-1.267-2.611-2.522a3.321,3.321,0,0,0-.381-.276l-.091.079a3.517,3.517,0,0,0,.233.394c.549.707,1.106,1.407,1.656,2.114.2.262.4.527.592.8a13.345,13.345,0,0,1,1.859,4.474,15.46,15.46,0,0,1,.308,5.832,8.625,8.625,0,0,1-.362,1.559c-.376,1.112-1.116,1.2-2.079.949a6.255,6.255,0,0,1-2.867-1.868,4.793,4.793,0,0,1-.81-1.47,6.246,6.246,0,0,1-.549-2.526,1.193,1.193,0,0,0-.156-.4,1.412,1.412,0,0,0-.156.4,5.809,5.809,0,0,0,.576,3.064.419.419,0,0,1,.023.1,14.5,14.5,0,0,0-1.347-.7,6.123,6.123,0,0,0-4.138-.355,1.519,1.519,0,0,0-1.012.716.355.355,0,0,0-.017.3.33.33,0,0,0,.287.081,1.372,1.372,0,0,0,.453-.2,2.289,2.289,0,0,1,1.587-.35,7.482,7.482,0,0,1,4.958,2.7,9.249,9.249,0,0,0,1.5,1.509,5.547,5.547,0,0,0,2.548.927l.256.034c-.267.476-.493.926-.761,1.35-.87,1.373-1.76,2.733-2.632,4.1-.57.9-1.134,1.8-1.677,2.709a7.193,7.193,0,0,0-.336.84.32.32,0,0,1-.184.162c-.347.094-.7.157-1.049.256-1.526.439-3.055.868-4.571,1.34-.774.241-1.525.559-2.281.857a.429.429,0,0,1-.476-.068,19.844,19.844,0,0,1-3.089-2.851,21.638,21.638,0,0,1-2.861-4.137,21.551,21.551,0,0,1-1.73-4.338,23.074,23.074,0,0,1-.549-3.046c-.112-.821-.152-1.653-.2-2.481-.018-.311.049-.626.043-.938a4.952,4.952,0,0,0-.1-.671Zm11.956,11.132a6.679,6.679,0,0,0,.743-.076,6.98,6.98,0,0,0,3.906-2.209,6.108,6.108,0,0,0,1.27-2.7.32.32,0,0,0-.274-.444c-.669-.164-1.328-.379-2-.508a4.112,4.112,0,0,0-2.539.318,2.582,2.582,0,0,0-1.6,2.553c0,.645.071,1.29.1,1.935a.892.892,0,0,1-.281.724c-.188.177-.132.334.128.374A5.2,5.2,0,0,0-3663.1-57.207Zm11.2-10.151a4.929,4.929,0,0,0-1.7-3.845,6.544,6.544,0,0,0-2.666-1.42c-.3-.081-.335-.071-.31.235.063.742.136,1.484.226,2.223a7.4,7.4,0,0,0,.813,2.656,3.543,3.543,0,0,0,2.994,2.07c.227.015.355-.061.391-.285Q-3652.031-66.541-3651.9-67.358Zm-3.309-6.769c.613-.069,1.228-.129,1.839-.213.321-.044.372-.194.185-.453a10.2,10.2,0,0,0-2.607-2.565,6.384,6.384,0,0,0-5.166-.861c-.37.083-.4.166-.263.522a5.149,5.149,0,0,0,1.681,2.2A6.753,6.753,0,0,0-3655.212-74.127Zm8.157,5.155c.337-.046.679-.066,1.009-.143a2.32,2.32,0,0,0,1.874-1.678,4.444,4.444,0,0,0,.017-2.217,5.127,5.127,0,0,1-.167-2c.034-.2-.075-.265-.245-.187a5.3,5.3,0,0,0-2.137,1.575,5.315,5.315,0,0,0-1.028,3.938C-3647.657-69.056-3647.646-69.057-3647.055-68.973Zm3.466,1.145c-.085-.062-.17-.172-.27-.19a13.49,13.49,0,0,0-1.8-.26,3.172,3.172,0,0,0-2.939,1.538,6.465,6.465,0,0,0-.87,2.657c-.03.2.076.257.267.237a8,8,0,0,0,2.805-.792,5.241,5.241,0,0,0,2.7-2.869C-3643.663-67.592-3643.637-67.68-3643.589-67.827Zm-20.97-5.037c-.166,0-.333.008-.5,0-.23-.014-.3.051-.213.288a6.684,6.684,0,0,0,2.2,3.154,4.721,4.721,0,0,0,3.676.936c.344-.046.4-.132.251-.433a10.626,10.626,0,0,0-.585-1.1A5.676,5.676,0,0,0-3664.559-72.864Zm12.939-7.163-.084.009c.11.765.171,1.541.343,2.292a18.55,18.55,0,0,0,.656,1.993,8.057,8.057,0,0,0,1.145,2.045c.1.136.194.161.3,0a4.856,4.856,0,0,0-.08-5.581,10.966,10.966,0,0,0-2.005-1.932c-.155-.126-.265-.083-.27.12C-3651.627-80.728-3651.62-80.377-3651.62-80.027ZM-3666.7-61.412a8.773,8.773,0,0,0,1.093-.365,5.463,5.463,0,0,0,2.493-2.9c.076-.166,0-.27-.187-.274a6.381,6.381,0,0,0-.72,0,3.037,3.037,0,0,0-2.029.833,3.79,3.79,0,0,0-1.015,2.257C-3667.1-61.482-3667.091-61.465-3666.7-61.412Zm20.858-15.377a3.037,3.037,0,0,0-.556-1.335c-.083-.144-.2-.162-.307-.023a6.174,6.174,0,0,0-.466.617,3.183,3.183,0,0,0-.557,2.69c.179.576.2.608.7.257A2.486,2.486,0,0,0-3645.838-76.788Z" transform="translate(3715.833 88.841)"/>
        <path id="Trazado_1729" data-name="Trazado 1729" d="M-3557.777,139.479c.3-.383.525-.721.8-1.018a13.715,13.715,0,0,1,4.174-3.283,8.8,8.8,0,0,1,2.686-.743,20.552,20.552,0,0,1,2.427-.178,17.865,17.865,0,0,1,4.55.559c.453.115.9.236,1.363.4a17.228,17.228,0,0,1-4.82,2.876,20.027,20.027,0,0,1-5.468,1.451A23.711,23.711,0,0,1-3557.777,139.479Z" transform="translate(3616.727 -96.454)"/>
        <path id="Trazado_1730" data-name="Trazado 1730" d="M-3535.606,27.347c.08.486.189.969.233,1.458.092,1.02.2,2.043.212,3.066a22.647,22.647,0,0,1-.422,4.96,26.671,26.671,0,0,1-1.384,4.665,25.525,25.525,0,0,1-2.073,4.036,24.688,24.688,0,0,1-2.394,3.15,24.409,24.409,0,0,1-4.041,3.652c-.869.621-1.809,1.144-2.728,1.693a18.579,18.579,0,0,1-3.982,1.728c-1.184.372-2.41.622-3.626.88a23.607,23.607,0,0,1-5.545.324.417.417,0,0,1-.308-.133c-.273-.448-.522-.912-.777-1.372a.642.642,0,0,1-.03-.165c.121.006.219,0,.315.016a23.316,23.316,0,0,0,4.7.11,23.227,23.227,0,0,0,5.257-1.053,21.5,21.5,0,0,0,4.514-2.029,24.2,24.2,0,0,0,4.264-3.2,22.085,22.085,0,0,0,3.114-3.593,23.666,23.666,0,0,0,2.7-5.1,20.838,20.838,0,0,0,1.056-3.725c.181-1.016.274-2.047.41-3.071.076-.567.16-1.133.241-1.7a18.409,18.409,0,0,0,.223-4.389,1.265,1.265,0,0,1,.011-.2Z" transform="translate(3620.693 -6.115)"/>
        <path id="Trazado_1731" data-name="Trazado 1731" d="M-3687.164-90.9l-2.417,2.364.083.1a1.933,1.933,0,0,0,.235-.168c.458-.442.887-.918,1.375-1.324a9.485,9.485,0,0,1,2.447-1.793c.78-.31,1.567-.609,2.372-.841.911-.264,1.843-.455,2.77-.663a7.69,7.69,0,0,1,.985-.148,24.533,24.533,0,0,1,4.758-.04c.449.047.9.089,1.346.143-8.016-.168-14.671,2.729-19.587,9.09s-5.985,13.548-3.911,21.067C-3701.16-71.8-3698.433-84.975-3687.164-90.9Z" transform="translate(3735.842 96.014)"/>
        <path id="Trazado_1732" data-name="Trazado 1732" d="M-3546.4,274.528a.881.881,0,0,0-.084.13q-.78,1.806-1.556,3.614-.441,1.032-.863,2.071a.421.421,0,0,1-.449.314c-.805,0-.8.007-1.106-.723-.6-1.451-1.2-2.9-1.8-4.352-.116-.281-.206-.573-.32-.856a1.021,1.021,0,0,0-.166-.217.9.9,0,0,0-.106.261q-.058.955-.095,1.91-.116,2.977-.223,5.955c-.006.167-.049.268-.23.269-.286,0-.572.009-.858,0-.172,0-.234-.1-.226-.274.069-1.514.127-3.028.2-4.541.089-1.882.192-3.764.277-5.647.012-.271.1-.383.378-.365.331.021.664.011,1,.012a.4.4,0,0,1,.412.293c.674,1.66,1.363,3.313,2.042,4.971.172.418.322.845.494,1.264.034.082.123.14.186.21a.975.975,0,0,0,.162-.207q1.029-2.5,2.05-4.994c.175-.427.357-.851.523-1.282a.354.354,0,0,1,.375-.258c.332.005.665.009,1,0,.211-.006.3.083.308.291q.075,1.73.16,3.46c.1,2,.21,4,.313,6.006.014.277.01.554.019.831.005.149-.057.229-.207.229-.3,0-.61,0-.914,0-.194,0-.244-.1-.251-.278-.046-1.246-.1-2.492-.153-3.739q-.087-2.077-.176-4.153a1.4,1.4,0,0,0-.038-.2Z" transform="translate(3613.939 -212.918)"/>
        <path id="Trazado_1733" data-name="Trazado 1733" d="M-3386.378,277.491c0-1.691.005-3.382-.005-5.073,0-.25.07-.358.322-.346.285.014.575-.007.855.033a.516.516,0,0,1,.3.243c.339.561.66,1.133.989,1.7q1.433,2.469,2.865,4.937c.189.327.352.67.537,1,.039.069.125.111.19.166.041-.076.116-.152.117-.228,0-.452-.017-.9-.017-1.356q-.005-3.022,0-6.044c0-.407,0-.414.4-.44.22-.014.442,0,.663,0s.3.113.292.328,0,.425,0,.637c0,3.161-.006,6.321,0,9.482,0,.274-.079.4-.354.382a.48.48,0,0,0-.083.007,1.122,1.122,0,0,1-1.286-.659c-.824-1.537-1.754-3.017-2.633-4.524-.511-.877-1-1.766-1.511-2.646a1.08,1.08,0,0,0-.2-.2.985.985,0,0,0-.094.286q-.006,3.7,0,7.4c0,.238-.067.341-.312.329s-.5-.009-.748,0c-.23.01-.3-.089-.3-.314.014-.813.015-1.626.018-2.44,0-.887,0-1.774,0-2.661Z" transform="translate(3471.9 -212.909)"/>
        <path id="Trazado_1734" data-name="Trazado 1734" d="M-3689.944,280.18a3.107,3.107,0,0,0,.053-.362q0-3.7-.006-7.4c0-.269.047-.423.358-.4.256.019.516,0,.774,0,.182,0,.24.1.238.264,0,.231,0,.462,0,.693q0,4.782.009,9.564c0,.183-.058.288-.244.291a8.732,8.732,0,0,1-.936-.01.457.457,0,0,1-.288-.215q-1.675-2.84-3.333-5.69c-.349-.6-.689-1.2-1.034-1.8a.983.983,0,0,0-.138-.207.5.5,0,0,0-.163-.073.5.5,0,0,0-.068.167c.005,2.495.01,4.989.029,7.484,0,.267-.078.374-.342.362-.24-.011-.48-.008-.72-.009-.184,0-.258-.085-.258-.275q.005-5.1,0-10.2c0-.242.059-.338.32-.353.946-.055,1.006-.009,1.468.815.727,1.3,1.485,2.575,2.226,3.864.622,1.081,1.237,2.165,1.857,3.247A2.434,2.434,0,0,0-3689.944,280.18Z" transform="translate(3733.536 -212.843)"/>
        <path id="Trazado_1735" data-name="Trazado 1735" d="M-3918.44,276.425a1.588,1.588,0,0,0,.3.135,2.512,2.512,0,0,1,1.972,2.425,3.631,3.631,0,0,1-.186,1.469,2.827,2.827,0,0,1-1.584,1.5,6.99,6.99,0,0,1-2.912.421c-.609-.017-1.215-.1-1.823-.13-.28-.015-.344-.139-.343-.4q.013-4.781.008-9.562c0-.212.005-.425.006-.637a.22.22,0,0,1,.235-.245,12.4,12.4,0,0,1,3.7.033,2.464,2.464,0,0,1,2.1,1.669,2.541,2.541,0,0,1-1.061,3.066c-.12.065-.248.113-.373.169Zm-3.166,2.713h.007c0,.554.01,1.109,0,1.663-.007.256.094.353.338.35.517-.005,1.035.021,1.55-.011a2.644,2.644,0,0,0,1.331-.422,1.739,1.739,0,0,0,.719-1.64,1.807,1.807,0,0,0-1.406-1.793,8.423,8.423,0,0,0-2.256-.155c-.218-.005-.283.114-.281.317C-3921.6,278.01-3921.606,278.574-3921.606,279.137Zm0-4.949h0c0,.508,0,1.016,0,1.524,0,.19.074.3.278.292.425-.011.851,0,1.273-.033a1.776,1.776,0,0,0,1.793-1.655,1.731,1.731,0,0,0-.934-1.708,4.543,4.543,0,0,0-2.069-.237c-.268,0-.354.121-.348.375C-3921.6,273.228-3921.6,273.708-3921.6,274.189Z" transform="translate(3925.359 -212.241)"/>
        <path id="Trazado_1736" data-name="Trazado 1736" d="M-3783.308,276.737a6.839,6.839,0,0,1,.517-2.982,3.964,3.964,0,0,1,3.726-2.541,4.58,4.58,0,0,1,2.486.529,3.946,3.946,0,0,1,1.9,2.418,8.832,8.832,0,0,1-.014,5.265,3.789,3.789,0,0,1-2.8,2.732,4.647,4.647,0,0,1-3.763-.489,4.262,4.262,0,0,1-1.8-2.663A7.439,7.439,0,0,1-3783.308,276.737Zm1.484-.108a7.935,7.935,0,0,0,.46,2.731,2.751,2.751,0,0,0,4.041,1.339,2.8,2.8,0,0,0,1.219-1.787,8.83,8.83,0,0,0,.033-4.165,2.766,2.766,0,0,0-2.969-2.3,2.474,2.474,0,0,0-2.068,1.24A6.4,6.4,0,0,0-3781.824,276.629Z" transform="translate(3807.312 -212.179)"/>
        <path id="Trazado_1737" data-name="Trazado 1737" d="M-3585.273,381.908c.037-.195.069-.39.111-.584q.552-2.513,1.107-5.026c.272-1.233.554-2.465.816-3.7a.315.315,0,0,1,.353-.3c.139,0,.278.006.416,0,.247-.015.283.124.236.318q-.627,2.611-1.256,5.221c-.277,1.157-.543,2.317-.821,3.474-.127.53-.262,1.058-.417,1.58a.368.368,0,0,1-.261.2c-.265.028-.535,0-.8.01-.191,0-.276-.079-.322-.264q-.426-1.735-.87-3.465c-.4-1.555-.8-3.109-1.206-4.663-.062-.241-.113-.485-.181-.723a.481.481,0,0,0-.2-.264c-.044.182-.087.365-.134.547q-.768,2.989-1.534,5.978-.31,1.221-.59,2.449c-.063.275-.158.456-.49.414a5.18,5.18,0,0,0-.692-.011c-.156,0-.223-.071-.26-.223-.273-1.111-.561-2.218-.833-3.329q-.484-1.976-.951-3.956-.349-1.468-.684-2.94c-.066-.288-.013-.35.274-.355.679-.011.7-.016.855.655.24,1.023.453,2.053.677,3.08.234,1.073.473,2.146.7,3.22.174.81.335,1.623.51,2.433.015.068.082.125.125.187.055-.062.142-.117.16-.188.344-1.369.671-2.742,1.02-4.109.429-1.68.877-3.356,1.31-5.035a.267.267,0,0,1,.286-.236l.028,0c.872-.077.921-.055,1.151.832.521,2.019,1.03,4.042,1.54,6.065.208.823.4,1.649.61,2.472a1.371,1.371,0,0,0,.121.253Z" transform="translate(3647.983 -297.582)"/>
        <path id="Trazado_1738" data-name="Trazado 1738" d="M-3844.106,282.347c-.51,0-.995.007-1.479-.008-.071,0-.155-.093-.2-.163q-1.586-2.287-3.163-4.58a1.612,1.612,0,0,1-.1-.2c.326-.124.647-.229.953-.365a2.569,2.569,0,0,0,1.644-1.681,2.07,2.07,0,0,0-1.467-2.641,4.358,4.358,0,0,0-1.538-.1c-.279.027-.375.133-.373.418.011,1.838,0,3.677,0,5.515,0,1.183,0,2.365.008,3.548,0,.2-.075.271-.251.275-.3.007-.609.006-.913.015-.229.007-.3-.1-.3-.322.008-1.229,0-2.458,0-3.686q0-3.187,0-6.375c0-.422,0-.43.421-.448.838-.036,1.679-.116,2.514-.075a5.975,5.975,0,0,1,1.694.365,2.869,2.869,0,0,1,1.781,3.167,3.477,3.477,0,0,1-2.019,2.668c-.269.152-.273.169-.094.427q1.426,2.061,2.844,4.128A.45.45,0,0,1-3844.106,282.347Z" transform="translate(3864.736 -212.401)"/>
        <path id="Trazado_1739" data-name="Trazado 1739" d="M-3462.454,280.36c-.591,0-1.182.012-1.773-.006-.255-.007-.35.09-.416.327q-.272.986-.606,1.955a.448.448,0,0,1-.314.238c-.291.034-.589.006-.884.014-.254.007-.3-.1-.221-.325.207-.6.406-1.206.6-1.811q.955-2.935,1.906-5.871.4-1.237.786-2.479a.4.4,0,0,1,.453-.336c.34.018.683,0,1.024-.012a.405.405,0,0,1,.438.331c.289.925.586,1.846.885,2.768.47,1.447.946,2.892,1.416,4.339q.517,1.592,1.019,3.189c.015.048-.079.188-.127.19a8.473,8.473,0,0,1-1.1-.006.439.439,0,0,1-.3-.256c-.217-.656-.408-1.321-.6-1.984a.324.324,0,0,0-.352-.277c-.609.01-1.219,0-1.828,0Zm.033-6.812-.07-.005a3.02,3.02,0,0,0-.145.338c-.359,1.222-.71,2.446-1.07,3.668-.125.425-.271.844-.4,1.267-.057.185-.038.345.209.344q1.427-.008,2.855-.027c.254,0,.311-.1.232-.334-.116-.35-.236-.7-.342-1.053-.341-1.141-.676-2.285-1.017-3.426C-3462.247,274.061-3462.337,273.805-3462.422,273.548Z" transform="translate(3539.769 -212.897)"/>
        <path id="Trazado_1740" data-name="Trazado 1740" d="M-3545.535,146.146c-.227.251-.416.475-.62.684a22.02,22.02,0,0,1-5.183,3.939,21.312,21.312,0,0,1-3.789,1.611,24.373,24.373,0,0,1-2.8.656,18.6,18.6,0,0,1-3.742.343,20.626,20.626,0,0,1-3.744-.36c-.413-.081-.2-.364-.216-.565-.019-.23.152-.19.306-.186a25.283,25.283,0,0,0,4.83-.267,23.947,23.947,0,0,0,4.66-1.272c.85-.327,1.66-.759,2.494-1.131.606-.27,1.228-.5,1.83-.78a18.135,18.135,0,0,0,3.3-1.857c.526-.39,1.06-.768,1.585-1.158a.339.339,0,0,1,.429-.024C-3545.993,145.9-3545.781,146.01-3545.535,146.146Z" transform="translate(3623.396 -106.136)"/>
        <path id="Trazado_1741" data-name="Trazado 1741" d="M-3594.191-100.454c.771-.25,1.528-.556,2.314-.738a22.793,22.793,0,0,1,5.857-.53,22.858,22.858,0,0,1,4.259.479,22.578,22.578,0,0,1,4.794,1.516,30.917,30.917,0,0,1,3.363,1.747,29.986,29.986,0,0,1,3.14,2.359,19.715,19.715,0,0,1,2,1.986,13.7,13.7,0,0,1,1.86,2.912A20.713,20.713,0,0,1-3565.115-87a.142.142,0,0,1-.021.13c-.047-.087-.1-.172-.141-.261a22.8,22.8,0,0,0-3.777-5.542,23.61,23.61,0,0,0-4.86-4.047,29.574,29.574,0,0,0-4.807-2.327c-.822-.33-1.633-.7-2.477-.959a22.617,22.617,0,0,0-5.949-1.086,23.373,23.373,0,0,0-4.615.225c-.808.134-1.608.315-2.412.475Z" transform="translate(3647.497 102.961)"/>
        <path id="Trazado_1742" data-name="Trazado 1742" d="M-3678.18,22.6c-.031.338-.074.676-.089,1.015a16.648,16.648,0,0,0-.038,1.684,25.231,25.231,0,0,0,.248,2.532c.128.807.337,1.6.538,2.4.144.571.308,1.139.507,1.693a22.13,22.13,0,0,0,1.657,3.59,22.957,22.957,0,0,0,4.678,5.721c.123.109.249.215.4.348-.093.055-.166.1-.243.142-.624.319-1.252.63-1.872.957a.327.327,0,0,1-.46-.072,24.91,24.91,0,0,1-2.706-3.537,19.718,19.718,0,0,1-2.013-4.213,30.062,30.062,0,0,1-.937-3.525,14.859,14.859,0,0,1-.245-2.753c-.01-1.29.035-2.584.14-3.869a16.84,16.84,0,0,1,.435-2.1Z" transform="translate(3718.951 -2.106)"/>
        <path id="Trazado_1743" data-name="Trazado 1743" d="M-3697.15,34.093c-.481.391-.941.773-1.415,1.137-.046.035-.214-.014-.268-.075-.493-.562-1.012-1.107-1.45-1.71-.661-.911-1.311-1.836-1.88-2.805a23.486,23.486,0,0,1-2.353-5.544,23.646,23.646,0,0,1-.855-4.564c-.094-1.211-.055-2.434-.045-3.652a23.627,23.627,0,0,1,.588-4.3c.112-.575.292-1.136.441-1.7l.065.016c-.093.436-.188.872-.279,1.309a19.048,19.048,0,0,0-.388,3.492,21.969,21.969,0,0,0,.427,4.735,19.5,19.5,0,0,0,2.229,6.111c.6,1.035,1.268,2.035,1.918,3.043.64.992,1.274,1.99,1.954,2.955C-3698.079,33.074-3697.609,33.552-3697.15,34.093Z" transform="translate(3741.496 7.806)"/>
        <path id="Trazado_1744" data-name="Trazado 1744" d="M-3666.146,376.764a7.809,7.809,0,0,1-.5,3.175,3.944,3.944,0,0,1-2.305,2.334,4.68,4.68,0,0,1-2.782.119,3.8,3.8,0,0,1-2.775-2.611,8.49,8.49,0,0,1,0-5.651,3.734,3.734,0,0,1,2.741-2.579,4.331,4.331,0,0,1,4.038.843,4.358,4.358,0,0,1,1.213,1.923A7.084,7.084,0,0,1-3666.146,376.764Zm-7.892.138c.064.577.09,1.161.2,1.728.334,1.7,1.239,2.872,2.958,3.041a3.019,3.019,0,0,0,2.929-1.308,4.644,4.644,0,0,0,.71-1.877,7.831,7.831,0,0,0-.242-3.963,3.266,3.266,0,0,0-1.29-1.783,3.259,3.259,0,0,0-4.864,1.759A8.539,8.539,0,0,0-3674.038,376.9Z" transform="translate(3715.773 -296.83)"/>
        <path id="Trazado_1745" data-name="Trazado 1745" d="M-3616.162,277.848q0-2.453,0-4.906c0-.431,0-.427.422-.427q2.37,0,4.74,0c.387,0,.41.017.426.4.033.78.033.783-.741.784-1.025,0-2.051.006-3.077,0-.234,0-.333.056-.329.309q.016,1.358,0,2.716c0,.247.094.32.329.317.952-.009,1.9,0,2.855-.008.2,0,.3.057.294.26,0,.258-.007.516-.01.775,0,.162-.082.221-.246.219-.97-.009-1.94,0-2.91-.022-.262-.007-.316.079-.315.311.007,1.451,0,2.9.012,4.352,0,.263-.082.374-.344.363s-.553-.012-.83,0c-.219.006-.285-.092-.281-.3.01-.656,0-1.312,0-1.968v-3.16Z" transform="translate(3666.068 -213.284)"/>
        <path id="Trazado_1746" data-name="Trazado 1746" d="M-3419.021,377.8c0-1.7.005-3.4-.005-5.1,0-.25.093-.318.32-.327.6-.024.6-.03.6.571,0,1.22,0,2.44,0,3.66,0,.414.02.436.441.436q2.3,0,4.6,0c.445,0,.456-.014.453-.47q-.013-1.885-.02-3.77c0-.422,0-.422.436-.423.481,0,.481,0,.481.5q0,1.913,0,3.827c0,2.052-.005,4.1.006,6.156,0,.261-.084.33-.329.337-.585.017-.589.028-.588-.561,0-1.451.009-2.9.013-4.353,0-.4-.021-.423-.422-.423l-4.658,0c-.386,0-.414.031-.413.4,0,1.553,0,3.106.005,4.658,0,.194-.062.259-.25.27-.671.039-.67.044-.67-.618Q-3419.02,380.183-3419.021,377.8Z" transform="translate(3499.48 -297.656)"/>
        <path id="Trazado_1747" data-name="Trazado 1747" d="M-3860.436,177.285c0,1.69-.005,3.38.006,5.07,0,.211-.055.274-.256.285-.655.035-.657.04-.658-.61q0-2.162,0-4.324c0-.386-.023-.4-.411-.4q-2.342.008-4.684,0c-.354,0-.364.011-.364.377,0,1.561,0,3.123,0,4.684,0,.184-.065.262-.258.269-.648.025-.648.031-.648-.623q0-4.892,0-9.785c0-.364.008-.374.363-.391.073,0,.148.014.221.008.277-.025.337.117.334.368-.015,1.339-.013,2.679-.023,4.018,0,.162.054.249.216.253.23.005.461.005.692.005h4.158c.391,0,.411-.021.411-.4,0-1.294.006-2.587-.01-3.88,0-.287.1-.366.367-.361.544.01.542,0,.543.553q.007,2.342.017,4.684v.194Z" transform="translate(3878.623 -128.218)"/>
        <path id="Trazado_1748" data-name="Trazado 1748" d="M-3859.181,378.049q0-2.467,0-4.935c0-.428,0-.421.426-.421,1.691,0,3.382,0,5.073-.009.172,0,.228.055.249.21.076.571.025.634-.542.635l-3.881,0c-.381,0-.386.007-.386.386v3.022c0,.334.029.366.363.367,1.054,0,2.107.009,3.16-.005.265,0,.38.075.347.342a.7.7,0,0,0,0,.166c.028.237-.063.324-.312.321-1.053-.013-2.107-.005-3.161-.007-.375,0-.4.018-.4.385,0,1.266,0,2.532,0,3.8,0,.219.065.311.306.306.952-.016,1.9-.011,2.854-.014.49,0,.979,0,1.469-.01.227-.006.31.078.315.3.012.544.02.544-.53.544h-4.99c-.362,0-.357,0-.357-.37q0-2.509,0-5.018Z" transform="translate(3871.416 -297.928)"/>
        <path id="Trazado_1749" data-name="Trazado 1749" d="M-3297.446,377.248c0-1.681.007-3.362-.006-5.043,0-.274.081-.382.351-.389.838-.023,1.677-.1,2.514-.078a3.779,3.779,0,0,1,2.248.748,2.349,2.349,0,0,1,.782,1.088,3.432,3.432,0,0,1-1.856,4.557,5.629,5.629,0,0,1-2.182.283c-.212-.006-.425-.01-.636-.035-.246-.029-.331.071-.33.311.008,1.21,0,2.42.013,3.63,0,.257-.077.34-.326.343-.574.007-.575.016-.575-.539q0-2.439,0-4.877Zm.892-2.188c0,.7.01,1.4-.005,2.106-.006.275.095.4.364.392a14.133,14.133,0,0,0,1.956-.09,2.131,2.131,0,0,0,1.675-1.261,3.34,3.34,0,0,0,.2-1.687,1.853,1.853,0,0,0-1.29-1.736,5.8,5.8,0,0,0-2.6-.191c-.244.031-.3.138-.3.361C-3296.547,373.656-3296.554,374.358-3296.554,375.06Z" transform="translate(3396.749 -297.126)"/>
        <path id="Trazado_1750" data-name="Trazado 1750" d="M-3786.56,177.428q0-2.481,0-4.962c0-.411,0-.408.418-.408q2.425,0,4.851,0a.459.459,0,0,1,.423.729c-.04.066-.188.092-.287.093-1.349,0-2.7,0-4.047,0-.411,0-.418.012-.418.419,0,1.007,0,2.014-.008,3.021,0,.237.053.363.319.362q1.551-.011,3.1,0c.133,0,.364.043.379.107a1.624,1.624,0,0,1,0,.624c-.007.041-.19.076-.292.077-1.053,0-2.107.009-3.159-.005-.258,0-.345.083-.344.333q.011,1.954,0,3.908c0,.221.117.261.3.261.841,0,1.681,0,2.522,0,.6,0,1.2.008,1.8,0,.222,0,.335.064.314.3a1.009,1.009,0,0,0,0,.194c.025.254-.089.336-.339.334-1.57-.009-3.141-.006-4.712-.007-.176,0-.352-.015-.526,0-.237.023-.3-.077-.3-.3.01-.933.007-1.866.007-2.8Q-3786.559,178.565-3786.56,177.428Z" transform="translate(3810.056 -128.394)"/>
        <path id="Trazado_1751" data-name="Trazado 1751" d="M-3485.9,371.13c.636.1,1.272.2,1.908.3.164.025.216.1.187.268-.114.644-.067.6-.654.463a5.439,5.439,0,0,0-2.525-.063,1.671,1.671,0,0,0-1.353,1.772,1.458,1.458,0,0,0,.857,1.4c.847.411,1.705.8,2.562,1.187a2.982,2.982,0,0,1,.664,5.009,3.466,3.466,0,0,1-1.625.728,7.653,7.653,0,0,1-3.507-.209.247.247,0,0,1-.2-.325c.1-.641.152-.646.8-.458a4.851,4.851,0,0,0,3.257-.04,2.028,2.028,0,0,0,1.306-1.939,2.017,2.017,0,0,0-1.4-2.034c-.6-.286-1.23-.5-1.838-.769a3.059,3.059,0,0,1-1.581-1.288,2.566,2.566,0,0,1,1-3.5A5.036,5.036,0,0,1-3485.9,371.13Z" transform="translate(3559.115 -296.615)"/>
        <path id="Trazado_1752" data-name="Trazado 1752" d="M-3439.975-21.36a21.311,21.311,0,0,0,2.347-12.48,21.981,21.981,0,0,0-4.94-11.661c.2.189.408.366.592.568a23.231,23.231,0,0,1,3.319,4.524,17.077,17.077,0,0,1,1.621,3.816c.243.936.529,1.863.72,2.81a7.407,7.407,0,0,1,.127,1.814,20.41,20.41,0,0,1-.82,4.538,22.151,22.151,0,0,1-2.748,5.87,1.038,1.038,0,0,1-.1.131A.7.7,0,0,1-3439.975-21.36Z" transform="translate(3519.373 55.442)"/>
        <path id="Trazado_1753" data-name="Trazado 1753" d="M-3921.638,378.136q0-2.41,0-4.82c0-.556,0-.556.551-.555l4.323,0c.343,0,.374.035.376.41,0,.394-.023.424-.386.424-1.191,0-2.383.007-3.575,0-.246,0-.345.054-.342.321.013,1.044.01,2.088,0,3.131,0,.249.073.338.335.334,1.007-.015,2.014-.009,3.02-.009.319,0,.34.028.34.443,0,.351-.023.378-.345.378-1,0-2,.006-2.992-.008-.263,0-.356.075-.354.344.009,1.552,0,3.1.008,4.655,0,.249-.063.339-.322.341-.638.005-.636.018-.636-.623Q-3921.636,380.518-3921.638,378.136Z" transform="translate(3924.193 -297.993)"/>
        <path id="Trazado_1754" data-name="Trazado 1754" d="M-3935.127,177.862q0-2.273,0-4.545c0-.414-.051-.45-.467-.445q-1.163.014-2.326,0a.253.253,0,0,1-.179-.157,1.6,1.6,0,0,1-.017-.385c0-.18.075-.256.271-.255,1.561.008,3.123,0,4.684,0,.527,0,1.054.012,1.58,0,.239-.007.316.093.308.308,0,.074,0,.148,0,.222.012.213-.077.287-.3.283-.776-.017-1.552-.009-2.328-.021-.268,0-.317.132-.316.367q.011,4.365.009,8.73,0,.139,0,.277c0,.619,0,.609-.63.595-.235-.005-.3-.095-.3-.317.007-1.4,0-2.79,0-4.185v-.471Z" transform="translate(3938.119 -128.411)"/>
        <path id="Trazado_1755" data-name="Trazado 1755" d="M-3730.519,377.859q0-2.521,0-5.043c0-.385.018-.4.407-.408h.111c.38.008.388.015.389.39q0,4.558,0,9.116c0,.458.015.456.465.452,1.108-.01,2.216,0,3.324,0,.194,0,.388,0,.581-.007s.279.073.283.275c.013.569.019.57-.537.57-1.57,0-3.14-.007-4.71,0-.257,0-.336-.049-.332-.335.02-1.671.01-3.342.01-5.014Z" transform="translate(3762.707 -297.695)"/>
        <path id="Trazado_1756" data-name="Trazado 1756" d="M-3792.718,377.852q0-2.508,0-5.017c0-.388.007-.4.378-.4.665-.006.571-.038.571.555q.006,4.532,0,9.063c0,.257.056.345.34.341,1.348-.02,2.7-.008,4.045-.016.186,0,.265.053.281.244.048.574.029.6-.531.6-1.589,0-3.178-.006-4.767.007-.266,0-.323-.089-.322-.334.009-1.681,0-3.363,0-5.044Z" transform="translate(3815.259 -297.715)"/>
        <path id="Trazado_1757" data-name="Trazado 1757" d="M-3336.815,377.99c0,1.69,0,3.38.005,5.07,0,.229-.062.3-.292.307-.651.016-.651.026-.651-.621q0-4.862,0-9.724c0-.146.036-.408.092-.418a2.716,2.716,0,0,1,.763-.006c.036,0,.075.192.075.294q.007,2.549,0,5.1Z" transform="translate(3430.804 -297.835)"/>
        <path id="Trazado_1758" data-name="Trazado 1758" d="M-3556.3,175.553l-1.267.35a22.245,22.245,0,0,1-6.58.682c-.334-.009-.335-.013-.236-.325.089-.281.168-.566.277-.839a.3.3,0,0,1,.231-.154c.931.129,1.855.349,2.789.4,1.156.061,2.32,0,3.48-.037.43-.012.859-.089,1.288-.137Z" transform="translate(3622.357 -131.108)"/>
        <path id="Trazado_1759" data-name="Trazado 1759" d="M-3688.588-97.058c.592-.891,1.15-1.808,1.784-2.668a23.523,23.523,0,0,1,3.6-3.792,25.151,25.151,0,0,1,4.8-3.256,26.2,26.2,0,0,1,5.336-2.066,24.04,24.04,0,0,1,5.718-.8,19.946,19.946,0,0,1,2.106.055c-.171.013-.343.031-.515.039-.914.042-1.831.044-2.74.131a26.5,26.5,0,0,0-5.539,1.046,26.521,26.521,0,0,0-4.739,1.992,25.837,25.837,0,0,0-6.073,4.595,28.124,28.124,0,0,0-3.59,4.563.96.96,0,0,1-.153.151Z" transform="translate(3727.267 109.642)"/>
        <path id="Trazado_1760" data-name="Trazado 1760" d="M-3435.31,114.869c-.278.526-.518,1.078-.842,1.574-.64.979-1.324,1.929-2,2.887-.421.6-.426.6-1.039.225-.077-.047-.147-.1-.166-.117.708-.746,1.436-1.462,2.1-2.23s1.265-1.573,1.894-2.363Z" transform="translate(3516.656 -80.052)"/>
        <path id="Trazado_1761" data-name="Trazado 1761" d="M-3617.573-90.874l2.452-1.06.041.092-2.458,1.043Z" transform="translate(3667.255 94.679)"/>
        <path id="Trazado_1762" data-name="Trazado 1762" d="M-3692.716-28.489c-.182.369-.363.739-.548,1.107a2.576,2.576,0,0,1-.146.231l-.062-.035q.382-.647.762-1.295Z" transform="translate(3731.39 41.067)"/>
      </g>
    </g>
  </g>
</svg>
