<svg xmlns="http://www.w3.org/2000/svg" width="98.177" height="67.074" viewBox="0 0 98.177 67.074">
  <g id="Grupo_1455" data-name="Grupo 1455" transform="translate(-998 -4559)">
    <g id="Grupo_1455-2" data-name="Grupo 1455" transform="translate(998 4559)">
      <path id="Trazado_1708" data-name="Trazado 1708" d="M-1457.869,51c.19.113.374.238.571.336,1.05.523,1.091.913.132,1.579a.841.841,0,0,1-.6.122,27.493,27.493,0,0,0-7.878-.736,12.793,12.793,0,0,0-5.075,1.253c-.079.04-.156.087-.237.124a1.823,1.823,0,0,0-1.268,1.754.822.822,0,0,1-.039.186c-.221.958-.221.965-1.185,1.006-.262.011-.359.13-.371.375-.077,1.691-.163,3.381-.236,5.072-.1,2.238-.235,4.476-.262,6.715q-.094,7.752-.088,15.506c0,2.762.083,5.525.205,8.284.09,2.02.274,4.037.476,6.05.2,1.987.484,3.965.709,5.949a33.157,33.157,0,0,1,.244,5.943c-.029.445-.1.528-.555.529q-4.889.007-9.779,0c-.594,0-.656-.076-.662-.652a58.916,58.916,0,0,1,.738-9.16c.193-1.334.334-2.678.418-4.023.156-2.489.241-4.983.377-7.473.332-6.067.4-12.138.243-18.211-.074-2.836-.241-5.671-.41-8.5-.114-1.9-.3-3.805-.467-5.706-.065-.719-.121-.743-.827-.7-.685.041-.67.036-.9-.615a6.352,6.352,0,0,0-.537-1.217,2.607,2.607,0,0,0-3.141-1.029,5.475,5.475,0,0,0-2.087,1.373,1.645,1.645,0,0,1-1.041.5,24.457,24.457,0,0,1-4.689.046c-.43-.028-.863-.014-1.293-.041a.8.8,0,0,1-.458-.135,1.868,1.868,0,0,1-.763-1.353c-.053-2.162-.131-4.324-.142-6.486a9.7,9.7,0,0,1,.282-2,1.252,1.252,0,0,1,1.322-.916c1.971.094,3.943.166,5.913.261a1.677,1.677,0,0,1,1.583,1.129,2.351,2.351,0,0,0,2.8,1.241,1.574,1.574,0,0,0,1.016-1.137,14.8,14.8,0,0,1,.611-1.761.632.632,0,0,1,.7-.4c3.088.16,6.182.241,9.265.474,2.2.166,4.406.455,6.586.825,2.23.378,4.457.83,6.64,1.418a19.984,19.984,0,0,1,6.581,2.869c.459.329.554.486.406.82-.27.611-.538.776-1.06.665q-.653-.139-1.309-.26a3.174,3.174,0,0,0-.4-.025Z" transform="translate(1498.745 -44.079)"/>
      <path id="Trazado_1709" data-name="Trazado 1709" d="M-1082.542,149.606c0-4.456.006-8.913-.005-13.369,0-1.02-.072-.981.948-.968,2.138.027,4.277,0,6.415-.01.4,0,.484.074.484.493q0,6.646.005,13.293c0,4.393.023,8.786-.038,13.178a13.113,13.113,0,0,1-.488,3.655,7.251,7.251,0,0,1-4.8,5.068,10.708,10.708,0,0,1-8.142-.505,7.183,7.183,0,0,1-4.079-5.009,19.119,19.119,0,0,1-.378-4.02c-.05-5.309-.041-10.619-.048-15.928,0-3.132,0-6.264,0-9.4,0-.807,0-.806.781-.808q3.3-.009,6.608-.025c.339,0,.455.179.458.474,0,.471-.009.942-.009,1.413q0,12.644.005,25.287c0,.723.078,1.448.148,2.17a.892.892,0,0,0,.984.891.954.954,0,0,0,.981-.918c.071-.861.154-1.725.158-2.588C-1082.533,157.857-1082.542,153.732-1082.542,149.606Z" transform="translate(1172.868 -117.247)"/>
      <path id="Trazado_1710" data-name="Trazado 1710" d="M-1190.581,155.216a1.8,1.8,0,0,0-.051.306q.01,7.028.026,14.056c0,.242,0,.484.021.725.021.277-.1.409-.371.411-.382,0-.764,0-1.145,0q-2.253,0-4.507,0c-.546,0-.578-.036-.558-.582.014-.382.009-.764.009-1.146q0-15.795-.005-31.59c0-.56,0-1.12,0-1.681,0-.287.094-.45.422-.449,1.9.007,3.794.01,5.691-.006a.5.5,0,0,1,.57.423q1.443,5.264,2.893,10.527c.379,1.386.737,2.777,1.11,4.165a1.772,1.772,0,0,0,.157.317l.11-.013a2.38,2.38,0,0,0,.069-.406q.006-6.894,0-13.789c0-.267-.009-.535-.019-.8-.011-.283.1-.417.4-.416,1.82.011,3.641.009,5.462.015.658,0,.663.006.663.672q0,15.2,0,30.405c0,1.311,0,2.623.015,3.934,0,.314-.111.435-.422.434-2.05-.005-4.1,0-6.149-.014a.488.488,0,0,1-.363-.28c-.777-3.006-1.535-6.017-2.3-9.028q-.744-2.943-1.488-5.885a2.015,2.015,0,0,0-.14-.318Z" transform="translate(1256.732 -117.25)"/>
      <path id="Trazado_1711" data-name="Trazado 1711" d="M-1297.2,158.927a2.923,2.923,0,0,0,.1-.453c.066-.965.117-1.931.183-2.9q.256-3.713.522-7.426.382-5.235.779-10.469c.052-.684.13-1.366.191-2.049.024-.272.163-.351.433-.35q3.742.008,7.485-.011c.339,0,.42.156.385.453q-.281,2.33-.555,4.661-.5,4.341-1,8.682c-.308,2.743-.593,5.49-.9,8.233-.286,2.54-.6,5.078-.883,7.619-.149,1.315-.267,2.632-.407,3.948-.055.518-.133,1.034-.193,1.551-.028.242-.166.315-.391.314q-2.788-.01-5.575-.01-2.769,0-5.538.011c-.421,0-.47-.077-.523-.508-.183-1.515-.387-3.028-.582-4.543q-.322-2.5-.644-5c-.121-.947-.233-1.894-.356-2.841-.36-2.775-.727-5.549-1.083-8.324q-.718-5.583-1.425-11.168-.172-1.342-.358-2.683c-.039-.279.061-.4.352-.4q3.665.012,7.331.01c.567,0,.616.07.66.623.115,1.472.261,2.941.391,4.411q.26,2.928.515,5.856c.228,2.623.469,5.245.67,7.871.109,1.421.146,2.847.22,4.271.01.2.044.4.067.6Z" transform="translate(1345.305 -117.262)"/>
      <path id="Trazado_1712" data-name="Trazado 1712" d="M-1354.548,153.035q0-8.439,0-16.878c0-.8-.153-.9.882-.869,1.755.044,3.512,0,5.268-.011.419,0,.841.028,1.258,0,.35-.025.46.135.46.442q0,.84,0,1.679,0,15.79-.01,31.579c0,.42,0,.84,0,1.26s-.05.5-.468.495c-1.12,0-2.24-.008-3.36-.008-1.171,0-2.342.006-3.512.008-.48,0-.54-.071-.524-.55.013-.394,0-.789,0-1.184Q-1354.548,161.015-1354.548,153.035Z" transform="translate(1383.037 -117.262)"/>
      <path id="Trazado_1713" data-name="Trazado 1713" d="M-1229.976,330.833c-.016.167-.045.334-.045.5q.011,3.149.031,6.3c0,.329-.126.5-.476.485-.3-.014-.489-.112-.488-.448q.018-4.371.031-8.742c0-.382-.015-.763-.017-1.145,0-.231-.018-.473.3-.527.489-.083.783.028.883.369q.459,1.556.9,3.116c.315,1.114.618,2.231.934,3.344a2.094,2.094,0,0,0,.2.38l.108-.015a1.959,1.959,0,0,0,.07-.372q-.007-3.15-.026-6.3c0-.4.109-.536.458-.543s.514.143.514.548c0,1.527-.01,3.054-.008,4.581,0,1.718.01,3.436.017,5.154,0,.307-.052.553-.436.589-.547.05-.632-.006-.758-.434-.43-1.463-.882-2.921-1.314-4.384-.2-.671-.367-1.351-.558-2.024a3.769,3.769,0,0,0-.193-.454Z" transform="translate(1283.842 -271.307)"/>
      <path id="Trazado_1714" data-name="Trazado 1714" d="M-1355.426,332.767c0-1.653,0-3.307,0-4.96,0-.348.142-.469.49-.45a10.169,10.169,0,0,0,1.487,0,1.35,1.35,0,0,1,1.34.695,3.5,3.5,0,0,1,.563,2.066,4.351,4.351,0,0,1-.471,2.1.446.446,0,0,0,.046.376,4.548,4.548,0,0,1,.007,4.94,1.216,1.216,0,0,1-1.227.674c-.583-.038-1.169-.017-1.754-.019-.4,0-.485-.095-.484-.5q0-2.461,0-4.922Zm.927,2.269h.022c0,.178,0,.356,0,.534s0,.356-.008.533c-.032.738-.028.744.715.752a.889.889,0,0,1,.152,0,.993.993,0,0,0,1.117-.659,2.776,2.776,0,0,0-.045-2.569.814.814,0,0,0-.8-.49q-.343.008-.686,0c-.339-.01-.483.147-.473.487C-1354.488,334.1-1354.5,334.566-1354.5,335.036Zm.823-6.316c-.188,0-.3.007-.417,0-.294-.02-.412.11-.409.406.007.763-.013,1.526,0,2.289a.476.476,0,0,0,.185.366,1.267,1.267,0,0,0,1.773-.936,2.83,2.83,0,0,0,.067-.683C-1352.5,329.231-1352.831,328.59-1353.676,328.72Z" transform="translate(1383.737 -271.401)"/>
      <path id="Trazado_1715" data-name="Trazado 1715" d="M-1199.579,334.134c0,.814,0,1.628,0,2.442,0,.252-.052.471-.345.5-.27.03-.382-.138-.429-.383a1.037,1.037,0,0,0-.127-.255,1.982,1.982,0,0,0-.267.175c-.093.084-.157.2-.254.281a1.375,1.375,0,0,1-2.173-.154,4.594,4.594,0,0,1-1.107-2.4,12.38,12.38,0,0,1,.056-5.6,5.188,5.188,0,0,1,1-2.122,1.639,1.639,0,0,1,2.707.108,4.834,4.834,0,0,1,.871,2.176c.042.236.009.449-.283.483-.275.033-.531.034-.622-.331a4.779,4.779,0,0,0-.346-1,1.153,1.153,0,0,0-1.066-.685.952.952,0,0,0-.919.687,8.692,8.692,0,0,0-.551,2.007,10.565,10.565,0,0,0,.306,4.683,1.741,1.741,0,0,0,.78,1.087.514.514,0,0,0,.69-.09,4.7,4.7,0,0,0,1.145-2.887c.021-.237-.12-.344-.357-.338-.28.008-.56.007-.84.009-.3,0-.432-.133-.436-.442-.013-.936-.021-.932.912-.912.381.008.763,0,1.145-.006.42,0,.507.088.506.517,0,.814,0,1.629,0,2.443Z" transform="translate(1262.672 -270.285)"/>
      <path id="Trazado_1716" data-name="Trazado 1716" d="M-1270.137,332.8c0-1.643.005-3.285,0-4.928,0-.33.135-.467.454-.462.56.009,1.121.03,1.679.01a1.708,1.708,0,0,1,1.653,1.132,9.12,9.12,0,0,1,.81,4.727,21.981,21.981,0,0,1-.46,2.967,3.871,3.871,0,0,1-.478,1.117,1.491,1.491,0,0,1-1.444.878c-.571-.032-1.145,0-1.718,0-.374,0-.495-.126-.5-.512q0-2.463,0-4.927Zm.951.033h.012c0,1.018,0,2.036,0,3.053,0,.97.005.956.948,1.022a.917.917,0,0,0,.868-.369,3.346,3.346,0,0,0,.51-.886,9.869,9.869,0,0,0,.271-4.456,7.049,7.049,0,0,0-.494-1.709,1.013,1.013,0,0,0-1.168-.708,2.031,2.031,0,0,1-.381,0c-.557-.011-.567,0-.566.573Z" transform="translate(1315.291 -271.45)"/>
      <path id="Trazado_1717" data-name="Trazado 1717" d="M-1024.1,332.8q0-2.463,0-4.925c0-.413.073-.475.493-.474.967,0,1.934.006,2.9-.005.336,0,.5.117.481.469-.037.874.218.915-.905.91-.483,0-.967,0-1.45-.022-.516-.022-.6.068-.59.575.014.712.009,1.425-.005,2.137-.008.4.091.532.5.53.585,0,1.171-.019,1.756-.037.388-.012.5.094.5.486,0,.884.1.936-.924.892-.445-.019-.891-.011-1.336-.013-.408,0-.495.111-.491.533.007.852.007,1.7-.014,2.556-.008.33.122.48.437.48.687,0,1.374,0,2.061-.015.529-.01.586.036.591.579.007.776.007.773-.782.77q-1.375-.006-2.75,0c-.32,0-.5-.105-.5-.464.008-1.654,0-3.308,0-4.962Z" transform="translate(1117.865 -271.443)"/>
      <path id="Trazado_1718" data-name="Trazado 1718" d="M-1111.58,328.973a1.994,1.994,0,0,0,1.142,1.865,3.414,3.414,0,0,1,2,3.253,3.859,3.859,0,0,1-.58,2.478,1.572,1.572,0,0,1-2.705.12,5.15,5.15,0,0,1-.94-2.86c-.021-.3.194-.386.447-.4s.468.025.519.322c.047.276.056.56.127.829a4.395,4.395,0,0,0,.326.89.81.81,0,0,0,.792.555.986.986,0,0,0,.891-.683,2.341,2.341,0,0,0-1.132-3.1,2.692,2.692,0,0,1-1.536-1.7,4.089,4.089,0,0,1,.228-3.505,1.55,1.55,0,0,1,1.849-.92,1.666,1.666,0,0,1,.713.472,3.012,3.012,0,0,1,.754,1.874,4.755,4.755,0,0,0,.1.64.368.368,0,0,1-.343.487c-.375.061-.567-.059-.627-.369a6.777,6.777,0,0,0-.254-1.1.865.865,0,0,0-.792-.674c-.463,0-.653.369-.8.718A4.21,4.21,0,0,0-1111.58,328.973Z" transform="translate(1188.918 -270.352)"/>
      <path id="Trazado_1719" data-name="Trazado 1719" d="M-1326.523,331.6c0-1.286.009-2.571-.006-3.856,0-.36.183-.428.474-.436s.55.049.55.415c0,2.481,0,4.963-.025,7.444a3.778,3.778,0,0,1-.646,2.279c-.022.031-.041.064-.064.1a1.616,1.616,0,0,1-2.881-.019,4,4,0,0,1-.656-2.28c-.023-2.469-.009-4.938-.007-7.407,0-.416.127-.544.507-.533.338.01.443.155.441.564-.01,2.456-.039,4.913-.005,7.368a3.2,3.2,0,0,0,.429,1.359.8.8,0,0,0,1.3.179,1.868,1.868,0,0,0,.614-1.468c.011-1.235,0-2.469,0-3.7Z" transform="translate(1363.157 -271.368)"/>
      <path id="Trazado_1720" data-name="Trazado 1720" d="M-1137.889,331.612c0,1.235,0,2.469,0,3.7a2.172,2.172,0,0,0,.444,1.315.8.8,0,0,0,1.23.167,1.694,1.694,0,0,0,.668-1.319c.017-1.094.016-2.189.016-3.283,0-1.464,0-2.927-.01-4.391,0-.33.1-.507.449-.51.37,0,.525.113.524.491-.009,2.621,0,5.243-.059,7.863a3.259,3.259,0,0,1-.93,2.2,1.536,1.536,0,0,1-2.486-.163,4.358,4.358,0,0,1-.812-2.466c-.028-2.494-.016-4.989-.026-7.483,0-.342.187-.449.482-.445s.51.092.506.463c-.012,1.285,0,2.571,0,3.856Z" transform="translate(1209.954 -271.358)"/>
      <path id="Trazado_1721" data-name="Trazado 1721" d="M-1053.358,332.115a8.843,8.843,0,0,1,.589-3.482,5.4,5.4,0,0,1,.942-1.546,1.641,1.641,0,0,1,2.474.276,4.4,4.4,0,0,1,.888,2.318.424.424,0,0,1-.242.337c-.244.048-.556.141-.684-.212-.073-.2-.093-.425-.171-.625a1.613,1.613,0,0,0-.916-1.056.7.7,0,0,0-.911.258,5.927,5.927,0,0,0-.7,1.509,9.564,9.564,0,0,0,.057,4.835,4.565,4.565,0,0,0,.691,1.338.6.6,0,0,0,.991.105,5.545,5.545,0,0,0,.784-1.229,2.315,2.315,0,0,0,.156-.666c.072-.392.224-.5.638-.44.365.055.354.314.293.579-.127.544-.255,1.088-.4,1.626a2.673,2.673,0,0,1-.876,1.315,1.518,1.518,0,0,1-2.163-.078,4.5,4.5,0,0,1-.816-1.312A10.048,10.048,0,0,1-1053.358,332.115Z" transform="translate(1141.327 -270.833)"/>
      <path id="Trazado_1722" data-name="Trazado 1722" d="M-1086.856,333.467c0-1.4,0-2.8,0-4.2,0-.466-.071-.526-.536-.511l-.267.007c-.908.016-1.071-.168-.878-1.066a.486.486,0,0,1,.359-.288c1.208-.024,2.417-.018,3.625-.019a.346.346,0,0,1,.4.4c0,1.009.009,1.009-1,.981-.114,0-.229-.013-.343-.019a.358.358,0,0,0-.427.407q.018,4.274.036,8.548c0,.294-.023.537-.411.538-.465,0-.562-.073-.562-.5q0-2.137,0-4.275Z" transform="translate(1169.613 -271.437)"/>
      <path id="Trazado_1723" data-name="Trazado 1723" d="M-1157.362,332c0,1.349.036,2.7-.019,4.047a5.553,5.553,0,0,1-.4,1.488,1.3,1.3,0,0,1-.354.443,1.273,1.273,0,0,1-2-.24,3.189,3.189,0,0,1-.507-1.888c0-.2,0-.407,0-.61-.006-.415.082-.5.523-.5.37,0,.472.132.478.521a7.45,7.45,0,0,0,.089,1.133c.048.286.224.6.538.534a1.035,1.035,0,0,0,.582-.513,1.649,1.649,0,0,0,.1-.745q.01-3.933.006-7.866c0-.484.21-.662.664-.511a.54.54,0,0,1,.3.4c.022,1.437.013,2.875.013,4.313Z" transform="translate(1227.423 -271.314)"/>
      <path id="Trazado_1724" data-name="Trazado 1724" d="M-1291.991,332.714q0-2.462,0-4.924c0-.379.145-.519.532-.526.354-.007.462.19.461.508-.01,2.8-.013,5.6-.026,8.4,0,.558.061.631.636.619.547-.012,1.094-.017,1.641-.024a.339.339,0,0,1,.15.015c.444.228.163.636.22.957a.323.323,0,0,1-.354.4q-1.431,0-2.863-.01c-.328,0-.389-.2-.388-.484.005-1.641,0-3.283,0-4.924Z" transform="translate(1332.825 -271.335)"/>
      <path id="Trazado_1725" data-name="Trazado 1725" d="M-1241.677,332.7q0-2.442,0-4.884c0-.385.136-.523.526-.522.331,0,.474.167.473.5q-.008,4.941,0,9.882c0,.386-.122.493-.512.485s-.482-.1-.481-.5q0-2.48,0-4.96Z" transform="translate(1292.448 -271.358)"/>
      <path id="Trazado_1726" data-name="Trazado 1726" d="M-1301.423,332.7q0,2.461,0,4.922c0,.45-.143.578-.572.536-.294-.029-.413-.173-.411-.476.011-1.933.012-3.866.012-5.8,0-1.335-.008-2.671-.011-4.006,0-.448.113-.577.5-.58.374,0,.471.111.472.558q0,2.423,0,4.846Z" transform="translate(1341.184 -271.36)"/>
      <path id="Trazado_1727" data-name="Trazado 1727" d="M-1062.6,332.756q0-2.443,0-4.885c0-.436.107-.554.478-.56s.482.194.481.532q0,4.943,0,9.885c0,.315-.119.473-.455.454-.4-.023-.5-.119-.5-.5q0-2.462,0-4.923Z" transform="translate(1148.738 -271.372)"/>
    </g>
  </g>
</svg>
