<svg xmlns="http://www.w3.org/2000/svg" width="112.457" height="64.116" viewBox="0 0 112.457 64.116">
  <g id="Grupo_1437" data-name="Grupo 1437" transform="translate(-578 -4664)">
    <g id="Grupo_1436" data-name="Grupo 1436" transform="translate(578 4664)">
      <path id="Trazado_1152" data-name="Trazado 1152" d="M755.6,515.522c1.081.506,2.077.974,3.074,1.438.168.078.161.225.178.372.383,3.376.771,6.751,1.145,10.128.029.265.141.343.376.379.915.142,1.825.323,2.743.439.4.05.53.217.586.593.5,3.33,1.011,6.657,1.521,9.985.12.785.218,1.574.377,2.351.074.36-.053.375-.34.374-1.81-.008-3.62,0-5.431,0q-13.466.007-26.933.014l-55.984.045q-11.634.009-23.268.022c-.45,0-.508-.113-.47-.534.219-2.461.4-4.926.6-7.389.14-1.745.291-3.489.423-5.234.018-.238.1-.33.332-.366.886-.135,1.768-.3,2.656-.426.28-.04.393-.138.425-.432.331-2.983.677-5.964,1.019-8.945a1.7,1.7,0,0,0,.037-.35c-.079-.8.38-1.159,1.062-1.421.74-.284,1.443-.662,2.164-1a.916.916,0,0,1,.53-.153q-.146,1.4-.291,2.8c-.29,2.809-.574,5.618-.875,8.425-.036.332.042.392.362.356.423-.047.6-.18.651-.659.55-5.488,1.135-10.973,1.7-16.46a.6.6,0,0,1,.373-.533c1.566-.782,3.126-1.577,4.689-2.366a1.13,1.13,0,0,1,.5-.14c1.074-.013,2.148-.025,3.222-.055.3-.008.374.079.351.377q-.527,7.021-1.034,14.042c-.092,1.247-.183,2.495-.287,3.741-.024.283.007.386.343.33,2.407-.407,4.818-.794,7.229-1.179.256-.041.368-.116.383-.409q.513-9.941,1.049-19.88c.057-1.075.052-1.081,1.115-1.324,2.179-.5,4.361-.991,6.539-1.494a1.575,1.575,0,0,1,.652.006c.724.128,1.448.265,2.177.36.325.043.4.169.384.482q-.241,4.805-.456,9.612c-.16,3.513-.309,7.026-.475,10.539-.014.29.046.384.347.383q5.96-.022,11.921-.016c.382,0,.376-.182.381-.457q.15-8.3.313-16.6c.036-1.839.1-3.678.117-5.517,0-.4.131-.477.506-.468q4.833.122,9.667.2c.393.006.485.115.484.5q-.018,10.882-.009,21.764c0,.562,0,.563.57.562,3.944,0,7.889-.007,11.833,0,.352,0,.48-.061.46-.453q-.3-6.039-.573-12.081c-.123-2.69-.23-5.38-.357-8.07-.012-.261.089-.328.312-.364.813-.132,1.625-.276,2.436-.418a.971.971,0,0,1,.393.015q3.678.84,7.359,1.671a.346.346,0,0,1,.314.387q.361,6.943.736,13.885c.12,2.263.245,4.525.346,6.789.015.337.169.408.448.455q3.547.589,7.09,1.2c.311.054.372,0,.349-.315q-.357-4.975-.687-9.952c-.18-2.642-.353-5.285-.542-7.926-.021-.287.034-.393.343-.383,1.074.033,2.148.043,3.222.057a1.22,1.22,0,0,1,.546.154c1.548.786,3.093,1.577,4.648,2.349a.617.617,0,0,1,.38.572q.666,7.052,1.349,14.1.131,1.361.263,2.723c.014.142-.011.312.2.334.258.027.515.172.772.059.1-.045.027-.189.018-.286q-.473-4.831-.949-9.661C755.676,516.666,755.643,516.139,755.6,515.522Zm-27.514,14.03c-.08,0-.156.019-.106.117.03.06.095.05.133-.015l.277-.017c.085.135.243.111.265.014.035-.155-.145-.149-.255-.18,0-.366,0-.731,0-1.1,0-.07-.005-.151.073-.19s.134.03.182.078c.134.135.262.277.4.413q.5.505,1,1.008l.151-.061c0-.7-.008-1.4.007-2.1,0-.157-.058-.164-.171-.17-.182-.011-.155.07-.138.213a6.639,6.639,0,0,1,.025,1.42l-1.734-1.573c0,.249.017.524,0,.8A3.986,3.986,0,0,1,728.081,529.552ZM692.233,524a20.9,20.9,0,0,0-1.239,2.072c-.1.176-.178.347-.431.391-.881.153-1.752.361-2.635.5-.393.061-.492.223-.432.584a38.393,38.393,0,0,0,.775,3.97,1.494,1.494,0,0,1-.009.817,24.37,24.37,0,0,0-.53,2.539c-.019.116-.143.294.068.317s.129-.188.152-.3c.081-.4.155-.806.228-1.21.188-1.041.531-2.041.806-3.059l.227-.635c.41-.761.774-1.543,1.114-2.337a.483.483,0,0,1,.665-.2c.155.076-.057.305-.135.445a21.1,21.1,0,0,0-2.386,7.949c-.03.258.041.379.293.431.512.1,1.021.221,1.529.343a.421.421,0,0,1,.313.468c-.022.225-.244.1-.358.075-.752-.131-1.5-.3-2.25-.421-.325-.053-.375-.209-.31-.486a1.248,1.248,0,0,0,.021-.668c-.071.282-.1.57-.159.85-.056.249.023.336.27.379.81.143,1.61.346,2.424.454a1.1,1.1,0,0,1,.914.68c.419.8.9,1.565,1.4,2.411.555-.953,1.065-1.826,1.572-2.7a.559.559,0,0,1,.419-.335c.926-.157,1.846-.355,2.771-.516.3-.052.353-.176.228-.425a16.745,16.745,0,0,0-.552-3.36,3.8,3.8,0,0,1-.021-2.105,25.679,25.679,0,0,0,.665-3.531c.029-.2-.035-.324-.22-.362a12.582,12.582,0,0,0-1.89-.358,2.637,2.637,0,0,0-.476-.072,1.2,1.2,0,0,1-1.167-.8c-.392-.762-.856-1.487-1.317-2.276Zm14.746,9.319.118.04c0,.714.011,1.428,0,2.142-.007.323.209.278.383.253s.488.172.488-.231q0-1.764,0-3.529c0-.1.015-.2-.108-.262a.975.975,0,0,0-1.036.315c-.213.352-.438.7-.638,1.057-.174.313-.285.243-.433-.02-.223-.4-.467-.783-.709-1.168-.227-.361-.592-.186-.888-.179s-.16.3-.162.458c-.013,1.073.011,2.147-.016,3.219-.009.368.173.362.428.35.231-.011.473.055.444-.338-.034-.468-.016-.941,0-1.411a1.164,1.164,0,0,1,.1-.715c.3.466.574.88.835,1.3.133.216.234.225.372,0C706.415,534.169,706.7,533.744,706.979,533.315Zm7.322.069.1-.023c.055.065.113.127.165.2.489.643,1.006,1.267,1.453,1.937.232.348.53.289.811.248.3-.043.146-.334.148-.507.016-1.028-.006-2.056.015-3.084.007-.341-.079-.458-.436-.447-.325.01-.474.06-.454.433.033.633.009,1.269.009,1.927a.545.545,0,0,1-.307-.268c-.471-.62-.948-1.235-1.4-1.866-.236-.327-.563-.236-.842-.187-.248.044-.12.324-.122.495-.012,1.057.015,2.115-.016,3.172-.012.419.227.337.47.354.277.02.429-.023.414-.366C714.281,534.726,714.3,534.054,714.3,533.384Zm-14.154.319c0,.559.012,1.117-.005,1.676-.008.27.046.392.355.384.793-.022,1.588-.027,2.381,0,.357.013.321-.18.326-.409s0-.421-.338-.4c-.513.03-1.03-.014-1.543.015-.377.022-.3-.216-.305-.426-.007-.226-.039-.442.318-.42.425.026.853-.011,1.278.011.328.017.306-.181.3-.4s.05-.419-.29-.4c-.425.022-.854-.018-1.278.012-.347.025-.335-.17-.332-.407s-.034-.438.321-.419c.5.026,1-.012,1.5.013.328.017.347-.147.347-.4s-.011-.442-.365-.43c-.764.025-1.529.018-2.293,0-.278-.006-.4.057-.384.363C700.165,532.615,700.148,533.16,700.148,533.7Zm24.432.035c0,.574.011,1.148-.005,1.721-.007.238.079.3.3.3.823-.01,1.648-.017,2.471,0,.339.008.294-.195.29-.4s.056-.421-.288-.406c-.47.022-.941,0-1.412.007-.27,0-.51.054-.491-.384.015-.366.1-.492.472-.458.335.031.678-.015,1.014.013s.43-.079.427-.414c0-.319-.105-.4-.405-.384-.4.024-.8-.013-1.191.011-.376.023-.29-.228-.3-.436s-.018-.4.3-.388c.514.023,1.03-.01,1.544.012.328.014.309-.179.3-.394s.061-.444-.308-.435c-.809.021-1.618.013-2.427,0-.23,0-.31.078-.305.307C724.588,532.591,724.58,533.164,724.58,533.738Zm-3.233-.6h.018c0-.338-.021-.678.006-1.013s-.09-.438-.421-.421c-.291.015-.5,0-.48.409.034.674.022,1.352-.006,2.026a.762.762,0,0,1-.72.848c-.57.07-.952-.269-.975-.918-.025-.69-.017-1.381-.005-2.071,0-.247-.11-.33-.317-.28s-.55-.185-.555.205a15.169,15.169,0,0,0,.043,2.551,1.5,1.5,0,0,0,1.76,1.339,1.537,1.537,0,0,0,1.646-1.487C721.375,533.936,721.347,533.537,721.347,533.141ZM708.632,535.7c.353-.076.816.33.968-.231a.733.733,0,0,1,.953-.616,1.715,1.715,0,0,0,.527,0,.484.484,0,0,1,.632.426c.076.411.325.512.725.492.34-.017.353-.108.235-.383-.488-1.131-.971-2.264-1.43-3.407-.119-.3-.315-.288-.557-.291s-.4.014-.509.285c-.314.8-.667,1.6-1,2.393C708.989,534.807,708.812,535.253,708.632,535.7Zm19.786-1.964c0,.573.008,1.146,0,1.719,0,.22.049.314.292.309.764-.014,1.528-.018,2.292,0,.346.008.282-.21.282-.406s.06-.423-.284-.408c-.455.02-.912-.011-1.366.011-.278.013-.348-.085-.344-.35.015-.852-.013-1.7.014-2.556.012-.385-.211-.334-.449-.34s-.46-.026-.44.347C728.44,532.615,728.418,533.175,728.418,533.733Zm-22.748-6.461v2.368a.974.974,0,0,0,.374,0,5.708,5.708,0,0,1-.11-1.635c.634.615,1.106,1.191,1.725,1.7.109-.818-.032-1.588.126-2.335h-.424a5.059,5.059,0,0,1,.128,1.58Zm19.262,1.223a1.15,1.15,0,0,0,1.182,1.2,1.208,1.208,0,0,0,1.282-1.214,1.125,1.125,0,0,0-1.232-1.185A1.2,1.2,0,0,0,724.932,528.495Zm-20.883,1.1c-.914-.175-1.252-.583-1.144-1.382.051-.38.2-.683.619-.751a.825.825,0,0,1,.893.573,1.323,1.323,0,0,1-.231,1.427.977.977,0,0,0,.733-1.216,1.189,1.189,0,0,0-1.548-.908,1.2,1.2,0,0,0-.836,1.52A1.1,1.1,0,0,0,704.049,529.6Zm14.073-1.738c-.023-.18.187-.438-.162-.495a2.5,2.5,0,0,0-1.051-.018,1.127,1.127,0,0,0-.9,1.155,1.083,1.083,0,0,0,.9,1.139,2.342,2.342,0,0,0,.877.026c.275-.039.427-.145.4-.455a1.272,1.272,0,0,1,.07-.676h-.592c.2.25.093.525.115.78.016.182-.117.209-.26.221a1.053,1.053,0,1,1,.6-1.678Zm-7.525.011c.08-.483.08-.484-.379-.542a2.045,2.045,0,0,0-.875.035,1.2,1.2,0,0,0-.709,1.711,1.433,1.433,0,0,0,1.5.612c.388-.019.61-.152.547-.59a.809.809,0,0,1,.086-.568h-.626c.229.214.111.48.14.719.026.212-.087.283-.284.292a1.046,1.046,0,0,1-1.04-.788.933.933,0,0,1,1.641-.88Zm2.924,1.754c-.2-.253-.389-.507-.6-.739-.173-.191-.21-.319-.014-.548a.559.559,0,0,0-.411-.975,7.629,7.629,0,0,0-.842-.006,8.262,8.262,0,0,1,.005,2.266h.607c-.221-.276-.283-.821-.11-.883.318-.115.373.2.518.363.1.108.189.225.277.342A.456.456,0,0,0,713.521,529.621ZM701.883,527.9c.016-.193.127-.379-.044-.508a1.414,1.414,0,0,0-1.984.925c-.117.9.592,1.478,1.643,1.372.31-.031.456-.145.394-.469a.9.9,0,0,1-1.353-.031,1.187,1.187,0,0,1,.085-1.6A.908.908,0,0,1,701.883,527.9Zm12.258-.554a9.011,9.011,0,0,1,0,2.281c1.09.117,1.208.091,1.243-.327a.445.445,0,0,1-.473.191c-.546-.068-.272-.494-.3-.762-.036-.318.247-.183.412-.219.105-.023.124.207.234.072a.239.239,0,0,0,.015-.208c-.062-.132-.182-.018-.275-.038-.132-.029-.333.078-.377-.117a.8.8,0,0,1,.035-.64c.1-.133.3-.046.456-.034.073.005.125.164.209.038a.227.227,0,0,0,.007-.17c-.038-.122-.145-.065-.224-.066C714.775,527.341,714.453,527.343,714.141,527.343Zm6.7,2.289c-.516-.7-.617-1.579-1.078-2.331-.443.773-.552,1.636-1.045,2.32.263.086.445.085.468-.3.011-.187.034-.464.394-.474s.574.09.622.443C720.257,529.707,720.528,529.689,720.838,529.632Zm.854.005c.152,0,.327,0,.5,0,.01,0,.119.051.069-.062a5.318,5.318,0,0,1-.122-1.889c-.01-.132.106-.157.218-.155a.6.6,0,0,1,.526.168c.031-.341.031-.344-.191-.347-.5-.005-1,.006-1.493-.016-.232-.01-.285.078-.243.322a.691.691,0,0,1,.451-.125c.122.009.317-.056.323.127A10.669,10.669,0,0,1,721.692,529.637Zm1.267,3.926c-.205,0-.411.011-.615,0-.382-.026-.272.252-.284.449s-.043.419.291.4a6.069,6.069,0,0,1,1.01,0c.363.036.472-.075.465-.449-.006-.339-.108-.445-.428-.4A3.248,3.248,0,0,1,722.959,533.562Zm1.32-3.964c-.235-.075-.193-.261-.194-.41-.005-.526-.025-1.055.019-1.578.02-.244-.048-.257-.243-.265-.249-.011-.18.115-.171.268.022.408.02.818.013,1.228a1.289,1.289,0,0,1-.113.779A1.416,1.416,0,0,0,724.279,529.6Zm-10.569.01,0-.025.037.017Z" transform="translate(-653.159 -477.546)"/>
      <path id="Trazado_1153" data-name="Trazado 1153" d="M775.736,396.834c-1.942,0-3.884.01-5.825-.009-.372,0-.465.107-.468.471-.011,1.633-.065,3.266-.079,4.9,0,.338-.094.45-.441.471-3.187.2-6.363.517-9.523.978-.406.059-.357-.15-.346-.4.06-1.249.107-2.5.181-3.746.018-.3-.073-.4-.368-.446-1.09-.168-2.176-.366-3.264-.553a1.432,1.432,0,0,0-.569,0q-4.066.923-8.134,1.836a.452.452,0,0,0-.414.505c-.065,1.617-.164,3.232-.226,4.849a.5.5,0,0,1-.451.565q-2.449.574-4.886,1.194c-.355.09-.4-.031-.376-.339.072-.806.112-1.614.19-2.419.028-.3-.054-.387-.352-.381-1.5.031-3,.046-4.5.063a.993.993,0,0,0-.461.125c-.313.164-.625.33-.944.481-.124.059-.261.219-.393.108-.106-.089,0-.249.032-.373a24.64,24.64,0,0,1,1.628-4.515,37.3,37.3,0,0,1,9.291-11.923,48.815,48.815,0,0,1,6.738-4.971,50.046,50.046,0,0,1,12.461-5.522,42.307,42.307,0,0,1,12.627-1.721,41.508,41.508,0,0,1,10.095,1.508,51.364,51.364,0,0,1,12.539,5.344,49.2,49.2,0,0,1,12.116,9.891,30.4,30.4,0,0,1,6.468,10.983c.175.56.3,1.137.439,1.708.024.1.08.225,0,.293-.108.089-.217-.025-.317-.075-.789-.4-1.578-.791-2.362-1.2a1.174,1.174,0,0,0-.544-.145c-1.471-.015-2.943-.029-4.414-.063-.316-.007-.411.092-.384.4.07.806.107,1.615.179,2.421.029.331-.056.414-.388.33q-2.46-.621-4.929-1.2c-.312-.073-.382-.229-.4-.519-.077-1.631-.184-3.261-.252-4.892a.469.469,0,0,0-.444-.518q-4.026-.9-8.046-1.821a1.636,1.636,0,0,0-.656,0c-1.058.182-2.116.372-3.178.531-.322.048-.439.146-.417.494.079,1.248.111,2.5.186,3.746.021.357-.085.41-.419.361q-4.478-.653-8.994-.948a3.13,3.13,0,0,0-.352-.029c-.307.015-.393-.122-.391-.422.014-1.545-.01-3.09.017-4.635.007-.429-.122-.544-.539-.539-1.912.02-3.825.009-5.738.009Z" transform="translate(-719.751 -376.057)"/>
      <path id="Trazado_1154" data-name="Trazado 1154" d="M1015.92,560.573c0-.97.01-1.941,0-2.911a2.206,2.206,0,0,1,.961-1.884,4.2,4.2,0,0,1,4.768.341,2.034,2.034,0,0,1,.642,1.5c0,2.014,0,4.029.008,6.043,0,.285-.074.382-.367.38q-2.823-.016-5.647,0c-.291,0-.373-.09-.368-.378C1015.93,562.632,1015.92,561.6,1015.92,560.573Z" transform="translate(-951.832 -523.547)"/>
      <path id="Trazado_1155" data-name="Trazado 1155" d="M885.4,560.494q0-1.323,0-2.647a2.354,2.354,0,0,1,2.106-2.6,4.23,4.23,0,0,1,2.962.346,2.269,2.269,0,0,1,1.3,2.134c-.021,1.94-.016,3.882,0,5.822,0,.353-.1.441-.442.438-1.838-.015-3.676-.018-5.514,0-.367,0-.431-.127-.425-.453C885.415,562.523,885.4,561.508,885.4,560.494Z" transform="translate(-844.371 -523.498)"/>
      <path id="Trazado_1156" data-name="Trazado 1156" d="M774.389,583.261c0,.632-.007,1.265,0,1.9,0,.216-.066.315-.286.353q-2.064.358-4.125.737c-.24.044-.312-.042-.31-.276.012-1.235,0-2.471.024-3.706a4.315,4.315,0,0,1,.363-1.628,2.421,2.421,0,0,1,2.666-1.57,2.369,2.369,0,0,1,1.662,2.383C774.4,582.054,774.388,582.658,774.389,583.261Z" transform="translate(-749.09 -543.17)"/>
      <path id="Trazado_1157" data-name="Trazado 1157" d="M1141.968,583.208c0-.574-.005-1.147,0-1.721a3.053,3.053,0,0,1,.065-.611,2.133,2.133,0,0,1,1.681-1.827,2.413,2.413,0,0,1,2.4,1.245,4.376,4.376,0,0,1,.547,2.115c.023,1.176.007,2.353.022,3.53,0,.285-.088.352-.363.3q-1.995-.372-4-.713c-.269-.045-.373-.137-.363-.42C1141.982,584.474,1141.968,583.841,1141.968,583.208Z" transform="translate(-1055.613 -543.172)"/>
      <path id="Trazado_1158" data-name="Trazado 1158" d="M876.828,617.266c-1.631,0-3.262-.007-4.893.006-.326,0-.474-.051-.448-.43.066-.939-.039-.767.8-.771,3.13-.013,6.26-.007,9.39-.031.419,0,.609.086.516.527a.786.786,0,0,0-.005.264c.045.331-.092.424-.421.42-1.646-.016-3.292-.007-4.937-.007Z" transform="translate(-832.917 -573.647)"/>
      <path id="Trazado_1159" data-name="Trazado 1159" d="M1010.878,616.982c-1.648,0-3.3-.013-4.942.009-.39.005-.546-.1-.483-.491a1.077,1.077,0,0,0,0-.308c-.04-.309.088-.4.4-.4q5.009,0,10.017-.022c.343,0,.455.092.458.44.006.744.025.749-.725.75-1.574,0-3.148,0-4.722,0Z" transform="translate(-943.208 -573.424)"/>
      <path id="Trazado_1160" data-name="Trazado 1160" d="M884.376,534.279c.234-.017.469-.039.7-.051.171-.009.372-.06.363.231-.007.227.015.421-.325.441-2.053.119-4.1.257-6.149.479-1.153.125-2.306.259-3.46.374-.152.015-.4.158-.429-.186-.023-.294.049-.441.39-.483Q879.909,534.531,884.376,534.279Z" transform="translate(-835.873 -506.28)"/>
      <path id="Trazado_1161" data-name="Trazado 1161" d="M1006.216,535.048c3.056.172,6.1.483,9.132.861.354.044.4.216.379.493-.029.383-.307.194-.465.175-3.122-.392-6.253-.691-9.4-.858-.261-.014-.4-.063-.4-.372,0-.364.214-.312.437-.3C1006.01,535.052,1006.113,535.048,1006.216,535.048Z" transform="translate(-943.234 -506.953)"/>
      <path id="Trazado_1162" data-name="Trazado 1162" d="M1140.019,627.577c-.031-.646-.03-.649.582-.54,1.573.281,3.143.582,4.72.836.465.075.639.255.642.727,0,.586.036.605-.531.507-1.7-.294-3.406-.611-5.111-.9C1139.861,628.125,1140.1,627.771,1140.019,627.577Z" transform="translate(-1054.006 -582.657)"/>
      <path id="Trazado_1163" data-name="Trazado 1163" d="M770.592,627.537c.1.429-.148.573-.614.645-1.611.251-3.215.549-4.822.83-.584.1-.561.093-.565-.5,0-.488.166-.67.663-.744,1.583-.236,3.156-.541,4.735-.81C770.609,626.853,770.611,626.864,770.592,627.537Z" transform="translate(-744.907 -582.596)"/>
      <path id="Trazado_1164" data-name="Trazado 1164" d="M1141.8,555.187c.031.261-.038.338-.269.278-1.733-.445-3.467-.889-5.205-1.314-.347-.085-.3-.327-.278-.543.032-.315.266-.139.406-.111,1.684.338,3.328.836,5,1.23C1141.752,554.8,1141.83,554.965,1141.8,555.187Z" transform="translate(-1050.732 -522.091)"/>
      <path id="Trazado_1165" data-name="Trazado 1165" d="M775.732,552.807c.036.248-.083.384-.368.454-1.67.413-3.334.846-5,1.264-.129.032-.346.2-.394-.049-.042-.219-.1-.511.263-.6.7-.18,1.388-.387,2.086-.564,1.012-.256,2.027-.5,3.042-.741C775.534,552.524,775.765,552.422,775.732,552.807Z" transform="translate(-749.308 -521.349)"/>
      <path id="Trazado_1166" data-name="Trazado 1166" d="M851.33,641.386c-.007.048-.014.1-.021.145-1.048.2-2.095.4-3.144.592-.348.064-.621.151-.445.609a3.593,3.593,0,0,1,.1.605,28.593,28.593,0,0,0,.637,3.093l.323-.8.165-.007c-.275,1.018-.617,2.018-.806,3.059-.073.4-.147.808-.228,1.21-.023.115.044.325-.152.3s-.086-.2-.068-.317a24.368,24.368,0,0,1,.53-2.539,1.493,1.493,0,0,0,.009-.817,38.383,38.383,0,0,1-.775-3.97c-.06-.361.04-.523.432-.584.883-.137,1.754-.345,2.635-.5.253-.044.331-.215.431-.391a20.9,20.9,0,0,1,1.239-2.072l.111.087c-.372.665-.739,1.333-1.117,1.995C851.078,641.276,851.083,641.382,851.33,641.386Z" transform="translate(-813.119 -592.555)"/>
      <path id="Trazado_1167" data-name="Trazado 1167" d="M893.747,660.631l-.15-.025c.223-.954.558-1.879.735-2.845q.245-1.338.489-2.676c.059-.321,0-.506-.389-.556a13.819,13.819,0,0,1-1.406-.325l-.045-.157a12.587,12.587,0,0,1,1.89.358c.185.039.249.163.22.362a25.68,25.68,0,0,1-.665,3.531,3.8,3.8,0,0,0,.021,2.105,16.746,16.746,0,0,1,.552,3.36l-.119.195c-.233-1.356-.43-2.719-.8-4.1C893.855,660.121,893.926,660.427,893.747,660.631Z" transform="translate(-850.614 -604.94)"/>
      <path id="Trazado_1168" data-name="Trazado 1168" d="M856.369,661.522c-.112,0-.208-.011-.185-.162a18.134,18.134,0,0,0,1.117-2.271l.182.1C857.143,659.979,856.779,660.761,856.369,661.522Z" transform="translate(-820.317 -609.091)"/>
      <path id="Trazado_1169" data-name="Trazado 1169" d="M1079,670.158l.009-.166c.111.031.29.025.255.18C1079.243,670.268,1079.085,670.293,1079,670.158Z" transform="translate(-1003.774 -618.068)"/>
      <path id="Trazado_1170" data-name="Trazado 1170" d="M1076.71,670.453l.027.1c-.038.065-.1.075-.133.015C1076.554,670.472,1076.63,670.453,1076.71,670.453Z" transform="translate(-1001.789 -618.447)"/>
      <path id="Trazado_1171" data-name="Trazado 1171" d="M862.054,657.394c.793-.218,1.238.182,1.547.936a27.617,27.617,0,0,1,1.3,3.129,1.8,1.8,0,0,1,0,.95,19.876,19.876,0,0,1-1.591,3.824.556.556,0,0,1-.57.379c-.529-.011-1.058,0-1.587-.005a.492.492,0,0,1-.493-.294A26.212,26.212,0,0,1,859,662.474a1.477,1.477,0,0,1,0-.9,25.819,25.819,0,0,1,1.682-3.878.475.475,0,0,1,.485-.3C861.446,657.4,861.725,657.394,862.054,657.394Z" transform="translate(-822.581 -607.647)"/>
      <path id="Trazado_1172" data-name="Trazado 1172" d="M886.327,654.11a13.819,13.819,0,0,0,1.406.325c.387.051.449.236.389.556q-.247,1.337-.489,2.676c-.177.966-.512,1.891-.735,2.845a1.3,1.3,0,0,0-.19.678l.014,0c-.09-.038-.135.016-.167.086q-.487,1.051-.972,2.1c-.088.38-.413.283-.666.33l-.073-.082A35.393,35.393,0,0,0,886.42,660a30.214,30.214,0,0,0,.972-4.74c.031-.221-.041-.332-.251-.379-.444-.1-.883-.236-1.332-.294-.4-.052-.531-.292-.639-.651A4.248,4.248,0,0,1,886.327,654.11Z" transform="translate(-843.917 -604.846)"/>
      <path id="Trazado_1173" data-name="Trazado 1173" d="M875.645,687.733c.18-.2.109-.509.333-.769.367,1.377.565,2.74.8,4.1-.042.038-.08.1-.128.11a26.747,26.747,0,0,1-4.957.727c-.255,0-.487-.009-.617-.3-.11-.248-.156-.362.2-.341a15.558,15.558,0,0,0,4.321-.475c.364-.081.433-.221.364-.57-.142-.72-.236-1.449-.349-2.175A.408.408,0,0,1,875.645,687.733Z" transform="translate(-832.513 -632.042)"/>
      <path id="Trazado_1174" data-name="Trazado 1174" d="M849.83,656.906l-.323.8a28.593,28.593,0,0,1-.637-3.093,3.593,3.593,0,0,0-.1-.605c-.176-.459.1-.545.445-.609,1.049-.193,2.1-.394,3.144-.592a13.425,13.425,0,0,1,1.355-.1c.481-.036.682.209.8.662a13.54,13.54,0,0,0-3.439.2c-.433.078-.858.195-1.289.282-.241.049-.353.15-.3.42.133.732.245,1.468.365,2.2A.7.7,0,0,1,849.83,656.906Z" transform="translate(-814.17 -603.833)"/>
      <path id="Trazado_1175" data-name="Trazado 1175" d="M856.728,688.9c-.179-.347.039-.694,0-1.041a.147.147,0,0,1,.125-.158c.118-.017.13.094.157.173a25.664,25.664,0,0,0,1.667,3.7c.442.843.908,1.674,1.411,2.6a12.839,12.839,0,0,0,.654-1.171.686.686,0,0,1,.831-.47c.07.13-.035.218-.087.309-.388.675-.786,1.344-1.172,2.02-.141.247-.238.35-.427.022-.687-1.2-1.4-2.378-2.02-3.615A25.156,25.156,0,0,0,856.728,688.9Z" transform="translate(-820.709 -632.65)"/>
      <path id="Trazado_1176" data-name="Trazado 1176" d="M868.481,640.653c-.247,0-.252-.11-.144-.3.378-.662.746-1.33,1.117-1.995.141-.384.276-.262.427,0,.7,1.2,1.409,2.388,2.036,3.626L873,644.243c.275.462-.043.871-.117,1.313a44.157,44.157,0,0,0-3.195-6.462,8.5,8.5,0,0,0-.738,1.238C868.834,640.51,868.739,640.7,868.481,640.653Z" transform="translate(-830.27 -591.822)"/>
      <path id="Trazado_1177" data-name="Trazado 1177" d="M889.553,659.022c.161-.226.355-.061.518-.022,1.106.259,1.009.044.838,1.218-.048.331-.119.658-.179.986-.161-.06-.172-.225-.241-.349A18.26,18.26,0,0,0,889.553,659.022Z" transform="translate(-847.794 -608.94)"/>
      <path id="Trazado_1178" data-name="Trazado 1178" d="M855.9,659.089a18.134,18.134,0,0,1-1.117,2.271c-.1-.564-.19-1.13-.294-1.693-.042-.224.039-.325.258-.361C855.129,659.242,855.512,659.162,855.9,659.089Z" transform="translate(-818.912 -609.091)"/>
      <path id="Trazado_1179" data-name="Trazado 1179" d="M890.6,695c.084.032.152.07.167.177q.122.825.255,1.648c.027.167,0,.288-.19.327-.358.073-.714.155-1.073.224-.208.04-.24-.043-.118-.2a6.617,6.617,0,0,0,.591-1.125,2.247,2.247,0,0,0,.381-1.049Z" transform="translate(-847.81 -638.651)"/>
      <path id="Trazado_1180" data-name="Trazado 1180" d="M855.915,698.087a2.613,2.613,0,0,1-1.349-.2c-.153-.033-.117-.184-.1-.3.089-.552.181-1.1.272-1.653.143.028.149.161.2.261C855.265,696.825,855.53,697.487,855.915,698.087Z" transform="translate(-818.892 -639.426)"/>
      <path id="Trazado_1181" data-name="Trazado 1181" d="M874,715.609l-.6,1.048-.582-1.048Z" transform="translate(-834.014 -655.626)"/>
      <path id="Trazado_1182" data-name="Trazado 1182" d="M873.4,646.075l.574,1.042h-1.164Z" transform="translate(-834.005 -598.376)"/>
      <path id="Trazado_1183" data-name="Trazado 1183" d="M857.219,696.908c-.385-.6-.651-1.262-.975-1.893-.051-.1-.057-.232-.2-.261-.042-.152.058-.207.172-.253a25.181,25.181,0,0,1,1.14,2.362Z" transform="translate(-820.195 -638.247)"/>
      <path id="Trazado_1184" data-name="Trazado 1184" d="M889.029,659.566a18.26,18.26,0,0,1,.936,1.833c.068.123.08.288.241.349.046.208-.125.126-.21.157l-1.079-2.259Z" transform="translate(-847.27 -609.484)"/>
      <path id="Trazado_1185" data-name="Trazado 1185" d="M890.168,694.933a2.246,2.246,0,0,1-.381,1.049,6.61,6.61,0,0,1-.591,1.125l-.167.014q.486-1.052.972-2.1C890.033,694.95,890.078,694.9,890.168,694.933Z" transform="translate(-847.361 -638.593)"/>
      <path id="Trazado_1186" data-name="Trazado 1186" d="M884.785,708.869l-.1,0,.029-.086Z" transform="translate(-843.785 -650.01)"/>
      <path id="Trazado_1187" data-name="Trazado 1187" d="M976.387,689a6.129,6.129,0,0,1,.456,1.025c.07.141.03.217-.138.214-.257,0-.515,0-.826,0Z" transform="translate(-918.869 -633.715)"/>
      <path id="Trazado_1188" data-name="Trazado 1188" d="M1061.859,659.542c0-.617.249-.947.717-.952.529,0,.9.47.9,1.141-.005.578-.273.937-.7.942C1062.235,660.679,1061.86,660.212,1061.859,659.542Z" transform="translate(-989.661 -608.68)"/>
      <path id="Trazado_1189" data-name="Trazado 1189" d="M986.487,659.417c.091-.179-.134-.5.222-.523.321-.018.45.233.456.526,0,.268-.07.512-.4.513C986.354,659.934,986.571,659.6,986.487,659.417Z" transform="translate(-927.604 -608.929)"/>
      <path id="Trazado_1190" data-name="Trazado 1190" d="M1028.648,661.412c.159.266.315.468.228.7-.035.094-.3.092-.356.02C1028.319,661.889,1028.613,661.711,1028.648,661.412Z" transform="translate(-962.154 -611.003)"/>
    </g>
  </g>
</svg>
