<svg xmlns="http://www.w3.org/2000/svg" width="117.119" height="74.062" viewBox="0 0 117.119 74.062">
  <g id="Grupo_1449" data-name="Grupo 1449" transform="translate(-782.526 -503.766)">
    <path id="Trazado_1564" data-name="Trazado 1564" d="M830.389,543.891c-1.779-.825-3.551-1.662-5.339-2.469-.636-.288-1.157-.638-1.188-1.4a1.5,1.5,0,0,1,1-1.46,2.444,2.444,0,0,1,1.441.28c.587.291,1.2.536,1.8.8l3.78,1.715,2.594,1.169a15.91,15.91,0,0,0,2.5,1.121,23.457,23.457,0,0,0,3.063,1.407c3.039,1.4,6.08,2.786,9.112,4.2.4.186.587-.06.823-.253,4.733-3.878,9.456-7.77,14.21-11.622.567-.459.634-.753.258-1.383-2.891-4.837-5.742-9.7-8.6-14.558-.133-.226-.421-.416-.285-.752a25.661,25.661,0,0,1,4,1.436c1.664,2.834,3.273,5.7,5.038,8.475.432,3.1.767,6.21.961,9.334l-13.141,10.736a2.4,2.4,0,0,0,.968.441l5.945,2.721,8.1,3.7c.988.585,2.2.767,3.01,1.668a1.483,1.483,0,0,1-.406,1.792,1.581,1.581,0,0,1-1.842.044q-7.684-3.518-15.384-7c-.143-.065-.294-.112-.442-.168-.307-.149-.612-.3-.921-.447-1.572-.74-1.573-.74-2.871.454q-2.958,2.4-5.917,4.794c-.2.163-.421.3-.632.453a2.4,2.4,0,0,0,.075-1.222c-.151-.734-.221-1.486-.325-2.23a18.732,18.732,0,0,0,2.091-1.73l3.073-2.454a1.435,1.435,0,0,0-.8-.441c-1.8-.894-3.628-1.74-5.493-2.5a28.276,28.276,0,0,0-3.117-1.424c-1.509-.738-3.019-1.472-4.594-2.064A15.208,15.208,0,0,0,830.389,543.891Z" transform="translate(-13.993 -5.727)" fill="#060606"/>
    <path id="Trazado_1565" data-name="Trazado 1565" d="M860.069,516.553a25.644,25.644,0,0,0-4-1.436l.009.008c0-.128-.091-.128-.18-.133-.406-.134-.755-.4-1.237-.046q-6.029,4.481-12.091,8.917l-6.618,4.842-7.341,5.368c-.6-.265-1.211-.509-1.8-.8a2.444,2.444,0,0,0-1.441-.28q4.251-3.151,8.5-6.3c.549-.408,1.089-.826,1.634-1.24l2.539-1.851a23.311,23.311,0,0,0,2.949-2.265,1.435,1.435,0,0,0,.677-.369c1.264-.928,2.531-1.851,3.79-2.787a4.1,4.1,0,0,0,1.175-1.018c.118.018.224.017.229-.144l-.007.006a8.6,8.6,0,0,0,2.007-1.349c.964-.67,1.894-1.39,2.983-2.195l-2.6-.9-2.651-.985-11.048-4.077c-.058-.306-.1-.615-.175-.917-.193-.8-.065-1.683-.678-2.358,2.171.628,4.25,1.514,6.375,2.271,2.349.837,4.687,1.709,7.03,2.565l2.71.968a19.45,19.45,0,0,0,2.637.961,1.351,1.351,0,0,0,1.978-.118,8.648,8.648,0,0,1,.839-.681q3.086-2.249,6.173-4.5c.228-.165.419-.409.742-.4q.123,1.485.247,2.97c-.033.337-.315.464-.543.633-1.355,1-2.715,1.992-4.065,3a2.5,2.5,0,0,0-.885.782l6.168,2.288.318,3.093Z" transform="translate(-14.504 -0.161)" fill="#060606"/>
    <path id="Trazado_1566" data-name="Trazado 1566" d="M882.78,508.4q-.124-1.484-.247-2.97a1.64,1.64,0,0,1,1.914-.731c.76.266.9.94.97,1.658.337,3.294.7,6.586,1.05,9.878l.343,3.112q.392,4.731.981,9.442c.187,1.935.352,3.871.57,5.8a20.733,20.733,0,0,0,.543,4.043.283.283,0,0,0-.157.328c.405,2.2.447,4.45.789,6.66a19.076,19.076,0,0,0,.3,2.768c.146,1.5.294,3,.435,4.5.026.284.023.571.034.857-.811-.9-2.023-1.083-3.01-1.668l-.4-4.1-.264-2.365c-.208-2.1-.38-4.2-.634-6.285-.2-1.615-.241-3.249-.577-4.847-.194-3.124-.529-6.234-.961-9.334-.121-2.33-.438-4.64-.687-6.957l-.318-3.092Z" transform="translate(-33.856 -0.285)" fill="#060606"/>
    <path id="Trazado_1567" data-name="Trazado 1567" d="M891.6,547.814a20.728,20.728,0,0,1-.543-4.043c-.218-1.931-.383-3.868-.57-5.8,2.578-2.037,5.127-4.111,7.62-6.252.608.21,1.214.425,1.824.627a2.163,2.163,0,0,0,1.646.2q-3.441,2.853-6.883,5.7c-.976.807-1.937,1.634-2.945,2.4-.49.372-.573.646-.237,1.208,2.5,4.182,4.961,8.388,7.431,12.588.1.175.288.321.225.564a2.218,2.218,0,0,0-.98-.221c-.783.012-1.566-.011-2.35-.019-1.21-2.054-2.414-4.111-3.635-6.158C892.03,548.329,891.942,547.969,891.6,547.814Z" transform="translate(-36.547 -9.463)" fill="#060606"/>
    <path id="Trazado_1568" data-name="Trazado 1568" d="M881.223,604.592c0-1.5.021-3.006-.01-4.508-.013-.63.164-.917.85-.885,1.029.048,2.061-.011,3.09.022a5.322,5.322,0,0,1,5.38,5.361,5.378,5.378,0,0,1-5.456,5.392c-1.029.024-2.061-.018-3.09.012-.6.018-.78-.246-.772-.807C881.237,607.651,881.223,606.122,881.223,604.592Zm2.016-.058v1.58c0,2.225.06,2.273,2.338,1.865a3.46,3.46,0,0,0-.447-6.856c-.474-.021-.951.02-1.423-.016-.409-.03-.482.146-.475.5C883.252,602.585,883.239,603.56,883.239,604.534Z" transform="translate(-33.409 -32.307)" fill="#060606"/>
    <path id="Trazado_1569" data-name="Trazado 1569" d="M850.9,599.02a5.5,5.5,0,0,1,5.526,5.509,5.539,5.539,0,0,1-11.078.044A5.475,5.475,0,0,1,850.9,599.02Zm.016,2.035a3.48,3.48,0,1,0,3.447,3.487A3.512,3.512,0,0,0,850.912,601.055Z" transform="translate(-21.266 -32.247)" fill="#060606"/>
    <path id="Trazado_1570" data-name="Trazado 1570" d="M838.271,504.08c.613.675.485,1.563.678,2.358.073.3.117.611.175.917.095.652.184,1.3.285,1.954q1.1,7.063,2.208,14.127l-2.539,1.851q-1.548-9.779-3.1-19.557a1.55,1.55,0,0,1,.516-1.7A1.519,1.519,0,0,1,838.271,504.08Z" transform="translate(-18.077)" fill="#060606"/>
    <path id="Trazado_1571" data-name="Trazado 1571" d="M945.956,604.614c0-1.528.022-3.057-.01-4.584-.013-.611.176-.851.811-.829,1.394.047,1.2-.134,1.214,1.24.007.87.018,1.74-.006,2.608-.01.372.091.5.484.5q1.979-.035,3.959,0c.41.007.546-.111.535-.528-.027-1.027.016-2.056-.019-3.082-.018-.527.107-.745.691-.739,1.335.015,1.335-.017,1.335,1.341,0,2.846-.032,5.691.019,8.536.016.945-.5.888-1.158.921-.691.034-.935-.169-.892-.883.062-1.024,0-2.055.024-3.082.01-.428-.1-.609-.569-.6q-1.939.043-3.88,0c-.438-.009-.532.167-.526.555.016,1.107-.028,2.215.016,3.319.032.773-.456.69-.935.671-.5-.021-1.113.182-1.1-.7C945.975,607.723,945.956,606.168,945.956,604.614Z" transform="translate(-55.323 -32.307)" fill="#060606"/>
    <path id="Trazado_1572" data-name="Trazado 1572" d="M921.335,609.92a.9.9,0,0,1-1.153-.781c-.25-1.077-.915-1.369-1.952-1.24a10.121,10.121,0,0,1-2.137,0,1.169,1.169,0,0,0-1.4.885c-.447,1.2-.5,1.154-1.795,1.144-.688,0-.755-.255-.493-.812,1.2-2.545,2.377-5.1,3.561-7.645.31-.667.611-1.339.923-2.006.1-.213.2-.443.5-.443s.4.226.5.441q2.251,4.908,4.5,9.818c.214.465.054.634-.409.637C921.792,609.921,921.607,609.92,921.335,609.92Zm-3.981-7.036c-.5,1.126-.961,2.161-1.462,3.286.887,0,1.645-.019,2.4.007.5.017.5-.149.314-.541C918.185,604.765,917.8,603.877,917.354,602.884Z" transform="translate(-43.922 -32.248)" fill="#060606"/>
    <path id="Trazado_1573" data-name="Trazado 1573" d="M791.632,609.922c-.621.161-1.033-.192-1.187-.839-.239-1-.847-1.289-1.831-1.184a14.447,14.447,0,0,1-2.531,0,.831.831,0,0,0-.984.661,3.817,3.817,0,0,1-.193.429,1.621,1.621,0,0,1-2.092.91c-.5-.187-.22-.514-.1-.771,1.019-2.217,2.051-4.429,3.078-6.643.452-.976.9-1.955,1.351-2.931.11-.238.2-.515.521-.526s.43.255.54.5q2.217,4.831,4.431,9.663C792.938,609.859,792.846,609.925,791.632,609.922Zm-3.986-7.022c-.464,1.021-.886,1.945-1.3,2.871-.093.208-.148.406.214.4.822-.01,1.643,0,2.576,0Z" transform="translate(0 -32.251)" fill="#060606"/>
    <path id="Trazado_1574" data-name="Trazado 1574" d="M818.08,605.978c.958-2.131,1.852-4.119,2.748-6.107a1.983,1.983,0,0,1,2.228-.627c.337.256.043.525-.064.759-.939,2.054-1.891,4.1-2.836,6.153-.517,1.121-1.025,2.247-1.539,3.369-.111.242-.238.538-.516.549-.33.013-.443-.3-.568-.573q-2.2-4.8-4.423-9.586c-.267-.574-.12-.738.485-.747,1.411-.021,1.412-.04,1.978,1.219C816.39,602.207,817.2,604.026,818.08,605.978Z" transform="translate(-10.31 -32.274)" fill="#060606"/>
    <path id="Trazado_1575" data-name="Trazado 1575" d="M900.894,529.321a2.162,2.162,0,0,1-1.646-.2c-.61-.2-1.216-.417-1.824-.627l-8.6-3.191-.343-3.112,10.136,3.673c.666.241,1.33.489,2,.72a1.408,1.408,0,0,1,1.1,1.2A1.377,1.377,0,0,1,900.894,529.321Z" transform="translate(-35.869 -6.237)" fill="#060606"/>
    <path id="Trazado_1576" data-name="Trazado 1576" d="M844.531,560.656a28.327,28.327,0,0,1,3.116,1.424q.207,1.36.414,2.72l.425,2.614.29,1.787c.1.743.174,1.495.325,2.229a2.4,2.4,0,0,1-.075,1.222,1.512,1.512,0,0,1-1.724.622c-.747-.212-.932-.841-1.038-1.515-.229-1.443-.468-2.884-.7-4.326l-.444-2.832Z" transform="translate(-20.991 -19.259)" fill="#060606"/>
    <path id="Trazado_1577" data-name="Trazado 1577" d="M831.259,555.769a15.174,15.174,0,0,1,2.549,1.168c-.135.254-.263.512-.407.761q-1.512,2.619-3.029,5.235c-.314.507-.632,1.01-.94,1.519s-.546,1.079-1.184,1.282a1.477,1.477,0,0,1-1.589-.614,1.493,1.493,0,0,1,.086-1.7Q829.011,559.6,831.259,555.769Z" transform="translate(-14.863 -17.605)" fill="#060606"/>
    <path id="Trazado_1578" data-name="Trazado 1578" d="M829.179,569.4c.638-.2.877-.772,1.184-1.282s.626-1.013.94-1.519l8.615.012.444,2.832Z" transform="translate(-15.794 -21.272)" fill="#060606"/>
    <path id="Trazado_1579" data-name="Trazado 1579" d="M896.727,566.568c.783.008,1.566.03,2.35.019a2.218,2.218,0,0,1,.98.221,1.463,1.463,0,0,1,.44,1.714,1.447,1.447,0,0,1-1.541.869c-1.845-.013-3.69-.015-5.536-.022a19.066,19.066,0,0,1-.3-2.768Z" transform="translate(-37.44 -21.261)" fill="#060606"/>
    <path id="Trazado_1580" data-name="Trazado 1580" d="M862.446,509.909l-2.71-.968c.847-1.48,1.652-2.985,2.553-4.431.661-1.062,2.014-.815,2.575.417a2.338,2.338,0,0,1-.394,1.488,9.725,9.725,0,0,0-.948,1.715A10.4,10.4,0,0,0,862.446,509.909Z" transform="translate(-26.138 -0.025)" fill="#060606"/>
    <path id="Trazado_1581" data-name="Trazado 1581" d="M865.46,508.686a9.719,9.719,0,0,1,.949-1.715,2.338,2.338,0,0,0,.394-1.488q1.611,2.518,3.035,5.145a8.662,8.662,0,0,0-.839.681,1.35,1.35,0,0,1-1.978.117Q866.239,510.056,865.46,508.686Z" transform="translate(-28.076 -0.581)" fill="#060606"/>
    <path id="Trazado_1582" data-name="Trazado 1582" d="M861.226,570.367c1.3-1.193,1.3-1.194,2.871-.454.309.146.615.3.921.447Z" transform="translate(-26.643 -22.221)" fill="#060606"/>
    <path id="Trazado_1583" data-name="Trazado 1583" d="M846.158,533.905a20.9,20.9,0,0,1-2.31,4.024,5.462,5.462,0,0,0-.8,4.661c.464,2.292.738,4.623,1.093,6.937a23.457,23.457,0,0,1-3.063-1.407l-.665-4.252L838.573,547l-2.594-1.169c1.134-1.949,2.261-3.9,3.406-5.843a1.131,1.131,0,0,0,.155-1.241Z" transform="translate(-18.096 -10.203)" fill="#060606"/>
    <path id="Trazado_1584" data-name="Trazado 1584" d="M868.5,566.65c1.609-.017,3.219-.045,4.828-.049,2.852-.007,5.7,0,8.555,0q.132,1.183.263,2.363c0,.495-.371.409-.675.409q-3.513,0-7.027-.006Z" transform="translate(-29.104 -21.271)" fill="#060606"/>
    <path id="Trazado_1585" data-name="Trazado 1585" d="M850.293,569.416q-.212-1.307-.424-2.612c.14-.343.446-.207.682-.209,1.466-.016,2.932-.013,4.4-.017a1.435,1.435,0,0,1,.8.441l-3.073,2.454Z" transform="translate(-22.798 -21.262)" fill="#060606"/>
    <path id="Trazado_1586" data-name="Trazado 1586" d="M848.949,525.1c-.026-.06-.093-.144-.073-.177q2.833-4.785,5.678-9.563l2.652.985c-.72,1.251-1.447,2.5-2.153,3.756-.116.206-.391.38-.24.687l.007-.006c-.16-.085-.173.064-.229.144a4.1,4.1,0,0,1-1.175,1.018c-1.259.935-2.526,1.859-3.79,2.787A1.434,1.434,0,0,1,848.949,525.1Z" transform="translate(-22.46 -3.923)" fill="#060606"/>
    <path id="Trazado_1587" data-name="Trazado 1587" d="M871.7,520.627c-.156.085-.14-.062-.18-.133C871.606,520.5,871.7,520.5,871.7,520.627Z" transform="translate(-30.127 -5.663)" fill="#060606"/>
  </g>
</svg>
