<svg xmlns="http://www.w3.org/2000/svg" width="183.9" height="40" viewBox="0 0 183.9 40">
  <g id="Grupo_1435" data-name="Grupo 1435" transform="translate(-32 -4398)">
    <g id="Grupo_1434" data-name="Grupo 1434" transform="translate(32 4398)">
      <path id="Trazado_1090" data-name="Trazado 1090" d="M239.22,569.09a19.651,19.651,0,0,1-9.314-5.888,19.62,19.62,0,0,1-4.895-11.471c-.032-.356.026-.5.432-.474.7.04,1.4.027,2.092,0,.305-.011.409.085.43.382A16.76,16.76,0,0,0,230,558.346a16.026,16.026,0,0,0,4.4,5.05,16.6,16.6,0,0,0,8.141,3.394c.63.085.638.086.646-.566.006-.511-.006-1.023.007-1.534.007-.283-.091-.4-.39-.446a14.031,14.031,0,0,1-11.493-9.2,15.125,15.125,0,0,1-.83-3.47c-.033-.219.033-.319.265-.318.791,0,1.581,0,2.372,0,.278,0,.316.2.347.4a10.947,10.947,0,0,0,.829,2.941,11.232,11.232,0,0,0,8.256,6.629c.612.132.632.107.638-.5.006-.512-.011-1.024.012-1.534.016-.35-.088-.5-.46-.592a8.617,8.617,0,0,1-6.479-6.159c-.055-.177-.081-.362-.12-.544-.134-.633-.133-.63.535-.627.589,0,1.182.038,1.767-.013.431-.037.584.116.706.512a5.641,5.641,0,0,0,3.572,3.765c.394.151.47.051.461-.349-.025-1.177,0-2.355-.012-3.533,0-.3.072-.4.391-.4a5.358,5.358,0,0,0,1.517-.064c.108.174.217.191.328,0l.045.012c.664.194.665.194.663.955,0,1.038,0,2.077-.017,3.115-.006.353.116.393.417.282a5.681,5.681,0,0,0,3.626-3.775c.129-.408.293-.535.7-.511.71.042,1.423.047,2.134.03.228-.005.275.036.237.246a8.648,8.648,0,0,1-3.83,5.872,8.151,8.151,0,0,1-2.9,1.211c-.326.068-.385.2-.384.492a11.157,11.157,0,0,1-.038,1.9l-.02.021.017.025c.084.312.332.2.535.209.148-.005.307.044.433-.081a11.476,11.476,0,0,0,6.811-4.542,10.906,10.906,0,0,0,1.962-4.868c.056-.386.165-.551.6-.519a20.411,20.411,0,0,0,2.045,0c.288-.008.378.074.349.375a14.334,14.334,0,0,1-9.879,12.075,12.068,12.068,0,0,1-2.491.545c-.269.024-.333.154-.33.394.007.62.009,1.24-.009,1.859-.009.337.187.342.423.31a18.5,18.5,0,0,0,2.823-.569,16.311,16.311,0,0,0,5.244-2.6,16.913,16.913,0,0,0,5.794-7.763,16.361,16.361,0,0,0,.951-4.3c.019-.229.1-.33.342-.327.775.01,1.551.015,2.325,0,.315-.007.315.156.295.382a19.815,19.815,0,0,1-16.6,18.008,2.1,2.1,0,0,1-.324.006c-.357.013-.735-.087-1.052.175h-3.443c-.2-.261-.494-.178-.76-.187a3.99,3.99,0,0,1-1.04-.116,1.034,1.034,0,0,0-.511-.088l-1.148-.289A.185.185,0,0,0,239.22,569.09Z" transform="translate(-224.988 -529.828)"/>
      <path id="Trazado_1091" data-name="Trazado 1091" d="M247.419,379.072c.069.151.211.166.35.186a18.07,18.07,0,0,1,3.5.88,19.037,19.037,0,0,1,4.014,2,19.523,19.523,0,0,1,5.437,5.325,19.775,19.775,0,0,1,3.394,9.133c.04.354.055.71.1,1.064.032.267-.078.364-.337.362-.76-.006-1.52,0-2.279,0-.251,0-.342-.1-.359-.362a16.515,16.515,0,0,0-5.753-11.676,15.83,15.83,0,0,0-8.2-3.874,16.772,16.772,0,0,0-17.809,9.219,15.6,15.6,0,0,0-1.636,6.012c-.046.681-.051.682-.722.684-.6,0-1.21-.006-1.814,0-.3.005-.445-.078-.428-.425a19.755,19.755,0,0,1,11.181-16.733,17.629,17.629,0,0,1,5.438-1.638,1.155,1.155,0,0,0,.618-.164Z" transform="translate(-224.875 -379.072)"/>
      <path id="Trazado_1092" data-name="Trazado 1092" d="M396.8,700.137c.317-.262.694-.162,1.052-.175-.051.052-.211.027-.121.175Z" transform="translate(-375.469 -660.137)"/>
      <path id="Trazado_1093" data-name="Trazado 1093" d="M362.383,699.884c.267.009.556-.074.76.187h-.838C362.4,700.038,362.366,699.95,362.383,699.884Z" transform="translate(-345.253 -660.071)"/>
      <path id="Trazado_1094" data-name="Trazado 1094" d="M283.008,422.368a14.005,14.005,0,0,1,8.33,2.7,14.347,14.347,0,0,1,5.04,6.632,15.361,15.361,0,0,1,.83,3.659c.07.559.035.588-.514.591-.682,0-1.364-.011-2.046,0-.283.005-.353-.106-.384-.378a11.253,11.253,0,0,0-4.8-8.23,10.954,10.954,0,0,0-6.073-2.035,11.345,11.345,0,0,0-9.44,4.566,10.324,10.324,0,0,0-2.029,4.778c-.024.169-.064.335-.09.5-.122.792-.121.794-.947.8-.574,0-1.147-.007-1.721,0-.271,0-.376-.08-.348-.387a14.383,14.383,0,0,1,3.145-7.9,14.119,14.119,0,0,1,6.792-4.652A12.949,12.949,0,0,1,283.008,422.368Z" transform="translate(-263.358 -416.993)"/>
      <path id="Trazado_1095" data-name="Trazado 1095" d="M365.4,470.5c-.111.188-.221.171-.328,0l-.176-.141.016.011a5.773,5.773,0,0,1-2.284-1.661,2.844,2.844,0,0,1-.633-1.759,5.023,5.023,0,0,1,1.179-2.92,6.308,6.308,0,0,0,.911-1.488,3.227,3.227,0,0,0-.414-3.164.3.3,0,0,1-.047-.308,10,10,0,0,1,1.559,1.211,6.093,6.093,0,0,1,1.5,1.928,2.557,2.557,0,0,1-.4,2.935,5.777,5.777,0,0,0-1.186,2.03A4.322,4.322,0,0,0,365.4,470.5Z" transform="translate(-344.984 -449.14)"/>
      <path id="Trazado_1096" data-name="Trazado 1096" d="M794.178,456.017c0-1.579,0-3.159,0-4.738,0-.856-.242-1.088-1.1-1.105-.093,0-.186,0-.279-.008-.122-.007-.217-.062-.211-.2s.1-.182.223-.191c.062,0,.124,0,.186,0q1.929,0,3.859,0c.16,0,.389-.068.4.184s-.215.207-.38.216h-.046c-.982.027-1.117.144-1.122,1.152-.013,2.385.008,4.771-.01,7.157a8.945,8.945,0,0,1-.225,2.768,3.766,3.766,0,0,1-5.328,1.692.994.994,0,0,1-.242-1.555.637.637,0,0,1,.879-.114.725.725,0,0,1,.368.868c-.2.662-.092.823.587.885a2.049,2.049,0,0,0,2.339-1.856,40.306,40.306,0,0,0,.123-4.735c0-.139,0-.279,0-.418Z" transform="translate(-719.541 -440.993)"/>
      <path id="Trazado_1097" data-name="Trazado 1097" d="M1153.757,454.9c0-1.178.014-2.356,0-3.534-.015-.987-.136-1.093-1.1-1.143-.159-.008-.4.052-.387-.2.012-.235.245-.189.408-.189,2.326,0,4.651.005,6.977,0,.286,0,.377.1.381.382.009.588.05,1.176.076,1.764.007.153.042.345-.169.374s-.245-.153-.282-.305a3.336,3.336,0,0,0-.134-.584,1.763,1.763,0,0,0-1.727-1.23c-.728.017-1.457,0-2.186-.012-.257,0-.364.117-.364.366,0,1.178,0,2.356-.007,3.534,0,.247.117.332.34.329.31,0,.621.005.93-.01a1.082,1.082,0,0,0,1.179-1.152c.013-.161-.049-.392.214-.373s.172.248.173.406c0,.914.005,1.829,0,2.743,0,.169.084.436-.188.443-.227.006-.184-.239-.2-.4-.081-.992-.416-1.3-1.417-1.3-1.027,0-1.029,0-1.023,1.037,0,.837.008,1.674.021,2.511.013.9.271,1.159,1.164,1.188.175.006.443-.065.442.2,0,.3-.291.205-.473.208-.62.011-1.24.009-1.861.009q-1,0-2-.006c-.162,0-.383.051-.371-.216.01-.22.193-.187.353-.188.946-.007,1.2-.226,1.225-1.16.028-1.162.007-2.325.007-3.487Z" transform="translate(-1037.111 -441.044)"/>
      <path id="Trazado_1098" data-name="Trazado 1098" d="M589.994,449.828c1.488,0,2.976.012,4.463-.009.37-.005.442.132.435.461a9.857,9.857,0,0,0,.045,1.668c.021.14.019.312-.146.35-.2.046-.267-.124-.292-.282a2.385,2.385,0,0,0-.635-1.459.9.9,0,0,0-.521-.269,20.509,20.509,0,0,0-2.322-.059c-.242,0-.324.125-.323.349.012,2.618.005,5.237.039,7.855.011.855.3,1.081,1.153,1.1.108,0,.217,0,.326,0,.164,0,.281.064.27.24s-.14.178-.274.178c-1.472,0-2.945,0-4.417,0-.147,0-.356.016-.344-.207.013-.241.213-.211.39-.2a2.656,2.656,0,0,0,.417-.006c.671-.057.928-.29.935-.956.023-2,.022-4,.03-6,0-.651-.006-1.3.006-1.952,0-.257-.044-.42-.35-.41-.619.02-1.239.046-1.858.032-.8-.019-1.16.463-1.377,1.131-.076.235-.133.477-.2.715-.031.107-.074.218-.208.212s-.175-.121-.175-.233q0-1,.021-2c0-.284.216-.25.4-.25Zm.842.164v.044h2.22v-.044Z" transform="translate(-540.368 -441.04)"/>
      <path id="Trazado_1099" data-name="Trazado 1099" d="M669.748,453.962c0-1.193.011-2.387,0-3.58-.01-.828-.055-.869-.829-1.139-.1-.034-.173-.08-.173-.188,0-.14.1-.185.22-.183a3.846,3.846,0,0,0,1.586-.291c.318-.135.3.159.3.355,0,1.178,0,2.356.01,3.534,0,.287-.151.706.067.832.277.16.453-.274.686-.428a2.363,2.363,0,0,1,3.168.4,2.054,2.054,0,0,1,.281,1.156c.011,1.07.029,2.139.008,3.208-.01.489.188.724.659.761.17.013.391.009.37.244s-.246.183-.412.184c-.791,0-1.581.006-2.372,0-.162,0-.386.035-.388-.213,0-.215.2-.184.354-.2.548-.074.691-.231.692-.785,0-1.069-.009-2.139,0-3.208a1.319,1.319,0,0,0-.812-1.427,1.855,1.855,0,0,0-2.324,1.8c.044.959.016,1.922.008,2.883,0,.422.155.686.607.71.165.009.331.041.316.251s-.2.191-.356.191q-1.163,0-2.326,0c-.151,0-.343.035-.367-.182s.163-.215.319-.236c.56-.076.7-.245.708-.824q.007-.907.009-1.814c0-.6,0-1.209,0-1.814Z" transform="translate(-613.642 -439.927)"/>
      <path id="Trazado_1100" data-name="Trazado 1100" d="M1271.222,453.467c0,1.425-.006,2.849,0,4.274,0,.6.114.716.706.816.148.025.292.046.273.237-.016.166-.156.161-.283.168a7.826,7.826,0,0,0-1.384.131c-.328.076-.3-.221-.323-.427-.019-.146.076-.339-.093-.425-.2-.1-.24.132-.353.217a2.814,2.814,0,0,1-4.608-1.577,3.409,3.409,0,0,1,.962-3.659,2.87,2.87,0,0,1,3.234-.319c.217.122.482.391.689.276s.062-.458.064-.7c.008-.79,0-1.58,0-2.369,0-.552-.154-.713-.7-.769-.15-.015-.354.014-.348-.2s.219-.178.362-.178a4.493,4.493,0,0,0,1.274-.239c.458-.133.513-.1.514.379q0,2.184,0,4.367Zm-1.112,2.292h.007a8.015,8.015,0,0,1,.013-1.253.9.9,0,0,0-.515-1.025,4.341,4.341,0,0,0-.888-.4,1.78,1.78,0,0,0-2.172,1.054,4.434,4.434,0,0,0-.047,3.226,1.808,1.808,0,0,0,2.192,1.259,1.685,1.685,0,0,0,1.411-1.7C1270.108,456.535,1270.11,456.147,1270.11,455.76Z" transform="translate(-1135.929 -440.019)"/>
      <path id="Trazado_1101" data-name="Trazado 1101" d="M1057.566,453.882c0-1.208,0-2.416,0-3.625,0-.745-.083-.84-.8-1.064-.11-.034-.217-.069-.2-.209s.136-.16.246-.158a3.666,3.666,0,0,0,1.585-.3c.273-.12.259.132.261.292.009.635.006,1.27.007,1.906,0,.728,0,1.456.005,2.184,0,.143-.093.345.093.415.148.055.225-.121.32-.22a2.624,2.624,0,0,1,3.2-.262,1.984,1.984,0,0,1,.588,1.594c.033,1.022.013,2.045.023,3.067.006.646.094.75.714.848.154.024.279.057.278.239,0,.2-.147.2-.294.2-.837,0-1.674-.005-2.511-.01-.138,0-.311.013-.33-.173-.023-.222.164-.215.319-.24.583-.094.722-.235.726-.816.007-1.069-.01-2.138-.008-3.206a1.3,1.3,0,0,0-.777-1.4,1.573,1.573,0,0,0-1.677.378,1.72,1.72,0,0,0-.683,1.444c.052.942.027,1.89.01,2.834-.008.454.175.7.627.751.159.017.341.036.331.242-.011.226-.215.18-.36.181-.806.006-1.612.006-2.418.006-.137,0-.315.027-.333-.162s.143-.235.311-.26c.674-.1.751-.188.752-.857q0-1.813,0-3.625Z" transform="translate(-953.309 -439.883)"/>
      <path id="Trazado_1102" data-name="Trazado 1102" d="M901.532,481.68c.372,0,.744,0,1.116,0,.142,0,.3.009.3.2s-.139.2-.285.232c-.557.113-.607.213-.4.76q.615,1.626,1.23,3.253c.031.083.028.2.143.21s.14-.1.173-.188q.777-2.035,1.556-4.071c.059-.153.077-.37.288-.375s.243.215.3.367c.483,1.273.959,2.549,1.439,3.822.053.141.074.36.236.367s.19-.218.246-.354c.38-.93.752-1.863,1.126-2.795.24-.6.194-.706-.439-1.017-.109-.053-.184-.122-.17-.246s.116-.168.235-.168c.511,0,1.023,0,1.534,0,.1,0,.192.024.213.138a.2.2,0,0,1-.112.233c-.886.235-.887,1.09-1.157,1.718-.573,1.334-1.057,2.706-1.579,4.062-.045.117-.106.24-.257.23-.209-.014-.269-.191-.327-.349-.286-.768-.562-1.541-.851-2.308-.217-.576-.444-1.148-.677-1.718-.03-.073-.046-.2-.155-.2s-.158.117-.19.228c-.4,1.384-1.01,2.69-1.516,4.035-.052.137-.067.338-.268.333s-.223-.2-.276-.334c-.468-1.211-.928-2.426-1.4-3.637-.172-.447-.349-.893-.538-1.333-.134-.312-.257-.638-.7-.648a.234.234,0,0,1-.218-.3c.034-.16.174-.151.3-.151Z" transform="translate(-816.363 -468.947)"/>
      <path id="Trazado_1103" data-name="Trazado 1103" d="M1608.717,480.314c.334-.267.763-.205,1.143-.31.253-.07.274.234.316.424.142.641.139.642.623.235a2.555,2.555,0,0,1,3.129-.24,1.445,1.445,0,0,1,.518,1c.106,1.19.019,2.384.051,3.576.02.752.016.753.763.957.129.035.245.089.246.236,0,.173-.139.18-.267.18-.852,0-1.7,0-2.556,0-.137,0-.3-.011-.3-.207s.164-.185.3-.205c.6-.085.7-.182.7-.759.007-1.177-.027-2.355.009-3.531a1.185,1.185,0,0,0-1.655-1.112,1.944,1.944,0,0,0-1.5,2.019c.081.892.043,1.795.046,2.693a.589.589,0,0,0,.593.679c.166.014.392.01.382.241-.01.25-.247.182-.4.183q-1.139.009-2.278,0c-.156,0-.384.072-.411-.178s.188-.232.357-.245a.633.633,0,0,0,.642-.7c.008-1.223.028-2.447,0-3.67-.018-.726-.057-.725-.891-.9C1608.782,480.647,1608.782,480.647,1608.717,480.314Z" transform="translate(-1436.523 -467.471)"/>
      <path id="Trazado_1104" data-name="Trazado 1104" d="M1431.4,483.454c0,.65,0,1.3,0,1.95a.489.489,0,0,0,.365.528c.275.074.422-.13.553-.328.042-.064.06-.143.1-.209s.1-.172.215-.135a.2.2,0,0,1,.118.268,1.491,1.491,0,0,1-.544.843,1.3,1.3,0,0,1-1.716-.373c-.231-.493-.426-.355-.761-.132a3.173,3.173,0,0,1-2.129.646,1.311,1.311,0,0,1-1.17-.847,1.272,1.272,0,0,1,.277-1.378,6.215,6.215,0,0,1,2.286-1.453c.2-.089.4-.162.6-.25.754-.335.8-.43.669-1.29a1.08,1.08,0,0,0-1.061-.865,2.988,2.988,0,0,0-.786.027.833.833,0,0,0-.756.756.865.865,0,0,1-.259.529.45.45,0,0,1-.628.053.422.422,0,0,1-.144-.606,2.261,2.261,0,0,1,.756-.795,3.915,3.915,0,0,1,3.3.047,1.547,1.547,0,0,1,.681,1.251c0,.588,0,1.177,0,1.765Zm-1.119.495h0c0-.31,0-.619,0-.929,0-.282-.139-.326-.354-.207-.259.143-.549.217-.807.35a2.883,2.883,0,0,0-1.364,1.139c-.389.738.031,1.7.75,1.655a2.847,2.847,0,0,0,1.607-.764c.316-.262.122-.641.167-.966A2.056,2.056,0,0,0,1430.285,483.948Z" transform="translate(-1277.25 -467.519)"/>
      <path id="Trazado_1105" data-name="Trazado 1105" d="M1551.133,486.47a2.651,2.651,0,0,1-2.058-.843,3.377,3.377,0,0,1,1.1-5.5,3.241,3.241,0,0,1,4.409,3.408,3.089,3.089,0,0,1-2.748,2.971c-.074.013-.153.037-.211-.04l.275-.159h-1.079C1550.946,486.41,1551.085,486.359,1551.133,486.47Zm2.184-3.091a4.145,4.145,0,0,0-.3-2.076,1.752,1.752,0,0,0-1.912-.986,1.65,1.65,0,0,0-1.54,1.375,6.6,6.6,0,0,0-.026,2.989,1.714,1.714,0,0,0,1.618,1.455,1.745,1.745,0,0,0,1.956-1.141A4.77,4.77,0,0,0,1553.317,483.379Z" transform="translate(-1383.903 -467.408)"/>
      <path id="Trazado_1106" data-name="Trazado 1106" d="M854.851,482.287h-1.768c-.176,0-.36,0-.371.243a5.522,5.522,0,0,0,.489,2.8,1.961,1.961,0,0,0,3.162-.043,1.835,1.835,0,0,1,.2-.313.242.242,0,0,1,.339-.026c.129.1.016.178-.033.273a2.818,2.818,0,0,1-2.9,1.288,3.085,3.085,0,0,1-2.451-2.478,3.88,3.88,0,0,1,.655-3,2.731,2.731,0,0,1,4.435.091c.031.054.074.1.1.156.448.884.371,1.011-.605,1.006-.419,0-.837,0-1.256,0Zm-.655-.342v.007c.371,0,.741-.008,1.112,0,.251.007.357-.08.363-.347a1.169,1.169,0,0,0-1.032-1.269,1.5,1.5,0,0,0-1.816,1.3c-.069.24.057.307.262.308C853.454,481.945,853.825,481.944,854.2,481.944Z" transform="translate(-773.717 -467.424)"/>
      <path id="Trazado_1107" data-name="Trazado 1107" d="M1331.854,482.192c-.589,0-1.178,0-1.768,0-.173,0-.366,0-.372.241a5.53,5.53,0,0,0,.5,2.844,1.976,1.976,0,0,0,3.077,0,2.84,2.84,0,0,0,.167-.279c.09-.188.244-.273.41-.151s-.018.236-.081.346a2.879,2.879,0,0,1-4.878-.188,3.649,3.649,0,0,1,.613-4.443,2.755,2.755,0,0,1,2.909-.539,2.407,2.407,0,0,1,1.479,1.731c.1.328.018.451-.336.439C1333,482.177,1332.427,482.191,1331.854,482.192Zm-.586-.331c.355,0,.711,0,1.067,0,.184,0,.356-.039.346-.273-.033-.713-.34-1.3-1.18-1.359a1.39,1.39,0,0,0-1.6,1.092c-.179.511-.159.539.4.54Z" transform="translate(-1191.483 -467.332)"/>
      <path id="Trazado_1108" data-name="Trazado 1108" d="M1215.028,482.272h-1.767c-.173,0-.367-.014-.377.231a5.114,5.114,0,0,0,.414,2.677,1.882,1.882,0,0,0,2.64.649,1.669,1.669,0,0,0,.664-.694c.063-.131.139-.251.3-.249s.267.051.167.256a2.853,2.853,0,0,1-2.679,1.4,2.954,2.954,0,0,1-2.589-2.066,3.577,3.577,0,0,1,.562-3.474,2.81,2.81,0,0,1,3.806-.571,2.725,2.725,0,0,1,.941,1.506c.068.265-.034.337-.272.336-.6,0-1.209,0-1.813,0Zm-.688-.335v0c.278,0,.556,0,.834,0,.729.006.81-.106.6-.8a1.021,1.021,0,0,0-.215-.4,1.527,1.527,0,0,0-1.665-.322,1.742,1.742,0,0,0-.931,1.3c-.009.238.165.226.317.229C1213.63,481.941,1213.985,481.937,1214.341,481.937Z" transform="translate(-1089.153 -467.411)"/>
      <path id="Trazado_1109" data-name="Trazado 1109" d="M733.211,482.137c-.573,0-1.147.007-1.721,0-.251,0-.382.088-.375.348a6.493,6.493,0,0,0,.273,2.246,1.626,1.626,0,0,0,1.294,1.192,1.939,1.939,0,0,0,1.995-.681,1.831,1.831,0,0,1,.118-.144c.124-.135.185-.483.412-.321.265.189-.026.419-.148.58a2.929,2.929,0,0,1-4.916-.715,3.506,3.506,0,0,1,1.348-4.505,2.545,2.545,0,0,1,3.813,1.548c.091.339.008.48-.374.461-.572-.029-1.147-.008-1.72-.008Zm-.607-.337v0c.387,0,.773,0,1.16,0,.251,0,.358-.1.34-.369a1.266,1.266,0,0,0-1.364-1.266,1.517,1.517,0,0,0-1.509,1.253c-.088.307.018.392.307.382C731.892,481.791,732.248,481.8,732.6,481.8Z" transform="translate(-667.161 -467.278)"/>
      <path id="Trazado_1110" data-name="Trazado 1110" d="M1383.243,483.957c0,.4,0,.805,0,1.208.008.548.2.757.734.813.16.017.382-.05.368.22-.014.255-.224.2-.39.2-.8,0-1.61,0-2.415-.006-.159,0-.386.067-.414-.177s.188-.227.358-.24a.638.638,0,0,0,.666-.72c-.006-1.254,0-2.508,0-3.762,0-.426-.189-.67-.643-.669-.146,0-.358.046-.379-.164-.024-.238.209-.223.366-.264a10.577,10.577,0,0,0,1.033-.265c.359-.133.5-.033.569.331.046.236-.037.617.156.679.249.08.291-.326.474-.476a1.763,1.763,0,0,1,1.8-.559,1.014,1.014,0,0,1,.617.7c.1.312-.112.492-.338.642s-.369-.023-.524-.152-.182-.32-.282-.474a.4.4,0,0,0-.653-.148,2.4,2.4,0,0,0-1.1,2.03c-.019.417,0,.836,0,1.254Z" transform="translate(-1237.648 -467.493)"/>
      <path id="Trazado_1111" data-name="Trazado 1111" d="M1674.206,485.436c0-.186-.007-.372,0-.557.007-.144-.079-.347.125-.4s.222.162.282.295a2.915,2.915,0,0,0,.739,1.107,1.3,1.3,0,0,0,2.008-.383,1.115,1.115,0,0,0-.489-1.364c-.608-.428-1.326-.668-1.912-1.131a1.577,1.577,0,0,1-.711-1.608,1.653,1.653,0,0,1,1.237-1.42,1.535,1.535,0,0,1,1.393.309c.221.184.387.268.525-.068a.221.221,0,0,1,.26-.146c.169.032.15.171.151.294,0,.434.007.867.01,1.3,0,.109.014.229-.125.266-.154.041-.229-.057-.274-.185a2.588,2.588,0,0,0-.727-1.165,1.14,1.14,0,0,0-1.637.141.834.834,0,0,0,.225,1.189,5.322,5.322,0,0,0,1.324.757,2.444,2.444,0,0,1,1.5,1.537,1.822,1.822,0,0,1-.712,2.041,1.889,1.889,0,0,1-2.1-.023c-.314-.236-.559-.437-.739.106a.2.2,0,0,1-.211.15c-.141-.022-.143-.146-.145-.254,0-.263,0-.526,0-.79Z" transform="translate(-1494.354 -467.409)"/>
      <path id="Trazado_1112" data-name="Trazado 1112" d="M1018.1,484.842c.171.112.19.311.27.475a1.589,1.589,0,0,0,1.589.908,1.054,1.054,0,0,0,.979-.79,1.175,1.175,0,0,0-.524-1.242c-.565-.411-1.231-.645-1.8-1.052a1.678,1.678,0,1,1,1.744-2.86c.256.21.444.378.6-.07a.179.179,0,0,1,.231-.106c.107.029.123.125.124.223q0,.721.01,1.441c0,.122-.032.221-.173.225s-.166-.1-.2-.212a2.588,2.588,0,0,0-.741-1.159,1.112,1.112,0,0,0-1.6.144.847.847,0,0,0,.218,1.222,15.341,15.341,0,0,0,1.9,1.065,1.931,1.931,0,0,1,.263,3.179,1.87,1.87,0,0,1-2.2.019c-.344-.286-.539-.325-.694.139a.2.2,0,0,1-.22.138.2.2,0,0,1-.165-.2c.006-.569.021-1.139.036-1.708,0-.01.052-.019.079-.029a1.333,1.333,0,0,0,.161.658C1018.111,485.121,1018.039,484.965,1018.1,484.842Z" transform="translate(-919.321 -467.461)"/>
      <path id="Trazado_1113" data-name="Trazado 1113" d="M1484.909,473.662a1.49,1.49,0,0,1-1.688,1.089,1.527,1.527,0,0,1-1.288-1.586q-.029-1.953-.012-3.906c0-.369-.084-.563-.5-.493-.141.024-.346.047-.369-.171-.019-.18.156-.2.291-.237a1.781,1.781,0,0,0,1.321-1.507c.031-.136-.02-.369.213-.334.174.027.117.227.118.359,0,.372.012.745-.011,1.116-.019.311.107.417.406.4.356-.019.713-.013,1.07-.013.153,0,.341-.021.347.2s-.175.217-.334.217c-.357,0-.714.012-1.07-.007-.269-.014-.411.066-.409.356.01,1.395.01,2.79.022,4.184a.9.9,0,0,0,.61.856.742.742,0,0,0,.869-.255A.7.7,0,0,1,1484.909,473.662Z" transform="translate(-1325.178 -455.664)"/>
      <path id="Trazado_1114" data-name="Trazado 1114" d="M986.545,482.955c0,.758-.01,1.516,0,2.274.012.656.138.787.8.884.138.02.25.048.258.2.009.19-.125.225-.279.224l-2.739-.006c-.131,0-.263-.019-.273-.182-.012-.187.123-.213.276-.233.8-.1.873-.185.873-.983,0-1.129.01-2.259-.02-3.387-.019-.7-.1-.748-.789-.793-.152-.01-.342.02-.336-.21.006-.2.181-.212.338-.24a14.025,14.025,0,0,0,1.5-.291c.321-.093.39-.005.389.281C986.542,481.315,986.544,482.135,986.545,482.955Z" transform="translate(-890.079 -467.633)"/>
      <path id="Trazado_1115" data-name="Trazado 1115" d="M1517.231,482.934c0,.789-.01,1.578,0,2.367.01.614.136.741.757.822.148.019.292.03.292.218s-.156.2-.3.2c-.9,0-1.8,0-2.693,0-.148,0-.3-.01-.312-.194-.015-.228.162-.211.322-.223.723-.055.827-.16.828-.873,0-1.176,0-2.352-.019-3.527-.012-.651-.113-.73-.77-.763-.153-.008-.345.025-.353-.2-.009-.238.195-.229.365-.257a7.767,7.767,0,0,0,1.408-.265c.464-.169.457.043.454.37-.007.773,0,1.547,0,2.321Z" transform="translate(-1354.893 -467.638)"/>
      <path id="Trazado_1116" data-name="Trazado 1116" d="M1538.912,554.363c0,.527,0,1.053,0,1.58,0,.151-.012.3-.2.3-.206,0-.243-.137-.24-.316.012-.743.016-1.486.02-2.23,0-.1.051-.24-.075-.287-.163-.061-.2.1-.26.2-.291.439-.589.873-.865,1.321-.147.238-.254.229-.4.005-.284-.443-.577-.88-.868-1.318-.057-.085-.1-.218-.231-.183s-.1.175-.1.275q0,1.092.011,2.183c0,.16.029.34-.193.348-.248.01-.23-.169-.229-.356,0-1.038,0-2.076-.017-3.113a.264.264,0,0,1,.154-.291c.158-.074.253.022.346.137a13.367,13.367,0,0,1,1.064,1.509c.179.3.307.344.509.012.306-.5.649-.982.97-1.475.11-.169.243-.3.454-.234s.137.249.137.4q0,.767,0,1.534Z" transform="translate(-1372.668 -530.903)"/>
      <path id="Trazado_1117" data-name="Trazado 1117" d="M1602.45,554.4c0-.511.009-1.022,0-1.532-.006-.23.055-.349.308-.342.541.016,1.086-.016,1.624.032a1.114,1.114,0,0,1,.979,1.573.993.993,0,0,1-.537.474c-.3.16-.355.335-.11.605.226.25.416.533.621.8.068.089.237.178.092.3a.288.288,0,0,1-.41-.073c-.24-.3-.474-.6-.7-.908a1.017,1.017,0,0,0-1.214-.493c-.188.037-.21.155-.209.3,0,.294.006.588.015.882.005.169-.009.323-.229.322s-.244-.134-.241-.315c.008-.542,0-1.083,0-1.625Zm1.262-1.458v-.02h-.554a.228.228,0,0,0-.26.251c0,.354-.009.708-.007,1.062a.211.211,0,0,0,.236.225,5.321,5.321,0,0,0,1.289-.042.742.742,0,0,0-.059-1.468A3.354,3.354,0,0,0,1603.712,552.943Z" transform="translate(-1431.503 -531.003)"/>
      <path id="Trazado_1118" data-name="Trazado 1118" d="M1323.812,552.494c.13-.352.306-.212.455-.028.65.8,1.3,1.61,1.931,2.426.084.108.127.282.284.245.193-.046.091-.229.092-.354,0-.727,0-1.454,0-2.181,0-.156.021-.289.2-.3.227-.016.231.148.231.313,0,1.037,0,2.073,0,3.109,0,.145.063.335-.15.387-.177.043-.281-.092-.378-.216-.637-.817-1.273-1.635-1.916-2.448-.077-.1-.113-.3-.291-.231-.136.057-.052.22-.051.336q.01,1.114.024,2.227c0,.124.017.265-.125.32s-.279.048-.316-.147a13.442,13.442,0,0,0,.01-2.684q0-.327,0-.653C1323.876,552.574,1323.877,552.534,1323.812,552.494Z" transform="translate(-1187.444 -530.785)"/>
      <path id="Trazado_1119" data-name="Trazado 1119" d="M1573.236,554.333c0-.5.013-.992-.006-1.487-.01-.248.034-.377.318-.373.713.009,1.425,0,2.138-.006.149,0,.3.026.306.207.007.2-.162.195-.3.195-.558,0-1.116,0-1.673-.01-.282-.007-.371.1-.368.384.012.94,0,.941.954.94q.372,0,.743-.013c.168-.005.386-.059.382.2s-.226.2-.392.2c-.418,0-.838.017-1.255-.005-.312-.016-.448.064-.435.41.036.982-.192.92.91.922.4,0,.806-.012,1.208-.017.133,0,.258.02.258.19,0,.154-.1.217-.244.217-.775,0-1.549,0-2.324-.006-.248,0-.233-.186-.231-.367.006-.526,0-1.053,0-1.58Z" transform="translate(-1405.913 -530.951)"/>
      <path id="Trazado_1120" data-name="Trazado 1120" d="M1395.062,554.427c0-.51.015-1.021-.006-1.531-.011-.276.057-.4.354-.385.494.021.99,0,1.484.021a1.163,1.163,0,0,1,1.134.858,1.026,1.026,0,0,1-.674,1.262c-.237.117-.257.217-.106.414.232.3.451.617.672.928.064.091.249.17.132.292s-.273.047-.4-.074a5.406,5.406,0,0,1-.612-.791,1.13,1.13,0,0,0-1.137-.612c-.282.042-.431.1-.411.411.018.277.01.556.02.834.006.17-.064.273-.236.272s-.23-.114-.229-.279c0-.541,0-1.082,0-1.623Zm2.05-1.479c-.053-.111-.138-.075-.221-.048l-.367-.005a2.72,2.72,0,0,0-.534-.028c-.17.023-.405-.152-.508.133a5.74,5.74,0,0,0,0,.689c.029.258-.136.559.147.769a1.578,1.578,0,0,0,.864.011c.076-.007.152-.019.228-.019a.849.849,0,0,0,.9-.632C1397.739,553.386,1397.457,553.136,1397.112,552.948Z" transform="translate(-1249.844 -530.989)"/>
      <path id="Trazado_1121" data-name="Trazado 1121" d="M1356.9,553.958a1.929,1.929,0,1,1,3.856-.01,1.972,1.972,0,0,1-1.977,1.975A1.946,1.946,0,0,1,1356.9,553.958Zm3.415.018a1.495,1.495,0,1,0-1.463,1.539A1.489,1.489,0,0,0,1360.319,553.976Z" transform="translate(-1216.434 -530.513)"/>
      <path id="Trazado_1122" data-name="Trazado 1122" d="M1247.4,553.971a1.988,1.988,0,0,1-1.984,1.977,1.98,1.98,0,0,1,.127-3.958A1.937,1.937,0,0,1,1247.4,553.971Zm-.438.033a1.518,1.518,0,0,0-1.444-1.612,1.489,1.489,0,0,0-1.541,1.5,1.529,1.529,0,0,0,1.465,1.64A1.505,1.505,0,0,0,1246.959,554Z" transform="translate(-1117.132 -530.532)"/>
      <path id="Trazado_1123" data-name="Trazado 1123" d="M1454.688,554.333c0-.527,0-1.054,0-1.581,0-.161-.014-.336.206-.341s.223.169.221.332c0,.325.007.652-.011.976-.015.27.074.411.36.408q.767-.009,1.535,0c.246,0,.323-.132.32-.352-.006-.356-.005-.713-.013-1.069,0-.152.008-.295.2-.294s.223.135.223.289q0,1.627,0,3.255c0,.157-.031.287-.216.289s-.215-.135-.213-.289c.006-.356,0-.713.014-1.069.011-.273-.082-.391-.376-.377-.48.023-.962.026-1.441,0-.316-.014-.41.112-.394.407s0,.62,0,.93c0,.163.063.386-.2.388-.286,0-.222-.231-.221-.413,0-.5,0-.992,0-1.488Z" transform="translate(-1302.082 -530.899)"/>
      <path id="Trazado_1124" data-name="Trazado 1124" d="M1645.363,553.85a1.952,1.952,0,0,1,3.095-1.6c.128.085.352.158.188.383-.141.192-.273.093-.429-.019a1.511,1.511,0,0,0-1.887.016,1.823,1.823,0,0,0-.373,2.016,1.544,1.544,0,0,0,1.705.743,1.274,1.274,0,0,0,.638-.358c.138-.132.28-.154.393.005s-.03.248-.142.333a1.93,1.93,0,0,1-3.189-1.52Z" transform="translate(-1469.099 -530.43)"/>
      <path id="Trazado_1125" data-name="Trazado 1125" d="M1680.316,556.18c-.034.213-.163.22-.31.16a.43.43,0,0,1-.24-.325.8.8,0,0,0-1.049-.665,2.858,2.858,0,0,1-.833,0,.618.618,0,0,0-.733.467c-.087.236-.192.612-.456.5-.344-.152.018-.427.1-.606.445-.945.889-1.891,1.284-2.859a.414.414,0,0,1,.369-.3c.167,0,.229.138.286.257q.757,1.607,1.5,3.219C1680.266,556.079,1680.293,556.133,1680.316,556.18Zm-1.858-3.089c-.041.027-.094.043-.109.076-.236.527-.481,1.05-.691,1.587-.08.205.124.209.258.212.339.008.679,0,1.019.005.3,0,.343-.131.224-.379C1678.923,554.1,1678.7,553.6,1678.458,553.091Z" transform="translate(-1496.416 -531.021)"/>
      <path id="Trazado_1126" data-name="Trazado 1126" d="M1281.937,554.4c0-.511.012-1.022,0-1.532-.009-.277.069-.386.365-.378.681.019,1.362,0,2.043,0,.148,0,.3,0,.317.186.021.231-.162.224-.319.224-.526,0-1.054.017-1.579-.007-.313-.014-.406.1-.395.4.041,1.064-.207.941.963.959.263,0,.526,0,.789-.013.154-.006.288.01.293.2s-.128.218-.282.216c-.464-.006-.929,0-1.393-.018-.284-.013-.395.095-.379.376.018.34.013.681.022,1.021,0,.164-.052.28-.233.273s-.227-.123-.226-.286c0-.541,0-1.083,0-1.624Z" transform="translate(-1150.755 -530.967)"/>
      <path id="Trazado_1127" data-name="Trazado 1127" d="M1502.22,556.327c-.065.126-.132.245-.3.1a.571.571,0,0,1-.237-.329c-.091-.548-.417-.7-.93-.6a1.3,1.3,0,0,1-.463,0c-.641-.109-1.121.022-1.272.751a.28.28,0,0,1-.428.213c-.222-.133.018-.261.07-.381q.646-1.481,1.308-2.954c.075-.167.085-.385.354-.426.317-.048.343.215.435.376.491.852.765,1.8,1.2,2.682C1502.043,555.948,1502.129,556.136,1502.22,556.327Zm-1.629-1.2a2.577,2.577,0,0,0,.457-.01c.037-.007.2-.041.124-.21-.265-.559-.508-1.129-.789-1.761a11.54,11.54,0,0,0-.805,1.744c-.071.045-.12.114-.075.187s.129.06.2.027l.478.017Z" transform="translate(-1340.453 -531.155)"/>
      <path id="Trazado_1128" data-name="Trazado 1128" d="M1521.22,449.226a.949.949,0,0,1,.81-.823.926.926,0,0,1,.787.841.912.912,0,0,1-.754.816A.929.929,0,0,1,1521.22,449.226Z" transform="translate(-1360.361 -439.8)"/>
      <path id="Trazado_1129" data-name="Trazado 1129" d="M991.359,448.414a.878.878,0,0,1,.763.845.861.861,0,0,1-.8.8.929.929,0,0,1-.778-.844A.917.917,0,0,1,991.359,448.414Z" transform="translate(-895.533 -439.81)"/>
      <path id="Trazado_1130" data-name="Trazado 1130" d="M1634.813,554.348c0,.511,0,1.023,0,1.534,0,.16.018.336-.208.338-.209,0-.231-.148-.229-.323q.009-1.581,0-3.162c0-.164,0-.337.208-.345s.223.167.223.33q0,.814,0,1.628Z" transform="translate(-1459.476 -530.883)"/>
      <path id="Trazado_1131" data-name="Trazado 1131" d="M1435,553.15c.114-.122.091.029.094.057a.2.2,0,0,1-.208.249,5.392,5.392,0,0,1-.7-.008c-.278-.023-.389.075-.383.366.017.882.006,1.764.02,2.645,0,.2.025.386-.245.4s-.275-.171-.273-.374c.007-.866.005-1.733.008-2.6a.556.556,0,0,0-.127-.474c.339-.062.246.2.247.356.006.9,0,1.792,0,2.688,0,.122-.017.279.159.274.192-.005.124-.159.123-.279-.011-.71-.019-1.421-.019-2.131,0-1.123-.087-.933.926-.942C1434.794,553.376,1435.015,553.454,1435,553.15Z" transform="translate(-1283.255 -531.508)"/>
      <path id="Trazado_1132" data-name="Trazado 1132" d="M1427.709,552.674c.015.3-.205.226-.373.228-1.013.01-.926-.181-.926.942,0,.71.008,1.421.019,2.131,0,.12.069.273-.123.279-.176,0-.159-.152-.159-.274,0-.9.007-1.792,0-2.688,0-.159.092-.417-.247-.356h-.19c-.193-.01-.387-.021-.581-.029-.105,0-.232.005-.258-.125-.034-.175.135-.162.234-.21l2.23,0C1427.472,552.568,1427.619,552.518,1427.709,552.674Z" transform="translate(-1275.965 -531.033)"/>
      <path id="Trazado_1133" data-name="Trazado 1133" d="M1323.6,560.25a13.433,13.433,0,0,1-.01,2.684.682.682,0,0,1-.008-.375v.009C1323.567,561.795,1323.535,561.022,1323.6,560.25Z" transform="translate(-1187.225 -537.768)"/>
      <path id="Trazado_1134" data-name="Trazado 1134" d="M1609.174,482.574c.066.333.066.333-.438.357C1608.649,482.633,1608.655,482.628,1609.174,482.574Z" transform="translate(-1436.981 -469.731)"/>
      <path id="Trazado_1135" data-name="Trazado 1135" d="M1424.2,552.3c-.1.048-.268.034-.234.21.025.13.152.12.258.125.194.008.388.019.581.029a1.886,1.886,0,0,1-.675.037c-.159.005-.33-.038-.292-.25S1424.014,552.2,1424.2,552.3Z" transform="translate(-1275.055 -530.762)"/>
      <path id="Trazado_1136" data-name="Trazado 1136" d="M1018.914,517.229c-.057.123.015.279-.12.408a1.333,1.333,0,0,1-.161-.658l.089-.022.039.007C1018.885,517.011,1018.907,517.116,1018.914,517.229Z" transform="translate(-920.139 -499.848)"/>
      <path id="Trazado_1137" data-name="Trazado 1137" d="M1570.391,531.56c-.048-.111-.187-.06-.309-.16h1.079l-.275.159A.853.853,0,0,1,1570.391,531.56Z" transform="translate(-1403.16 -512.498)"/>
      <path id="Trazado_1138" data-name="Trazado 1138" d="M350.119,698.12a1.033,1.033,0,0,1,.511.088c-.183.072-.342-.067-.519-.059a.041.041,0,0,1-.03-.022C350.065,698.091,350.079,698.088,350.119,698.12Z" transform="translate(-334.539 -658.511)"/>
      <path id="Trazado_1139" data-name="Trazado 1139" d="M399.488,631.781c-.126.125-.285.076-.433.081A.792.792,0,0,1,399.488,631.781Z" transform="translate(-377.442 -600.421)"/>
      <path id="Trazado_1140" data-name="Trazado 1140" d="M339.566,695.439a.185.185,0,0,1,.2.059A.173.173,0,0,1,339.566,695.439Z" transform="translate(-325.334 -656.177)"/>
      <path id="Trazado_1141" data-name="Trazado 1141" d="M1323.667,554.025c.065.04.064.08,0,.119a.481.481,0,0,1-.026-.083C1323.64,554.051,1323.657,554.037,1323.667,554.025Z" transform="translate(-1187.299 -532.316)"/>
      <path id="Trazado_1142" data-name="Trazado 1142" d="M1323.536,578.807V578.8l-.03-.008Z" transform="translate(-1187.181 -554.008)"/>
      <path id="Trazado_1143" data-name="Trazado 1143" d="M394.626,630.452l-.017-.025.02-.021.021.024Z" transform="translate(-373.548 -599.22)"/>
      <path id="Trazado_1144" data-name="Trazado 1144" d="M1019.389,516.715l-.039-.007C1019.372,516.658,1019.385,516.662,1019.389,516.715Z" transform="translate(-920.766 -499.598)"/>
      <path id="Trazado_1145" data-name="Trazado 1145" d="M385.4,550.063l-.016-.011Z" transform="translate(-365.464 -528.836)"/>
      <path id="Trazado_1146" data-name="Trazado 1146" d="M631.591,451.211h2.22v.044h-2.22Z" transform="translate(-581.123 -442.26)"/>
      <path id="Trazado_1147" data-name="Trazado 1147" d="M1399.6,555.183c-.34.106-.707-.048-1.042.105.1-.285.338-.11.508-.133A2.719,2.719,0,0,1,1399.6,555.183Z" transform="translate(-1252.917 -533.277)"/>
      <path id="Trazado_1148" data-name="Trazado 1148" d="M1399.74,568.033a3.166,3.166,0,0,1,.864.011A1.579,1.579,0,0,1,1399.74,568.033Z" transform="translate(-1253.955 -544.565)"/>
      <path id="Trazado_1149" data-name="Trazado 1149" d="M1410.128,555.5l-.222-.048C1409.99,555.425,1410.074,555.389,1410.128,555.5Z" transform="translate(-1262.859 -533.541)"/>
      <path id="Trazado_1150" data-name="Trazado 1150" d="M1506.592,570.382l.129.214c-.074.033-.16.045-.2-.027S1506.521,570.427,1506.592,570.382Z" transform="translate(-1347.468 -546.643)"/>
      <path id="Trazado_1151" data-name="Trazado 1151" d="M1512.131,571.924a.454.454,0,0,1,.407.007Z" transform="translate(-1352.4 -547.954)"/>
    </g>
  </g>
</svg>
