<svg xmlns="http://www.w3.org/2000/svg" width="138.702" height="46.514" viewBox="0 0 138.702 46.514">
  <g id="Grupo_1470" data-name="Grupo 1470" transform="translate(-705 -4898)">
    <g id="Grupo_1469" data-name="Grupo 1469" transform="translate(705 4898)">
      <path id="Trazado_1901" data-name="Trazado 1901" d="M1105.235,482.813a9.62,9.62,0,0,0-.206,1.409,18.416,18.416,0,0,1-1.247,4.461,16.512,16.512,0,0,1-2.872,4.593.472.472,0,0,1-.56.181,39.255,39.255,0,0,0-6.773-1.487c-1.19-.149-2.379-.281-3.576-.361-.5-.033-1.007-.054-1.511-.058-.234,0-.323-.1-.313-.326.036-.818-.182-.719.708-.837a13.765,13.765,0,0,0,3.829-1.1,15.07,15.07,0,0,0,5.138-3.766,13.828,13.828,0,0,0,3.184-6.221,15.69,15.69,0,0,0,.376-2.921c.01-.28-.065-.382-.359-.371-.577.022-1.155.013-1.733,0-.2,0-.3.043-.306.276a12.04,12.04,0,0,1-1.116,4.77,12.062,12.062,0,0,1-8.52,6.754c-.328.067-.666.087-.994.153-.186.037-.2-.048-.2-.188,0-.542,0-1.083,0-1.625,0-.173.079-.214.238-.236a10.015,10.015,0,0,0,8.349-7.944,8.091,8.091,0,0,0,.171-1.716c-.006-.2-.04-.311-.277-.306-.578.013-1.156.009-1.733,0-.208,0-.293.069-.315.288a8.255,8.255,0,0,1-1.831,4.653,7.355,7.355,0,0,1-4.242,2.555c-.271.055-.368-.032-.357-.312.017-.457.014-.915,0-1.372a.327.327,0,0,1,.272-.385,6.1,6.1,0,0,0,3.094-2.254,5.145,5.145,0,0,0,.978-2.854c.017-.249-.064-.339-.322-.331-.553.017-1.108.015-1.661,0-.262-.007-.369.059-.412.349a3.279,3.279,0,0,1-1.6,2.41c-.311.19-.333.161-.352-.207-.084-1.586-.058-3.173-.061-4.761,0-.228-.058-.322-.3-.315-.6.017-1.2.014-1.806.008-.188,0-.3.04-.294.255,0,.167-.042.334-.043.5-.007,1.43-.008,2.859-.012,4.289,0,.412-.048.447-.389.243a3.254,3.254,0,0,1-1.635-2.3c-.094-.531-.089-.532-.64-.532-.469,0-.939.009-1.408,0-.252-.007-.344.093-.338.34a5.213,5.213,0,0,0,1.208,3.207,5.55,5.55,0,0,0,2.915,1.945c.2.054.3.139.29.37-.018.481-.011.963,0,1.444.006.228-.073.3-.3.26a7.469,7.469,0,0,1-3.491-1.7,7.78,7.78,0,0,1-2.626-4.713,5,5,0,0,1-.085-.822c0-.253-.1-.337-.347-.333-.578.011-1.156.016-1.733,0-.265-.008-.318.1-.319.337a9.135,9.135,0,0,0,.807,3.63,10.026,10.026,0,0,0,2.324,3.358,9.7,9.7,0,0,0,5.07,2.638c.7.125.7.127.7.84,0,.337-.007.674,0,1.011.005.188-.069.261-.255.251a4.66,4.66,0,0,1-.644-.063,11.9,11.9,0,0,1-6.047-3,12.315,12.315,0,0,1-3.714-6.255,18.527,18.527,0,0,1-.312-2.457c-.023-.238-.1-.305-.325-.3-.565.012-1.132.014-1.7,0-.241-.007-.309.076-.309.309a13.682,13.682,0,0,0,1.117,5.391,14.4,14.4,0,0,0,3.72,5.167,14.646,14.646,0,0,0,5.236,3.022,15.564,15.564,0,0,0,2.909.646c.284.035.443.145.387.461a1.216,1.216,0,0,0,0,.324c.02.211-.051.289-.279.3-1.162.058-2.325.11-3.484.215-1.455.132-2.9.348-4.342.6a39.005,39.005,0,0,0-4.511,1.082c-.282.085-.376-.114-.5-.254a16.319,16.319,0,0,1-1.713-2.4,19.85,19.85,0,0,1-2.508-9.79,18.732,18.732,0,0,1,1.554-7.126,17.8,17.8,0,0,1,3.265-4.937,18.525,18.525,0,0,1,4.524-3.532,17.7,17.7,0,0,1,6.626-2.185c.094-.011.2,0,.206-.14h.145a.427.427,0,0,0,.505,0h2.89a.419.419,0,0,0,.505,0h.145c.009.167.14.128.24.143.4.06.806.112,1.206.184a18.193,18.193,0,0,1,5.652,2.062,18.344,18.344,0,0,1,7.006,7.059,17.252,17.252,0,0,1,2.169,6.209c.031.218-.072.508.2.666v.145a.558.558,0,0,0,0,.578Zm-8.451-9.145a3.08,3.08,0,0,0-.968-1.961c-.142-.149-.254-.079-.359.047a3.588,3.588,0,0,0-.88,1.705,1.1,1.1,0,0,0,.421,1.087,1.109,1.109,0,0,0,1.786-.878ZM1087.9,471.2a3.432,3.432,0,0,0-.875-1.8c-.14-.192-.235-.18-.392-.024a3.154,3.154,0,0,0-.884,1.7,1.094,1.094,0,1,0,2.151.129Zm13.3,2.43a3.181,3.181,0,0,0-.984-1.943c-.112-.081-.176-.073-.268.035a3.553,3.553,0,0,0-.9,1.7,1.179,1.179,0,0,0,.044.709,1.164,1.164,0,0,0,1.183.642A1.037,1.037,0,0,0,1101.192,473.63Zm-22.175-.079a2.744,2.744,0,0,0-.981-1.932c-.1-.09-.174-.088-.267.023a3.565,3.565,0,0,0-.89,1.656,1.106,1.106,0,0,0,.424,1.18,1.074,1.074,0,0,0,1.151.094A.967.967,0,0,0,1079.017,473.551Zm2.3.023a1.266,1.266,0,0,0,.071.5,1.109,1.109,0,0,0,2.077-.75,3.294,3.294,0,0,0-.969-1.654c-.081-.081-.171-.165-.269-.04A3.128,3.128,0,0,0,1081.319,473.574Zm-7.787,1.079a1.015,1.015,0,0,0,1.066-1.028,2.648,2.648,0,0,0-.968-2.012.184.184,0,0,0-.307.03,3.689,3.689,0,0,0-.871,1.592A1.124,1.124,0,0,0,1073.532,474.654Zm18.781-1.042a3.082,3.082,0,0,0-.953-1.954c-.092-.106-.157-.1-.252.015a3.946,3.946,0,0,0-.92,1.685,1.052,1.052,0,0,0,.332,1.1,1.135,1.135,0,0,0,1.284.145A.945.945,0,0,0,1092.312,473.612Z" transform="translate(-966.534 -463.023)"/>
      <path id="Trazado_1902" data-name="Trazado 1902" d="M730.023,481.063a9.146,9.146,0,0,0,.262-1.62,17.75,17.75,0,0,1,2.245-6.2,17.387,17.387,0,0,1,11.231-8.319,19.539,19.539,0,0,1,6.529-.364A17.8,17.8,0,0,1,755.921,466a16.605,16.605,0,0,1,4.711,3.209c.33.315.632.659.966.969.19.176.2.292.015.487-1.314,1.4-2.617,2.813-3.922,4.223a7.932,7.932,0,0,0-.551.619c-.179.24-.306.215-.5.008a14.638,14.638,0,0,0-3.157-2.6,10.153,10.153,0,0,0-6.68-1.417,9.462,9.462,0,0,0-8.021,6.593,11.791,11.791,0,0,0,1.648,11.816,9.584,9.584,0,0,0,8.894,3.754,11.341,11.341,0,0,0,6.556-2.952,14.264,14.264,0,0,0,1.153-1.087c.209-.224.33-.182.517.005q1.691,1.695,3.4,3.377c.307.3.61.613.928.905.168.155.176.267.017.441a18.547,18.547,0,0,1-7.536,5.273,18.317,18.317,0,0,1-4.437.926,19.55,19.55,0,0,1-6.239-.4,17.224,17.224,0,0,1-8.228-4.458,17.741,17.741,0,0,1-5.114-9.533,4.6,4.6,0,0,0-.313-1.412Z" transform="translate(-730.023 -464.017)"/>
      <path id="Trazado_1903" data-name="Trazado 1903" d="M842.238,512.195a13.906,13.906,0,0,0-1.764-.266c-.249-.047-.345-.1-.343-.371q.017-2.852,0-5.7c0-.289.094-.347.357-.309a12.709,12.709,0,0,0,1.869.151,3.386,3.386,0,0,0,3.7-3.393c.03-.323.049-.648.049-.972q0-17.022,0-34.044c0-.345.057-.464.441-.46,2.383.021,4.766.016,7.149,0,.3,0,.38.072.379.375q-.012,17.293-.011,34.586a13.487,13.487,0,0,1-.965,5.464,7.6,7.6,0,0,1-4.9,4.357,13.022,13.022,0,0,1-2.492.517c-.027,0-.05.043-.074.066Z" transform="translate(-806.985 -465.681)"/>
      <path id="Trazado_1904" data-name="Trazado 1904" d="M925.554,494.58a.59.59,0,0,0-.055.385q0,7.457,0,14.914c0,.36-.083.471-.455.468q-3.54-.026-7.079,0c-.311,0-.406-.069-.406-.4q.013-22.209,0-44.418c0-.271.056-.366.351-.365q3.612.019,7.224,0c.284,0,.364.075.362.36-.013,1.637-.005,3.274,0,4.911,0,.114.01.229.019.425.341-.432.621-.8.915-1.159a13.817,13.817,0,0,1,6.907-4.733,14.292,14.292,0,0,1,5.543-.429,15.331,15.331,0,0,1,8.47,3.664,16.434,16.434,0,0,1,4.91,7.377,21.438,21.438,0,0,1,1.074,7.783,19.044,19.044,0,0,1-3.223,10.392,15.31,15.31,0,0,1-9.709,6.475,14.569,14.569,0,0,1-8.648-.7,14.217,14.217,0,0,1-5.493-4.1C926.029,495.158,925.8,494.876,925.554,494.58Zm-.247-12.106a13.114,13.114,0,0,0,.636,4.115,9.95,9.95,0,0,0,9.8,7.05,9.21,9.21,0,0,0,6.976-3.394,10.741,10.741,0,0,0,2.367-5.451,13.268,13.268,0,0,0-.772-7.295A9.624,9.624,0,0,0,928,474.787,11.315,11.315,0,0,0,925.307,482.474Z" transform="translate(-861.106 -464.017)"/>
      <path id="Trazado_1905" data-name="Trazado 1905" d="M1101.113,571.759a16.938,16.938,0,0,1-7.608-1.94,19.258,19.258,0,0,1-3.533-2.349c-.071-.061-.179-.114-.15-.225.024-.088.129-.09.21-.113a33.639,33.639,0,0,1,5.144-1.02c1.465-.181,2.931-.318,4.407-.358a5.4,5.4,0,0,0,.68-.06c.322-.05.375.1.376.386a1.521,1.521,0,0,0,.432,1.181,1.147,1.147,0,0,0,1.864-.442,2.238,2.238,0,0,0,.14-.737c0-.29.116-.334.367-.328,1.285.028,2.561.139,3.837.287a41.329,41.329,0,0,1,5.34.954c.256.064.509.141.764.207.091.024.209.013.231.132s-.085.167-.155.227a16.762,16.762,0,0,1-2.686,1.872,18.777,18.777,0,0,1-6.179,2.093A20.5,20.5,0,0,1,1101.113,571.759Z" transform="translate(-981.507 -534.78)"/>
    </g>
  </g>
</svg>
