<svg xmlns="http://www.w3.org/2000/svg" width="108.928" height="92.388" viewBox="0 0 108.928 92.388">
  <g id="Grupo_1430" data-name="Grupo 1430" transform="translate(-477.499 879.394)">
    <g id="Grupo_1472" data-name="Grupo 1472" transform="translate(1016 -149)">
      <path id="Trazado_1003" data-name="Trazado 1003" d="M435.406,595.458h-4.723l-3.137-11.912h-.084l-2.9,11.914h-4.711l-5.83-19.587h5.832l3.131,12.247h.087l2.668-12.248H431l2.63,12.25c.37-1,.6-2.021.873-3.036s.529-2.036.793-3.053l.8-3.089.794-3.072h4.28C441.16,576.137,435.661,594.85,435.406,595.458Z" transform="translate(-917.933 -1258.833)"/>
      <path id="Trazado_1004" data-name="Trazado 1004" d="M1999.475,419.336h-5.527c0-.176,0-.33,0-.483q0-5.953-.005-11.905a4.521,4.521,0,0,0-.126-1.185,2.245,2.245,0,0,0-1.749-1.8,2.449,2.449,0,0,0-2.449.851,4.075,4.075,0,0,0-1.018,2.655c-.012.907,0,1.815,0,2.722v9.095c-.3.085-4.731.117-5.455.048-.087-.273-.131-25-.047-26.147.244-.078,4.942-.1,5.487-.025v9.125l.057.019a.589.589,0,0,0,.087-.118,4.081,4.081,0,0,1,1.873-2.05,6.5,6.5,0,0,1,5.122-.6,5,5,0,0,1,3.255,3.087,7.257,7.257,0,0,1,.5,2.876q0,4.065,0,8.13v5.7Z" transform="translate(-2429.992 -1082.716)"/>
      <path id="Trazado_1005" data-name="Trazado 1005" d="M-101.981,569.944h-12.4a4.085,4.085,0,0,0-.074.613,5.392,5.392,0,0,0,1.274,3.435,3.407,3.407,0,0,0,5.2.087,3.709,3.709,0,0,0,.944-1.81c.016-.082.044-.162.075-.274l4.984.32c-.057.22-.1.392-.147.563a8.937,8.937,0,0,1-6.665,6.182,10.724,10.724,0,0,1-3.253.077,9.349,9.349,0,0,1-2.592-.662,8.449,8.449,0,0,1-5.017-5.584,12.892,12.892,0,0,1,.554-8.974,9,9,0,0,1,2.575-3.419,7.964,7.964,0,0,1,4.66-1.8,10.8,10.8,0,0,1,3.738.355,7.465,7.465,0,0,1,4.339,3.258,11.128,11.128,0,0,1,1.5,4.018,18.286,18.286,0,0,1,.3,3.211C-101.981,569.659-101.981,569.778-101.981,569.944Zm-5.617-3.421a5.039,5.039,0,0,0-.436-2.365,2.535,2.535,0,0,0-1.086-1.135,3.418,3.418,0,0,0-4.116.742,4.784,4.784,0,0,0-1.136,2.758Z" transform="translate(-403.104 -1242.257)"/>
      <path id="Trazado_1006" data-name="Trazado 1006" d="M1461.878,572.288l-4.011.9a2.026,2.026,0,0,1-.1-.218,3.274,3.274,0,0,0-2.655-2.345,6.26,6.26,0,0,0-1.259-.145,2.643,2.643,0,0,0-2.439,1.543,1.115,1.115,0,0,0,.432,1.576,4.556,4.556,0,0,0,1.758.646c.986.184,1.98.324,2.965.516.853.166,1.7.37,2.545.574a4.289,4.289,0,0,1,.747.274,4.6,4.6,0,0,1,2.888,4.286,8.493,8.493,0,0,1-.376,3.079,5.72,5.72,0,0,1-3.488,3.6,11.16,11.16,0,0,1-3.245.721,17.021,17.021,0,0,1-3.695-.062,9.779,9.779,0,0,1-2.521-.645,6.143,6.143,0,0,1-2.988-2.646,8.739,8.739,0,0,1-.92-2.252l4.9-.635c.022.084.037.129.045.174a2.355,2.355,0,0,0,.993,1.547,5.257,5.257,0,0,0,2.7.972,4.5,4.5,0,0,0,2.173-.291,4.84,4.84,0,0,0,.9-.524,1.45,1.45,0,0,0,.525-.766,1.216,1.216,0,0,0-.424-1.427,2.8,2.8,0,0,0-1.134-.55c-.824-.188-1.654-.35-2.485-.508a30.671,30.671,0,0,1-3.644-.806,4.964,4.964,0,0,1-3.672-4.4,7.066,7.066,0,0,1,.11-2.56,5.4,5.4,0,0,1,2.114-3.159,7.91,7.91,0,0,1,3.408-1.444,11.768,11.768,0,0,1,5.18.18,6.38,6.38,0,0,1,4.631,4.573A1.891,1.891,0,0,1,1461.878,572.288Z" transform="translate(-1911.979 -1250.403)"/>
      <path id="Trazado_1007" data-name="Trazado 1007" d="M1065.346-730.394c.182.923.391,1.842.536,2.771a13.763,13.763,0,0,1,.149,1.914,11.231,11.231,0,0,1-2.391,7.152,20.994,20.994,0,0,1-3.94,3.89c-.518.4-1.042.79-1.543,1.208a7.439,7.439,0,0,0-.939.9,3.491,3.491,0,0,0-.641,3.6,6.047,6.047,0,0,0,1.778,2.48,7.644,7.644,0,0,1,.618.611,33.757,33.757,0,0,1,4.543,6.365,15.828,15.828,0,0,1,1.381,3.383,8.172,8.172,0,0,1,.149,3.592,13.89,13.89,0,0,1-1.267,3.993,8.763,8.763,0,0,1-4.306,4.191c-.276.122-.565.213-.85.311a2.85,2.85,0,0,1-.321.067,1.678,1.678,0,0,1,.1-.155,11.874,11.874,0,0,0,2.622-5.348c.106-.458.158-.929.242-1.392a3.234,3.234,0,0,0-.138-1.5,17.236,17.236,0,0,0-1.218-2.984c-1.247-2.458-2.52-4.9-3.785-7.351a29.21,29.21,0,0,1-1.644-3.511,10.677,10.677,0,0,1-.621-3.3,21.2,21.2,0,0,1,.112-3.442,11.44,11.44,0,0,1,1.461-4.146,21.39,21.39,0,0,1,2.978-3.967c.962-1.039,1.953-2.049,2.93-3.073a17.5,17.5,0,0,0,3.847-6.132,1.4,1.4,0,0,1,.061-.126Z" transform="translate(-1534.527)"/>
      <path id="Trazado_1008" data-name="Trazado 1008" d="M-523.947,420.217v-5.038c.265.027.5.05.74.077.673.078,1.345.165,2.018.236a3.591,3.591,0,0,0,1.776-.261,2.389,2.389,0,0,0,1.482-1.96,7,7,0,0,0,.075-1.12q.007-8.821,0-17.642v-.487h6.135c.006.133.017.251.017.369q0,9.2,0,18.4a11.1,11.1,0,0,1-.522,3.575,5.878,5.878,0,0,1-4.538,4.052,12.357,12.357,0,0,1-3.828.189c-1.036-.086-2.068-.221-3.1-.337A2.445,2.445,0,0,1-523.947,420.217Z" transform="translate(-14.026 -1083.587)"/>
      <path id="Trazado_1009" data-name="Trazado 1009" d="M1387.872-195.726a1.912,1.912,0,0,1,.189.172,10.066,10.066,0,0,1,2.25,4.492,8.122,8.122,0,0,1-.119,3.416,14.919,14.919,0,0,1-3.014,6.287c-.5.619-1.013,1.235-1.51,1.86a7.4,7.4,0,0,0-1.01,1.63,3.356,3.356,0,0,0-.1,2.612,3.308,3.308,0,0,0,.421.8,2.034,2.034,0,0,0,2.389.828,4.112,4.112,0,0,0,2.6-2.266,6.633,6.633,0,0,0,.549-2.169c.1-.828.177-1.659.257-2.489a7.156,7.156,0,0,0-.163-2.306c-.016-.068-.026-.138-.05-.267.141.1.242.156.331.229a7.6,7.6,0,0,1,2.958,6.08,11.482,11.482,0,0,1-.95,4.839,6.32,6.32,0,0,1-1.678,2.295,4.786,4.786,0,0,1-3.531,1.141,3.517,3.517,0,0,1-1.806-.7,6.081,6.081,0,0,1-1.6-1.762,12.357,12.357,0,0,1-1.514-3.865,18.864,18.864,0,0,1-.334-4.945c.032-.881.08-1.764.168-2.641a9.427,9.427,0,0,1,1.16-3.6c.634-1.155,1.323-2.279,2-3.408.437-.725.909-1.428,1.349-2.152a6.311,6.311,0,0,0,.8-1.858,4.621,4.621,0,0,0-.016-2.015q-.019-.088-.034-.177A.247.247,0,0,1,1387.872-195.726Z" transform="translate(-1851.154 -515.254)"/>
      <path id="Trazado_1010" data-name="Trazado 1010" d="M917.057-111.722c-.207.625-.425,1.2-.585,1.792a4.264,4.264,0,0,0-.035,2.3,3.863,3.863,0,0,0,2.505,2.753,2.2,2.2,0,0,0,1.285.076,1.866,1.866,0,0,0,1.5-2.184,6.961,6.961,0,0,0-.592-2.009,16.321,16.321,0,0,0-1.816-3.048c-.525-.71-1.064-1.409-1.585-2.123a16.457,16.457,0,0,1-2.125-3.7,7.961,7.961,0,0,1-.613-3.614,7.424,7.424,0,0,1,.6-2.232,15.275,15.275,0,0,1,2.083-3.474,1.588,1.588,0,0,1,.119-.114,2.327,2.327,0,0,1,0,.26,10.1,10.1,0,0,0,.782,5.174,5.179,5.179,0,0,0,.635,1.01c.648.9,1.32,1.792,1.964,2.7a25.682,25.682,0,0,1,2.561,4.334,8.968,8.968,0,0,1,.821,4.087,8.824,8.824,0,0,1-.689,3.1,12.013,12.013,0,0,1-.941,1.877,5.568,5.568,0,0,1-5.187,2.736,4.348,4.348,0,0,1-4.063-4.058,7.485,7.485,0,0,1,.571-3.185,3.524,3.524,0,0,1,1.16-1.5A6.958,6.958,0,0,1,917.057-111.722Z" transform="translate(-1399.447 -581.19)"/>
      <path id="Trazado_1011" data-name="Trazado 1011" d="M1226.033-517.925c.208.718.426,1.433.621,2.155q.6,2.2,1.013,4.45a6.992,6.992,0,0,1-.729,4.737c-.207.383-.415.767-.654,1.129-.719,1.089-1.44,2.178-2.187,3.248a7.263,7.263,0,0,0-1.318,2.914,9.284,9.284,0,0,0,.012,2.961c.018.124.033.249.054.415a.793.793,0,0,1-.138-.083,18.279,18.279,0,0,1-3.623-5.559,7.578,7.578,0,0,1-.637-3.394,9.883,9.883,0,0,1,3.586-7.187,13.9,13.9,0,0,0,3.223-3.887A8.608,8.608,0,0,0,1226.033-517.925Z" transform="translate(-1693.137 -204.754)"/>
      <path id="Trazado_1012" data-name="Trazado 1012" d="M1224.148,594.591V575.063c.26-.075,4.645-.1,5.2-.028v19.531C1229.1,594.644,1224.7,594.67,1224.148,594.591Z" transform="translate(-1698.646 -1257.986)"/>
      <path id="Trazado_1013" data-name="Trazado 1013" d="M713.722,1193.4h-2.168v5.423h-3.162v-13.543c.094-.007.176-.017.257-.017,2.056,0,4.113-.008,6.169,0a4.49,4.49,0,0,1,2.7.824,3.733,3.733,0,0,1,1.5,3.635,3.962,3.962,0,0,1-.711,1.917,2.674,2.674,0,0,1-1.313,1.042c-.066.023-.127.059-.214.1l2.6,6.036h-3.531Zm-2.317-2.369c.1.01.162.021.222.021.8,0,1.6,0,2.4,0a2.566,2.566,0,0,0,.5-.059,1.653,1.653,0,0,0,1.324-1.528,1.55,1.55,0,0,0-1.126-1.623,2.3,2.3,0,0,0-.608-.08c-.81-.009-1.621,0-2.432,0a2.252,2.252,0,0,0-.279.035Z" transform="translate(-1201.616 -1846.098)"/>
      <path id="Trazado_1014" data-name="Trazado 1014" d="M66.748,1198.86v-13.555h.4q2.287,0,4.574,0a5.858,5.858,0,0,1,5.982,4.62,8.073,8.073,0,0,1-.387,5.328,6.319,6.319,0,0,1-2.069,2.618,4.886,4.886,0,0,1-2.832,1c-1.839.036-3.679.015-5.518.017A1.128,1.128,0,0,1,66.748,1198.86Zm3.188-2.589c.615,0,1.2.007,1.794,0a2.47,2.47,0,0,0,2.053-1.044,5.036,5.036,0,0,0,.562-1.008,5.714,5.714,0,0,0,.324-2.992,4.7,4.7,0,0,0-.9-2.267,2.657,2.657,0,0,0-2.087-1.143c-.531-.022-1.064-.01-1.6-.01a.751.751,0,0,0-.155.036Z" transform="translate(-583.272 -1846.139)"/>
      <path id="Trazado_1015" data-name="Trazado 1015" d="M2156.062,1185.212c1,0,1.978,0,2.958,0a.323.323,0,0,1,.31.2c.286.491.577.98.865,1.469l3.375,5.719c.06.1.125.2.183.3a.305.305,0,0,0,.057-.013.045.045,0,0,0,.021-.024.305.305,0,0,0,.01-.071q.008-3.738.015-7.476a.186.186,0,0,1,.008-.035,13,13,0,0,1,2.391-.015v13.515c-.107.009-.212.024-.316.024-.654,0-1.307-.01-1.96.007a.472.472,0,0,1-.483-.282q-2.371-4.141-4.758-8.271a1.67,1.67,0,0,0-.234-.325,7.036,7.036,0,0,0-.051,1.244c-.006.423,0,.847,0,1.27v6.333h-2.378C2156,1198.506,2155.988,1185.675,2156.062,1185.212Z" transform="translate(-2596.675 -1846.044)"/>
      <path id="Trazado_1016" data-name="Trazado 1016" d="M1795.723,1184.124a11.063,11.063,0,0,1-.478,3.219,6.209,6.209,0,0,1-.73,1.534,4.74,4.74,0,0,1-3.606,2.161,7.392,7.392,0,0,1-2.805-.2,4.621,4.621,0,0,1-3.016-2.474,8.041,8.041,0,0,1-.769-2.78,11.793,11.793,0,0,1,.121-3.79,6.992,6.992,0,0,1,1.5-3.141,4.862,4.862,0,0,1,3.638-1.769,6.065,6.065,0,0,1,1.9.187,5.047,5.047,0,0,1,2.741,1.918,7.4,7.4,0,0,1,1.38,3.578C1795.669,1183.085,1795.685,1183.606,1795.723,1184.124Zm-3.327-.25c-.038-.506-.058-1.014-.121-1.516a4.212,4.212,0,0,0-.658-1.864,2,2,0,0,0-3.3-.07,3.405,3.405,0,0,0-.549,1.176,10.279,10.279,0,0,0-.014,4.707,3.59,3.59,0,0,0,.616,1.458,1.923,1.923,0,0,0,3.195-.075,4.373,4.373,0,0,0,.491-1.122A10.354,10.354,0,0,0,1792.4,1183.874Z" transform="translate(-2238.385 -1838.019)"/>
      <path id="Trazado_1017" data-name="Trazado 1017" d="M150.651,154.225v-.379c0-1.79,0-3.581,0-5.372a3.372,3.372,0,0,0-.074-.719,1.116,1.116,0,0,0-.87-.878,2.237,2.237,0,0,0-1.184.013,1.575,1.575,0,0,0-1.131,1.523c-.009.133-.006.266-.006.4q0,2.5,0,5.009v.422h-3.93c-.081-.255-.12-11.9-.041-12.746a35,35,0,0,1,3.973-.015v5.048c.152-.131.238-.208.328-.281.348-.28.683-.58,1.051-.833a4.158,4.158,0,0,1,2.5-.739,5.454,5.454,0,0,1,1.68.241,2.239,2.239,0,0,1,1.536,1.65,4.576,4.576,0,0,1,.154,1.073c.016,2.141.011,4.283.012,6.424a1.323,1.323,0,0,1-.014.141A32.866,32.866,0,0,1,150.651,154.225Z" transform="translate(-657.111 -840.171)"/>
      <path id="Trazado_1018" data-name="Trazado 1018" d="M-221.419,1195.618v2.752h-9.609v-13.5c.273-.077,8.584-.111,9.421-.039a11.136,11.136,0,0,1,.023,2.3h-6.271c-.01.905-.007,1.779,0,2.681h5a14.054,14.054,0,0,1,.03,2.623h-5v3.183Z" transform="translate(-296.309 -1845.64)"/>
      <path id="Trazado_1019" data-name="Trazado 1019" d="M418,1193.606v3.176h6.364a15.451,15.451,0,0,1,.018,2.751h-9.523c-.081-.259-.111-13-.029-13.538h9.436v2.292c-1.037.016-2.073.005-3.109.007s-2.079,0-3.111,0a14.108,14.108,0,0,0-.028,2.687h5v2.618C421.345,1193.609,419.683,1193.6,418,1193.606Z" transform="translate(-918.665 -1846.804)"/>
      <path id="Trazado_1020" data-name="Trazado 1020" d="M1036.924,1185.744h3.674l4.3,13.568c-1.151,0-2.255,0-3.37,0l-.92-2.752h-4.3l-.754,2.73h-2.73Zm1.6,3.656-.076,0-1.378,4.581h2.772Z" transform="translate(-1514.267 -1846.562)"/>
      <path id="Trazado_1021" data-name="Trazado 1021" d="M520.738,237.454l3.625.187a2.365,2.365,0,0,1-.1.285,4.112,4.112,0,0,1-1.628,1.709,6.5,6.5,0,0,1-2.343.834,9.753,9.753,0,0,1-4.97-.4,6.619,6.619,0,0,1-1.2-.586,4.3,4.3,0,0,1-1.282-6.176,5.3,5.3,0,0,1,2.353-1.87,7.55,7.55,0,0,1,2.785-.594,8.374,8.374,0,0,1,3.419.506,4.679,4.679,0,0,1,3.075,4.126c.024.225.035.452.055.719h-8.112a1.036,1.036,0,0,0-.014.67,1.845,1.845,0,0,0,1.894,1.773,5.275,5.275,0,0,0,.761-.014A1.932,1.932,0,0,0,520.738,237.454Zm-4.4-2.634h4.127a3.08,3.08,0,0,0-.159-1.149,1.566,1.566,0,0,0-1.146-1.059,2.87,2.87,0,0,0-1.434-.015,1.616,1.616,0,0,0-1,.674A2.561,2.561,0,0,0,516.338,234.82Z" transform="translate(-1012.413 -926.325)"/>
      <path id="Trazado_1022" data-name="Trazado 1022" d="M-518.375,1188.41v2.968c.845.014,1.674,0,2.5.006s1.665,0,2.521,0v2.648c-1.659.01-3.322,0-5.038.006-.007.925,0,1.827,0,2.73s0,1.786,0,2.705h-3.134c-.07-.263-.087-13.1-.014-13.535h9.439v2.468c-.694.007-1.379,0-2.064,0h-4.21Z" transform="translate(-16.3 -1846.749)"/>
      <path id="Trazado_1023" data-name="Trazado 1023" d="M-190.441,155.051V144.905c-1.142-.047-2.262.007-3.406-.033v-2.6h10.787v2.607c-1.094.023-2.187,0-3.319.015v10.159Z" transform="translate(-332.14 -840.977)"/>
      <path id="Trazado_1024" data-name="Trazado 1024" d="M1325.9,1199.583v-10.911h-3.335c-.022-.893-.008-1.743-.01-2.62h9.943v2.6h-3.356c-.018.553-.007,1.068-.009,1.583s0,1.041,0,1.561v7.785Z" transform="translate(-1793.478 -1846.856)"/>
      <path id="Trazado_1025" data-name="Trazado 1025" d="M1640.6,1185.688h3.131v13.544H1640.6Z" transform="translate(-2099.979 -1846.507)"/>
      <path id="Trazado_1026" data-name="Trazado 1026" d="M-13.626,1648.673l1.08,2.641h-1.813l-.907-2.368h-.846v2.371h-1.64v-5.98a2.6,2.6,0,0,1,.268-.027q1.414,0,2.829,0a3.026,3.026,0,0,1,1.167.222,1.525,1.525,0,0,1,1,1.393,1.536,1.536,0,0,1-.764,1.533C-13.37,1648.525-13.485,1648.59-13.626,1648.673Zm-2.472-.822a5.337,5.337,0,0,0,1.356-.056.649.649,0,0,0,.537-.713.651.651,0,0,0-.559-.662,6.618,6.618,0,0,0-1.334-.038Z" transform="translate(-501.841 -2289.438)"/>
      <path id="Trazado_1027" data-name="Trazado 1027" d="M679.321,1648.679l1.079,2.638h-1.814l-.9-2.363h-.846v2.37h-1.595c-.081-.243-.114-5.3-.035-5.982.087-.008.18-.024.272-.025q1.4,0,2.795,0a3.075,3.075,0,0,1,1.169.217,1.662,1.662,0,0,1,.227,2.943C679.568,1648.538,679.463,1648.6,679.321,1648.679Zm-2.486-.846a11.306,11.306,0,0,0,1.283-.01.663.663,0,0,0,.623-.751.684.684,0,0,0-.683-.667c-.392-.03-.788-.006-1.2-.006-.009.12-.021.213-.021.306C676.834,1647.077,676.835,1647.448,676.835,1647.833Z" transform="translate(-1169.596 -2289.446)"/>
      <path id="Trazado_1028" data-name="Trazado 1028" d="M1023.269,1646.334a3.566,3.566,0,0,1,.382-1.644,2.486,2.486,0,0,1,2.1-1.4,3.828,3.828,0,0,1,1.22.091,2.451,2.451,0,0,1,1.759,1.632,3.835,3.835,0,0,1,.084,2.456,2.677,2.677,0,0,1-2.8,2,2.745,2.745,0,0,1-2.718-2.6C1023.281,1646.7,1023.279,1646.515,1023.269,1646.334Zm1.729.061c.055.349.083.688.165,1.014.156.62.491.917.97.911s.786-.3.946-.9a3.831,3.831,0,0,0,0-2.008,2.03,2.03,0,0,0-.292-.655.806.806,0,0,0-1.332-.009,1.546,1.546,0,0,0-.268.548C1025.1,1645.658,1025.059,1646.031,1025,1646.4Z" transform="translate(-1505.062 -2287.48)"/>
      <path id="Trazado_1029" data-name="Trazado 1029" d="M-532.767,1646.41a9.808,9.808,0,0,1-.174,1.032,2.682,2.682,0,0,1-2.845,2.039,2.749,2.749,0,0,1-2.69-2.627,3.831,3.831,0,0,1,.278-1.987,2.524,2.524,0,0,1,2.325-1.575,3.8,3.8,0,0,1,1.11.109,2.466,2.466,0,0,1,1.7,1.551A4.476,4.476,0,0,1-532.767,1646.41Zm-1.806.033c0-.121.009-.243,0-.363a2.872,2.872,0,0,0-.292-1.152.85.85,0,0,0-.889-.5.79.79,0,0,0-.684.526,5.1,5.1,0,0,0-.275,1.082,3.271,3.271,0,0,0,.175,1.607.955.955,0,0,0,.634.649.894.894,0,0,0,1.1-.542A2.906,2.906,0,0,0-534.573,1646.443Z" transform="translate(0 -2287.49)"/>
      <path id="Trazado_1030" data-name="Trazado 1030" d="M1589.076,1645.892v5.976a10.751,10.751,0,0,1-1.3.02l-2.47-3.977-.083.016c-.03.425-.01.852-.013,1.278,0,.448,0,.9,0,1.343v1.322H1584.1c-.074-.251-.094-5.506-.019-5.983h1.619l2.159,3.49a6.253,6.253,0,0,0,.046-1.18c.009-.387,0-.774,0-1.162v-1.144Z" transform="translate(-2045.461 -2289.998)"/>
      <path id="Trazado_1031" data-name="Trazado 1031" d="M-182.452,1644.744l-1.539.17c-.051-.126-.1-.246-.148-.364a.9.9,0,0,0-.865-.605.876.876,0,0,0-.846.578,3.472,3.472,0,0,0-.224,1.78,3.3,3.3,0,0,0,.227.944.968.968,0,0,0,1.207.544.912.912,0,0,0,.679-1.031h-.96v-1.042h2.479v3.2c-.112.008-.217.019-.322.023s-.216,0-.346,0l-.317-.759a1.257,1.257,0,0,0-.152.129,2.409,2.409,0,0,1-3.537-.109,3.2,3.2,0,0,1-.7-1.76,4.018,4.018,0,0,1,.275-1.992,2.5,2.5,0,0,1,2.12-1.6,3.215,3.215,0,0,1,1.4.109A2.3,2.3,0,0,1-182.452,1644.744Z" transform="translate(-337.929 -2287.044)"/>
      <path id="Trazado_1032" data-name="Trazado 1032" d="M1748.211,1644.942l-1.537.169c-.042-.109-.08-.207-.119-.3a.925.925,0,0,0-1.772-.017,3.221,3.221,0,0,0-.2,1.425,4.406,4.406,0,0,0,.18,1.1.981.981,0,0,0,1.2.688.934.934,0,0,0,.758-1.036h-.979v-1.054h2.481v3.205h-.671l-.312-.74a1.633,1.633,0,0,0-.156.141,2.406,2.406,0,0,1-3.436-.019,2.926,2.926,0,0,1-.723-1.438,4.155,4.155,0,0,1,.158-2.284,2.556,2.556,0,0,1,2.428-1.747,3.238,3.238,0,0,1,1.215.152A2.268,2.268,0,0,1,1748.211,1644.942Z" transform="translate(-2198.497 -2287.241)"/>
      <path id="Trazado_1033" data-name="Trazado 1033" d="M1189.049,1647.448l1.455-.261a1.445,1.445,0,0,0,1.67.673,1.02,1.02,0,0,0,.236-.089.424.424,0,0,0,.063-.744,2.04,2.04,0,0,0-.59-.262c-.3-.092-.611-.145-.914-.229a6.1,6.1,0,0,1-.651-.22,1.687,1.687,0,0,1-.334-2.888,2.689,2.689,0,0,1,1.2-.478,3.334,3.334,0,0,1,1.817.184,2.012,2.012,0,0,1,1.112,1.079l-1.281.4a1.2,1.2,0,0,0-.964-.576,2.081,2.081,0,0,0-.634.1.413.413,0,0,0-.285.422.407.407,0,0,0,.257.4,3.814,3.814,0,0,0,.579.2c.327.085.661.146.989.227a3.425,3.425,0,0,1,.481.159,1.545,1.545,0,0,1,1.055,1.271,1.724,1.724,0,0,1-.713,1.749,3.136,3.136,0,0,1-1.777.542,3.287,3.287,0,0,1-1.686-.341A2.146,2.146,0,0,1,1189.049,1647.448Z" transform="translate(-1664.821 -2287.118)"/>
      <path id="Trazado_1034" data-name="Trazado 1034" d="M2321.266,1644.21l-1.306.4a1.574,1.574,0,0,0-.113-.172,1.215,1.215,0,0,0-1.316-.374.506.506,0,0,0-.426.438.451.451,0,0,0,.348.492c.271.1.556.158.836.234.361.1.73.172,1.082.3a1.551,1.551,0,0,1,1.118,1.42,1.715,1.715,0,0,1-.817,1.669,3.319,3.319,0,0,1-1.94.487,3.167,3.167,0,0,1-1.4-.323,2.148,2.148,0,0,1-1.058-1.146,1.555,1.555,0,0,1-.046-.192l1.419-.257c.042.028.072.036.08.054a1.388,1.388,0,0,0,1.664.6c.219-.068.411-.177.431-.432a.483.483,0,0,0-.35-.5c-.246-.1-.5-.161-.759-.238-.416-.124-.841-.225-1.247-.375a1.444,1.444,0,0,1-.836-.764,1.778,1.778,0,0,1,.56-2.145,2.547,2.547,0,0,1,1.138-.443,3.319,3.319,0,0,1,1.852.189A1.964,1.964,0,0,1,2321.266,1644.21Z" transform="translate(-2751.069 -2287.116)"/>
      <path id="Trazado_1035" data-name="Trazado 1035" d="M538.887,1650.85h2.722a2.8,2.8,0,0,1,.035,1.216H537.3v-5.98h4.366v1.131H538.9a5.826,5.826,0,0,0-.008,1.222h2.243c.036.365.011.708.019,1.095h-2.262A9.638,9.638,0,0,0,538.887,1650.85Z" transform="translate(-1036.734 -2290.188)"/>
      <path id="Trazado_1036" data-name="Trazado 1036" d="M2185.437,1649.924v1.208h-4.377v-5.943a40.979,40.979,0,0,1,4.373-.018v1.119c-.46,0-.915.007-1.369.008s-.916,0-1.419,0c-.032.409-.013.787-.013,1.2h2.263v1.115c-.74.019-1.483-.005-2.245.014v1.3Z" transform="translate(-2620.811 -2289.258)"/>
      <path id="Trazado_1037" data-name="Trazado 1037" d="M1917.167,1645.261v1.1c-.924.017-1.836,0-2.793.011a10.691,10.691,0,0,0-.006,1.2h2.248v1.109h-2.248c-.024.444-.008.848-.011,1.273a3.6,3.6,0,0,0,.94.044c.3.011.6,0,.907,0h.955v1.2h-4.371v-5.945A35.551,35.551,0,0,1,1917.167,1645.261Z" transform="translate(-2362.281 -2289.325)"/>
      <path id="Trazado_1038" data-name="Trazado 1038" d="M145.482,1645.984v1.148H142.7v1.2h2.226v1.114h-2.208a11.13,11.13,0,0,0-.042,1.31c.478,0,.932.006,1.386.007s.918,0,1.411,0a9.233,9.233,0,0,1,.028,1.209h-4.349c-.081-.25-.112-5.4-.032-5.986Z" transform="translate(-654.899 -2290.089)"/>
      <path id="Trazado_1039" data-name="Trazado 1039" d="M275.684,1651.97h-1.663l-.356-1.2h-1.878l-.383,1.192h-1.258l1.841-5.978h1.831Zm-2.927-4.685-.076.006-.654,2.337h1.39Z" transform="translate(-779.285 -2290.089)"/>
      <path id="Trazado_1040" data-name="Trazado 1040" d="M1418.542,1645.574h1.82l1.868,5.994h-1.656l-.366-1.194h-1.87l-.393,1.2h-1.254Zm.758,1.332-.075,0-.65,2.331h1.38C1419.746,1648.439,1419.537,1647.668,1419.3,1646.906Z" transform="translate(-1884.198 -2289.694)"/>
      <path id="Trazado_1041" data-name="Trazado 1041" d="M-363.122,1645.021v1.184h-2.617v1.309h1.992v1.134h-2.007v2.344h-1.567v-5.941A38.391,38.391,0,0,1-363.122,1645.021Z" transform="translate(-164.966 -2289.12)"/>
      <path id="Trazado_1042" data-name="Trazado 1042" d="M2051.21,1646.107h1.619v4.745h2.444v1.211a34.7,34.7,0,0,1-4.063.014Z" transform="translate(-2495.677 -2290.208)"/>
      <path id="Trazado_1043" data-name="Trazado 1043" d="M408.394,1645.674h4.1v1.216h-1.227c-.045.828-.014,1.622-.02,2.414s0,1.565,0,2.365h-1.549v-4.76h-1.3A8.265,8.265,0,0,1,408.394,1645.674Z" transform="translate(-912.493 -2289.791)"/>
      <path id="Trazado_1044" data-name="Trazado 1044" d="M908.878,1645.926v4.752h2.416v1.23h-4.009c-.073-.263-.093-5.526-.02-5.982Z" transform="translate(-1393.225 -2290.034)"/>
      <path id="Trazado_1045" data-name="Trazado 1045" d="M1233.278,426.731h-5.046a.891.891,0,0,1,.165-.121,8.765,8.765,0,0,0,4.52-4.2c.1-.191.213-.378.317-.563a.185.185,0,0,1,.045.005c.009,0,.021.014.021.022q.007,2.355.01,4.71A.753.753,0,0,1,1233.278,426.731Z" transform="translate(-1702.582 -1110.399)"/>
    </g>
  </g>
</svg>
