<svg xmlns="http://www.w3.org/2000/svg" width="183.899" height="41.662" viewBox="0 0 183.899 41.662">
  <g id="Grupo_1471" data-name="Grupo 1471" transform="translate(-745.578 -489.493)">
    <path id="Trazado_1906" data-name="Trazado 1906" d="M767.025,541.643c.519-.09.7.093.676.647-.049,1.112-.015,2.228-.015,3.342,0,.59,0,.6.577.372a5.858,5.858,0,0,0,3.62-3.929c.1-.345.238-.454.592-.44.753.03,1.508.021,2.262,0,.32-.007.392.055.333.4a9.083,9.083,0,0,1-6.9,7.212c-.379.084-.51.212-.49.6.032.616.018,1.234,0,1.85-.005.26.042.359.343.316a11.864,11.864,0,0,0,9.688-9.584c.119-.788.119-.788.906-.788.617,0,1.236.022,1.851-.009.374-.018.465.1.419.46a14.893,14.893,0,0,1-12.805,13.016c-.3.042-.417.111-.4.428.024.616.023,1.235,0,1.851-.012.336.106.39.418.353a17.546,17.546,0,0,0,15.345-15.06c.048-.335-.088-.808.166-.97s.695-.063,1.053-.066c.531-.006,1.063.014,1.594-.007.3-.012.377.09.351.384a20.172,20.172,0,0,1-4.761,11.582,19.965,19.965,0,0,1-13.009,7.153,20.507,20.507,0,0,1-22.812-16.279,24.2,24.2,0,0,1-.344-2.439c-.034-.351.078-.4.381-.4.754.015,1.509.022,2.262,0,.328-.011.439.089.471.417a17.488,17.488,0,0,0,15.323,15.684c.416.051.5-.069.48-.442-.025-.582-.022-1.166,0-1.748.012-.305-.091-.389-.394-.437a14.679,14.679,0,0,1-11.728-8.959A14.911,14.911,0,0,1,751.4,542.1c-.05-.35.026-.481.41-.465.753.031,1.509.026,2.262,0,.309-.01.392.088.438.387a11.825,11.825,0,0,0,9.7,9.98c.29.052.4.012.393-.309-.02-.634-.024-1.269,0-1.9.014-.346-.119-.451-.444-.534a8.936,8.936,0,0,1-6.843-6.778c-.221-.83-.2-.835.654-.835.634,0,1.269.017,1.9-.007.313-.012.427.091.517.4a5.977,5.977,0,0,0,3.732,4.025c.366.146.5.109.486-.333-.029-1.217,0-2.434-.016-3.651,0-.324.07-.458.425-.437.53.031,1.063.007,1.594.006Z" transform="translate(-0.056 -29.781)"/>
    <path id="Trazado_1907" data-name="Trazado 1907" d="M785.04,509.293c-.377,0-.756-.02-1.131.006-.317.022-.392-.093-.416-.4a17.5,17.5,0,0,0-16.347-16.288,17.45,17.45,0,0,0-18.308,14.9c-.069.491-.136.984-.165,1.478-.015.256-.111.315-.343.312-.789-.01-1.577-.018-2.366,0-.329.009-.4-.108-.383-.419a20.275,20.275,0,0,1,4.247-11.37,20.537,20.537,0,0,1,36.639,10.072c.059.458.079.921.123,1.381.023.24-.065.342-.317.333C785.863,509.282,785.451,509.293,785.04,509.293Z"/>
    <path id="Trazado_1908" data-name="Trazado 1908" d="M772.435,502.811c8.515,0,14.645,5.156,15.9,12.316.082.471.093.954.159,1.428.04.287-.077.355-.338.351-.771-.011-1.544-.02-2.314,0-.346.011-.425-.128-.454-.443a11.737,11.737,0,0,0-23.14-1.382,10.634,10.634,0,0,0-.215,1.419c-.025.306-.127.413-.437.405-.754-.019-1.509-.024-2.262,0-.352.012-.432-.109-.407-.442a13.692,13.692,0,0,1,1.584-5.591C763.346,505.659,767.789,503.024,772.435,502.811Z" transform="translate(-7.623 -7.609)"/>
    <path id="Trazado_1909" data-name="Trazado 1909" d="M1031.391,515.78c-2.119,1.772-4.436,1.836-6.079.19a4.9,4.9,0,0,1-.1-6.474,4.162,4.162,0,0,1,5.959-.276c0-.685.006-1.308,0-1.931a14.7,14.7,0,0,0-.047-1.847,1.064,1.064,0,0,0-1.071-1.1c-.152-.025-.367.056-.388-.216s.189-.273.373-.31c.789-.159,1.579-.309,2.364-.488.38-.087.5,0,.5.413-.016,3.342-.011,6.684-.006,10.026a5.471,5.471,0,0,0,.126,1.428.972.972,0,0,0,1.085.871c.142.008.362-.111.389.183.024.267-.148.294-.345.34-.649.152-1.3.31-1.941.488-.314.087-.482.006-.555-.314S1031.482,516.118,1031.391,515.78Zm-.221-3.518c0-.462.006-.925,0-1.387a1.931,1.931,0,0,0-.71-1.53,2.422,2.422,0,0,0-3.75.649,5.7,5.7,0,0,0-.013,5.422,2.264,2.264,0,0,0,2.485,1.155,2.079,2.079,0,0,0,1.817-1.709A10.22,10.22,0,0,0,1031.17,512.262Z" transform="translate(-159.098 -7.89)"/>
    <path id="Trazado_1910" data-name="Trazado 1910" d="M988.66,504.221c.972,0,2.463.016,3.953-.01.427-.007.556.132.578.544.039.751.141,1.5.208,2.25.011.135.1.328-.14.371-.226.04-.332-.061-.389-.291-.354-1.434-.9-2-2.891-2.119-.752-.044-1.508-.008-2.261-.025-.415-.009-.593.179-.594.585q0,2.339-.015,4.678c0,.2.032.316.276.314a4.675,4.675,0,0,0,1.714-.267,2,2,0,0,0,1.2-1.778c.03-.212.015-.419.33-.384.331.038.185.286.181.434-.042,1.472-.064,2.942,0,4.414.006.138.117.352-.189.375-.269.021-.291-.129-.341-.329-.333-1.337-.8-1.715-2.175-1.791-.993-.055-1-.055-.991.937a30.647,30.647,0,0,0,.077,3.542c.126.992.381,1.216,1.375,1.3.136.012.274,0,.411.005s.309-.032.315.216-.124.279-.32.272q-1.026-.035-2.053-.06c-1.1-.027-2.192-.014-3.286.056-.1.007-.206,0-.309,0-.2.006-.209-.121-.211-.272s.058-.208.21-.217a5.694,5.694,0,0,0,.713-.079.985.985,0,0,0,.846-.843,7.314,7.314,0,0,0,.12-1.533c.005-2.655-.011-5.311-.022-7.967,0-.154-.008-.309-.022-.462-.092-1.014-.406-1.318-1.414-1.381-.179-.011-.444.1-.431-.258s.293-.219.455-.22C985.094,504.217,986.617,504.327,988.66,504.221Z" transform="translate(-135.715 -8.403)"/>
    <path id="Trazado_1911" data-name="Trazado 1911" d="M946.724,509.813a3.768,3.768,0,0,1,3.763-1.688,2.466,2.466,0,0,1,2.373,2.649c.015,1.491,0,2.982,0,4.473,0,.856.2,1.088,1.04,1.228.176.03.355.021.326.278-.032.278-.248.193-.4.183a26.875,26.875,0,0,0-3.7,0c-.14.01-.325.073-.358-.168s.115-.264.306-.294c.862-.137,1.057-.352,1.04-1.216a41,41,0,0,0-.091-4.826,1.756,1.756,0,0,0-2.795-1.39,2.556,2.556,0,0,0-1.42,2.07,31.237,31.237,0,0,0-.082,4.211c.016.807.255,1.017,1.087,1.154.177.029.352.022.321.281-.033.283-.25.188-.4.178a27.891,27.891,0,0,0-3.747,0c-.147.01-.363.1-.384-.193-.02-.267.169-.242.337-.267.783-.12,1.038-.339,1.039-1.012q0-4.859-.024-9.718c-.006-1.079-.313-1.377-1.21-1.406-.173-.006-.245-.071-.246-.246s.085-.233.243-.264c.873-.168,1.746-.338,2.616-.522.337-.071.353.1.352.36-.007,1.834,0,3.668,0,5.5Z" transform="translate(-113.091 -7.885)"/>
    <path id="Trazado_1912" data-name="Trazado 1912" d="M853.005,513.072q0-3.187,0-6.374c0-.189,0-.378-.016-.565-.093-1.026-.43-1.353-1.452-1.419-.194-.012-.44.063-.414-.282.024-.325.273-.2.426-.2,1.678.049,3.356.041,5.034,0,.173,0,.444-.117.437.245-.006.314-.238.225-.408.236-1.08.076-1.457.43-1.465,1.557-.029,3.906-.028,7.813-.042,11.719a9.215,9.215,0,0,1-.145,1.685,3.331,3.331,0,0,1-2.907,2.9,6.7,6.7,0,0,1-3.3-.2,1.6,1.6,0,0,1-.839-.561.86.86,0,1,1,1.364-1.043,1.756,1.756,0,0,1,.284.486,1.307,1.307,0,0,0,1.358.964,1.785,1.785,0,0,0,1.758-1.019,4.421,4.421,0,0,0,.327-1.856Q853,516.208,853.005,513.072Z" transform="translate(-58.36 -8.407)"/>
    <path id="Trazado_1913" data-name="Trazado 1913" d="M891.208,521.532c.525-1.511,1.006-2.9,1.487-4.282.224-.646.439-1.3.673-1.938.052-.143.026-.371.277-.373s.24.208.3.356q1.129,2.889,2.251,5.78c.043.11.088.219.174.43.371-1.21.717-2.325,1.055-3.442.133-.442.266-.885.37-1.334.183-.8-.024-1.139-.8-1.386-.157-.05-.366-.053-.328-.3.041-.269.26-.183.408-.166a10.992,10.992,0,0,0,2.407,0c.135-.015.326-.081.375.151.044.207-.1.271-.255.315a1.588,1.588,0,0,0-1.048,1.169q-1.122,3.462-2.242,6.924c-.066.2-.034.475-.405.48-.347,0-.372-.23-.457-.442-.753-1.885-1.505-3.771-2.266-5.677a1.364,1.364,0,0,0-.347.7c-.607,1.651-1.2,3.308-1.8,4.961-.075.206-.083.469-.444.454-.333-.014-.322-.25-.387-.445-.743-2.239-1.492-4.476-2.217-6.72a1.873,1.873,0,0,0-1.315-1.435c-.147-.038-.249-.1-.221-.281.032-.207.193-.17.317-.161a25.763,25.763,0,0,0,3.794,0c.128-.01.282-.036.307.172.028.233-.136.224-.286.263-.955.248-1.125.519-.841,1.474C890.2,518.324,890.69,519.864,891.208,521.532Z" transform="translate(-80.482 -14.487)"/>
    <path id="Trazado_1914" data-name="Trazado 1914" d="M1152.667,516.192c.236-.291.386-.494.556-.679a3.959,3.959,0,0,1,4.6-.607,2.389,2.389,0,0,1,1.053,2.162c.02,1.456,0,2.912.006,4.368,0,1.052.12,1.2,1.14,1.4.187.036.286.094.264.288s-.177.185-.311.175a27.518,27.518,0,0,0-3.9,0c-.159.011-.32.01-.322-.221s.152-.217.312-.244c.9-.149,1.092-.365,1.078-1.294-.024-1.54.089-3.083-.063-4.62-.077-.782-.323-1.511-1.2-1.73a2.344,2.344,0,0,0-2.425.736,2.76,2.76,0,0,0-.675,1.942c0,1.25-.01,2.5,0,3.751.009.846.226,1.082,1.065,1.214.176.028.356.019.326.277-.032.277-.245.192-.4.181a28.171,28.171,0,0,0-3.694,0c-.158.01-.409.119-.432-.2s.223-.236.393-.262c.708-.109,1-.362,1-1.007-.006-1.78.083-3.561-.056-5.34-.061-.785-.222-.938-1-1-.155-.012-.367.066-.375-.214-.006-.261.192-.223.354-.261q1-.235,1.992-.49c.3-.077.477-.041.5.328C1152.5,515.255,1152.587,515.656,1152.667,516.192Z" transform="translate(-230.851 -14.246)"/>
    <path id="Trazado_1915" data-name="Trazado 1915" d="M1127.56,518.98a4.28,4.28,0,0,1,1.888-3.57,5.022,5.022,0,0,1,6.589.646,4.389,4.389,0,0,1-.816,6.661,4.9,4.9,0,0,1-7.6-3.121C1127.584,519.378,1127.577,519.155,1127.56,518.98Zm7.63.094a5.683,5.683,0,0,0-.66-2.907,2.467,2.467,0,0,0-4.329.088,6.1,6.1,0,0,0-.005,5.492,2.335,2.335,0,0,0,2.37,1.312,2.3,2.3,0,0,0,2.127-1.434A6.185,6.185,0,0,0,1135.19,519.074Z" transform="translate(-218.244 -14.271)"/>
    <path id="Trazado_1916" data-name="Trazado 1916" d="M1090.743,522.187a8.489,8.489,0,0,1-1.727,1.019,3.681,3.681,0,0,1-2.155.267,1.8,1.8,0,0,1-1.125-2.9,3.759,3.759,0,0,1,1.472-1.171c1.013-.5,2.028-.989,3.053-1.46a.6.6,0,0,0,.42-.671c-.01-.1,0-.205,0-.308-.042-1.78-1.329-2.577-2.99-1.854a.972.972,0,0,0-.606.822c-.1.7-.337,1.017-.791,1.036a.711.711,0,0,1-.77-.474,1.123,1.123,0,0,1,.529-1.279,5.336,5.336,0,0,1,2.84-.747,5.991,5.991,0,0,1,1.785.14,1.962,1.962,0,0,1,1.665,1.834,45.164,45.164,0,0,1,.086,4.567,3.508,3.508,0,0,0,.114,1.067c.2.6.643.7,1.083.252a1.654,1.654,0,0,0,.165-.2c.125-.178.258-.111.4-.023.2.125.045.247-.019.339a2.058,2.058,0,0,1-1.7,1.092,1.745,1.745,0,0,1-1.615-1.16A2.018,2.018,0,0,0,1090.743,522.187Zm-.047-2.167c0-.446-.007-.892,0-1.337.006-.239-.058-.312-.294-.2a11.954,11.954,0,0,0-2.167,1.162,2.49,2.49,0,0,0-.856,1,1.4,1.4,0,0,0,.975,2.034,2.96,2.96,0,0,0,2.072-.863c.411-.3.232-.709.263-1.08C1090.713,520.5,1090.7,520.26,1090.7,520.02Z" transform="translate(-194.125 -14.26)"/>
    <path id="Trazado_1917" data-name="Trazado 1917" d="M790.631,525.839l-.419,0a5.223,5.223,0,0,0-1-.607c-2.449-1.52-2.864-3.4-1.262-5.794.266-.4.58-.766.835-1.17a3.612,3.612,0,0,0,.085-3.938c-.064-.115-.134-.227-.222-.373a7.328,7.328,0,0,1,3.432,3.734,2.677,2.677,0,0,1-.587,2.492,6.972,6.972,0,0,0-1.022,1.534A4.2,4.2,0,0,0,790.631,525.839Z" transform="translate(-23.662 -13.976)"/>
    <path id="Trazado_1918" data-name="Trazado 1918" d="M872.807,517.906c-.89,0-1.782.02-2.671-.009-.363-.012-.442.114-.48.45a5.039,5.039,0,0,0,.316,2.415,2.822,2.822,0,0,0,5.011.939c.163-.179.272-.41.533-.091.14.171.133.255,0,.424a4.591,4.591,0,0,1-4.824,1.3,4.2,4.2,0,0,1-3.062-3.551,4.713,4.713,0,0,1,3.444-5.206,4.412,4.412,0,0,1,3.367.482,2.951,2.951,0,0,1,1.485,2.385c.034.341-.061.49-.448.477-.89-.03-1.781-.009-2.671-.009Zm-1.038-.561v.025c.531,0,1.062.013,1.592-.005.3-.011.637.006.673-.446a1.777,1.777,0,0,0-1.371-1.911c-1.675-.362-2.532.754-2.817,2.115-.059.281.14.218.276.219C870.671,517.349,871.22,517.346,871.768,517.346Z" transform="translate(-69.718 -14.254)"/>
    <path id="Trazado_1919" data-name="Trazado 1919" d="M1053.513,517.9c-.891,0-1.783.015-2.674-.008-.321-.008-.4.1-.419.4a5.741,5.741,0,0,0,.3,2.422,2.818,2.818,0,0,0,5,1c.21-.228.356-.383.606-.044.186.252-.029.341-.141.46a4.711,4.711,0,0,1-6.181.468,4.61,4.61,0,0,1,4.948-7.687,3.006,3.006,0,0,1,1.742,2.492c.041.363-.032.528-.455.512-.907-.034-1.816-.01-2.725-.01Zm-.94-.561v.026c.512,0,1.025.009,1.536,0,.307-.008.646-.011.709-.425a1.842,1.842,0,0,0-1.2-1.892c-1.493-.426-2.638.345-2.986,2.029-.057.275.125.265.3.266Z" transform="translate(-172.989 -14.247)"/>
    <path id="Trazado_1920" data-name="Trazado 1920" d="M1008.822,517.89c-.908,0-1.816.01-2.723-.006-.285-.005-.354.086-.4.367a4.935,4.935,0,0,0,.272,2.422,2.834,2.834,0,0,0,5.055.991c.189-.21.3-.338.541-.054.159.189.092.279-.034.424a4.577,4.577,0,0,1-7.789-1.835,4.622,4.622,0,0,1,1.618-4.75,4.29,4.29,0,0,1,4.627-.645,2.963,2.963,0,0,1,1.967,2.6c.039.369-.055.52-.468.5-.889-.033-1.781-.01-2.671-.01Zm-1.019-.56v.026c.528,0,1.058.015,1.586-.006.292-.012.64.02.683-.432a1.783,1.783,0,0,0-1.346-1.92c-1.641-.37-2.549.69-2.845,2.118-.058.282.153.208.285.21C1006.711,517.334,1007.257,517.33,1007.8,517.33Z" transform="translate(-147.432 -14.238)"/>
    <path id="Trazado_1921" data-name="Trazado 1921" d="M934.807,515.711c0,.325,0,.65,0,.975,0,.148.032.314-.208.331-.2.015-.263-.108-.319-.258a4.04,4.04,0,0,0-.618-1.174,1.638,1.638,0,0,0-1.346-.625,1.145,1.145,0,0,0-.77,2.075,8.128,8.128,0,0,0,1.458.853c.461.262.941.492,1.383.782a2.484,2.484,0,0,1,1.127,2.711,2.549,2.549,0,0,1-2.093,2.075,3.432,3.432,0,0,1-2.67-.407c-.287-.172-.442-.148-.614.114-.071.108-.159.256-.32.213-.182-.049-.113-.229-.119-.35-.033-.7-.059-1.4-.071-2.1,0-.146-.1-.366.17-.408s.288.166.346.347a4.165,4.165,0,0,0,.681,1.369,2.111,2.111,0,0,0,2.3.742,1.352,1.352,0,0,0,.682-2.266,4.119,4.119,0,0,0-1.352-.913,7.753,7.753,0,0,1-1.874-1.149,2.34,2.34,0,0,1-.67-2.611,2.41,2.41,0,0,1,2.264-1.562,3.736,3.736,0,0,1,1.7.34c.235.111.4.116.551-.124.069-.112.16-.251.323-.2.191.058.094.228.1.351.008.291,0,.582,0,.874Z" transform="translate(-105.144 -14.271)"/>
    <path id="Trazado_1922" data-name="Trazado 1922" d="M1070.61,516.286a3.223,3.223,0,0,1,2.529-1.8,2.035,2.035,0,0,1,1.336.251.856.856,0,0,1,.421.92.678.678,0,0,1-.572.587.786.786,0,0,1-.842-.452.934.934,0,0,0-1.5-.324,2.743,2.743,0,0,0-1.192,2.479c-.046,1.232-.031,2.467-.024,3.7,0,.873.238,1.111,1.108,1.216.171.021.42-.048.4.258s-.27.209-.435.2a29.2,29.2,0,0,0-3.747,0c-.165.01-.41.116-.446-.184s.2-.248.382-.274c.759-.111,1-.388,1-1.158q.005-2.262,0-4.525a5,5,0,0,0-.066-.766c-.113-.707-.274-.843-1.006-.9-.155-.012-.366.068-.364-.22,0-.268.2-.225.364-.246a12.39,12.39,0,0,0,1.988-.5c.3-.089.444-.026.489.292C1070.5,515.312,1070.587,515.783,1070.61,516.286Z" transform="translate(-183.979 -14.269)"/>
    <path id="Trazado_1923" data-name="Trazado 1923" d="M1105.547,516.094c0-.942-.024-1.884.01-2.824.017-.446-.1-.633-.562-.571-.142.019-.365.117-.446-.108-.094-.259.121-.349.3-.46a5.025,5.025,0,0,0,2.019-2.127c.056-.122.108-.207.257-.188.181.023.145.163.145.274,0,.565.015,1.13,0,1.695-.009.293.1.39.386.38.53-.019,1.062,0,1.593-.007.195,0,.323.027.324.273s-.12.281-.319.279c-.548-.006-1.1.006-1.644-.005-.238-.005-.338.072-.337.321.015,1.934.011,3.869.036,5.8a1.23,1.23,0,0,0,.777,1.32,1.413,1.413,0,0,0,1.568-.49c.128-.143.222-.442.511-.185.27.24.007.4-.1.56a1.739,1.739,0,0,1-.943.673,3.718,3.718,0,0,1-2.175.058,1.731,1.731,0,0,1-1.387-1.744c-.021-.5-.009-.993-.011-1.489C1105.546,517.053,1105.547,516.573,1105.547,516.094Z" transform="translate(-205.084 -11.61)"/>
    <path id="Trazado_1924" data-name="Trazado 1924" d="M921.311,518.344c0,1.08,0,2.159,0,3.239,0,.954.185,1.174,1.106,1.338.163.029.306.037.3.257-.007.243-.182.216-.33.205a26.945,26.945,0,0,0-3.848,0c-.142.009-.32.054-.334-.2-.012-.216.106-.235.279-.265.933-.162,1.054-.336,1.08-1.29.045-1.661.024-3.322-.01-4.983-.018-.918-.134-1.026-1.041-1.078-.034,0-.068,0-.1,0-.138,0-.283.008-.29-.2-.006-.165.058-.242.228-.274q1.312-.246,2.62-.513c.279-.057.35.047.347.316C921.3,516.048,921.311,517.2,921.311,518.344Z" transform="translate(-98.582 -14.327)"/>
    <path id="Trazado_1925" data-name="Trazado 1925" d="M1121.693,518.407c0,1.1-.005,2.191,0,3.287.005.841.228,1.094,1.054,1.225.166.027.362-.006.351.258-.012.283-.226.213-.379.2a27.551,27.551,0,0,0-3.743,0c-.146.009-.361.1-.388-.189-.024-.262.153-.247.327-.273.8-.123,1.021-.354,1.023-1.132q.009-2.594-.015-5.188c-.008-.839-.164-.977-.984-1.03-.161-.011-.407.112-.435-.2-.027-.3.215-.258.384-.292.787-.162,1.577-.31,2.363-.479.333-.073.439.017.432.37-.022,1.147-.008,2.294-.008,3.442Z" transform="translate(-213.069 -14.329)"/>
    <path id="Trazado_1926" data-name="Trazado 1926" d="M945.411,545.692c.505-.781.966-1.5,1.433-2.214a1.266,1.266,0,0,1,1.112-.223c.1.075.071.184.071.281,0,1.558-.01,3.115.009,4.673.006.471-.309.287-.521.313-.253.031-.449.03-.439-.349.027-1.077.009-2.156-.072-3.289l-1.6,2.376-1.564-2.322-.111.016v1.7c0,.479-.027.961.009,1.437.028.38-.119.452-.463.442-.317-.009-.49-.025-.483-.429.026-1.437,0-2.875.018-4.313,0-.188-.164-.528.169-.546s.748-.211,1.018.23C944.44,544.207,944.913,544.919,945.411,545.692Z" transform="translate(-112.663 -30.681)"/>
    <path id="Trazado_1927" data-name="Trazado 1927" d="M985.808,548.509c-.741.166-1.284.056-1.614-.647a7.789,7.789,0,0,0-.64-.928.467.467,0,0,0-.415-.232c-.876-.039-.876-.047-.876.837a3.1,3.1,0,0,0,0,.513c.078.458-.139.532-.542.52-.328-.009-.438-.084-.434-.427.018-1.49.014-2.98,0-4.47,0-.293.052-.435.39-.424.736.024,1.474-.018,2.209.014a1.662,1.662,0,0,1,1.693,2.179,1.334,1.334,0,0,1-.8.946c-.37.143-.3.29-.119.535C985.051,547.433,985.409,547.952,985.808,548.509Zm-2.665-4.368c-.88-.021-.88-.021-.88.853,0,.2,0,.409,0,.613,0,.155.033.265.223.261a14.02,14.02,0,0,0,1.428-.035.847.847,0,0,0-.056-1.688A6.2,6.2,0,0,0,983.143,544.142Z" transform="translate(-134.674 -30.716)"/>
    <path id="Trazado_1928" data-name="Trazado 1928" d="M1076.848,544.827c0,1.17-.01,2.178.005,3.185.005.342.005.546-.463.548-.486,0-.5-.2-.493-.574.017-1.386,0-2.773.015-4.159,0-.192-.161-.516.15-.563s.663-.152.932.212c.651.88,1.335,1.735,2.006,2.6.167.215.336.428.547.7a4.5,4.5,0,0,0,.057-1.186c.012-.65.028-1.3-.006-1.951-.02-.383.159-.4.456-.407.314,0,.5.017.49.426-.027,1.438,0,2.876-.019,4.314,0,.186.172.5-.16.552-.282.044-.592.1-.829-.221-.639-.868-1.311-1.711-1.971-2.563C1077.359,545.472,1077.149,545.208,1076.848,544.827Z" transform="translate(-188.712 -30.693)"/>
    <path id="Trazado_1929" data-name="Trazado 1929" d="M999.034,545.774a2.777,2.777,0,0,1-5.553.017,2.752,2.752,0,0,1,2.785-2.759A2.673,2.673,0,0,1,999.034,545.774Zm-2.756,1.855a1.743,1.743,0,0,0,1.758-1.853,1.774,1.774,0,1,0-1.758,1.853Z" transform="translate(-141.638 -30.589)"/>
    <path id="Trazado_1930" data-name="Trazado 1930" d="M913.279,548.536a2.752,2.752,0,1,1,2.8-2.747A2.744,2.744,0,0,1,913.279,548.536Zm-.026-.908a1.785,1.785,0,0,0,1.827-1.808,1.858,1.858,0,0,0-1.753-1.908,1.861,1.861,0,0,0-.074,3.717Z" transform="translate(-94.237 -30.589)"/>
    <path id="Trazado_1931" data-name="Trazado 1931" d="M1023,548.535a2.752,2.752,0,1,1,.067-5.5,2.724,2.724,0,0,1,2.758,2.779A2.758,2.758,0,0,1,1023,548.535Zm.008-.907a1.769,1.769,0,0,0,1.805-1.82,1.839,1.839,0,0,0-1.756-1.9,1.862,1.862,0,0,0-.049,3.718Z" transform="translate(-156.946 -30.59)"/>
    <path id="Trazado_1932" data-name="Trazado 1932" d="M1144.343,545.789a2.762,2.762,0,1,1,2.759,2.747A2.684,2.684,0,0,1,1144.343,545.789Zm2.74,1.839a1.775,1.775,0,0,0,1.8-1.829,1.848,1.848,0,0,0-1.766-1.89,1.861,1.861,0,0,0-.033,3.718Z" transform="translate(-227.833 -30.589)"/>
    <path id="Trazado_1933" data-name="Trazado 1933" d="M1095.138,545.882c0-.736.012-1.471-.006-2.207-.007-.294.044-.438.387-.422.666.031,1.338-.027,2,.033a2.566,2.566,0,0,1,2.423,2.679,2.615,2.615,0,0,1-2.542,2.584c-.648.037-1.3,0-1.951.016-.25.006-.32-.079-.316-.322C1095.146,547.457,1095.138,546.669,1095.138,545.882Zm1.707-1.761a1.41,1.41,0,0,1-.256,0c-.447-.083-.539.123-.517.533.035.648.01,1.3.01,1.948,0,1.168,0,1.168,1.19,1.079a1.664,1.664,0,0,0,1.6-1.272C1099.218,545.083,1098.375,544.134,1096.846,544.12Z" transform="translate(-199.716 -30.715)"/>
    <path id="Trazado_1934" data-name="Trazado 1934" d="M1136.6,548.5a1.19,1.19,0,0,1-1.611-.655c-.1-.213-.315-.377-.4-.594-.25-.644-.783-.536-1.288-.539-.235,0-.231.14-.23.3,0,.411-.021.824.007,1.232s-.255.32-.471.312-.49.139-.485-.295c.018-1.558.008-3.116.005-4.674,0-.187,0-.334.26-.328.839.018,1.68-.022,2.515.04a1.553,1.553,0,0,1,1.531,1.28,1.593,1.593,0,0,1-.928,1.858c-.254.136-.209.233-.08.411C1135.82,547.389,1136.2,547.932,1136.6,548.5Zm-2.625-2.642a4.61,4.61,0,0,0,.718-.006.884.884,0,0,0,.807-.909.871.871,0,0,0-.865-.794c-.238-.025-.479-.021-.719-.021-.844,0-.844,0-.843.824C1133.078,545.875,1133.078,545.875,1133.98,545.859Z" transform="translate(-220.853 -30.722)"/>
    <path id="Trazado_1935" data-name="Trazado 1935" d="M1108.9,545.883c0-.754.009-1.508-.005-2.262,0-.261.066-.365.343-.362,1.1.012,2.194.015,3.291,0,.36-.005.319.214.318.438s.045.445-.319.434c-.736-.021-1.474.012-2.21-.014-.352-.012-.47.081-.464.45.016.894,0,.895.894.895.48,0,.961.02,1.44-.006.368-.021.318.21.312.429s.083.455-.3.442c-.65-.023-1.3.006-1.954-.012-.286-.008-.382.076-.391.373-.029,1.038-.041,1.038,1.007,1.038.566,0,1.133.027,1.7-.009.408-.025.323.226.338.456.016.25,0,.409-.337.4-1.1-.023-2.194-.018-3.291,0-.29,0-.383-.079-.376-.374C1108.909,547.425,1108.9,546.654,1108.9,545.883Z" transform="translate(-207.576 -30.719)"/>
    <path id="Trazado_1936" data-name="Trazado 1936" d="M958.15,545.885c0-.737.011-1.474-.006-2.211-.007-.289.031-.432.38-.424q1.593.035,3.188,0c.364-.008.371.17.37.439s0,.453-.37.438c-.736-.03-1.474,0-2.211-.015-.3-.007-.417.058-.417.392,0,.95-.019.95.937.951.429,0,.859.024,1.285-.008.36-.027.452.087.461.448.01.406-.167.433-.485.423-.583-.02-1.166.01-1.749-.012-.318-.012-.451.057-.449.416,0,1-.015,1,1,1,.566,0,1.133.021,1.7-.007.4-.019.324.23.341.465.02.273-.046.4-.36.39-1.079-.019-2.16-.016-3.24,0-.285,0-.383-.069-.375-.366C958.164,547.429,958.15,546.657,958.15,545.885Z" transform="translate(-121.448 -30.714)"/>
    <path id="Trazado_1937" data-name="Trazado 1937" d="M1066.434,548.487a2.157,2.157,0,0,0-.362.019.626.626,0,0,1-.831-.565c-.124-.632-.506-.817-1.1-.724a1.6,1.6,0,0,1-.512,0,1.2,1.2,0,0,0-1.6,1c-.14.577-.667.163-1.115.345.365-.834.683-1.559,1-2.285.416-.953.844-1.9,1.237-2.864.129-.316.357-.254.584-.254s.42-.046.543.242c.7,1.647,1.425,3.284,2.139,4.926A.6.6,0,0,1,1066.434,548.487Zm-3.6-2.127c.5,0,.944-.013,1.384,0,.328.012.325-.108.21-.359-.241-.523-.459-1.058-.725-1.677Z" transform="translate(-180.167 -30.657)"/>
    <path id="Trazado_1938" data-name="Trazado 1938" d="M1009.021,545.877c0-.737.013-1.474-.006-2.21-.008-.3.052-.431.388-.416.616.028,1.234-.006,1.85.011a1.784,1.784,0,1,1,.172,3.564,4.75,4.75,0,0,1-.563.038c-.9.009-.9.006-.9.882,0,.1,0,.205,0,.308a.56.56,0,0,1-.842.5c-.168-.085-.1-.239-.1-.362C1009.018,547.419,1009.021,546.648,1009.021,545.877Zm.944-.848c0,.239.007.478,0,.717-.006.175.063.246.238.242.375-.009.754.022,1.125-.021a.9.9,0,0,0,.834-.938.888.888,0,0,0-.83-.884,3.088,3.088,0,0,0-.409-.025C1009.964,544.1,1009.964,544.1,1009.965,545.029Z" transform="translate(-150.511 -30.714)"/>
    <path id="Trazado_1939" data-name="Trazado 1939" d="M925.987,545.9c0-.754.012-1.507-.006-2.26-.007-.285.069-.386.369-.382,1.078.016,2.158.021,3.237,0,.365-.007.366.179.37.445s-.03.444-.382.432c-.736-.027-1.473.005-2.209-.014-.317-.009-.448.055-.445.415.007,1.03-.011,1.03,1.012,1.03.445,0,.892.026,1.335-.008.4-.03.326.224.34.457.016.254-.009.414-.342.4-.615-.027-1.235.023-1.849-.018-.431-.029-.52.136-.493.519.03.426-.026.859.016,1.283s-.217.376-.475.368c-.241-.007-.51.092-.488-.353C926.014,547.439,925.987,546.667,925.987,545.9Z" transform="translate(-103.069 -30.716)"/>
    <path id="Trazado_1940" data-name="Trazado 1940" d="M1052.965,546.337c0-.547-.037-1.1.011-1.64.044-.5-.152-.623-.6-.565-.2.027-.411-.008-.615.008-.308.024-.5,0-.494-.414s.129-.483.5-.475c1.145.022,2.291.024,3.436,0,.365-.008.424.13.412.443-.01.279.009.491-.391.455s-.948-.146-1.187.06c-.282.243-.082.8-.089,1.221-.016.923-.032,1.847.007,2.769.018.435-.227.368-.478.362s-.555.1-.524-.376C1053,547.569,1052.965,546.952,1052.965,546.337Z" transform="translate(-174.656 -30.713)"/>
    <path id="Trazado_1941" data-name="Trazado 1941" d="M1166.167,546.305c0-.616-.01-1.234,0-1.85.006-.245-.069-.333-.318-.32-.359.018-.721-.015-1.079.01-.4.028-.282-.247-.286-.442s-.092-.452.292-.447q1.85.025,3.7,0c.4-.006.316.249.328.477s.019.463-.329.408a.432.432,0,0,0-.1,0c-.406.034-.96-.184-1.177.09-.2.257-.066.787-.067,1.2,0,.925-.025,1.851.009,2.775.016.439-.243.361-.491.359s-.519.089-.493-.355C1166.2,547.575,1166.167,546.939,1166.167,546.305Z" transform="translate(-239.336 -30.717)"/>
    <path id="Trazado_1942" data-name="Trazado 1942" d="M970.7,546.339c0-.616-.013-1.234.006-1.85.008-.274-.084-.36-.351-.345-.359.019-.721-.013-1.079.009-.337.021-.308-.194-.287-.4s-.13-.484.259-.484c1.268,0,2.536,0,3.8,0,.426,0,.209.343.249.538s0,.361-.285.341c-.307-.022-.619.019-.924-.011-.352-.035-.466.069-.458.441.026,1.2-.009,2.4.02,3.6.009.382-.156.414-.451.394-.262-.018-.545.077-.514-.385C970.733,547.575,970.7,546.956,970.7,546.339Z" transform="translate(-127.639 -30.726)"/>
    <path id="Trazado_1943" data-name="Trazado 1943" d="M1122.449,546.4c0,.6-.031,1.2.01,1.8.031.435-.229.366-.481.363s-.5.085-.484-.357c.034-1.214,0-2.43.019-3.645.005-.328-.072-.467-.418-.426-.237.028-.484-.026-.717.012-.478.078-.583-.134-.544-.562.022-.238.08-.328.327-.326,1.215.009,2.431.015,3.646,0,.4-.006.313.255.328.481.015.244.006.46-.336.4a.4.4,0,0,0-.1,0c-.4.038-.952-.188-1.171.1-.2.261-.067.784-.075,1.192C1122.444,545.753,1122.449,546.078,1122.449,546.4Z" transform="translate(-213.825 -30.718)"/>
    <path id="Trazado_1944" data-name="Trazado 1944" d="M1035.7,545.891c0-.754.024-1.508-.009-2.261-.019-.43.241-.363.493-.366s.5-.05.489.372c-.028,1.2,0,2.4-.017,3.6-.006.357.093.478.458.463.65-.028,1.3.018,1.952-.017.418-.022.363.221.381.484.021.3-.059.42-.392.411-.976-.023-1.953-.021-2.929,0-.33.007-.446-.074-.434-.421C1035.717,547.4,1035.7,546.645,1035.7,545.891Z" transform="translate(-165.753 -30.721)"/>
    <path id="Trazado_1945" data-name="Trazado 1945" d="M1046.736,545.9c0-.736.023-1.474-.01-2.21-.017-.39.141-.456.477-.442.293.013.514-.017.507.413q-.039,2.261,0,4.523c.009.472-.274.355-.53.375-.3.022-.472-.014-.454-.4C1046.76,547.411,1046.736,546.656,1046.736,545.9Z" transform="translate(-172.059 -30.713)"/>
    <path id="Trazado_1946" data-name="Trazado 1946" d="M1160.869,545.96c0,.753-.029,1.507.011,2.257.023.445-.243.35-.486.355s-.488.066-.479-.364q.044-2.283,0-4.567c-.008-.436.24-.359.49-.364s.5-.051.475.374C1160.841,544.419,1160.869,545.19,1160.869,545.96Z" transform="translate(-236.729 -30.728)"/>
    <path id="Trazado_1947" data-name="Trazado 1947" d="M1121.914,503.623A1.093,1.093,0,0,1,1123,504.7a1.062,1.062,0,0,1-1.044,1.105,1.082,1.082,0,0,1-1.119-1.038A1.1,1.1,0,0,1,1121.914,503.623Z" transform="translate(-214.404 -8.073)"/>
    <path id="Trazado_1948" data-name="Trazado 1948" d="M920.483,504.748a1.081,1.081,0,1,1,2.16-.03,1.08,1.08,0,0,1-2.16.03Z" transform="translate(-99.931 -8.072)"/>
  </g>
</svg>
