<svg xmlns="http://www.w3.org/2000/svg" width="99.255" height="59.017" viewBox="0 0 99.255 59.017">
  <g id="Grupo_1450" data-name="Grupo 1450" transform="translate(-798.23 -667.43)">
    <g id="Grupo_1450-2" data-name="Grupo 1450" transform="translate(806.461 667.43)">
      <path id="Trazado_1588" data-name="Trazado 1588" d="M889.585,668.948a31.9,31.9,0,0,1,5.682-1.378c.061-.008.113-.092.169-.14h5.108c1.155.208,2.322.364,3.463.632a25.376,25.376,0,0,1,13.3,7.841c.245.271.256.438-.016.693q-2.651,2.485-5.275,5c-.364.35-.526.074-.74-.144a21.061,21.061,0,0,0-4.946-3.8A16.815,16.815,0,0,0,899.2,675.6a14.6,14.6,0,0,0-10.565,3.3,14.153,14.153,0,0,0-5.286,9.632,15.729,15.729,0,0,0,2.05,10.173,13.853,13.853,0,0,0,8.783,6.358,16.107,16.107,0,0,0,11.5-1.155,20.861,20.861,0,0,0,5.406-4.082c.459-.464.719-.541,1.2-.017,1.556,1.683,3.162,3.321,4.766,4.961.283.29.385.475.036.8-3.446,3.2-7.1,6.07-11.794,7.219a26.7,26.7,0,0,1-17.964-1.416,21.4,21.4,0,0,1-9.076-8.047c-.153-.236-.322-.463-.483-.693a35.646,35.646,0,0,1,1.327-4.168c1.015-3.012,2.124-5.993,3.184-8.989q1.618-4.574,3.216-9.155c.831-2.372,1.643-4.752,2.486-7.12A43.638,43.638,0,0,1,889.585,668.948Z" transform="translate(-834.698 -667.43)"/>
      <path id="Trazado_1589" data-name="Trazado 1589" d="M874.154,669.023a43.644,43.644,0,0,0-1.6,4.248c-.842,2.368-1.655,4.748-2.486,7.12q-1.6,4.579-3.216,9.155c-1.06,3-2.169,5.977-3.184,8.989a35.645,35.645,0,0,0-1.327,4.168c-1.225,3.442-2.466,6.878-3.66,10.331a.9.9,0,0,1-1.036.723q-3.4-.055-6.806,0a.859.859,0,0,1-.978-.7q-3.4-9.936-6.846-19.856c.087-.4-.246-.658-.358-.993-.806-2.433-1.637-4.857-2.475-7.279-1.636-4.725-3.262-9.454-4.946-14.162-.26-.729-.262-1.581-.874-2.173-.124-.931-.124-.931.82-.931,2.372,0,4.745.015,7.117-.009a.863.863,0,0,1,1,.675q5.363,15.634,10.774,31.253c.057.164.137.319.273.63.742-2.11,1.436-4.08,2.128-6.05q4.538-12.931,9.062-25.868a.776.776,0,0,1,.869-.636c2.5.023,5,.036,7.5,0,.73-.012.711.259.448.744A.932.932,0,0,0,874.154,669.023Z" transform="translate(-819.266 -667.506)"/>
      <path id="Trazado_1590" data-name="Trazado 1590" d="M826.083,669.1c.611.592.613,1.444.874,2.173,1.684,4.708,3.309,9.437,4.946,14.162.839,2.422,1.669,4.846,2.475,7.279.112.335.445.591.358.993-.243.2-.133.481-.134.724-.01,2.884.057,5.77-.185,8.648a14.051,14.051,0,0,1-1.63,6.289,9.687,9.687,0,0,1-7.707,4.768c-5.719.6-10.214-1.68-13.864-5.937-.3-.355-.311-.55.039-.872q2.7-2.484,5.357-5.019c.379-.362.56-.237.849.1a11.673,11.673,0,0,0,3.024,2.617,4.92,4.92,0,0,0,3.237.766,2.083,2.083,0,0,0,1.75-1.438,6.913,6.913,0,0,0,.421-2.032c.075-1.387.141-2.777.143-4.166q.017-14.067.006-28.135C826.042,669.719,826.068,669.412,826.083,669.1Z" transform="translate(-810.991 -668.024)"/>
    </g>
    <g id="Grupo_1451" data-name="Grupo 1451" transform="translate(798.23 719.904)">
      <path id="Trazado_1591" data-name="Trazado 1591" d="M950.22,756.32c-.617.066-.873-.172-.8-.822a13.272,13.272,0,0,0,.01-1.618c-.01-.963-.278-1.407-.843-1.414-.586-.008-.968.544-.973,1.412q-.006.926,0,1.851c0,.293.023.57-.411.571-.452,0-.394-.3-.4-.578-.006-1.131-.014-2.262-.015-3.393,0-.167-.081-.391.162-.455.192-.051.419-.1.533.151.074.161.114.213.325.117,1.318-.6,1.651-.5,2.408.619Z" transform="translate(-850.966 -749.849)"/>
      <path id="Trazado_1592" data-name="Trazado 1592" d="M811.145,755.194c.319-1.074.588-1.96.843-2.85.075-.261.135-.48.488-.481s.409.247.479.495a19.378,19.378,0,0,0,.86,2.557c.222-.855.449-1.71.665-2.567.066-.261.114-.5.474-.486.315.009.493.039.37.435-.385,1.227-.749,2.462-1.108,3.7-.084.29-.273.333-.526.333s-.354-.135-.418-.363c-.251-.889-.518-1.772-.827-2.824-.3.974-.542,1.789-.793,2.6-.091.295-.156.593-.586.59s-.418-.312-.493-.571c-.317-1.087-.635-2.174-.937-3.265-.059-.212-.287-.515.14-.617a.488.488,0,0,1,.666.43C810.644,753.212,810.877,754.106,811.145,755.194Z" transform="translate(-802.239 -749.876)"/>
      <path id="Trazado_1593" data-name="Trazado 1593" d="M828.677,751c.293.077.413-.1.573-.162a1.362,1.362,0,0,1,1.983,1.058,18.971,18.971,0,0,1,.094,2.93c.01.3-.134.405-.421.411-.333.007-.457-.132-.45-.461.014-.746.008-1.494,0-2.241-.005-.559-.147-1.089-.8-1.111s-.943.46-.963,1.069c-.025.746-.014,1.493-.012,2.24,0,.289-.051.5-.417.5-.349,0-.434-.164-.432-.477q.012-2.743,0-5.486c0-.293.042-.49.415-.486s.433.188.431.484C828.675,749.859,828.677,750.443,828.677,751Z" transform="translate(-808.738 -748.787)"/>
      <path id="Trazado_1594" data-name="Trazado 1594" d="M838.67,754.066q.643-2.129,1.289-4.268c.081-.268.1-.562.5-.568.346,0,.561.043.424.469q-.854,2.64-1.694,5.286a.522.522,0,0,1-.557.414.534.534,0,0,1-.594-.462c-.5-1.7-1.008-3.4-1.5-5.1-.062-.212-.31-.512.147-.593a.524.524,0,0,1,.7.412c.341,1.266.708,2.524,1.064,3.785C838.505,753.66,838.5,753.9,838.67,754.066Z" transform="translate(-811.785 -748.942)"/>
      <path id="Trazado_1595" data-name="Trazado 1595" d="M860.964,754.011c0-.591.008-1.183,0-1.774-.01-.512.485-.531.591-.346.281.489.464.174.716.043a1.385,1.385,0,0,1,2.1.949,16.854,16.854,0,0,1,.087,3.078c.009.279-.192.315-.421.321-.289.006-.426-.106-.424-.406.007-.72,0-1.442,0-2.162,0-.6-.063-1.185-.829-1.247-.549-.045-.924.49-.935,1.267-.01.669-.008,1.338,0,2.007,0,.318-.036.55-.449.546-.441,0-.408-.284-.406-.576,0-.566,0-1.133,0-1.7Z" transform="translate(-820.5 -749.833)"/>
      <path id="Trazado_1596" data-name="Trazado 1596" d="M894.363,755.353c-2.1.016-3.283-1.809-2.665-4.1a2.838,2.838,0,0,1,3.585-2.075c.231.062.45.114.375.453-.068.306-.221.359-.5.285a1.874,1.874,0,0,0-2.343.826,2.949,2.949,0,0,0,.065,3.152,1.894,1.894,0,0,0,2.056.722c.244-.033.636-.341.715.221s-.411.409-.676.5A1.94,1.94,0,0,1,894.363,755.353Z" transform="translate(-831.353 -748.885)"/>
      <path id="Trazado_1597" data-name="Trazado 1597" d="M845.391,756.331a1.988,1.988,0,0,1-1.943-2.215,2.073,2.073,0,0,1,2.012-2.339,1.994,1.994,0,0,1,1.94,2.23A2.036,2.036,0,0,1,845.391,756.331Zm-1.05-2.079a1.658,1.658,0,0,0,.059.478c.153.48.386.928.967.968.6.041.87-.373,1.036-.862a2.363,2.363,0,0,0-.093-1.8.9.9,0,0,0-.823-.6.96.96,0,0,0-.931.563A2.3,2.3,0,0,0,844.341,754.252Z" transform="translate(-814.282 -749.848)"/>
      <path id="Trazado_1598" data-name="Trazado 1598" d="M902.55,754.031c-.021,1.551-.922,2.434-2.3,2.29a1.54,1.54,0,0,1-.3-.054,2.307,2.307,0,0,1-1.3-2.682,1.965,1.965,0,0,1,2.117-1.812c1,.054,1.645.785,1.753,1.993C902.529,753.868,902.543,753.97,902.55,754.031Zm-3.073.013a3.7,3.7,0,0,0,.087.678c.15.479.373.937.957.971s.866-.368,1.045-.857a2.273,2.273,0,0,0-.006-1.583c-.165-.462-.419-.834-.984-.821-.6.014-.843.432-1,.915A3.958,3.958,0,0,0,899.476,754.044Z" transform="translate(-833.864 -749.844)"/>
      <path id="Trazado_1599" data-name="Trazado 1599" d="M913.1,754.083c0-.591.025-1.183-.008-1.772-.025-.449.351-.668.521-.441.39.52.625.125.928,0a1.41,1.41,0,0,1,2.007,1.237c.086.918.026,1.85.041,2.775,0,.3-.136.4-.423.4s-.415-.137-.415-.419c0-.746.01-1.492-.009-2.238-.014-.566-.115-1.173-.835-1.153-.677.02-.943.541-.946,1.185,0,.669,0,1.338,0,2.007,0,.306.068.631-.432.622-.469-.009-.372-.317-.373-.588q0-.81,0-1.62Z" transform="translate(-839.006 -749.836)"/>
      <path id="Trazado_1600" data-name="Trazado 1600" d="M943.279,754.08c-.011,1.249-.6,2.1-1.586,2.233a1.74,1.74,0,0,1-1.935-.8,2.746,2.746,0,0,1,0-2.866,1.754,1.754,0,0,1,1.918-.847C942.7,751.934,943.29,752.779,943.279,754.08Zm-.828-.175c-.012-.068-.039-.272-.089-.469-.132-.53-.363-.99-1-1-.666,0-.926.456-1.053,1.026a3.115,3.115,0,0,0-.089.531c-.043.91.461,1.689,1.094,1.705S942.457,754.992,942.451,753.9Z" transform="translate(-848.33 -749.846)"/>
      <path id="Trazado_1601" data-name="Trazado 1601" d="M906.008,753.989c0-.566,0-1.131,0-1.7,0-.17-.062-.385.191-.435.172-.034.418-.094.488.1.137.375.263.2.477.077a1.4,1.4,0,0,1,2.267,1.162c.065.9.021,1.8.041,2.7.007.305-.114.408-.408.4s-.43-.092-.425-.4c.01-.746.012-1.491,0-2.236-.01-.568-.1-1.119-.815-1.189-.537-.054-.926.437-.949,1.169-.019.617.016,1.235-.015,1.85-.015.305.221.784-.4.8-.7.017-.4-.517-.432-.832-.042-.485-.011-.976-.011-1.464Z" transform="translate(-836.484 -749.841)"/>
      <path id="Trazado_1602" data-name="Trazado 1602" d="M857.371,754.108c0,.592-.007,1.184,0,1.775.008.546-.432.6-.629.346-.27-.347-.368-.18-.613-.05a1.374,1.374,0,0,1-2.148-1.118c-.083-.919-.024-1.851-.04-2.777,0-.292.109-.419.407-.414s.407.141.4.428c-.008.694-.014,1.389,0,2.083.021.88.343,1.382.865,1.308.741-.105.906-.657.9-1.308-.005-.618-.01-1.235,0-1.852.006-.282-.116-.649.4-.66.568-.012.426.389.433.7.011.514,0,1.029,0,1.543Z" transform="translate(-818.006 -749.88)"/>
      <path id="Trazado_1603" data-name="Trazado 1603" d="M922.006,754.178a2.581,2.581,0,0,0-.539.007c-.27.058-.691-.217-.786.22a.984.984,0,0,0,.442,1.007,1.573,1.573,0,0,0,1.4.192c.222-.061.469-.178.571.154.114.372-.189.426-.43.5a2.134,2.134,0,0,1-2.61-.936,2.8,2.8,0,0,1,.566-3.192,1.707,1.707,0,0,1,1.956-.14,2.154,2.154,0,0,1,.807,1.9c-.046.234-.177.287-.375.287h-1Zm-.407-.531c.292-.212.873.277.913-.372a.812.812,0,0,0-.871-.883c-.433-.017-1.035.568-.944.953C920.829,753.9,921.32,753.433,921.6,753.646Z" transform="translate(-841.386 -749.836)"/>
      <path id="Trazado_1604" data-name="Trazado 1604" d="M873.972,754.177a2.819,2.819,0,0,0-.462.006c-.281.05-.715-.187-.814.187a1.015,1.015,0,0,0,.527,1.111,1.609,1.609,0,0,0,1.343.119c.243-.07.469-.133.547.192s-.186.378-.4.451a2.13,2.13,0,0,1-2.66-.958,2.706,2.706,0,0,1,.668-3.218,1.661,1.661,0,0,1,1.89-.054,2.012,2.012,0,0,1,.773,1.834c.008.286-.174.333-.405.33C874.641,754.173,874.306,754.176,873.972,754.177Zm-.344-.491c.2-.37.885.332.889-.453a.8.8,0,0,0-.838-.84.9.9,0,0,0-.955.917C872.734,753.879,873.3,753.445,873.628,753.686Z" transform="translate(-824.345 -749.836)"/>
      <path id="Trazado_1605" data-name="Trazado 1605" d="M880.389,754.189a2.918,2.918,0,0,0-.463.006c-.283.049-.716-.183-.817.2a1.01,1.01,0,0,0,.479,1.067,1.57,1.57,0,0,0,1.335.167c.246-.059.517-.2.6.206.07.345-.209.368-.42.43a2.122,2.122,0,0,1-2.619-.925,2.812,2.812,0,0,1,.555-3.2A1.858,1.858,0,0,1,881,752a2.211,2.211,0,0,1,.783,1.917c-.057.238-.2.267-.393.268C881.059,754.19,880.724,754.188,880.389,754.189Zm-.379-.491c.241-.345.885.3.937-.406a.8.8,0,0,0-.864-.885.914.914,0,0,0-.955.922C879.13,753.907,879.7,753.447,880.01,753.7Z" transform="translate(-826.624 -749.849)"/>
      <path id="Trazado_1606" data-name="Trazado 1606" d="M805.465,754.191a2.852,2.852,0,0,0-.464,0c-.285.048-.727-.185-.825.181a1.036,1.036,0,0,0,.488,1.067,1.621,1.621,0,0,0,1.482.149c.179-.053.361-.093.433.158s-.028.368-.259.469a2.571,2.571,0,0,1-2.4-.4,2.8,2.8,0,0,1-.328-2.977,1.709,1.709,0,0,1,1.878-1.051,1.882,1.882,0,0,1,1.418,2.149c-.074.237-.234.243-.413.245C806.135,754.2,805.8,754.191,805.465,754.191Zm-.357-.534c.313-.194.831.253.959-.324.1-.435-.453-.955-.915-.929a.921.921,0,0,0-.935.931C804.235,753.952,804.834,753.427,805.107,753.657Z" transform="translate(-800.033 -749.85)"/>
      <path id="Trazado_1607" data-name="Trazado 1607" d="M933.55,755.81c-.839.018-1.117-.47-1.156-1.125-.042-.691-.016-1.387-.017-2.082,0-.286.029-.572-.384-.62-.281-.033-.313-.426-.226-.451.535-.152.518-.7.811-1,.181-.182.658-.473.641.212-.01.419.1.635.557.579.256-.031.462.032.449.362-.011.289-.2.337-.422.313-.508-.053-.606.215-.582.65.026.488.011.977,0,1.465-.01.516-.012,1.008.711,1.02.241,0,.289.208.247.393C934.087,755.941,933.73,755.753,933.55,755.81Z" transform="translate(-845.621 -749.329)"/>
      <path id="Trazado_1608" data-name="Trazado 1608" d="M800.709,751.822a15.6,15.6,0,0,1-.08,2.261,1.638,1.638,0,0,1-2.12,1.34c-.22-.054-.3-.143-.273-.366s.074-.35.363-.372c1.13-.083,1.224-.188,1.244-1.346.019-1.18.008-2.362.009-3.543,0-.294-.016-.564.419-.566.416,0,.446.232.441.547C800.7,750.419,800.709,751.061,800.709,751.822Z" transform="translate(-798.23 -748.943)"/>
      <path id="Trazado_1609" data-name="Trazado 1609" d="M823.428,756.326a1.935,1.935,0,0,1-.857-.148c-.222-.092-.234-.228-.161-.43s.17-.314.395-.217a1.292,1.292,0,0,0,.214.088c.437.1.923.208,1.139-.316.226-.549-.221-.768-.624-.974-.46-.235-.951-.458-1.058-1.037a1.147,1.147,0,0,1,.511-1.276,1.87,1.87,0,0,1,1.706-.095c.188.066.168.225.13.388-.052.217-.163.306-.388.235a2.27,2.27,0,0,0-.446-.11.6.6,0,0,0-.7.352c-.129.335.086.535.335.7.15.1.323.158.482.241a1.363,1.363,0,0,1,.9,1.6C824.856,756,824.349,756.322,823.428,756.326Z" transform="translate(-806.799 -749.842)"/>
      <path id="Trazado_1610" data-name="Trazado 1610" d="M928.254,756.336a1.767,1.767,0,0,1-1.827-1.149,2.524,2.524,0,0,1,.366-2.748,2.174,2.174,0,0,1,2.19-.61c.263.043.428.139.344.461-.088.339-.279.262-.528.21a1.278,1.278,0,0,0-1.579.771,1.923,1.923,0,0,0,.352,2.074,1.25,1.25,0,0,0,1.149.284c.235-.058.506-.234.593.193.1.461-.288.407-.524.481A2.191,2.191,0,0,1,928.254,756.336Z" transform="translate(-843.653 -749.846)"/>
      <path id="Trazado_1611" data-name="Trazado 1611" d="M850.862,752.066c0-.924,0-1.848,0-2.772,0-.275.008-.5.391-.508s.477.191.476.521q-.007,2.733,0,5.466c0,.324-.106.466-.441.466s-.435-.17-.432-.48C850.867,753.862,850.86,752.964,850.862,752.066Z" transform="translate(-816.913 -748.786)"/>
      <path id="Trazado_1612" data-name="Trazado 1612" d="M869.145,755.845A.993.993,0,0,1,868,754.764c-.04-.693-.018-1.389-.021-2.084,0-.3.07-.619-.408-.667-.28-.028-.272-.43-.166-.475a1.11,1.11,0,0,0,.683-.929c.025-.13.333-.236.548-.181s.152.247.143.386c-.024.372.066.59.506.549.232-.021.558-.094.567.318s-.286.373-.542.343c-.493-.058-.546.221-.531.609.02.514.007,1.029.006,1.544s0,1.015.734,1c.281-.006.239.226.214.394C869.677,755.968,869.347,755.8,869.145,755.845Z" transform="translate(-822.763 -749.363)"/>
      <path id="Trazado_1613" data-name="Trazado 1613" d="M885.777,752.4c.307-.242.476-.531.8-.583.21-.034.5-.187.544.185.027.226.123.528-.291.586-.744.1-.926.649-.94,1.29s-.01,1.287,0,1.93c0,.3-.053.5-.419.485-.3-.011-.4-.146-.4-.431-.012-1.209-.034-2.417-.059-3.626-.005-.241.054-.378.332-.405C885.743,751.789,885.766,752.072,885.777,752.4Z" transform="translate(-829.038 -749.839)"/>
      <path id="Trazado_1614" data-name="Trazado 1614" d="M936.763,754.029c0-.563.007-1.127,0-1.69-.006-.307.079-.475.43-.475.335,0,.453.136.451.457q-.012,1.767,0,3.534c0,.308-.085.477-.433.477-.332,0-.455-.133-.448-.459C936.773,755.258,936.763,754.643,936.763,754.029Z" transform="translate(-847.408 -749.878)"/>
      <path id="Trazado_1615" data-name="Trazado 1615" d="M820.554,754.152c0,.566-.009,1.132,0,1.7.007.309-.076.482-.428.482s-.435-.164-.433-.478c.011-1.183.014-2.366,0-3.549,0-.345.146-.441.465-.438s.395.161.393.434C820.55,752.917,820.554,753.535,820.554,754.152Z" transform="translate(-805.851 -749.879)"/>
      <path id="Trazado_1616" data-name="Trazado 1616" d="M937.653,749.8c-.039.31-.181.535-.53.522a.464.464,0,0,1-.475-.5.479.479,0,0,1,.522-.528C937.474,749.3,937.611,749.509,937.653,749.8Z" transform="translate(-847.369 -748.966)"/>
      <path id="Trazado_1617" data-name="Trazado 1617" d="M820.575,749.841a.456.456,0,0,1-.467.478.467.467,0,0,1-.51-.53.455.455,0,0,1,.469-.495C820.4,749.288,820.569,749.491,820.575,749.841Z" transform="translate(-805.816 -748.966)"/>
    </g>
  </g>
</svg>
