<svg xmlns="http://www.w3.org/2000/svg" width="129.001" height="47.529" viewBox="0 0 129.001 47.529">
  <g id="Grupo_1439" data-name="Grupo 1439" transform="translate(-679.916 -436.719)">
    <path id="Trazado_1229" data-name="Trazado 1229" d="M1270.044,436.733v25.85h-5.1c-.012-.184-.035-.369-.035-.555q0-12.353-.011-24.7c0-.454.1-.612.582-.6C1266.98,436.753,1268.477,436.733,1270.044,436.733Z" transform="translate(-461.134 -0.002)"/>
    <path id="Trazado_1230" data-name="Trazado 1230" d="M1191.748,449.691c0-4.11.009-8.22-.012-12.329,0-.52.158-.656.659-.641,1.163.035,2.328.025,3.492,0,.38-.007.523.089.522.5q-.016,12.436,0,24.871c0,.421-.129.542-.543.533-1.181-.026-2.364-.033-3.545,0-.487.015-.584-.161-.582-.607C1191.754,457.91,1191.748,453.8,1191.748,449.691Z" transform="translate(-403.458 0)"/>
    <path id="Trazado_1231" data-name="Trazado 1231" d="M1122.991,462.64h-4.009V436.774c1.17,0,2.314,0,3.457,0,.172,0,.345.015.552.025Z" transform="translate(-346.108 -0.043)"/>
    <path id="Trazado_1232" data-name="Trazado 1232" d="M1045.875,462.7V436.819c1.122,0,2.226,0,3.33.011.073,0,.18.143.207.237a1.6,1.6,0,0,1,.014.421q0,12.252,0,24.5c0,.7,0,.7-.724.7Z" transform="translate(-288.479 -0.078)"/>
    <path id="Trazado_1233" data-name="Trazado 1233" d="M972.671,462.784v-25.8h2.993v25.8Z" transform="translate(-230.774 -0.211)"/>
    <path id="Trazado_1234" data-name="Trazado 1234" d="M902,449.673c0,4.11-.007,8.22.01,12.33,0,.476-.115.666-.615.624a13.492,13.492,0,0,0-1.534-.005c-.3.009-.422-.111-.4-.4.007-.105,0-.212,0-.317q0-12.224,0-24.448c0-.72,0-.72.714-.721.423,0,.849.026,1.269-.007.442-.035.569.125.566.565-.017,3.175-.009,6.35-.009,9.525Z" transform="translate(-173.058 -0.002)"/>
    <path id="Trazado_1235" data-name="Trazado 1235" d="M828.32,462.656c-.571,0-1.114.014-1.655-.013-.1-.005-.24-.162-.28-.278a1.488,1.488,0,0,1-.016-.472q0-12.168,0-24.337c0-.879-.076-.775.805-.783.368,0,.735,0,1.145,0Z" transform="translate(-115.438 -0.042)"/>
    <path id="Trazado_1236" data-name="Trazado 1236" d="M753.476,462.631V436.779c.387,0,.768-.021,1.145.014.1.009.232.175.265.292a1.978,1.978,0,0,1,.015.526q0,12.088,0,24.175c0,1.008.085.86-.878.871C753.851,462.659,753.68,462.641,753.476,462.631Z" transform="translate(-57.986 -0.043)"/>
    <path id="Trazado_1237" data-name="Trazado 1237" d="M680.309,436.95h.883v25.811h-.883Z" transform="translate(-0.31 -0.182)"/>
    <path id="Trazado_1238" data-name="Trazado 1238" d="M1229.656,592.219q0,1.335,0,2.67c0,.676-.393.952-1.022.691a.471.471,0,0,1-.2-.366c-.014-1.64-.006-3.28-.013-4.921,0-.295.119-.391.41-.4a1.147,1.147,0,0,1,1.16.514c.569.848,1.224,1.638,1.844,2.45.1.132.212.256.426.513V589.93h1.218c.01.19.027.375.027.561,0,1.482.008,2.963-.007,4.445,0,.22-.085.614-.172.626-.376.052-.8.192-1.108-.232-.691-.936-1.407-1.854-2.115-2.777-.1-.131-.217-.252-.325-.378Z" transform="translate(-432.377 -120.738)"/>
    <path id="Trazado_1239" data-name="Trazado 1239" d="M1114.229,593.693l1.269,1.888a1.275,1.275,0,0,1-1.776-.486,7.923,7.923,0,0,1-.554-.837c-.227-.453-.614-.428-.995-.361-.106.018-.236.233-.251.368a5.341,5.341,0,0,0-.008,1c.037.477-.272.459-.581.435-.283-.023-.672.143-.668-.4.012-1.64,0-3.28.02-4.92a.517.517,0,0,1,.347-.367c.915-.007,1.834-.01,2.745.071a1.69,1.69,0,0,1,1.626,1.409,1.894,1.894,0,0,1-.9,2.032Zm-1.417-.952a4.2,4.2,0,0,0,.63-.005.745.745,0,0,0,.7-.782.706.706,0,0,0-.646-.767,5.373,5.373,0,0,0-.837-.063c-.752-.007-.756,0-.752.744C1111.917,592.9,1111.8,592.745,1112.813,592.742Z" transform="translate(-339.552 -120.835)"/>
    <path id="Trazado_1240" data-name="Trazado 1240" d="M1183.666,592.457a3.042,3.042,0,1,1,2.984,2.977A2.947,2.947,0,0,1,1183.666,592.457Zm4.745.04a1.712,1.712,0,0,0-1.736-1.792,1.729,1.729,0,0,0-1.709,1.775,1.769,1.769,0,0,0,1.755,1.8A1.7,1.7,0,0,0,1188.411,592.5Z" transform="translate(-397.097 -120.469)"/>
    <path id="Trazado_1241" data-name="Trazado 1241" d="M900.851,592.5a3.042,3.042,0,0,1-6.08.007,2.986,2.986,0,0,1,3.078-2.962A2.91,2.91,0,0,1,900.851,592.5Zm-4.747-.022a1.727,1.727,0,1,0,3.453.026,1.758,1.758,0,0,0-1.754-1.8A1.692,1.692,0,0,0,896.1,592.475Z" transform="translate(-169.367 -120.468)"/>
    <path id="Trazado_1242" data-name="Trazado 1242" d="M683.492,593.622l1.269,1.891c-.972.286-1.346.165-1.826-.554a7.7,7.7,0,0,1-.523-.794c-.229-.458-.621-.408-1-.348-.091.014-.208.214-.218.337-.03.368.016.744-.03,1.108a.506.506,0,0,1-.327.343c-.831.132-.915.049-.915-.771,0-1.481.01-2.963-.005-4.445,0-.364.107-.506.483-.486.9.047,1.8.025,2.691.1a1.691,1.691,0,0,1,1.566,1.353,1.921,1.921,0,0,1-.818,2.025C683.737,593.452,683.639,593.521,683.492,593.622Zm-1.337-.942a3.643,3.643,0,0,0,.557-.03.752.752,0,0,0,.694-.79.721.721,0,0,0-.66-.758,5.158,5.158,0,0,0-.784-.06c-.779-.009-.784,0-.781.755C681.186,592.82,681.076,592.659,682.155,592.679Z" transform="translate(0 -120.751)"/>
    <path id="Trazado_1243" data-name="Trazado 1243" d="M746.281,590.358l-.689.867a8.573,8.573,0,0,0-1.087-.428,1.538,1.538,0,0,0-1.734.592,1.886,1.886,0,0,0-.1,2.133,1.613,1.613,0,0,0,1.723.767c.4-.056.937-.006.925-.687-.006-.317-.108-.427-.428-.438-.932-.03-.963-.083-.754-1.066.683,0,1.383-.014,2.082.015a.443.443,0,0,1,.3.312c.03.633.024,1.269.008,1.9a.532.532,0,0,1-.168.363,3.341,3.341,0,0,1-4.725-.415,3.073,3.073,0,0,1,4.651-3.918Z" transform="translate(-48.193 -120.498)"/>
    <path id="Trazado_1244" data-name="Trazado 1244" d="M783.6,589.906h1.222c0,.613.014,1.191-.006,1.767-.011.334.089.485.445.468.457-.022.917-.023,1.375,0,.384.019.542-.11.522-.512-.028-.559-.007-1.121-.007-1.667a.84.84,0,0,1,.191-.08c1.063-.078,1.063-.077,1.063.992,0,1.375-.028,2.751.014,4.125.017.546-.223.592-.657.6s-.669-.059-.62-.569a8.283,8.283,0,0,0,0-1.373c-.009-.124-.17-.334-.269-.339-.663-.03-1.329-.016-2.049-.016,0,.608-.029,1.153.009,1.693.032.461-.109.661-.586.6a5.022,5.022,0,0,0-.645,0Z" transform="translate(-81.735 -120.712)"/>
    <path id="Trazado_1245" data-name="Trazado 1245" d="M1078.221,589.938c.048.08.076.108.082.14.146.908.1.966-.8.966-.6,0-1.2.021-1.8,0-.484-.021-.43.292-.432.595s-.052.617.429.6c.581-.022,1.166.025,1.746-.013.486-.032.53.207.542.6.013.444-.172.542-.568.525-.581-.026-1.164.007-1.746-.01-.5-.015-.391.34-.4.621s-.058.582.395.572c.758-.017,1.518.013,2.276-.01.421-.013.45.22.441.536s.049.607-.43.6c-1.164-.018-2.329-.015-3.493,0-.357,0-.447-.146-.444-.477.012-1.588,0-3.176.006-4.763,0-.226-.043-.478.32-.477C1075.647,589.941,1076.949,589.938,1078.221,589.938Z" transform="translate(-310.664 -120.778)"/>
    <path id="Trazado_1246" data-name="Trazado 1246" d="M860.644,594.524c.87,0,1.7.024,2.521-.01.459-.019.568.16.562.583-.006.39-.083.573-.529.561-1.128-.029-2.257-.011-3.386-.008-.249,0-.448-.011-.445-.354.014-1.728.014-3.456.021-5.184a.82.82,0,0,1,.07-.176h4.162v1.109c-.768,0-1.555.032-2.337-.011-.525-.029-.722.111-.691.667.024.419.147.554.557.534.581-.028,1.164.013,1.745-.011.446-.019.419.263.416.554s.05.582-.4.565c-.564-.021-1.131.029-1.692-.014-.5-.038-.673.153-.608.627C860.631,594.125,860.63,594.3,860.644,594.524Z" transform="translate(-141.458 -120.777)"/>
    <path id="Trazado_1247" data-name="Trazado 1247" d="M940.4,589.926c0,1.136-.009,2.205,0,3.274a1.231,1.231,0,0,0,1.688,1.286,1.174,1.174,0,0,0,.787-1.239c.01-.9,0-1.8,0-2.7,0-.189.017-.378.028-.595h1.217c0,.374.01.736,0,1.1-.032,1,0,2.01-.132,3a1.738,1.738,0,0,1-1.631,1.556,5.649,5.649,0,0,1-1.717-.052,2.031,2.031,0,0,1-1.481-2.082c-.043-1.055-.008-2.114-.019-3.17,0-.266.084-.393.362-.381S940.064,589.926,940.4,589.926Z" transform="translate(-204.347 -120.767)"/>
    <path id="Trazado_1248" data-name="Trazado 1248" d="M1038.857,589.772c.507.04,1.018.058,1.522.126a1.827,1.827,0,0,1,1.626,1.785,1.85,1.85,0,0,1-1.514,1.993,6.941,6.941,0,0,1-1.309.123c-.352,0-.477.133-.45.467.014.175,0,.352,0,.528,0,.668-.473.979-1.074.687a.436.436,0,0,1-.173-.334c-.011-1.655-.016-3.31.008-4.965,0-.127.217-.336.358-.359a6.2,6.2,0,0,1,1-.017Zm-.122,2.1c.066.322-.249.876.554.838.987-.047,1.457-.3,1.448-.915-.008-.57-.442-.849-1.335-.857C1038.74,590.929,1038.74,590.929,1038.735,591.868Z" transform="translate(-281.86 -120.649)"/>
    <path id="Trazado_1249" data-name="Trazado 1249" d="M1267.959,594.573c.132-.174.235-.292.318-.422.237-.369.458-.448.891-.186a2.971,2.971,0,0,0,1.348.353c.217.011.45-.289.675-.448-.163-.2-.286-.485-.5-.583a14.027,14.027,0,0,0-1.353-.444,1.523,1.523,0,0,1-1.177-1.5,1.7,1.7,0,0,1,1.206-1.623,3.2,3.2,0,0,1,2.852.595,1.831,1.831,0,0,1-.12.273c-.4.633-.393.61-1.079.337a2.246,2.246,0,0,0-.971-.17c-.214.017-.411.246-.615.38.142.2.242.476.434.57a10.3,10.3,0,0,0,1.249.418c1.021.347,1.392.843,1.331,1.762a1.68,1.68,0,0,1-1.574,1.516A3.575,3.575,0,0,1,1267.959,594.573Z" transform="translate(-463.544 -120.507)"/>
    <path id="Trazado_1250" data-name="Trazado 1250" d="M977.814,594.576l.658-.805c.49.192.936.38,1.392.538a.788.788,0,0,0,.516.04,4.261,4.261,0,0,0,.685-.474c-.171-.2-.305-.476-.521-.575-.445-.2-.942-.29-1.4-.459a1.454,1.454,0,0,1-1.1-1.5,1.566,1.566,0,0,1,1.159-1.587,3.229,3.229,0,0,1,2.922.546c-.084.154-.156.27-.215.393-.227.475-.5.555-.991.272a2.227,2.227,0,0,0-1.118-.187.616.616,0,0,0-.459.386.64.64,0,0,0,.314.518c.429.2.9.3,1.349.455.968.333,1.387.883,1.328,1.722a1.726,1.726,0,0,1-1.606,1.553A3.515,3.515,0,0,1,977.814,594.576Z" transform="translate(-234.828 -120.526)"/>
    <path id="Trazado_1251" data-name="Trazado 1251" d="M1148.6,593.814c.566.2,1.034.4,1.518.532a1.1,1.1,0,0,0,.668-.042.659.659,0,0,0,.377-.43.608.608,0,0,0-.314-.472c-.518-.216-1.068-.352-1.6-.547a1.532,1.532,0,0,1-1.1-1.665,1.713,1.713,0,0,1,1.33-1.473,3.347,3.347,0,0,1,2.448.391c.2.119.391.268.167.484s-.188.748-.739.541a4.834,4.834,0,0,0-1.3-.343c-.2-.015-.425.261-.639.406.153.189.268.456.466.55a11.539,11.539,0,0,0,1.251.415c.994.341,1.379.873,1.3,1.781a1.7,1.7,0,0,1-1.545,1.488,3.6,3.6,0,0,1-2.486-.482c-.423-.23-.485-.46-.121-.791A4.359,4.359,0,0,0,1148.6,593.814Z" transform="translate(-369.023 -120.543)"/>
    <path id="Trazado_1252" data-name="Trazado 1252" d="M823.967,589.9c.635,0,1.271.023,1.9-.007.482-.023.435.279.438.584s.037.635-.437.585a.888.888,0,0,0-.106,0c-1.193.022-1.194.022-1.2,1.193,0,.935-.031,1.871.011,2.8.024.514-.206.567-.625.567s-.675-.043-.653-.589c.046-1.162,0-2.328.021-3.492.006-.375-.128-.515-.49-.484-.193.016-.388,0-.582,0-.712,0-.693,0-.7-.7,0-.387.155-.479.506-.468C822.7,589.919,823.332,589.9,823.967,589.9Z" transform="translate(-111.652 -120.747)"/>
    <path id="Trazado_1253" data-name="Trazado 1253" d="M1201.352,645.51V643.5h.763V647.1a.7.7,0,0,1-.925-.291c-.436-.613-.91-1.2-1.368-1.795l-.146.031q0,.745,0,1.49c0,.68-.022.7-.77.565v-3.586a.8.8,0,0,1,1.032.346c.4.585.858,1.133,1.29,1.7Z" transform="translate(-409.111 -162.964)"/>
    <path id="Trazado_1254" data-name="Trazado 1254" d="M908.363,643.513c.771-.129.789-.116.792.566,0,.827.018,1.655,0,2.482a2.077,2.077,0,0,1-.2.584c-.241-.1-.556-.131-.708-.306-.505-.58-.951-1.211-1.42-1.822l-.159.019c0,.49,0,.979,0,1.469,0,.7-.009.706-.761.6v-3.6a.8.8,0,0,1,1.041.368c.4.583.856,1.134,1.288,1.7l.128-.051Z" transform="translate(-178.144 -162.952)"/>
    <path id="Trazado_1255" data-name="Trazado 1255" d="M1146.719,643.308a1.894,1.894,0,0,1,1.94,1.935,1.979,1.979,0,1,1-1.94-1.935Zm-1.147,1.8a1.119,1.119,0,1,0,2.232.146,1.155,1.155,0,0,0-1.079-1.208A1.1,1.1,0,0,0,1145.572,645.111Z" transform="translate(-366.384 -162.85)"/>
    <path id="Trazado_1256" data-name="Trazado 1256" d="M802.836,643.312a1.859,1.859,0,0,1,1.991,1.87,1.892,1.892,0,0,1-1.964,1.912,1.892,1.892,0,1,1-.027-3.782Zm-1.078,1.879a1.109,1.109,0,0,0,1.111,1.162,1.151,1.151,0,0,0-.041-2.3A1.085,1.085,0,0,0,801.758,645.191Z" transform="translate(-95.372 -162.853)"/>
    <path id="Trazado_1257" data-name="Trazado 1257" d="M957.515,647.17v-3.714a5.012,5.012,0,0,1,2.377.2,1.764,1.764,0,0,1,.99,1.876,1.711,1.711,0,0,1-1.477,1.507C958.8,647.12,958.188,647.126,957.515,647.17Zm.795-1.88h.007c0,.263-.015.526.007.787a.4.4,0,0,0,.156.288,1.331,1.331,0,0,0,1.45-.567,1.159,1.159,0,0,0-.408-1.478c-.772-.423-1.212-.186-1.212.654Z" transform="translate(-218.826 -162.931)"/>
    <path id="Trazado_1258" data-name="Trazado 1258" d="M720.06,589.854v1.582c0,1.2-.027,2.4.012,3.6.017.533-.245.541-.642.547-.423.006-.643-.062-.632-.57.032-1.5.037-3,0-4.5-.013-.541.145-.748.68-.663A4.123,4.123,0,0,0,720.06,589.854Z" transform="translate(-30.649 -120.696)"/>
    <path id="Trazado_1259" data-name="Trazado 1259" d="M854.6,643.624h.77c0,.695-.041,1.365.019,2.025a1.245,1.245,0,0,0,.411.835c.518.358,1.139-.052,1.157-.726.019-.7,0-1.4,0-2.134h.756a17.141,17.141,0,0,1-.029,2.607c-.136.874-.884,1.224-1.884,1.086a1.409,1.409,0,0,1-1.244-1.474c-.018-.652,0-1.305,0-1.958A2.184,2.184,0,0,1,854.6,643.624Z" transform="translate(-137.663 -163.099)"/>
    <path id="Trazado_1260" data-name="Trazado 1260" d="M1010.289,647.162c-.515.137-.822.012-.973-.485a.609.609,0,0,0-.417-.291,6.8,6.8,0,0,0-.736-.018c-.364-.033-.611.067-.7.454-.118.493-.5.392-.892.357a1.875,1.875,0,0,1,.071-.346c.429-1.021.854-2.044,1.309-3.053a.58.58,0,0,1,.422-.279c.175-.009.463.074.519.2.492,1.088.944,2.2,1.4,3.3A.437.437,0,0,1,1010.289,647.162Zm-1.806-2.559-.128.01-.375,1h.914Z" transform="translate(-257.494 -163.001)"/>
    <path id="Trazado_1261" data-name="Trazado 1261" d="M753.557,643.586h2.705v.716c-.45,0-.9,0-1.35,0-.632,0-.665.051-.512.786a12.364,12.364,0,0,1,1.287.016c.14.015.259.222.388.341-.122.127-.229.337-.37.362a4.081,4.081,0,0,1-.946.014c-.311-.017-.467.094-.441.42.01.122,0,.246,0,.369,0,.7,0,.7-.76.621Z" transform="translate(-58.05 -163.07)"/>
    <path id="Trazado_1262" data-name="Trazado 1262" d="M1058.909,643.478c.132.713.114.759-.519.742-.418-.011-.565.126-.547.546.028.669,0,1.34.008,2.01,0,.274-.072.416-.388.422-.334.005-.43-.13-.424-.437.012-.635-.022-1.271.011-1.9.025-.474-.113-.7-.618-.636-.132.017-.339.011-.4-.067a.7.7,0,0,1-.1-.48c.012-.079.2-.185.307-.187C1057.126,643.471,1058.007,643.478,1058.909,643.478Z" transform="translate(-296.407 -162.983)"/>
    <path id="Trazado_1263" data-name="Trazado 1263" d="M1106.177,643.543v3.581c-.721.18-.779.137-.781-.566q0-1.211,0-2.421C1105.4,643.457,1105.4,643.457,1106.177,643.543Z" transform="translate(-335.397 -163.005)"/>
  </g>
</svg>
