<svg xmlns="http://www.w3.org/2000/svg" width="153.871" height="50.208" viewBox="0 0 153.871 50.208">
  <g id="Group_8" data-name="Group 8" transform="translate(-602.132 -169)">
    <path id="Trazado_1194" data-name="Trazado 1194" d="M884.761,436.849c-.222.024-.268.23-.372.361q-2.155,2.727-4.3,5.462c-.426.541-.633.542-1.056.009l-4.423-5.573c-.085-.107-.141-.261-.383-.286v.631c0,3.852-.01,7.7.012,11.555,0,.5-.145.644-.618.6a5.885,5.885,0,0,0-1.149,0c-.466.045-.627-.086-.62-.591.032-2.117.014-4.235.014-6.353,0-3.067.01-6.134-.011-9.2,0-.466.154-.525.582-.586a2.624,2.624,0,0,1,2.72,1.3c1.281,1.773,2.715,3.433,4.068,5.155.26.331.4.367.678.009,1.574-2.012,3.179-4,4.754-6.009a.959.959,0,0,1,.92-.438,7.37,7.37,0,0,0,1.15,0c.381-.027.5.1.5.494-.02,1.752-.009,3.5-.009,5.257,0,3.469-.007,6.937.009,10.4,0,.423-.1.6-.543.558a5.669,5.669,0,0,0-1.149,0c-.541.061-.714-.1-.71-.679.029-3.87.016-7.74.012-11.61C884.835,437.163,884.909,436.99,884.761,436.849Z" transform="translate(-214.746 -263.643)"/>
    <path id="Trazado_1195" data-name="Trazado 1195" d="M1017.651,449.154c-3.891,0-7.046-1.949-8.249-5.3-2.2-6.109,1.916-11.669,7.848-11.808a8.792,8.792,0,0,1,7.749,3.6,8.488,8.488,0,0,1-4.77,13.173A9.052,9.052,0,0,1,1017.651,449.154Zm-6.356-8.47a6.119,6.119,0,0,0,6.367,6.266,6.313,6.313,0,1,0,.076-12.625,6.123,6.123,0,0,0-6.443,6.36Z" transform="translate(-321.673 -263.023)"/>
    <path id="Trazado_1196" data-name="Trazado 1196" d="M1273.18,441.385c0,2.61-.011,5.22.011,7.829,0,.44-.122.573-.548.539a8.257,8.257,0,0,0-1.313,0c-.421.034-.527-.128-.523-.528.017-2.026-.009-4.052.02-6.077.008-.518-.119-.69-.661-.685q-4,.04-8,0c-.486,0-.613.134-.606.616.028,2.007-.008,4.015.026,6.022.009.544-.163.7-.678.65a6.9,6.9,0,0,0-1.2,0c-.387.029-.5-.113-.495-.494.018-1.661.008-3.322.008-4.982,0-3.559.006-7.118-.008-10.676,0-.414.086-.6.54-.564a8.085,8.085,0,0,0,1.313,0c.421-.032.521.131.518.532-.019,2.044.007,4.088-.021,6.132-.006.476.154.575.592.572q4.026-.026,8.052,0c.471,0,.628-.109.621-.605-.029-2.026,0-4.052-.022-6.077,0-.43.114-.592.555-.556a8.161,8.161,0,0,0,1.313,0c.414-.033.519.109.516.519C1273.17,436.166,1273.18,438.776,1273.18,441.385Z" transform="translate(-517.188 -263.793)"/>
    <path id="Trazado_1197" data-name="Trazado 1197" d="M1150.583,441.4c0-2.592.012-5.184-.011-7.775,0-.467.141-.582.588-.579q4.108.027,8.217,0c.449,0,.632.115.584.582a5.777,5.777,0,0,0,0,1.094c.035.4-.135.492-.5.49-1.917-.014-3.834-.007-5.752-.007-.723,0-.723,0-.723.749,0,1.278.016,2.555-.012,3.833-.009.4.115.5.493.5,1.862-.019,3.725.006,5.587-.032.533-.011.749.135.658.665a.65.65,0,0,0,0,.109c0,1.4,0,1.4-1.431,1.4-1.588,0-3.177.011-4.766-.008-.4,0-.544.106-.537.523q.034,2.08,0,4.161c-.005.393.139.492.51.489,2.045-.014,4.09.005,6.135-.017.43,0,.6.11.551.549-.061.518.221,1.185-.128,1.522-.323.311-.976.09-1.482.092-2.465.01-4.93,0-7.4.013-.438,0-.6-.1-.594-.574C1150.6,446.589,1150.583,444,1150.583,441.4Z" transform="translate(-432.364 -263.809)"/>
    <path id="Trazado_1198" data-name="Trazado 1198" d="M1203.727,441.275c0-2.572.011-5.143-.01-7.715,0-.464.1-.647.6-.628,1.967.077,3.944-.136,5.9.124a4.4,4.4,0,0,1,3.815,3.559,4.6,4.6,0,0,1-2.19,5.106,8.17,8.17,0,0,1-3.564.7,15.346,15.346,0,0,1-1.641,0c-.409-.025-.526.1-.522.517.021,2.042-.007,4.086.022,6.128.007.494-.137.648-.616.6a7.145,7.145,0,0,0-1.257,0c-.451.038-.552-.151-.549-.57C1203.734,446.492,1203.726,443.884,1203.727,441.275Zm2.391-3.628v1.312c0,1.324,0,1.335,1.342,1.32a7.983,7.983,0,0,0,2.55-.182,2.416,2.416,0,0,0,1.661-2.694,2.2,2.2,0,0,0-1.913-2.192,19,19,0,0,0-3.325-.135c-.294-.012-.317.164-.316.386,0,.728,0,1.457,0,2.186Z" transform="translate(-473.859 -263.709)"/>
    <path id="Trazado_1199" data-name="Trazado 1199" d="M1097.767,444.835a11.083,11.083,0,0,0,2.109,1.648,4.455,4.455,0,0,0,3.01.52,2.142,2.142,0,0,0,1.437-3.432,5.848,5.848,0,0,0-1.83-1.619,25.726,25.726,0,0,1-3.139-2.089,4.229,4.229,0,0,1-1.43-4.812,4.513,4.513,0,0,1,4.052-2.943,6.8,6.8,0,0,1,3.943.89.721.721,0,0,1,.431.735c-.028.7-.008,1.409-.008,2.206-.4-.3-.7-.546-1.024-.766a4.732,4.732,0,0,0-3.42-.865c-1.482.21-2.309,1.28-1.924,2.474a3.063,3.063,0,0,0,1.177,1.472c.934.706,1.981,1.231,2.965,1.859A5.855,5.855,0,0,1,1106.69,443a4.449,4.449,0,0,1-4,6.179,7.159,7.159,0,0,1-4.516-1.209.775.775,0,0,1-.415-.75C1097.79,446.426,1097.767,445.63,1097.767,444.835Z" transform="translate(-391.062 -263.059)"/>
    <path id="Trazado_1200" data-name="Trazado 1200" d="M969.22,545.7c-.142.151-.065.341-.065.511-.005,2.738-.014,5.477.007,8.215,0,.469-.1.641-.6.623-1.246-.043-1.061.1-1.063-1.042-.006-3.578.007-7.156-.014-10.734,0-.5.133-.656.638-.672a1.536,1.536,0,0,1,1.346.639c2.081,2.469,4.194,4.909,6.3,7.359l1.034,1.2c.068.078.119.209.25.163s.092-.184.092-.285v-2.191c0-2.1.013-4.2-.01-6.3-.005-.467.153-.594.6-.581,1.182.033,1.113-.091,1.113,1.087v10.569c0,.771-.005.723-.735.786a1.464,1.464,0,0,1-1.341-.643q-3.631-4.275-7.288-8.528C969.41,545.8,969.365,545.69,969.22,545.7Z" transform="translate(-289.412 -349.34)"/>
    <path id="Trazado_1201" data-name="Trazado 1201" d="M840.048,548.41a6.218,6.218,0,0,1,6.5-6.4,6.29,6.29,0,0,1,6.633,6.342c0,3.675-2.82,6.351-6.7,6.348a6.2,6.2,0,0,1-6.433-6.29Zm6.582-4.678a4.478,4.478,0,0,0-4.744,4.673,4.565,4.565,0,0,0,4.746,4.65,4.64,4.64,0,0,0,4.712-4.714,4.521,4.521,0,0,0-4.714-4.608Z" transform="translate(-189.913 -348.883)"/>
    <path id="Trazado_1202" data-name="Trazado 1202" d="M1207.351,541.984a6.409,6.409,0,0,1,6.482,4.368,6.277,6.277,0,0,1-5.406,8.246,6.356,6.356,0,0,1-2.774-12.394A5.367,5.367,0,0,1,1207.351,541.984Zm.223,1.721a4.509,4.509,0,0,0-4.755,4.676,4.577,4.577,0,0,0,4.707,4.647,4.624,4.624,0,0,0,4.758-4.719,4.5,4.5,0,0,0-4.71-4.6Z" transform="translate(-471.713 -348.856)"/>
    <path id="Trazado_1203" data-name="Trazado 1203" d="M1272.537,545.77v8.669c0,.709,0,.709-.728.71a1.85,1.85,0,0,0-.274,0c-.552.086-.668-.179-.661-.686.026-1.935.011-3.869.01-5.8,0-1.807.007-3.614-.006-5.421,0-.369.088-.472.492-.493a1.743,1.743,0,0,1,1.574.72c2.322,2.765,4.689,5.492,7.04,8.232a4,4,0,0,0,.291.327c.129.12.234.1.25-.092.012-.145.006-.292.006-.438,0-2.72.011-5.44-.01-8.159,0-.467.144-.586.591-.576,1.074.024,1.075,0,1.075,1.068,0,3.559-.009,7.118.011,10.678,0,.506-.145.645-.649.661a1.592,1.592,0,0,1-1.4-.64c-2.293-2.718-4.613-5.413-6.929-8.111a2.169,2.169,0,0,0-.683-.649Z" transform="translate(-526.295 -349.454)"/>
    <path id="Trazado_1204" data-name="Trazado 1204" d="M1031,549.011c0-1.878.009-3.757-.007-5.635,0-.383.069-.555.5-.546,1.587.032,3.175-.007,4.761.043a5.911,5.911,0,0,1,5.8,4.6,6.177,6.177,0,0,1-5.632,7.671c-1.6.059-3.209.056-4.813.075-.467.005-.633-.132-.626-.624C1031.016,552.731,1031,550.871,1031,549.011Zm1.761-.026c0,1.369.011,2.739-.007,4.108,0,.386.131.516.509.5.712-.022,1.425.014,2.137-.015a5.839,5.839,0,0,0,2.944-.712,4.644,4.644,0,0,0,1.958-5.019,4.292,4.292,0,0,0-3.515-3.334,26.145,26.145,0,0,0-3.5-.114c-.41-.019-.541.124-.535.53C1032.773,546.283,1032.761,547.634,1032.761,548.985Z" transform="translate(-338.996 -349.521)"/>
    <path id="Trazado_1205" data-name="Trazado 1205" d="M810.52,442.812c-.047,2.355.084,5.221-.067,8.083a4.553,4.553,0,0,1-1.421,3.436,4.469,4.469,0,0,1-3.362,1.025.475.475,0,0,1-.5-.462c-.077-.486-.171-.97-.284-1.449-.07-.3.014-.4.316-.39a5.51,5.51,0,0,0,1.307-.1,1.814,1.814,0,0,0,1.453-1.457,6.913,6.913,0,0,0,.155-1.74q.006-7.993,0-15.986c0-.724,0-.724.7-.723.383,0,.769.024,1.15-.007.429-.035.565.112.563.554C810.511,436.5,810.52,439.4,810.52,442.812Z" transform="translate(-162.443 -263.8)"/>
    <path id="Trazado_1206" data-name="Trazado 1206" d="M976.848,442.115c0,2.572.006,5.145,0,7.717a8.616,8.616,0,0,1-.406,2.912,4.168,4.168,0,0,1-4.483,2.578.425.425,0,0,1-.422-.408c-.087-.5-.17-1.009-.3-1.5-.085-.323.032-.385.312-.382a5.654,5.654,0,0,0,1.36-.113,1.745,1.745,0,0,0,1.349-1.289,7.078,7.078,0,0,0,.212-2.061c.007-5.291.016-10.581-.009-15.872,0-.58.169-.738.709-.68a6.937,6.937,0,0,0,1.2,0c.392-.027.491.127.489.505-.014,2.864-.008,5.728-.008,8.593Z" transform="translate(-292.32 -263.772)"/>
    <path id="Trazado_1207" data-name="Trazado 1207" d="M908.465,547.128c0-1.277.009-2.554-.006-3.831,0-.345.089-.477.459-.483,1.309-.021,1.309-.035,1.309,1.264,0,2.1-.015,4.2.011,6.294a2.9,2.9,0,0,0,1.4,2.838,4.176,4.176,0,0,0,4.371-.133,2.556,2.556,0,0,0,1.142-2.133c.122-1.64.043-3.282.064-4.923.012-.912.016-1.825-.005-2.736-.008-.36.114-.465.469-.47,1.3-.018,1.3-.03,1.3,1.249,0,2.1.011,4.2-.012,6.294a4.8,4.8,0,0,1-1,3.219,6.424,6.424,0,0,1-7.163,1.1,4.186,4.186,0,0,1-2.3-3.722c-.054-1.275-.011-2.553-.011-3.83Z" transform="translate(-243.328 -349.506)"/>
    <path id="Trazado_1208" data-name="Trazado 1208" d="M1093.1,554.919c-.621.188-.9-.2-1.126-.817-.308-.836-.722-1.633-1.075-2.453a.619.619,0,0,0-.66-.435c-1.424.021-2.849.017-4.273,0a.571.571,0,0,0-.615.413c-.382.947-.8,1.879-1.17,2.831a.634.634,0,0,1-.69.466c-1.318,0-1.321.013-.812-1.2l4.553-10.839a.591.591,0,0,1,.653-.439c.416.024.8-.052,1.026.484,1,2.366,2.056,4.711,3.09,7.065l1.87,4.255c.294.666.3.664-.453.664Zm-5-5.258h1.474c.216,0,.426-.019.284-.339q-.831-1.866-1.654-3.736c-.037-.083-.08-.18-.185-.17s-.128.11-.163.2c-.49,1.212-.977,2.426-1.477,3.634-.139.336-.012.423.3.418C1087.154,549.655,1087.627,549.661,1088.1,549.661Z" transform="translate(-379.108 -349.224)"/>
    <path id="Trazado_1209" data-name="Trazado 1209" d="M848.345,441.44c0,2.589-.009,5.179.009,7.768,0,.428-.107.6-.55.562a9.783,9.783,0,0,0-1.367,0c-.4.026-.486-.137-.486-.507q.015-7.85,0-15.7c0-.374.095-.531.49-.508a12.239,12.239,0,0,0,1.422,0c.393-.022.492.133.489.509C848.338,436.188,848.345,438.814,848.345,441.44Z" transform="translate(-194.522 -263.809)"/>
    <path id="Trazado_1210" data-name="Trazado 1210" d="M804.14,548.822c0-1.861.015-3.721-.01-5.582-.006-.468.156-.6.6-.592q2.71.026,5.42,0c.4,0,.544.108.541.526-.008,1.093.011,1.093-1.1,1.093-1.058,0-2.117.013-3.175-.007-.362-.007-.476.113-.466.47.021.82.024,1.642,0,2.462-.012.39.126.5.5.5,1.222-.019,2.446.007,3.668-.015.419-.007.581.106.574.554-.016,1.066.006,1.066-1.074,1.066-1.058,0-2.117.015-3.175-.008-.385-.009-.5.115-.5.5.018,1.587,0,3.174.016,4.761.005.407-.123.546-.53.538-1.49-.027-1.282.147-1.288-1.279C804.134,552.142,804.14,550.482,804.14,548.822Z" transform="translate(-161.869 -349.381)"/>
    <path id="Trazado_1211" data-name="Trazado 1211" d="M1135.047,549.576c0,1.623-.014,3.247.009,4.87.006.455-.136.6-.592.591-1.176-.019-1.176,0-1.176-1.187,0-3.009-.01-6.019.01-9.028,0-.474-.115-.64-.609-.622-1.039.037-2.08,0-3.12.018-.383.008-.515-.121-.506-.5.031-1.325-.153-1.111,1.085-1.115,2.847-.01,5.693.008,8.54-.014.509,0,.659.148.64.651-.037.972-.009.973-1,.973-.931,0-1.862.016-2.792-.008-.391-.01-.5.128-.494.5C1135.057,546.329,1135.047,547.952,1135.047,549.576Z" transform="translate(-415.572 -349.331)"/>
    <path id="Trazado_1212" data-name="Trazado 1212" d="M1183.067,548.848c0-1.878.012-3.756-.009-5.634,0-.427.122-.577.552-.582,1.269-.016,1.269-.031,1.269,1.222,0,3.537-.006,7.074.009,10.611,0,.442-.11.609-.578.6-1.242-.013-1.242.007-1.242-1.244Q1183.067,551.336,1183.067,548.848Z" transform="translate(-457.729 -349.365)"/>
    <path id="Trazado_1213" data-name="Trazado 1213" d="M891.562,628.481c1.4-1.082,2.392-1.013,3.414.242a2.643,2.643,0,0,1,1.507-.967,1.773,1.773,0,0,1,2.175,1.717c.093,1.038.034,2.078.055,3.117.005.259-.03.484-.361.5-.361.014-.344-.234-.343-.483,0-.931.007-1.861,0-2.792-.006-.842-.419-1.36-1.122-1.43a1.36,1.36,0,0,0-1.68,1.168,20.2,20.2,0,0,0-.08,3c-.007.176.054.375-.137.5-.268.173-.56-.015-.563-.377-.008-.949,0-1.9,0-2.846-.005-.911-.352-1.367-1.081-1.442a1.389,1.389,0,0,0-1.719,1.192,20.045,20.045,0,0,0-.086,2.948c-.007.16.049.336-.078.471a.368.368,0,0,1-.409.066c-.21-.068-.17-.255-.17-.414v-3.667a5.243,5.243,0,0,0-.023-.656c-.031-.247-.035-.433.3-.443.291-.009.4.111.377.389a.968.968,0,0,0,.024.207Z" transform="translate(-229.573 -415.804)"/>
    <path id="Trazado_1214" data-name="Trazado 1214" d="M807.277,617.427a2.3,2.3,0,0,1,2.394,1.311c.065.175.221.41-.083.49-.21.055-.448.094-.6-.205a2.032,2.032,0,0,0-3.03-.454,1.108,1.108,0,0,0,.2,1.782,4.594,4.594,0,0,0,1.3.56,6.68,6.68,0,0,1,1.526.593,1.8,1.8,0,0,1,.18,3.088,3.38,3.38,0,0,1-3.336.31,2.077,2.077,0,0,1-1.146-1.392c-.06-.191-.114-.429.193-.458.219-.021.459-.091.58.241a2.105,2.105,0,0,0,3.355.632,1.158,1.158,0,0,0-.279-1.822,9.95,9.95,0,0,0-1.745-.627,5.672,5.672,0,0,1-.992-.453,1.747,1.747,0,0,1-.955-1.866,1.972,1.972,0,0,1,1.441-1.566A2.152,2.152,0,0,1,807.277,617.427Z" transform="translate(-162.264 -407.756)"/>
    <path id="Trazado_1215" data-name="Trazado 1215" d="M1025.565,624.989a2.982,2.982,0,0,1-.144.4c-.107.2-.3.189-.481.153s-.25-.171-.237-.364c.147-2.2.028-4.407.069-6.61,0-.183-.081-.432.22-.477s.5.017.49.388c-.015.656,0,1.312,0,1.968,0,.313.036.447.393.222a2.221,2.221,0,0,1,3.6,1.927,4.059,4.059,0,0,1-.236,1.717,2.089,2.089,0,0,1-3.153,1.019C1025.93,625.234,1025.781,625.132,1025.565,624.989Zm3.152-2.045c0-.182.015-.365,0-.546a1.6,1.6,0,0,0-1.553-1.6,1.637,1.637,0,0,0-1.651,1.447,3.229,3.229,0,0,0,.121,1.722,1.583,1.583,0,0,0,1.584,1.109,1.4,1.4,0,0,0,1.38-1.107,2.7,2.7,0,0,0,.119-1.025Z" transform="translate(-334.087 -408.274)"/>
    <path id="Trazado_1216" data-name="Trazado 1216" d="M1270.234,632.537v2.057c0,.244.078.526-.349.515-.4-.01-.306-.283-.307-.5-.005-1.732,0-3.463,0-5.2,0-.255-.043-.51-.026-.763s-.25-.612.266-.671c.466-.053.416.285.417.706a2.387,2.387,0,0,1,1.9-.84,1.862,1.862,0,0,1,1.8,1.113,3.536,3.536,0,0,1-.078,3.315,2.093,2.093,0,0,1-3.162.564C1270.56,632.741,1270.487,632.575,1270.234,632.537Zm0-2.085a2.678,2.678,0,0,0,.333,1.473,1.561,1.561,0,0,0,1.471.775,1.236,1.236,0,0,0,1.181-.747,3.124,3.124,0,0,0,.049-2.7,1.338,1.338,0,0,0-.887-.756c-1.217-.333-2.14.5-2.143,1.955Z" transform="translate(-525.215 -415.901)"/>
    <path id="Trazado_1217" data-name="Trazado 1217" d="M1059.752,630.548c-.529,0-1.059.013-1.588,0-.382-.012-.47.139-.4.5a1.638,1.638,0,0,0,1.418,1.452,1.572,1.572,0,0,0,1.739-.842c.038-.062.064-.132.1-.193a.444.444,0,0,1,.59-.112c.216.089.047.3,0,.426a2.5,2.5,0,0,1-3.752.865,3.107,3.107,0,0,1,.352-4.679,2.373,2.373,0,0,1,2.544.067,2.481,2.481,0,0,1,1.043,2.224c.01.257-.148.295-.354.294C1060.883,630.545,1060.318,630.548,1059.752,630.548Zm-.368-.572c.4,0,.8-.023,1.2.006.467.034.522-.19.418-.563a1.644,1.644,0,0,0-1.755-1.167,1.758,1.758,0,0,0-1.479,1.4c-.033.258.1.323.31.325.434,0,.87,0,1.306,0Z" transform="translate(-359.277 -415.729)"/>
    <path id="Trazado_1218" data-name="Trazado 1218" d="M1238.639,630.649c-.547,0-1.094.009-1.641,0-.287-.007-.383.1-.363.388a1.627,1.627,0,0,0,1.275,1.517,1.548,1.548,0,0,0,1.866-.746c.046-.078.081-.164.132-.239a.428.428,0,0,1,.586-.1c.192.1.059.29,0,.435a2.42,2.42,0,0,1-4.576-.741,3.645,3.645,0,0,1,.162-1.886,2.366,2.366,0,0,1,2.9-1.443,2.407,2.407,0,0,1,1.728,2.434c0,.278-.079.4-.37.391C1239.769,630.639,1239.2,630.649,1238.639,630.649Zm-.38-.572c.4,0,.8-.016,1.2,0,.44.023.553-.163.434-.563a1.667,1.667,0,0,0-3.218.137c-.059.278.023.422.32.421l1.264.005Z" transform="translate(-498.961 -415.83)"/>
    <path id="Trazado_1219" data-name="Trazado 1219" d="M841.913,621.041a2.191,2.191,0,0,1,1.45-.83,1.731,1.731,0,0,1,2.074,1.6,32.613,32.613,0,0,1,.058,3.39c0,.238-.093.374-.36.365s-.339-.155-.338-.39c0-.931.006-1.861,0-2.792-.007-1.024-.453-1.545-1.337-1.578a1.5,1.5,0,0,0-1.531,1.529c-.037.911-.014,1.824-.014,2.736,0,.245.027.489-.337.493s-.361-.237-.361-.483v-6.513c0-.242,0-.481.36-.487.378-.006.336.242.336.481Z" transform="translate(-190.825 -408.276)"/>
    <path id="Trazado_1220" data-name="Trazado 1220" d="M1303.063,621.843c0-1.022-.009-2.045.006-3.067,0-.254-.163-.647.331-.654.535-.008.347.414.359.682.023.547,0,1.095.009,1.643,0,.122-.047.274.076.355.146.1.223-.065.32-.131,1.432-.977,2.952-.356,3.14,1.353.115,1.047.044,2.114.055,3.172a.349.349,0,0,1-.408.4c-.278-.007-.307-.189-.306-.414.005-.949.007-1.9,0-2.848a1.321,1.321,0,0,0-1.206-1.489,1.415,1.415,0,0,0-1.588,1.189,19.726,19.726,0,0,0-.087,3.058c-.009.211.057.471-.27.5s-.443-.132-.438-.46C1303.072,624.034,1303.063,622.939,1303.063,621.843Z" transform="translate(-551.413 -408.309)"/>
    <path id="Trazado_1221" data-name="Trazado 1221" d="M938.431,630.559a2.486,2.486,0,0,1,3.068-2.688,2.548,2.548,0,0,1,1.927,2.484,2.651,2.651,0,0,1-1.806,2.851,2.494,2.494,0,0,1-3.189-2.647Zm.742.07a3.689,3.689,0,0,0,.029.447,1.82,1.82,0,0,0,1.5,1.6,1.663,1.663,0,0,0,1.8-1.12,2.535,2.535,0,0,0-.249-2.45,1.512,1.512,0,0,0-1.622-.659c-.923.167-1.454.941-1.458,2.182Z" transform="translate(-266.729 -415.884)"/>
    <path id="Trazado_1222" data-name="Trazado 1222" d="M1172.43,630.562a2.5,2.5,0,1,1,4.985-.323,2.527,2.527,0,1,1-4.985.323Zm.74.011c.008.153.006.318.026.481a1.816,1.816,0,0,0,1.535,1.624,1.686,1.686,0,0,0,1.786-1.152,2.653,2.653,0,0,0,.012-1.924,1.679,1.679,0,0,0-2.442-.968,2.057,2.057,0,0,0-.917,1.938Z" transform="translate(-449.431 -415.884)"/>
    <path id="Trazado_1223" data-name="Trazado 1223" d="M1207.456,633.269a2.022,2.022,0,0,1-1.893-1.009c-.092-.189-.236-.452.031-.568a.452.452,0,0,1,.661.257,1.7,1.7,0,0,0,2.553.222.785.785,0,0,0-.339-1.225,7.226,7.226,0,0,0-1.369-.372c-1.106-.283-1.542-.707-1.5-1.448.047-.758.654-1.257,1.728-1.341a2.382,2.382,0,0,1,1.63.311,1.3,1.3,0,0,1,.484.643c.059.16.168.381-.084.461a.464.464,0,0,1-.584-.153,1.591,1.591,0,0,0-1.9-.555.684.684,0,0,0-.5.648.566.566,0,0,0,.45.6c.641.2,1.289.388,1.932.584a1.221,1.221,0,0,1,.934,1.03,1.412,1.412,0,0,1-.6,1.433,3.058,3.058,0,0,1-1.634.482Z" transform="translate(-475.205 -415.838)"/>
    <path id="Trazado_1224" data-name="Trazado 1224" d="M1091.823,628.52a2.459,2.459,0,0,1,1.306-.74,1.807,1.807,0,0,1,2.239,1.776c.047,1.055.01,2.114.019,3.171,0,.242-.07.381-.334.388-.284.008-.386-.124-.384-.4q.011-1.449,0-2.9c-.005-.836-.348-1.309-1-1.4a1.4,1.4,0,0,0-1.746,1.009,2.449,2.449,0,0,0-.124.806c0,.8,0,1.6,0,2.406,0,.26-.009.489-.357.474-.324-.014-.374-.233-.364-.495v-.328c0-1.258-.013-2.515,0-3.773,0-.218-.177-.535.245-.6C1091.73,627.843,1091.818,628.091,1091.823,628.52Z" transform="translate(-385.885 -415.828)"/>
    <path id="Trazado_1225" data-name="Trazado 1225" d="M973.6,628.613a1.954,1.954,0,0,1,1.942-.835,1.66,1.66,0,0,1,1.584,1.711c.043,1.075.016,2.153.022,3.229,0,.228-.052.4-.328.4s-.377-.163-.376-.424q.006-1.4,0-2.792c0-1.031-.373-1.47-1.252-1.5a1.391,1.391,0,0,0-1.563,1.44c-.042.855-.01,1.714-.023,2.572,0,.288.118.689-.375.694s-.32-.4-.323-.653q-.026-1.97-.009-3.941c0-.216-.183-.54.247-.6C973.637,627.844,973.521,628.229,973.6,628.613Z" transform="translate(-293.614 -415.83)"/>
    <path id="Trazado_1226" data-name="Trazado 1226" d="M1144.249,621.012v-2.407c0-.254-.03-.521.368-.531s.418.235.417.535c-.006,1.532.011,3.064-.008,4.6a2.241,2.241,0,0,1-2.851,2.4,2.074,2.074,0,0,1-1.418-1.649c-.02-.2.051-.278.223-.291.256-.02.493-.048.6.307a1.247,1.247,0,0,0,1.254,1.018,1.181,1.181,0,0,0,1.3-.927,2.676,2.676,0,0,0,.117-.863Q1144.25,622.107,1144.249,621.012Z" transform="translate(-424.7 -408.271)"/>
    <path id="Trazado_1227" data-name="Trazado 1227" d="M874.866,631.069V633.2c0,.239-.011.449-.326.45s-.4-.152-.4-.449q.016-2.16,0-4.32c0-.286.061-.447.39-.439s.336.2.334.437C874.863,629.611,874.866,630.34,874.866,631.069Z" transform="translate(-216.534 -416.368)"/>
    <path id="Trazado_1228" data-name="Trazado 1228" d="M874.437,618.087c.335-.048.4.14.4.423.007.314-.13.405-.428.41-.331.005-.388-.15-.392-.436C874.018,618.173,874.13,618.04,874.437,618.087Z" transform="translate(-216.439 -408.274)"/>
    <g id="Group_7" data-name="Group 7" transform="translate(589.826 0.268)">
      <path id="Path_1" data-name="Path 1" d="M15.622,183.876,12.306,182.5v21l32.6-7.444Z" transform="translate(0 -8.538)"/>
      <path id="Path_2" data-name="Path 2" d="M59.613,238.808V224.231L32.027,238.808Z" transform="translate(-12.373 -34.722)"/>
      <path id="Path_3" data-name="Path 3" d="M79.673,185.249V168.894H64Z" transform="translate(-32.434 -0.003)"/>
      <path id="Path_4" data-name="Path 4" d="M15.256,240.551,40.881,227.01l-28.575,6.526v7.015Z" transform="translate(0 -36.466)"/>
      <path id="Path_5" data-name="Path 5" d="M28.719,168.891l-16.413,0v2.845l31.822,13.236Z"/>
    </g>
  </g>
</svg>
