<svg xmlns="http://www.w3.org/2000/svg" width="162.58" height="35.465" viewBox="0 0 162.58 35.465">
  <g id="Grupo_1444" data-name="Grupo 1444" transform="translate(-650.947 -465.834)">
    <path id="Trazado_1411" data-name="Trazado 1411" d="M680.867,483.681l4.532,1.732.014.144-5.3,1.38,3.937,3.563-.064.139-4.726-.541-.1.188,2.978,4.184-5.235-1.871,1.8,5.4-4.237-3.209c.2,1.893.382,3.57.581,5.422l-3.613-4.271-1.041,5.35-.128.013-1.923-4.591-.183-.005-1.945,4.538-.131.006-.953-5.113-.194-.047-3.295,3.924-.144-.038.521-4.925-.153-.113-3.905,2.98-.111-.072,1.718-5.218-5.206,1.876,2.969-4.217-.087-.165-4.755.56-.08-.124,3.957-3.595-5.4-1.1,4.617-2.062.032-.2-4.665-2.107,5.415-1.062-3.949-3.532.035-.153,4.991.548-3-4.172.066-.125,5.005,1.731-1.81-5.385,4.069,3.055.172-.068-.522-4.867.149-.08,3.446,4.038,1.015-5.288.153-.027,1.9,4.5.193-.007,2.035-4.771,1.056,5.572,3.44-4.133.137.067-.536,5.15,4.035-3.055.118.066-1.7,5.215,5.066-1.778.076.1-2.871,4.008.076.173,4.786-.53.059.142-3.8,3.406.067.185,4.811.688.05.143-4.319,2.237Zm-22.222,5.729-2.508,3.63a1.148,1.148,0,0,0,.692-.055c.79-.286,1.571-.6,2.368-.859a1.114,1.114,0,0,1,.757-.008c.382.187.25.539.137.868-.355,1.033-.691,2.074-1.034,3.111l.13.1,3.5-2.58-.4,4.411a1.236,1.236,0,0,0,.591-.415c.584-.694,1.146-1.407,1.754-2.079a.866.866,0,0,1,.657-.26c.14.02.3.329.343.532.175.822.3,1.653.459,2.479.054.287.132.57.2.854l.174.012,1.784-4.017,1.781,4.049a32.73,32.73,0,0,0,.822-3.337.893.893,0,0,1,.47-.575c.148-.052.454.146.6.312.721.822,1.412,1.67,2.114,2.51l.166-.065-.425-4.453,3.51,2.583a1.344,1.344,0,0,0-.06-.763c-.275-.817-.583-1.625-.822-2.452a1.007,1.007,0,0,1,.1-.8c.109-.135.5-.124.737-.059.53.149,1.039.374,1.558.563.484.176.97.346,1.455.518l.112-.158-2.509-3.617,4.286.435.172-.257a4.2,4.2,0,0,1-.54-.344c-.653-.564-1.3-1.13-1.931-1.721-.171-.161-.408-.484-.349-.607a1.176,1.176,0,0,1,.643-.56c.821-.26,1.666-.443,2.5-.665.235-.062.461-.156.879-.3l-4.165-1.7,3.791-2.066-.041-.172c-1.036-.154-2.074-.294-3.106-.472-.225-.039-.607-.216-.6-.32a1.134,1.134,0,0,1,.333-.715c.7-.674,1.442-1.307,2.162-1.961a5.131,5.131,0,0,0,.394-.485l-4.437.45,2.52-3.62-.13-.142c-1.011.36-2.016.739-3.038,1.065a.853.853,0,0,1-.725-.1.862.862,0,0,1-.114-.727c.319-1.071.688-2.127,1.039-3.188l-.144-.117-3.5,2.6.381-4.435a32.472,32.472,0,0,0-2.281,2.483.865.865,0,0,1-.691.261c-.169-.036-.325-.348-.4-.566a7.938,7.938,0,0,1-.174-.977c-.144-.76-.295-1.518-.443-2.276l-.184-.019-1.782,4.024-1.767-4.044-.19.056c-.049.211-.106.421-.146.634-.174.913-.326,1.83-.529,2.736a.758.758,0,0,1-.422.474.66.66,0,0,1-.53-.214c-.407-.435-.773-.909-1.16-1.364-.349-.411-.7-.816-1.057-1.223l-.169.07c.134,1.416.268,2.831.418,4.412l-3.493-2.552a1.272,1.272,0,0,0,.055.713c.3.9.624,1.8.9,2.7a.639.639,0,0,1-.1.553.759.759,0,0,1-.614.165c-.781-.236-1.543-.534-2.314-.8-.292-.1-.589-.191-.883-.287l-.083.146,2.5,3.591-4.269-.4-.066.178c.769.684,1.557,1.349,2.3,2.065a1.27,1.27,0,0,1,.4.859c-.01.153-.48.336-.766.4-.978.223-1.966.4-2.95.593l-.035.167,3.915,1.878-4.1,1.91c.391.11.572.173.758.212.866.181,1.739.333,2.6.546a.959.959,0,0,1,.6.465c.061.15-.118.472-.279.625-.655.626-1.347,1.213-2.02,1.821-.147.133-.272.29-.408.436l.083.143Z"/>
    <path id="Trazado_1412" data-name="Trazado 1412" d="M824.227,523.529c-.577.172-.79.045-.871-.468-.216-1.372-.5-2.734-.752-4.1a.49.49,0,0,0-.226-.327l-2.311,5.235-2.273-5.2-.177.015c-.062.243-.137.483-.183.729-.234,1.237-.468,2.475-.684,3.716-.084.483-.326.572-.814.362l1.385-7.46.167-.046,2.483,5.881.194-.015,2.607-6.188C823.281,518.413,823.755,520.978,824.227,523.529Z" transform="translate(-121.201 -36.604)"/>
    <path id="Trazado_1413" data-name="Trazado 1413" d="M911.339,522.525l2.485-5.878.155.019,1.4,7.476c-.481.248-.728.161-.818-.355-.221-1.262-.462-2.521-.7-3.781-.04-.21-.1-.416-.145-.624l-.2-.049-2.283,5.213-2.286-5.228-.175.012c-.176.913-.354,1.826-.526,2.739-.1.543-.212,1.084-.285,1.631-.069.512-.294.711-.875.476l1.4-7.562.143-.036,2.5,5.949Z" transform="translate(-188.158 -37.276)"/>
    <path id="Trazado_1414" data-name="Trazado 1414" d="M989.982,518.708q0,.747,0,1.494c0,1.216.013,2.432-.019,3.647,0,.165-.232.324-.356.485-.12-.147-.343-.294-.344-.442-.019-2.321-.009-4.642,0-6.964,0-.059.046-.117.109-.266l5.487,5.893.176-.079q0-1.21,0-2.421c0-.951-.014-1.9.018-2.852,0-.14.232-.273.356-.409.125.135.359.269.36.406.022,2.405.016,4.811.016,7.447l-5.582-6.01Z" transform="translate(-248.519 -37.34)"/>
    <path id="Trazado_1415" data-name="Trazado 1415" d="M1211.552,522.546q0-1.913,0-3.827a12.518,12.518,0,0,1,.015-1.325c.019-.182.177-.458.321-.5.37-.094.41.2.41.495q0,2.588,0,5.176a9.986,9.986,0,0,1-.14,2l-5.489-5.891-.192.074q0,.809,0,1.619c0,1.195.011,2.389-.016,3.583,0,.157-.2.309-.308.464-.131-.135-.374-.269-.375-.405-.023-2.384-.017-4.768.128-7.238l5.449,5.859Z" transform="translate(-407.572 -37.419)"/>
    <path id="Trazado_1416" data-name="Trazado 1416" d="M955.733,520.593a3.84,3.84,0,0,1-3.874,3.879,3.929,3.929,0,0,1,.107-7.855A3.833,3.833,0,0,1,955.733,520.593Zm-.742-.082a3.157,3.157,0,0,0-3.045-3.2,3.207,3.207,0,0,0-3.129,3.2,3.256,3.256,0,0,0,3.1,3.248A3.193,3.193,0,0,0,954.991,520.511Z" transform="translate(-218.263 -37.305)"/>
    <path id="Trazado_1417" data-name="Trazado 1417" d="M1243.084,516.736a18.715,18.715,0,0,1,3.194.4c1.586.481,2.384,2.1,2.21,4.025a3.5,3.5,0,0,1-2.81,3.131,12.121,12.121,0,0,1-2.181.086.552.552,0,0,1-.4-.365C1243.077,521.657,1243.084,519.3,1243.084,516.736Zm.752,3.894v1.722c0,1.486.142,1.6,1.629,1.275.065-.014.129-.03.193-.049a3.1,3.1,0,0,0,2.042-3.686,3,3,0,0,0-3.486-2.331.642.642,0,0,0-.359.484C1243.817,518.907,1243.837,519.769,1243.835,520.63Z" transform="translate(-434.984 -37.393)"/>
    <path id="Trazado_1418" data-name="Trazado 1418" d="M1043.865,520.886c0-1.062.012-2.124-.006-3.185-.007-.42.129-.611.57-.584.573.035,1.154-.015,1.721.057a3.535,3.535,0,0,1,3.138,3.731,3.575,3.575,0,0,1-3.158,3.727c-.545.068-1.1.022-1.655.055-.457.027-.627-.156-.617-.616C1043.881,523.009,1043.865,521.947,1043.865,520.886Zm.692-.025c0,.862-.023,1.724.019,2.584.009.188.239.51.389.523a3.166,3.166,0,0,0,2.486-.665,3.2,3.2,0,0,0,.812-3.745,3,3,0,0,0-3.271-1.717.684.684,0,0,0-.414.5C1044.533,519.18,1044.558,520.021,1044.557,520.86Z" transform="translate(-288.632 -37.67)"/>
    <path id="Trazado_1419" data-name="Trazado 1419" d="M860.475,515.956,863.7,523.7c-.609.291-.828,0-1.018-.471-.636-1.571-.646-1.567-2.207-1.567-1.655,0-1.668-.005-2.286,1.554-.19.479-.4.784-1.031.489Zm.089,2.043-.229.026-1.182,2.889h2.595Z" transform="translate(-151.481 -36.82)"/>
    <path id="Trazado_1420" data-name="Trazado 1420" d="M1178.658,520.136c0,.8.023,1.593-.005,2.387a2.585,2.585,0,0,1-5.137.1c-.065-1.678-.031-3.36-.01-5.04,0-.141.227-.279.349-.418.126.161.357.321.36.484.028,1.547.009,3.095.023,4.642a1.716,1.716,0,0,0,.937,1.635,1.834,1.834,0,0,0,1.951-.095,1.6,1.6,0,0,0,.771-1.387c.023-1.414.037-2.828.054-4.242a1.964,1.964,0,0,1,.017-.592,1.693,1.693,0,0,1,.35-.443c.115.148.323.292.329.444.033.839.016,1.68.016,2.52Z" transform="translate(-383.852 -37.711)"/>
    <path id="Trazado_1421" data-name="Trazado 1421" d="M1078.361,517.113a12.18,12.18,0,0,1,1.325.015c.184.02.349.209.523.321-.167.119-.328.328-.5.34-.639.042-1.282.035-1.923.013-.436-.015-.561.168-.573.588-.051,1.784-.063,1.784,1.685,1.784a3.032,3.032,0,0,1,.726.014,1.936,1.936,0,0,1,.52.33c-.165.121-.324.334-.5.346a17.755,17.755,0,0,1-1.856.013c-.431-.015-.591.154-.575.584.024.662.022,1.327,0,1.99-.013.409.163.548.552.539.663-.014,1.328-.022,1.989.016.155.009.3.211.45.325-.153.113-.3.319-.459.324-.927.031-1.858.038-2.784-.006a.653.653,0,0,1-.452-.449c-.03-2.212-.016-4.423-.026-6.635,0-.356.16-.463.483-.455C1077.432,517.122,1077.9,517.114,1078.361,517.113Z" transform="translate(-312.601 -37.662)"/>
    <path id="Trazado_1422" data-name="Trazado 1422" d="M1104.924,518.068a3.239,3.239,0,0,0-.411-.479,1.325,1.325,0,0,0-1.923.293c-.4.6-.207,1.225.537,1.643.615.346,1.278.612,1.866,1a1.951,1.951,0,0,1,.66,2.523,2.3,2.3,0,0,1-2.469,1.379,2.064,2.064,0,0,1-1.829-1.909l.569-.149c.088.183.156.341.238.493a1.527,1.527,0,0,0,1.573.868,1.6,1.6,0,0,0,1.338-1.3,1.4,1.4,0,0,0-.835-1.512c-.5-.279-1.032-.5-1.54-.769a1.747,1.747,0,0,1-1.029-1.9,1.8,1.8,0,0,1,1.353-1.553,2.173,2.173,0,0,1,2.241.6C1105.638,517.729,1105.394,517.9,1104.924,518.068Z" transform="translate(-330.87 -37.292)"/>
    <path id="Trazado_1423" data-name="Trazado 1423" d="M1149.51,520.918c0-1.061.015-2.122-.009-3.183-.01-.445.117-.647.6-.627.728.03,1.459-.015,2.187.025.17.009.329.229.493.352-.157.107-.306.29-.473.308a11.9,11.9,0,0,1-1.258.017,1.057,1.057,0,0,0-.33.009c-.911.317-.32,1.076-.447,1.621-.073.313-.122.751.458.738a13.811,13.811,0,0,1,1.523.019c.151.014.286.222.428.341-.145.115-.281.313-.438.331a6.025,6.025,0,0,1-1.257.011c-.6-.058-.768.2-.742.767.039.838.029,1.681-.008,2.519-.007.17-.228.331-.35.5-.124-.164-.351-.325-.356-.493C1149.5,523.085,1149.511,522,1149.51,520.918Z" transform="translate(-366.238 -37.665)"/>
    <path id="Trazado_1424" data-name="Trazado 1424" d="M893.427,520.967c0,1.061.018,2.123-.017,3.182-.006.191-.236.374-.362.56-.127-.183-.362-.365-.364-.55q-.039-3.216,0-6.431c0-.187.233-.37.358-.555.129.182.363.36.369.546C893.446,518.8,893.428,519.885,893.427,520.967Z" transform="translate(-177.566 -37.714)"/>
    <path id="Trazado_1425" data-name="Trazado 1425" d="M1028.252,524.641c-.512.2-.709.036-.705-.488.013-2.138,0-4.278.021-6.416a.686.686,0,0,1,.361-.531c.4-.1.372.238.372.506q0,3.274,0,6.549A3.083,3.083,0,0,1,1028.252,524.641Z" transform="translate(-276.651 -37.724)"/>
    <path id="Trazado_1426" data-name="Trazado 1426" d="M675.053,507.62l1.914-2.683-3.5.38,2.8-2.507-3.407-.692-.03-.129,3.024-1.369-3.178-1.477,3.541-.734-2.71-2.5,3.234.373.105-.148-1.793-2.558.077-.11,3.232,1.128-1.152-3.557,2.81,2.11c-.119-1.244-.221-2.3-.339-3.54l2.4,2.817.669-3.473.125-.031,1.229,2.873.179.012,1.258-2.9.125.021.678,3.47,2.416-2.859-.379,3.6,2.656-2.01.11.069-1.119,3.39,3.437-1.181-1.9,2.7.086.16,2.969-.31.075.126-2.514,2.316,3.5.525-2.924,1.519-.009.209,3.1,1.192-3.692.963,2.757,2.51-3.479-.392,2.057,2.923-3.45-1.239,1.158,3.577-2.811-2.1.386,3.6-2.421-2.854-.689,3.46-.132.022-1.22-2.883-.187-.037-1.24,2.9-.132-.034-.618-3.217-.176-.1-2.278,2.677c.124-1.237.229-2.284.334-3.331l-.146-.1-2.658,1.989,1.165-3.574-3.209,1.146ZM677.7,504.5l-1.611,2.334.135.151c.573-.208,1.141-.43,1.721-.615a3.176,3.176,0,0,1,.683-.068,2.885,2.885,0,0,1-.017.728c-.173.618-.394,1.222-.6,1.832l.155.091,2.248-1.609-.246,2.821.184.064c.409-.48.806-.971,1.232-1.435a2.836,2.836,0,0,1,.551-.373,2.568,2.568,0,0,1,.319.59c.152.629.261,1.268.387,1.9l.2.021,1.151-2.578,1.142,2.584.193-.019c.123-.635.229-1.275.377-1.9a2.627,2.627,0,0,1,.317-.6,2.288,2.288,0,0,1,.557.339c.433.477.833.985,1.246,1.481l.159-.087c-.075-.909-.15-1.818-.234-2.841l2.254,1.648.142-.087c-.19-.572-.4-1.14-.563-1.72a4.264,4.264,0,0,1-.072-.81,4.221,4.221,0,0,1,.851.08c.537.161,1.058.378,1.585.571l.131-.166-1.606-2.329,2.766.249.074-.178c-.453-.407-.919-.8-1.352-1.227a3.129,3.129,0,0,1-.392-.621,3.569,3.569,0,0,1,.658-.374c.614-.2,1.241-.352,2.045-.574l-2.742-1.166,2.39-1.329-.031-.188c-.6-.084-1.2-.152-1.793-.26a3.139,3.139,0,0,1-.634-.263,2.872,2.872,0,0,1,.37-.575c.482-.463.992-.9,1.491-1.344l-.09-.186-2.74.253,1.576-2.323-.111-.135c-.574.2-1.141.429-1.723.6a2.724,2.724,0,0,1-.728.016,3.069,3.069,0,0,1,.04-.683c.178-.625.394-1.238.595-1.856l-.13-.081-2.258,1.626.22-2.794a10.15,10.15,0,0,0-1.4,1.365,2.378,2.378,0,0,1-.558.336,2.675,2.675,0,0,1-.313-.6c-.147-.627-.252-1.263-.373-1.9l-.193-.015-1.141,2.582-1.167-2.579-.187.022c-.121.616-.223,1.237-.373,1.846a2.969,2.969,0,0,1-.342.649,3,3,0,0,1-.555-.383c-.423-.457-.817-.94-1.222-1.413l-.178.086c.074.882.148,1.765.233,2.787l-2.251-1.623-.14.113c.206.62.426,1.237.609,1.864a2.782,2.782,0,0,1,.031.666,2.678,2.678,0,0,1-.675-.029c-.6-.182-1.189-.4-1.782-.612l-.1.135,1.566,2.315-2.733-.232-.06.192c.456.407.925.8,1.362,1.229a3.192,3.192,0,0,1,.394.607,3.08,3.08,0,0,1-.649.346c-.594.155-1.2.262-1.8.388l0,.178,2.468,1.2-2.5,1.215a11.825,11.825,0,0,0,1.891.544,2.47,2.47,0,0,1,.585.337,2.747,2.747,0,0,1-.353.567c-.46.45-.948.87-1.425,1.3l.106.166Z" transform="translate(-15.956 -16.952)"/>
    <path id="Trazado_1427" data-name="Trazado 1427" d="M708.4,525.951c-.658.312-.721-.106-.79-.479-.238-1.277-.464-2.556-.7-3.835l-.184-.055-2.073,4.7-2.047-4.651-.171.014c-.059.218-.132.434-.174.655q-.307,1.628-.6,3.259c-.067.373-.18.652-.741.41l1.243-6.707.165-.045,2.226,5.276.19-.018L707,519.151l.139,0Z" transform="translate(-36.717 -39.167)"/>
  </g>
</svg>
