<svg xmlns="http://www.w3.org/2000/svg" width="176" height="59.209" viewBox="0 0 176 59.209">
  <g id="Grupo_1445" data-name="Grupo 1445" transform="translate(-575.477 -269.539)">
    <g id="Grupo_1473" data-name="Grupo 1473" transform="translate(0 -141)">
      <path id="Trazado_1428" data-name="Trazado 1428" d="M597.2,462.766a3.679,3.679,0,0,1-.2-1.344,26.884,26.884,0,0,1,7.332-20.986,27,27,0,0,1,20.707-8.465A27.055,27.055,0,0,1,650.078,452.6a20.985,20.985,0,0,1,.518,2.8.444.444,0,0,1-.067-.083,22.614,22.614,0,0,0-6.551-8.266c-.142-.113-.269-.255-.48-.186-.032-.045-.066-.088-.095-.134a22.991,22.991,0,0,0-22.832-10.6,21.863,21.863,0,0,0-9.28,3.544,23.379,23.379,0,0,0-10.236,22.889,22.149,22.149,0,0,0,2.9,8.329c.078.135.216.259.158.446a.722.722,0,0,1-.417-.239,24.169,24.169,0,0,1-4.61-5.012A34.716,34.716,0,0,1,597.2,462.766Z" transform="translate(-16.539 -16.514)" fill="#1a1818"/>
      <path id="Trazado_1429" data-name="Trazado 1429" d="M598.134,513.046a34.694,34.694,0,0,0,1.891,3.319,24.172,24.172,0,0,0,4.61,5.011.722.722,0,0,0,.417.239h-.015a.114.114,0,0,0,.109.11l0,0c0,.045.022.078.075.074.115.165.234.327.344.494a21.433,21.433,0,0,0,2.977,3.648,22.7,22.7,0,0,0,19.275,6.567,21.572,21.572,0,0,0,9.615-3.576,22.938,22.938,0,0,0,7.133-7.464,23.324,23.324,0,0,0,3.109-15.382,22.808,22.808,0,0,0-3.242-8.951c.211-.069.338.073.48.186a22.613,22.613,0,0,1,6.55,8.266.447.447,0,0,0,.067.083,27.157,27.157,0,0,1-18.818,29.711,26.617,26.617,0,0,1-10.074,1.059,26.146,26.146,0,0,1-15.1-6.217,26.687,26.687,0,0,1-9.2-15.723A6.377,6.377,0,0,1,598.134,513.046Z" transform="translate(-17.477 -66.793)" fill="#1a1818"/>
      <path id="Trazado_1430" data-name="Trazado 1430" d="M1213.21,519.177c-.13.41-.257.821-.391,1.23-.739,2.256-1.6,4.469-2.391,6.7-.1.28-.223.43-.545.393-.361-.041-.781.118-1.076-.061s-.3-.64-.41-.979c-.752-2.269-1.538-4.528-2.1-6.856-.02-.082,0-.186-.13-.264a1.729,1.729,0,0,0-.068.562c-.085,2.411-.237,4.818-.384,7.225-.03.49-.026.491-.532.493q-.411,0-.823,0c-.528,0-.532,0-.5-.553.031-.529.071-1.057.108-1.586q.263-3.828.527-7.656c.026-.378.032-.384.415-.387.621-.005,1.244.017,1.864-.009a.5.5,0,0,1,.584.408c.767,2.264,1.648,4.49,2.193,6.826a1.015,1.015,0,0,0,.056.142c.192-.019.165-.182.2-.291.631-2.293,1.571-4.476,2.387-6.7a.484.484,0,0,1,.555-.381c.62.026,1.243,0,1.864.009.39,0,.394.01.416.4q.112,1.943.219,3.886.151,2.709.3,5.419c.027.477.033.478-.447.482-.329,0-.658,0-.987,0-.564.006-.488-.036-.506-.464-.083-1.88-.169-3.76-.249-5.641-.033-.777-.053-1.554-.079-2.331Z" transform="translate(-484.743 -82.462)" fill="#1a1818"/>
      <path id="Trazado_1431" data-name="Trazado 1431" d="M1308.378,519.711c0,.152-.008.307,0,.461.133,2.338.051,4.678.071,7.018,0,.435-.007.437-.462.441-.365,0-.731-.006-1.1,0-.213,0-.3-.086-.286-.293.007-.109,0-.219,0-.329v-8.939c0-.11.006-.22,0-.329-.013-.2.066-.3.282-.3.6.007,1.207.011,1.81,0a.462.462,0,0,1,.433.266,65.725,65.725,0,0,1,4.408,7c.035.073.056.179.151.174,0-.688,0-1.373,0-2.057-.007-1.663-.012-3.327-.027-4.99,0-.264.054-.41.362-.39a8.855,8.855,0,0,0,1.1,0c.3-.018.366.112.365.384q-.01,4.716,0,9.433c0,.281-.083.39-.373.377-.456-.02-.915-.022-1.371,0a.534.534,0,0,1-.523-.306c-1.583-2.478-3.319-4.86-4.665-7.485C1308.524,519.786,1308.5,519.706,1308.378,519.711Zm5.4,5.322-.018.038.028,0Z" transform="translate(-564.01 -82.467)" fill="#1a1818"/>
      <path id="Trazado_1432" data-name="Trazado 1432" d="M963.473,522.542q0-2.247,0-4.494c0-.65-.019-.576.6-.579q.439,0,.877,0c.482,0,.487,0,.488.468,0,.95,0,1.9,0,2.85,0,.109.009.22,0,.328-.027.275.07.4.366.386.328-.019.657,0,.986,0,1.059,0,2.119-.008,3.179,0,.284,0,.381-.091.378-.377-.012-1.059-.006-2.119,0-3.179,0-.473.005-.475.479-.477.4,0,.8,0,1.206,0,.179,0,.274.069.269.256,0,.109,0,.219,0,.329v8.988c0,.109-.005.219,0,.329.011.213-.09.29-.3.285-.42-.008-.84,0-1.26,0-.386-.005-.4-.01-.4-.395-.005-1.059,0-2.119,0-3.179,0-.164,0-.329,0-.493-.008-.408-.009-.415-.43-.416q-2.028-.005-4.055,0c-.407,0-.414.01-.415.436,0,1.206,0,2.411,0,3.617,0,.422-.008.426-.416.43s-.8-.011-1.206.005c-.261.01-.355-.084-.351-.347.012-.785,0-1.571,0-2.357Z" transform="translate(-299.308 -82.488)" fill="#1a1818"/>
      <path id="Trazado_1433" data-name="Trazado 1433" d="M1170.975,522.474c0,.1.066.14.129.179a2.264,2.264,0,0,1,.994,1.269c.353,1.109.668,2.229,1.011,3.387-.617.069-1.195.018-1.77.034-.221.006-.267-.166-.322-.314a17.758,17.758,0,0,1-.572-1.942,5.508,5.508,0,0,0-.286-.884,1.594,1.594,0,0,0-1.444-1.009c-.346-.025-.695,0-1.041-.019-.277-.018-.339.1-.336.353.01,1.042,0,2.083,0,3.125,0,.128-.008.256,0,.384.018.245-.1.315-.33.309-.438-.01-.878-.012-1.316,0-.241.007-.323-.09-.314-.322.012-.31,0-.621,0-.932v-8.169c0-.128,0-.256,0-.384-.006-.178.069-.258.253-.278a15.135,15.135,0,0,1,4.746-.007,3.684,3.684,0,0,1,.83.275,2.488,2.488,0,0,1,1.534,2.165,2.543,2.543,0,0,1-1.222,2.467C1171.348,522.281,1171.153,522.374,1170.975,522.474Zm-3.633-2.291c0,.273,0,.546,0,.819.012.885-.111.744.743.757a4.179,4.179,0,0,0,1.72-.209,1.451,1.451,0,0,0,1-1.525,1.4,1.4,0,0,0-1.138-1.354,6.064,6.064,0,0,0-2.061-.078c-.214.011-.265.144-.263.333C1167.346,519.346,1167.342,519.764,1167.342,520.183Z" transform="translate(-455.067 -82.18)" fill="#1a1818"/>
      <path id="Trazado_1434" data-name="Trazado 1434" d="M1019.477,520.867q0,1.452,0,2.9a4.048,4.048,0,0,1-.151.972,3.794,3.794,0,0,1-3.425,3,6.441,6.441,0,0,1-2.072-.062,3.512,3.512,0,0,1-2.82-2.668,6.44,6.44,0,0,1-.236-1.785q0-2.658,0-5.316c0-.453.006-.456.442-.46.365,0,.731,0,1.1,0,.42.005.428.009.43.422,0,1.224,0,2.448,0,3.672,0,.712,0,1.425.02,2.137a3.162,3.162,0,0,0,.4,1.466,2.077,2.077,0,0,0,1.995,1.1,2.108,2.108,0,0,0,1.984-1.13,4.281,4.281,0,0,0,.415-2.073c.007-1.644,0-3.288,0-4.932,0-.128.007-.256,0-.384-.01-.211.084-.289.293-.284.438.01.878.017,1.315,0,.272-.012.344.1.342.351-.009,1.023,0,2.046,0,3.069Z" transform="translate(-335.797 -82.472)" fill="#1a1818"/>
      <path id="Trazado_1435" data-name="Trazado 1435" d="M1269.111,527.626c-.581,0-1.147-.013-1.712.006a.385.385,0,0,1-.437-.305c-.26-.76-.545-1.512-.8-2.275a.473.473,0,0,0-.542-.392c-.95.024-1.9.018-2.852,0a.4.4,0,0,0-.466.336c-.236.768-.509,1.523-.752,2.289a.4.4,0,0,1-.463.343c-.528-.023-1.058-.007-1.571-.007-.122-.171-.03-.3.016-.434,1.1-3.116,2.207-6.23,3.295-9.35a.5.5,0,0,1,.586-.408c.566.026,1.134.026,1.7,0a.476.476,0,0,1,.547.388c.63,1.772,1.28,3.536,1.923,5.3q.721,1.982,1.438,3.965A.735.735,0,0,1,1269.111,527.626Zm-3.455-4.427-1.508-4.282c-.36,1.525-.911,2.852-1.345,4.189a.278.278,0,0,0,.24.093Z" transform="translate(-527.642 -82.462)" fill="#1a1818"/>
      <path id="Trazado_1436" data-name="Trazado 1436" d="M1129.288,522.553q0-2.3,0-4.6c0-.475.006-.48.479-.48q2.8,0,5.59,0c.421,0,.432.008.428.417,0,.364.152.828-.06,1.066-.242.272-.725.1-1.1.1-.986.014-1.973,0-2.959.006-.431,0-.437.009-.442.417q-.009.849,0,1.7c0,.421.01.429.424.431,1.078,0,2.156,0,3.233,0,.128,0,.256,0,.384,0,.185-.008.265.079.262.261,0,.292,0,.585,0,.877-.007.422-.01.429-.419.43-1.078,0-2.156,0-3.233,0-.128,0-.256,0-.384,0-.182-.006-.267.075-.267.259q0,1.178,0,2.356c0,.235.143.258.325.257.621,0,1.242,0,1.863,0,.731,0,1.461,0,2.192,0,.4,0,.413.01.41.384s.157.859-.064,1.117-.722.095-1.1.1c-1.644.011-3.288.007-4.932,0-.659,0-.63.094-.63-.6Q1129.288,524.8,1129.288,522.553Z" transform="translate(-427.224 -82.488)" fill="#1a1818"/>
      <path id="Trazado_1437" data-name="Trazado 1437" d="M885.373,524.941a7.1,7.1,0,0,0,2.037.643,3.833,3.833,0,0,0,1.522-.062,1.648,1.648,0,0,0,.633-.313,1.2,1.2,0,0,0,.066-1.827,2.4,2.4,0,0,0-.845-.495c-.411-.151-.827-.286-1.24-.43a5.275,5.275,0,0,1-1.366-.683,2.617,2.617,0,0,1-.109-4.232,3.342,3.342,0,0,1,1.208-.625,6.611,6.611,0,0,1,3.985.163c.253.086.369.218.24.484a.969.969,0,0,0-.038.1c-.121.342-.113.812-.384,1s-.624-.17-.956-.243a5.869,5.869,0,0,0-1.631-.141,1.809,1.809,0,0,0-.973.328,1.035,1.035,0,0,0-.076,1.689,2.353,2.353,0,0,0,.709.408c.391.151.787.291,1.183.429a7.354,7.354,0,0,1,1.434.672,2.812,2.812,0,0,1,.023,4.674,4.219,4.219,0,0,1-1.623.625,7.122,7.122,0,0,1-3.821-.377c-.476-.186-.484-.2-.337-.674A5.848,5.848,0,0,1,885.373,524.941Z" transform="translate(-238.719 -81.883)" fill="#1a1818"/>
      <path id="Trazado_1438" data-name="Trazado 1438" d="M1058.347,527.219a7.808,7.808,0,0,1-3.021-.522c-.266-.107-.375-.253-.265-.541.144-.373.19-.778.363-1.143a4.49,4.49,0,0,1,1.064.356,4.71,4.71,0,0,0,2.536.159,1.275,1.275,0,0,0,1.06-1.386,1.132,1.132,0,0,0-.551-.9,4.63,4.63,0,0,0-1.3-.575,6.517,6.517,0,0,1-2.031-.928,2.561,2.561,0,0,1-.946-2.919,2.694,2.694,0,0,1,1.078-1.411,3.686,3.686,0,0,1,1.406-.585,6.656,6.656,0,0,1,3.56.253c.392.139.389.151.267.549-.005.017-.013.034-.02.051-.131.339-.117.814-.387.994s-.625-.172-.958-.247a5.809,5.809,0,0,0-1.631-.141,1.779,1.779,0,0,0-.972.33,1.034,1.034,0,0,0-.034,1.723,3.2,3.2,0,0,0,.92.478c.394.143.792.278,1.187.42a6.456,6.456,0,0,1,1.178.577,2.814,2.814,0,0,1-.024,4.705A4.88,4.88,0,0,1,1058.347,527.219Z" transform="translate(-369.93 -81.893)" fill="#1a1818"/>
      <path id="Trazado_1439" data-name="Trazado 1439" d="M925.51,527.229a7.452,7.452,0,0,1-2.288-.275,4.673,4.673,0,0,1-3.537-4.029,5.119,5.119,0,0,1,2.826-5.547,6.982,6.982,0,0,1,3.35-.661,6.8,6.8,0,0,1,2.205.363c.349.131.347.134.249.51-.009.035-.013.073-.025.107-.116.325-.083.781-.337.956-.234.161-.595-.146-.91-.209a5.766,5.766,0,0,0-2.924.082,3.336,3.336,0,0,0-2.418,3.117,4.49,4.49,0,0,0,.058,1.2,3.423,3.423,0,0,0,3,2.711,6.836,6.836,0,0,0,2.87-.226c.36-.1.36-.1.453.27.066.266.122.534.2.8.07.245-.018.372-.253.448a8.046,8.046,0,0,1-1.659.339C926.045,527.215,925.715,527.219,925.51,527.229Z" transform="translate(-265.482 -81.906)" fill="#1a1818"/>
      <path id="Trazado_1440" data-name="Trazado 1440" d="M942.1,577.665a1.479,1.479,0,0,0-.066.572c-.091,1.568-.174,3.137-.261,4.705-.022.394.067.445-.467.45-.894.008-.879.014-.813-.911.138-1.931.259-3.863.384-5.8.031-.486.024-.49.491-.5.365,0,.731.012,1.1-.005a.416.416,0,0,1,.486.321c.49,1.49,1.091,2.943,1.451,4.475.032.138.084.271.129.412a.467.467,0,0,0,.168-.3c.421-1.554,1.063-3.028,1.614-4.536a.478.478,0,0,1,.558-.379c.346.024.694,0,1.041.007.414.005.42.008.448.412q.095,1.394.178,2.789c.07,1.2.134,2.407.2,3.611.021.377.019.387-.384.385-.308,0-.686.124-.905-.057s-.1-.582-.116-.885c-.082-1.623-.15-3.247-.225-4.906a.791.791,0,0,0-.2.423c-.531,1.689-1.184,3.335-1.767,5.006a.462.462,0,0,1-.52.351c-.712,0-.712.011-.935-.669-.529-1.612-1.091-3.214-1.491-4.865C942.178,577.734,942.18,577.67,942.1,577.665Z" transform="translate(-281.561 -127.781)" fill="#1a1818"/>
      <path id="Trazado_1441" data-name="Trazado 1441" d="M1093.354,523.4q0,1.865,0,3.73c0,.645-.043.515-.546.522q-.494.007-.987,0c-.4-.005-.41-.008-.413-.434,0-.8,0-1.609,0-2.414q0-2.633,0-5.266c0-.451-.007-.457-.449-.459-.75,0-1.5,0-2.249,0-.613,0-.55.015-.552-.577,0-.256,0-.512,0-.768,0-.18.065-.275.255-.265.109.006.219,0,.329,0h7.3c.11,0,.22.006.329,0,.185-.011.266.071.264.256,0,.347-.009.695,0,1.042.008.24-.095.317-.326.315-.75-.009-1.5,0-2.249,0-.128,0-.256.008-.384,0-.233-.016-.324.083-.321.318.009.64,0,1.28,0,1.92Q1093.353,522.356,1093.354,523.4Z" transform="translate(-395.492 -82.486)" fill="#1a1818"/>
      <path id="Trazado_1442" data-name="Trazado 1442" d="M1318.386,474.218c.011.232.03.464.031.7q.008,2.165.007,4.33c0,.392-.01.406-.388.4-1.116-.013-.9.154-.909-.865-.013-1.9,0-3.8,0-5.7,0-.128,0-.256,0-.384-.006-.185.081-.262.264-.261.384,0,.768.01,1.151,0a.467.467,0,0,1,.429.281,48.1,48.1,0,0,1,3.042,4.811c.02.041.033.11.151.083,0-.175.008-.364,0-.553-.066-1.388-.029-2.776-.035-4.164,0-.446.008-.446.453-.454.834-.014.834-.014.834.842q0,2.85,0,5.7c0,.128-.007.256,0,.384.01.206-.073.309-.288.287a.878.878,0,0,0-.11,0c-1.064.03-1.064.03-1.644-.86-.983-1.511-2.021-2.988-2.854-4.594Z" transform="translate(-572.117 -47.747)" fill="#1a1818"/>
      <path id="Trazado_1443" data-name="Trazado 1443" d="M1286.37,477.466c-.066-1.47-.028-2.948-.038-4.426,0-.128.007-.256,0-.384-.013-.212.083-.3.291-.29s.4,0,.6,0c.4.009.411.011.411.44q0,2.521,0,5.042c0,.438,0,.877,0,1.315,0,.4-.009.4-.38.414-1.094.04-1.1.042-1.692-.873-.992-1.526-2.036-3.018-2.965-4.627,0,.152,0,.3,0,.455q.014,2.274.026,4.548c0,.491,0,.491-.458.5-.832.013-.832.013-.832-.842q0-2.85,0-5.7c0-.128,0-.256,0-.384-.006-.208.09-.3.3-.287a.4.4,0,0,0,.055,0c1.255-.066,1.26-.069,1.964.994a36.81,36.81,0,0,1,2.531,4.032C1286.2,477.434,1286.227,477.5,1286.37,477.466Z" transform="translate(-544.517 -47.679)" fill="#1a1818"/>
      <path id="Trazado_1444" data-name="Trazado 1444" d="M1149.031,477.514v-3.889c0-.146-.012-.293,0-.438.026-.266-.14-.638.085-.776.3-.185.708-.063,1.07-.056.111,0,.148.092.153.19s0,.183,0,.274q0,3.125,0,6.249c0,.478,0,.478-.474.485-1.015.014-1.02.017-1.559-.814a52.764,52.764,0,0,1-2.938-4.757.764.764,0,0,0-.066.455c.007,1.553.02,3.106.026,4.659,0,.45-.006.461-.443.455-.992-.013-.84.151-.845-.825-.009-1.882,0-3.764,0-5.646,0-.128.008-.256,0-.384-.017-.249.073-.387.343-.355.018,0,.036,0,.055,0a3.7,3.7,0,0,1,1.193.051c.362.139.5.6.719.935a36,36,0,0,1,2.535,4.031A.976.976,0,0,0,1149.031,477.514Z" transform="translate(-438.604 -47.652)" fill="#1a1818"/>
      <path id="Trazado_1445" data-name="Trazado 1445" d="M1322.889,581.441c-.139-1.571-.071-3.1-.088-4.624,0-.11.009-.22,0-.329-.024-.249.057-.353.331-.365.982-.044.981-.055.981.925q0,2.879,0,5.758c0,.519-.01.469-.487.536a1.418,1.418,0,0,1-1.568-.834c-.934-1.547-2.005-3.01-2.851-4.613-.014-.027-.046-.045-.13-.124,0,.2,0,.352,0,.5.01,1.536.023,3.071.029,4.606,0,.442-.007.453-.452.447-.993-.012-.841.148-.845-.826-.008-1.9,0-3.8,0-5.7,0-.128.005-.256,0-.384-.009-.213.1-.3.3-.285a.456.456,0,0,0,.055,0c1.266-.07,1.271-.073,1.974.983a34.4,34.4,0,0,1,2.6,4.183C1322.757,581.341,1322.811,581.369,1322.889,581.441Z" transform="translate(-572.646 -127.723)" fill="#1a1818"/>
      <path id="Trazado_1446" data-name="Trazado 1446" d="M1153.23,581.247c0-.135.005-.289,0-.443-.058-1.425-.03-2.85-.034-4.276,0-.421.008-.433.422-.43,1.022.008.844-.119.848.825.01,1.919,0,3.838,0,5.757,0,.128,0,.256,0,.384,0,.157-.068.234-.229.232-.347,0-.695-.008-1.041,0-.234.007-.306-.17-.4-.319-1.069-1.657-2.221-3.262-3.144-5.011a1.3,1.3,0,0,0-.109-.144c-.132.106-.072.237-.072.348.007,1.571.021,3.143.026,4.714,0,.4-.008.4-.38.411-.928.032-.928.032-.928-.908q0-2.906,0-5.812c0-.475.011-.427.478-.492a1.655,1.655,0,0,1,1.847.949c.835,1.412,1.863,2.708,2.594,4.188C1153.129,581.266,1153.15,581.283,1153.23,581.247Z" transform="translate(-441.803 -127.688)" fill="#1a1818"/>
      <path id="Trazado_1447" data-name="Trazado 1447" d="M1179.72,475.918c0-1.041.008-2.082-.005-3.124,0-.286.06-.417.378-.447a13.461,13.461,0,0,1,3.494.017c.144.024.285.061.426.1a3.543,3.543,0,0,1,.268,6.71,8.375,8.375,0,0,1-3.294.4c-.4-.014-.9.093-1.167-.143s-.065-.76-.1-1.155c-.01-.127,0-.256,0-.384Zm1.408-.035c0,.75.008,1.5,0,2.249,0,.257.085.354.345.364a5.313,5.313,0,0,0,1.9-.2,2.315,2.315,0,0,0,1.674-1.856,2.371,2.371,0,0,0-2.235-3.084,9.776,9.776,0,0,0-1.315-.009c-.288.005-.373.125-.368.4C1181.137,474.457,1181.127,475.17,1181.127,475.884Z" transform="translate(-466.094 -47.6)" fill="#1a1818"/>
      <path id="Trazado_1448" data-name="Trazado 1448" d="M1182.221,579.642c0-1.04,0-2.081,0-3.121,0-.422.007-.422.4-.467a12.56,12.56,0,0,1,3.382,0,4.29,4.29,0,0,1,1,.278,3.358,3.358,0,0,1,1.85,4.411,3.244,3.244,0,0,1-2.058,2.123,7.985,7.985,0,0,1-3.069.423c-.383-.01-.764-.062-1.147-.069-.287,0-.364-.129-.361-.4C1182.228,581.759,1182.221,580.7,1182.221,579.642Zm1.4-.019c0,.731,0,1.462,0,2.192,0,.161-.027.355.214.367a4.178,4.178,0,0,0,2.692-.515,2.543,2.543,0,0,0,1.034-2.654,2.159,2.159,0,0,0-1.763-1.865,5.758,5.758,0,0,0-1.742-.1c-.424.017-.432.026-.435.44C1183.614,578.2,1183.618,578.911,1183.619,579.623Z" transform="translate(-468.053 -127.594)" fill="#1a1818"/>
      <path id="Trazado_1449" data-name="Trazado 1449" d="M1080.872,583.093a3.485,3.485,0,0,1-3.542-2.471,3.752,3.752,0,0,1,2.549-4.843,4.324,4.324,0,0,1,2.379.046,3.4,3.4,0,0,1,2.449,3.046,4.555,4.555,0,0,1-.152,1.681A3.617,3.617,0,0,1,1080.872,583.093Zm-2.243-3.654c.014.145.021.383.063.615a2.253,2.253,0,0,0,2.116,1.945,2.194,2.194,0,0,0,2.331-1.737,3.243,3.243,0,0,0-.108-2.092,2.23,2.23,0,0,0-4.2.052A3.8,3.8,0,0,0,1078.629,579.438Z" transform="translate(-387.005 -127.359)" fill="#1a1818"/>
      <path id="Trazado_1450" data-name="Trazado 1450" d="M1283.771,583.114a3.458,3.458,0,0,1-3.643-2.964,3.717,3.717,0,0,1,4.31-4.451,3.3,3.3,0,0,1,3,2.359,3.71,3.71,0,0,1-3.663,5.057Zm2.386-3.732a2.817,2.817,0,0,0-.433-1.619,2.218,2.218,0,0,0-3.7-.06,3.191,3.191,0,0,0-.048,3.322,2.237,2.237,0,0,0,3.8-.077A2.92,2.92,0,0,0,1286.157,579.382Z" transform="translate(-543.546 -127.381)" fill="#1a1818"/>
      <path id="Trazado_1451" data-name="Trazado 1451" d="M918.77,476.041c0-1.061,0-2.121,0-3.182,0-.423.008-.423.419-.433.994-.026.994-.026.994.957,0,.512.009,1.024,0,1.536-.006.244.049.368.329.364q1.4-.02,2.8,0c.286,0,.333-.129.33-.367-.008-.677-.006-1.353,0-2.03,0-.453.009-.453.454-.461.932-.018.932-.018.932.909q0,2.907,0,5.815c0,.483,0,.483-.468.489-.919.013-.919.013-.919-.922,0-.622-.008-1.243,0-1.865.005-.269-.059-.4-.366-.392-.914.018-1.829.014-2.743,0-.26,0-.353.08-.349.345.013.8.008,1.609,0,2.414,0,.409-.009.409-.43.418-.984.021-.984.021-.984-.964Q918.771,477.357,918.77,476.041Z" transform="translate(-264.824 -47.736)" fill="#1a1818"/>
      <path id="Trazado_1452" data-name="Trazado 1452" d="M991.12,476.068a2.287,2.287,0,0,1,.981,1.469c.166.63.349,1.256.524,1.881a.64.64,0,0,1-.148.046c-1.509-.027-1.148.291-1.611-1.154-.089-.277-.138-.568-.232-.844a1.173,1.173,0,0,0-1.26-.929c-.98-.011-.8-.09-.811.75-.01.621-.008,1.243,0,1.864,0,.228-.067.345-.312.321-.109-.011-.219,0-.329,0-.739,0-.743,0-.743-.711q0-2.906,0-5.812c0-.11.007-.219,0-.329,0-.169.052-.265.242-.287a10.292,10.292,0,0,1,3.327.014,1.864,1.864,0,0,1,1.647,1.946,1.784,1.784,0,0,1-.8,1.48C991.467,475.867,991.323,475.943,991.12,476.068Zm-2.559-1.7h0q0,.439,0,.878c0,.134.008.274.187.273a3.959,3.959,0,0,0,1.571-.14,1.072,1.072,0,0,0,.71-1.066,1.04,1.04,0,0,0-.83-.971,3.2,3.2,0,0,0-1.142-.083c-.493.042-.493.045-.5.561C988.56,474,988.561,474.181,988.561,474.364Z" transform="translate(-317.598 -47.57)" fill="#1a1818"/>
      <path id="Trazado_1453" data-name="Trazado 1453" d="M1119.561,578.572c0-.676.01-1.352-.005-2.027-.006-.264.087-.365.347-.352s.512.011.767,0,.31.1.309.329c-.011,1.352,0,2.7-.019,4.055a3.438,3.438,0,0,1-.194,1.018,2.579,2.579,0,0,1-1.9,1.8,4.227,4.227,0,0,1-1.848.067,2.591,2.591,0,0,1-2.188-2.405,9.16,9.16,0,0,1-.065-1.257c0-1.059,0-2.119,0-3.178,0-.414.01-.414.432-.425.953-.025.954-.025.954.939q0,1.534,0,3.069a3.253,3.253,0,0,0,.214,1.233,1.481,1.481,0,0,0,1.492.987,1.5,1.5,0,0,0,1.524-1.024,2.633,2.633,0,0,0,.174-.964c0-.621,0-1.242,0-1.863Z" transform="translate(-416.022 -127.787)" fill="#1a1818"/>
      <path id="Trazado_1454" data-name="Trazado 1454" d="M1115.462,479.646c-.468,0-.851-.01-1.233,0a.347.347,0,0,1-.392-.284c-.165-.5-.358-1-.526-1.5a.383.383,0,0,0-.432-.311c-.621.019-1.244.022-1.865,0-.3-.011-.411.125-.487.383-.141.472-.324.932-.46,1.405a.365.365,0,0,1-.432.307c-.346-.016-.693,0-1.035,0-.09-.174,0-.3.048-.429q1.107-3.152,2.225-6.3c.212-.6.2-.473.692-.482.274-.005.548,0,.823,0,.456,0,.459,0,.616.434q.976,2.676,1.949,5.352C1115.116,478.664,1115.271,479.11,1115.462,479.646Zm-2.527-3.142-1.018-2.864c-.3.984-.722,1.885-.982,2.864Z" transform="translate(-411.236 -47.744)" fill="#1a1818"/>
      <path id="Trazado_1455" data-name="Trazado 1455" d="M951.714,479.635a.889.889,0,0,1,.088-.462q1.114-3.147,2.224-6.294c.2-.567.192-.447.652-.455.31-.005.622.017.931-.006a.445.445,0,0,1,.514.36c.431,1.221.879,2.436,1.321,3.654q.513,1.415,1.026,2.83a.512.512,0,0,1,.057.312c-.035.02-.064.051-.093.051-.436,0-.941.157-1.289-.056-.333-.2-.326-.741-.488-1.124-.121-.285-.119-.672-.361-.839s-.6-.049-.913-.054c-.42-.008-.84.009-1.26-.006a.368.368,0,0,0-.431.309c-.136.473-.325.931-.456,1.4a.447.447,0,0,1-.547.381C952.365,479.614,952.036,479.635,951.714,479.635Zm4.352-3.16-1-2.818c-.314.951-.72,1.85-1.01,2.853C954.741,476.5,955.366,476.547,956.066,476.475Z" transform="translate(-290.234 -47.734)" fill="#1a1818"/>
      <path id="Trazado_1456" data-name="Trazado 1456" d="M1219.765,583.38c-.449,0-.832-.01-1.214,0-.227.008-.318-.1-.384-.3-.166-.5-.363-1-.528-1.5a.384.384,0,0,0-.437-.306c-.621.016-1.244.019-1.865,0a.4.4,0,0,0-.461.347c-.125.438-.276.87-.428,1.3-.177.5-.064.446-.645.453-.256,0-.512,0-.768-.006a.382.382,0,0,1-.1-.033c-.069-.173.032-.318.085-.468q1.1-3.125,2.205-6.249c.155-.439.159-.439.609-.443.311,0,.624.024.932-.008.344-.035.473.125.578.425.491,1.4,1.005,2.782,1.512,4.171q.413,1.132.826,2.264C1219.709,583.116,1219.722,583.205,1219.765,583.38Zm-3.552-6.117c-.28,1.072-.648,1.99-.959,2.968a15.229,15.229,0,0,0,1.78.027c.241,0,.184-.175.135-.312C1216.869,579.094,1216.564,578.246,1216.213,577.262Z" transform="translate(-491.73 -127.771)" fill="#1a1818"/>
      <path id="Trazado_1457" data-name="Trazado 1457" d="M913.717,583.406c-.473,0-.855-.009-1.237,0a.348.348,0,0,1-.392-.286c-.159-.486-.354-.959-.509-1.445a.437.437,0,0,0-.5-.373c-.6.025-1.206.023-1.808,0-.3-.011-.415.112-.492.38-.136.473-.322.931-.461,1.4-.068.23-.171.334-.42.321-.361-.018-.723,0-1.145,0,.19-.541.358-1.021.528-1.5q.93-2.632,1.861-5.264c.154-.434.157-.434.611-.437.274,0,.548-.005.822,0,.5.011.484-.117.7.475.579,1.614,1.17,3.224,1.756,4.836Zm-2.53-3.132-1.008-2.858c-.311.974-.732,1.876-.992,2.858Z" transform="translate(-255.557 -127.797)" fill="#1a1818"/>
      <path id="Trazado_1458" data-name="Trazado 1458" d="M1043.035,476.043c0-1.042,0-2.084,0-3.127,0-.462.006-.47.436-.471q1.865-.006,3.73,0c.431,0,.442.008.44.41,0,.859.093.728-.718.735-.713.006-1.426.009-2.139,0-.25,0-.369.061-.356.336.018.383.015.768,0,1.151-.009.252.109.306.332.3.768-.008,1.536.006,2.3-.008.271,0,.4.06.387.361-.025.934.091.748-.743.763-.621.011-1.243,0-1.865,0-.4,0-.4.01-.411.385q-.011.631,0,1.262c.006.378.012.385.408.387.823,0,1.646,0,2.468,0,.5,0,.5,0,.5.515,0,.11-.006.22,0,.329.012.218-.1.282-.3.278-.457-.008-.914,0-1.371,0-.9,0-1.792,0-2.688,0-.408,0-.414-.008-.416-.43C1043.033,478.164,1043.035,477.1,1043.035,476.043Z" transform="translate(-360.686 -47.755)" fill="#1a1818"/>
      <path id="Trazado_1459" data-name="Trazado 1459" d="M1071.218,479.356a4.711,4.711,0,0,1-1.821-.326c-.238-.089-.375-.193-.249-.481.1-.23.058-.568.257-.7.222-.148.458.129.7.192a4.5,4.5,0,0,0,1.239.2,2.465,2.465,0,0,0,.488-.056c.524-.119.807-.389.859-.8a.914.914,0,0,0-.641-.978,8.573,8.573,0,0,0-.922-.344,4.294,4.294,0,0,1-1.132-.541,1.856,1.856,0,0,1-.051-3.04,2.479,2.479,0,0,1,.775-.4,4.56,4.56,0,0,1,2.8.077c.242.076.3.19.222.445-.223.743-.208.739-.957.547a2.934,2.934,0,0,0-1.355-.081,1.327,1.327,0,0,0-.41.146.736.736,0,0,0-.1,1.272,3.071,3.071,0,0,0,.988.461,5.765,5.765,0,0,1,1.255.538,1.979,1.979,0,0,1-.046,3.438A3.434,3.434,0,0,1,1071.218,479.356Z" transform="translate(-380.793 -47.338)" fill="#1a1818"/>
      <path id="Trazado_1460" data-name="Trazado 1460" d="M889.748,479.347a4.77,4.77,0,0,1-1.62-.207,3.437,3.437,0,0,1-2.455-3.9,3.555,3.555,0,0,1,2.789-3.15,5.587,5.587,0,0,1,3.081.037c.24.066.412.174.248.462a.46.46,0,0,0-.026.106c-.173.629-.172.624-.813.465a3.846,3.846,0,0,0-2.108.033,2.571,2.571,0,0,0,.282,4.943,4.6,4.6,0,0,0,2.112-.108c.34-.09.341-.087.429.252.2.781.193.79-.613.951A5.555,5.555,0,0,1,889.748,479.347Z" transform="translate(-239.267 -47.33)" fill="#1a1818"/>
      <path id="Trazado_1461" data-name="Trazado 1461" d="M886.611,579.817c0-1.059,0-2.118,0-3.176,0-.417.008-.427.424-.428q1.889-.008,3.779,0c.382,0,.392.012.39.4,0,.878.092.73-.708.739-.712.008-1.424.011-2.136,0-.255,0-.363.066-.348.338.02.382,0,.766.006,1.15s.009.4.385.4c.693.005,1.387,0,2.081,0,.492,0,.5,0,.494.518,0,.657.082.6-.627.605-.639,0-1.278,0-1.917,0-.408,0-.414.013-.416.437,0,.73,0,1.46,0,2.19,0,.409-.009.409-.428.418-.978.022-.978.022-.978-.966Q886.611,581.132,886.611,579.817Z" transform="translate(-240.016 -127.803)" fill="#1a1818"/>
      <path id="Trazado_1462" data-name="Trazado 1462" d="M1054.332,579.838c0-1.077,0-2.154,0-3.231,0-.383.011-.392.4-.394q1.889-.007,3.779,0c.389,0,.4.011.4.4.005.922.034.731-.711.742-.693.01-1.387,0-2.081,0-.377,0-.381.01-.387.4-.005.365-.006.73,0,1.1s.012.381.407.384c.693.005,1.387,0,2.081,0,.438,0,.446.007.444.459,0,.769.074.656-.675.663-.621.005-1.241,0-1.862,0-.383,0-.392.013-.4.407-.007.73,0,1.46,0,2.19,0,.441-.01.45-.46.445-.289,0-.651.124-.848-.056-.226-.205-.082-.585-.087-.887C1054.324,581.59,1054.332,580.714,1054.332,579.838Z" transform="translate(-369.373 -127.803)" fill="#1a1818"/>
      <path id="Trazado_1463" data-name="Trazado 1463" d="M1248.149,472.384c.417,0,.8.018,1.181-.006a.507.507,0,0,1,.54.351c.412.835.841,1.662,1.265,2.491.057.111.078.248.238.32.452-.869.932-1.727,1.348-2.615a.789.789,0,0,1,.922-.548,6.475,6.475,0,0,0,.858.007c.059.208-.074.31-.146.425-.723,1.142-1.448,2.284-2.185,3.418a1.212,1.212,0,0,0-.209.716c.013.768,0,1.536.008,2.3,0,.253-.067.347-.338.356-1.054.039-1.054.049-1.053-1.013,0-.53-.012-1.061,0-1.59a1.432,1.432,0,0,0-.236-.823c-.659-1.074-1.306-2.156-1.953-3.238A1.1,1.1,0,0,1,1248.149,472.384Z" transform="translate(-518.916 -47.695)" fill="#1a1818"/>
      <path id="Trazado_1464" data-name="Trazado 1464" d="M1243.593,580.431c0,.859,0,1.718,0,2.576,0,.384-.01.384-.4.4-1.008.03-1.009.03-1.009-.992q0-2.3,0-4.6c0-.448-.006-.451-.441-.454-.511,0-1.023-.008-1.535,0-.222,0-.336-.054-.331-.305.019-1.005-.108-.84.779-.845,1.59-.009,3.179,0,4.769,0,.482,0,.488.005.486.473,0,.781.081.667-.664.675-.439.005-.877.014-1.315,0-.262-.01-.349.08-.345.343C1243.6,578.6,1243.594,579.517,1243.593,580.431Z" transform="translate(-512.536 -127.793)" fill="#1a1818"/>
      <path id="Trazado_1465" data-name="Trazado 1465" d="M1015.1,579.348c.492-.944.976-1.844,1.431-2.759a.612.612,0,0,1,.67-.413c.341.029.687.006,1.059.006a.659.659,0,0,1-.172.42c-.716,1.125-1.43,2.252-2.158,3.371a1.378,1.378,0,0,0-.235.82c.016.749,0,1.5.009,2.249,0,.26-.078.368-.344.344-.326-.029-.74.13-.958-.068s-.07-.624-.082-.949a7.538,7.538,0,0,0-.065-2.016,9.041,9.041,0,0,0-.974-1.708c-.394-.659-.793-1.314-1.187-1.973-.081-.135-.149-.278-.259-.486h1.422c.211,0,.261.175.334.317.416.813.828,1.628,1.245,2.441A.966.966,0,0,0,1015.1,579.348Z" transform="translate(-336.622 -127.775)" fill="#1a1818"/>
      <path id="Trazado_1466" data-name="Trazado 1466" d="M1017.171,476.034c0-1.058,0-2.117,0-3.175,0-.422.008-.422.419-.433.988-.027.988-.027.988.96q0,2.327,0,4.653c0,.411.008.417.422.42.821,0,1.642,0,2.463,0,.392,0,.4.011.4.392-.006.942.11.774-.773.782-1.168.01-2.336.005-3.5,0-.411,0-.417-.009-.419-.427C1017.168,478.151,1017.171,477.092,1017.171,476.034Z" transform="translate(-340.733 -47.736)" fill="#1a1818"/>
      <path id="Trazado_1467" data-name="Trazado 1467" d="M1229.233,476.077c0-1.079,0-2.158,0-3.237,0-.383.011-.4.4-.392,1.179.015.971-.179.981.972.013,1.536,0,3.072,0,4.608,0,.443.008.448.455.45.786,0,1.573,0,2.359,0,.464,0,.474.006.474.439,0,.9.061.729-.716.736-1.188.01-2.377.005-3.566,0-.383,0-.391-.01-.393-.4C1229.23,478.2,1229.233,477.138,1229.233,476.077Z" transform="translate(-504.322 -47.756)" fill="#1a1818"/>
      <path id="Trazado_1468" data-name="Trazado 1468" d="M994.98,579.807c0-1.06.008-2.12-.005-3.181,0-.278.076-.391.368-.384,1.238.029,1-.156,1.01.945.016,1.535,0,3.071,0,4.607,0,.479.006.483.481.485.8,0,1.609,0,2.413,0,.382,0,.393.013.393.405,0,.9.068.742-.7.747-1.188.009-2.377.005-3.565,0-.385,0-.394-.01-.4-.393C994.976,581.964,994.98,580.885,994.98,579.807Z" transform="translate(-323.611 -127.828)" fill="#1a1818"/>
      <path id="Trazado_1469" data-name="Trazado 1469" d="M1270.644,579.8c0,1.058,0,2.117,0,3.175,0,.429-.007.429-.405.44-.991.027-.992.027-.992-.955q0-2.846,0-5.693c0-.548,0-.548.52-.553.877-.009.877-.009.878.85Q1270.644,578.431,1270.644,579.8Z" transform="translate(-535.19 -127.805)" fill="#1a1818"/>
      <path id="Trazado_1470" data-name="Trazado 1470" d="M983.892,579.93c0,1.04,0,2.079,0,3.119,0,.39-.011.39-.393.4-.983.031-.983.031-.983-.957q0-2.873,0-5.745c0-.481.005-.492.47-.487,1.076.011.892-.144.9.878C983.9,578.069,983.892,579,983.892,579.93Z" transform="translate(-313.999 -127.841)" fill="#1a1818"/>
      <path id="Trazado_1471" data-name="Trazado 1471" d="M731.845,413.926c.272-.629.5-1.163.733-1.693.119-.269.126-.266.525-.173-.36.821-.719,1.634-1.073,2.449a.249.249,0,0,1-.3.157.266.266,0,0,1-.276-.27c-.045-.472-.1-.943-.159-1.414a.377.377,0,0,0-.134-.339c-.234.525-.462,1.032-.684,1.54-.073.168-.168.268-.373.228-.143-.028-.235-.079-.249-.236-.073-.818-.15-1.635-.221-2.453-.009-.1-.031-.238.129-.248s.279.052.292.244c.032.455.071.91.109,1.364a1.041,1.041,0,0,0,.085.5c.209-.132.234-.341.314-.509.164-.346.312-.7.472-1.047.064-.139.079-.34.317-.3.219.036.221.2.236.372.038.436.081.872.123,1.308A1.12,1.12,0,0,0,731.845,413.926Z" transform="translate(-118.914 -0.722)" fill="#1a1818"/>
      <path id="Trazado_1472" data-name="Trazado 1472" d="M774.645,427.709a14.371,14.371,0,0,0,1.068-1.095c.077-.077.146-.164.226-.238.124-.115.244-.046.342.037.128.109.014.189-.057.265-.552.584-1.108,1.164-1.659,1.75a.279.279,0,0,1-.382.085.288.288,0,0,1-.153-.4c.121-.42.216-.848.317-1.274.028-.117.1-.235,0-.374-.326.319-.649.633-.97.949-.091.089-.184.178-.268.274a.239.239,0,0,1-.338.045c-.146-.079-.218-.161-.168-.345.213-.793.411-1.59.617-2.384.022-.085.056-.192.173-.166s.255.1.225.257c-.04.214-.114.422-.159.636a5.4,5.4,0,0,0-.286,1.349c.311-.319.563-.576.814-.835.165-.171.328-.344.491-.516.106-.112.219-.2.379-.1.137.089.1.221.076.345-.127.55-.258,1.1-.387,1.65-.032.057-.055.116.005.165C774.559,427.792,774.613,427.737,774.645,427.709Z" transform="translate(-152.058 -11.026)" fill="#1a1818"/>
      <path id="Trazado_1473" data-name="Trazado 1473" d="M819.533,471.131c.413-.269.826-.537,1.238-.808.128-.084.237-.165.361.021s-.009.257-.129.337c-.622.416-1.244.834-1.87,1.244-.094.061-.192.2-.33.059a.323.323,0,0,1-.1-.347c.036-.1.078-.2.117-.307l.629-1.633c.031-.058.08-.125,0-.168-.026-.013-.084.035-.127.055q-.619.4-1.237.806c-.125.082-.237.171-.362-.016s.008-.255.129-.336c.637-.425,1.273-.854,1.914-1.274a.239.239,0,0,1,.4.206,1.162,1.162,0,0,1-.11.362c-.215.561-.433,1.121-.65,1.682-.031.06-.076.129.006.172C819.431,471.2,819.49,471.151,819.533,471.131Z" transform="translate(-186.83 -44.873)" fill="#1a1818"/>
      <path id="Trazado_1474" data-name="Trazado 1474" d="M594.849,475.026l1.153.715c.093.058.185.117.278.174.145.089.131.2.044.32s-.172.1-.277.03c-.293-.184-.589-.364-.884-.545-.373-.229-.75-.451-1.117-.687-.23-.148-.211-.391.045-.475a2,2,0,0,1,.54-.058,15.429,15.429,0,0,0,1.768-.108c-.1-.214-.279-.267-.422-.359-.291-.187-.591-.36-.882-.548-.124-.08-.334-.124-.2-.36s.269-.09.4-.009q.91.556,1.816,1.117a.943.943,0,0,1,.094.056c.083.065.2.116.155.253a.313.313,0,0,1-.213.231,3.292,3.292,0,0,1-.434.036q-.919.048-1.838.094Z" transform="translate(-14.201 -48.182)" fill="#1a1818"/>
      <path id="Trazado_1475" data-name="Trazado 1475" d="M798.753,642.936c-.006-.235-.2-.344-.321-.49-.234-.28-.485-.547-.727-.82-.1-.116-.029-.2.058-.274s.154-.1.238-.014c.039.038.079.076.115.117q.751.836,1.5,1.673c.068.076.186.149.107.274a.309.309,0,0,1-.312.181c-.215-.038-.428-.09-.641-.14a13.512,13.512,0,0,0-1.478-.336c-.1.183.038.256.111.34.286.332.583.655.875.982.079.089.126.173.013.279s-.212.132-.324.007c-.536-.6-1.078-1.193-1.608-1.8-.131-.149-.073-.3.1-.386a.525.525,0,0,1,.371.024c.461.114.921.227,1.384.333A.86.86,0,0,0,798.753,642.936Zm.151.051c-.013-.012-.026-.034-.039-.035s-.027.021-.041.032c.013.013.026.034.039.034S798.89,643,798.9,642.987Z" transform="translate(-170.338 -178.007)" fill="#1a1818"/>
      <path id="Trazado_1476" data-name="Trazado 1476" d="M576.412,545.118h1.357l.329,0c.152,0,.241.056.231.226a.183.183,0,0,1-.207.2c-.8,0-1.609,0-2.413-.021a.252.252,0,0,1-.157-.436,1.458,1.458,0,0,1,.3-.23,14.761,14.761,0,0,0,1.562-1.166c-.479-.009-.958-.007-1.436-.032-.173-.009-.466.125-.477-.188-.013-.373.319-.213.5-.217.658-.018,1.316-.007,1.974.005.128,0,.311-.076.357.143a.366.366,0,0,1-.2.407c-.443.291-.88.592-1.317.891-.148.1-.291.208-.437.313Z" transform="translate(0 -102.355)" fill="#1a1818"/>
      <path id="Trazado_1477" data-name="Trazado 1477" d="M842.721,535.513a1.458,1.458,0,1,1-1.455,1.511A1.426,1.426,0,0,1,842.721,535.513Zm.012,2.479a1.026,1.026,0,1,0,0-2.048A1.082,1.082,0,0,0,841.638,537,1.055,1.055,0,0,0,842.733,537.993Z" transform="translate(-205.036 -96.409)" fill="#1a1818"/>
      <path id="Trazado_1478" data-name="Trazado 1478" d="M641.788,431.6a1.459,1.459,0,0,1-1.462,1.462,1.476,1.476,0,1,1,1.462-1.462Zm-1.438,1.052a1,1,0,0,0,1.018-.99,1.123,1.123,0,0,0-1.081-1.139,1,1,0,0,0-1.014.991A1.111,1.111,0,0,0,640.35,432.655Z" transform="translate(-48.887 -15.102)" fill="#1a1818"/>
      <path id="Trazado_1479" data-name="Trazado 1479" d="M838.63,506.13a1.456,1.456,0,0,1-1.508,1.414,1.43,1.43,0,0,1-1.44-1.471,1.475,1.475,0,1,1,2.949.057Zm-1.507.984a1.062,1.062,0,0,0,1.105-1.039,1.036,1.036,0,0,0-1.043-1.037,1.126,1.126,0,0,0-1.111,1.059A1,1,0,0,0,837.122,507.115Z" transform="translate(-200.728 -72.572)" fill="#1a1818"/>
      <path id="Trazado_1480" data-name="Trazado 1480" d="M602.987,626a1.475,1.475,0,1,1,.034-2.95,1.445,1.445,0,0,1,1.437,1.481A1.5,1.5,0,0,1,602.987,626Zm-1.066-1.463a1.026,1.026,0,0,0,.978,1.039,1.139,1.139,0,0,0,1.156-1.073.983.983,0,0,0-.974-1.027A1.122,1.122,0,0,0,601.92,624.536Z" transform="translate(-20.076 -163.936)" fill="#1a1818"/>
      <path id="Trazado_1481" data-name="Trazado 1481" d="M710.451,413.478A1.441,1.441,0,0,1,709,412.014a1.47,1.47,0,1,1,1.454,1.464Zm1.047-1.4a1.058,1.058,0,0,0-.942-1.139,1.044,1.044,0,0,0-1.123.955,1.1,1.1,0,0,0,.993,1.216A1.088,1.088,0,0,0,711.5,412.077Z" transform="translate(-103.001)" fill="#1a1818"/>
      <path id="Trazado_1482" data-name="Trazado 1482" d="M823.626,616.984c-.223.338-.4.656-.626.941a1.3,1.3,0,0,1-1.848.3,1.322,1.322,0,0,1-.526-1.841c.518-1.024.519-1.025,1.469-.406C822.6,616.307,823.1,616.637,823.626,616.984Zm-.543.145c-.546-.355-1.048-.683-1.551-1.009-.091-.059-.174-.115-.287-.014a1.221,1.221,0,0,0-.32,1.251,1.068,1.068,0,0,0,1.894.192C822.9,617.433,822.972,617.307,823.083,617.129Z" transform="translate(-188.977 -158.156)" fill="#1a1818"/>
      <path id="Trazado_1483" data-name="Trazado 1483" d="M653.824,426.119a.363.363,0,0,1-.576.066c-.182-.15-.391-.269-.57-.423a.425.425,0,0,0-.548-.01c-.141.077-.181.159-.108.3.1.195.185.4.285.589.068.131.088.238-.072.312-.143.066-.232.029-.3-.119-.185-.4-.383-.785-.575-1.176-.144-.294-.278-.594-.435-.88-.109-.2-.1-.333.125-.431s.46-.218.69-.327a.748.748,0,0,1,.868.076.772.772,0,0,1,.307.872c-.145.358.029.489.264.652A3.118,3.118,0,0,1,653.824,426.119Zm-1.779-1.78c-.249.006-.661.251-.656.39.006.2.364.733.482.723.324-.029.67-.356.658-.623A.5.5,0,0,0,652.045,424.339Z" transform="translate(-58.15 -10.324)" fill="#1a1818"/>
      <path id="Trazado_1484" data-name="Trazado 1484" d="M617.312,450.915c-.616-.637-1.222-1.266-1.83-1.894-.1-.1-.074-.191.02-.278a9.124,9.124,0,0,1,.767-.7,1.425,1.425,0,0,1,1.937,2.018A4.72,4.72,0,0,1,617.312,450.915Zm-.294-2.719a1.317,1.317,0,0,0-1,.577c-.081.086-.025.168.04.236.391.405.785.808,1.175,1.215.116.121.218.1.324-.008.088-.091.182-.178.266-.273a.878.878,0,0,0,.17-1.055A1.13,1.13,0,0,0,617.018,448.2Z" transform="translate(-30.812 -28.721)" fill="#1a1818"/>
      <path id="Trazado_1485" data-name="Trazado 1485" d="M590.312,599.884c.247.213.246.395.077.6-.15.183-.274.389-.43.566s-.106.36,0,.548a.2.2,0,0,0,.307.1c.195-.1.4-.179.593-.28.141-.073.237-.063.3.093.052.119.041.21-.085.269-.741.352-1.482.7-2.222,1.056-.167.08-.235-.02-.293-.142q-.177-.37-.346-.743a.75.75,0,0,1,.1-.869.764.764,0,0,1,.883-.277c.362.163.483-.026.641-.261S590.15,600.106,590.312,599.884Zm-.662,2a.83.83,0,0,0-.586-.705.523.523,0,0,0-.534.448c-.011.2.23.681.352.7A1.466,1.466,0,0,0,589.65,601.881Z" transform="translate(-9.754 -146.066)" fill="#1a1818"/>
      <path id="Trazado_1486" data-name="Trazado 1486" d="M811.381,627.489c.123-.309.294-.384.546-.322.229.056.466.084.7.14a.357.357,0,0,0,.385-.125c.16-.174.228-.32-.015-.483-.166-.111-.314-.249-.469-.375a.182.182,0,0,1-.045-.281c.1-.132.194-.135.318-.035q.939.75,1.884,1.492a.191.191,0,0,1,.03.318c-.174.211-.343.425-.514.638a.767.767,0,0,1-.816.319.812.812,0,0,1-.677-.7c-.032-.3-.144-.393-.423-.417S811.713,627.553,811.381,627.489Zm2.864.267c-.12-.212-.349-.305-.513-.469s-.279-.1-.388.062a2.8,2.8,0,0,0-.219.306.464.464,0,0,0,.173.615.431.431,0,0,0,.59-.039A1.617,1.617,0,0,0,814.245,627.755Z" transform="translate(-181.982 -166.164)" fill="#1a1818"/>
      <path id="Trazado_1487" data-name="Trazado 1487" d="M840.051,565.541c-.082-.295-.022-.451.219-.525.174-.054.339-.138.515-.183a.558.558,0,0,0,.474-.715,3.053,3.053,0,0,0-.806-.148c-.147-.013-.241-.061-.226-.234s.118-.209.263-.189c.8.107,1.591.216,2.387.322.134.018.2.085.175.218-.045.307-.087.614-.142.919a.7.7,0,0,1-.54.621.783.783,0,0,1-.894-.246c-.191-.293-.371-.26-.626-.147S840.342,565.43,840.051,565.541Zm1.907-1.364c-.278-.011-.356.1-.367.507a.48.48,0,0,0,.482.543c.347.017.537-.231.554-.724C842.637,564.238,842.558,564.2,841.959,564.177Z" transform="translate(-204.072 -118.031)" fill="#1a1818"/>
      <path id="Trazado_1488" data-name="Trazado 1488" d="M579.644,564.99c.137.254.1.42-.1.56s-.4.318-.615.457-.184.335-.128.532c.067.236.243.158.4.131s.326-.043.488-.069c.141-.023.249-.013.276.166s-.075.222-.213.244l-1.675.269c-.072.011-.145.016-.217.027-.667.105-.667.105-.78-.59-.018-.108-.046-.215-.061-.323a.781.781,0,0,1,.315-.821.8.8,0,0,1,.974-.025.4.4,0,0,0,.6-.029A3.447,3.447,0,0,1,579.644,564.99Zm-2.24,1.365c0,.542.05.59.577.508.09-.014.181-.023.272-.034a.183.183,0,0,0,.17-.23,2.177,2.177,0,0,0-.058-.378.454.454,0,0,0-.576-.368C577.515,565.9,577.407,566.038,577.4,566.355Z" transform="translate(-1.18 -119.148)" fill="#1a1818"/>
      <path id="Trazado_1489" data-name="Trazado 1489" d="M833.937,591.874a7.572,7.572,0,0,0-.51,1.3,4.906,4.906,0,0,0,.912.392c.143.061.2.135.127.293a.179.179,0,0,1-.26.112q-1.124-.431-2.246-.868c-.14-.054-.2-.146-.139-.3s.191-.138.318-.088c.221.086.442.172.661.262.166.068.273.034.337-.148.128-.359.269-.714.4-1.067a4.267,4.267,0,0,0-.875-.385c-.16-.065-.256-.14-.171-.323.075-.161.191-.125.32-.075.731.285,1.464.565,2.195.85.1.04.205.095.149.241s-.131.219-.29.159Z" transform="translate(-197.73 -139.162)" fill="#1a1818"/>
      <path id="Trazado_1490" data-name="Trazado 1490" d="M838.981,521.408c-.13-.251-.116-.435.1-.591.193-.138.363-.307.556-.444a.425.425,0,0,0,.148-.483c-.029-.187-.125-.248-.3-.215-.215.04-.43.083-.645.119-.118.02-.214,0-.249-.142-.042-.169.053-.238.192-.266.768-.156,1.538-.307,2.307-.463a.228.228,0,0,1,.311.208c.051.287.108.574.149.862a.714.714,0,0,1-.314.763.8.8,0,0,1-.928.043c-.282-.212-.436-.107-.643.074A3.523,3.523,0,0,1,838.981,521.408Zm2.206-1.414c0-.35-.122-.6-.293-.6-.446.012-.763.152-.765.338,0,.433.221.75.537.757A.477.477,0,0,0,841.186,519.995Z" transform="translate(-202.967 -83.604)" fill="#1a1818"/>
      <path id="Trazado_1491" data-name="Trazado 1491" d="M668.172,419.6c-.618,0-.944-.207-1.1-.623-.2-.528-.36-1.071-.544-1.605-.048-.141-.049-.246.119-.3s.233.031.279.171c.166.5.323,1.007.507,1.5a.634.634,0,0,0,.922.4.616.616,0,0,0,.4-.833c-.134-.473-.307-.935-.448-1.406-.039-.13-.209-.3.066-.4.256-.094.269.1.32.245.154.448.314.9.45,1.349A1.068,1.068,0,0,1,668.172,419.6Z" transform="translate(-70.217 -4.582)" fill="#1a1818"/>
      <path id="Trazado_1492" data-name="Trazado 1492" d="M843.243,551.406c-.219-.013-.438-.031-.657-.036-.523-.013-.795.213-.817.668-.021.429.213.686.707.728s.986.051,1.478.075c.15.007.3.006.29.226s-.172.2-.314.2c-.548-.026-1.1-.04-1.642-.1a1.123,1.123,0,0,1,.076-2.212c.547-.012,1.1.027,1.644.046.147.005.305,0,.307.218s-.156.2-.305.2c-.256,0-.512,0-.768,0Z" transform="translate(-205.137 -108.32)" fill="#1a1818"/>
      <path id="Trazado_1493" data-name="Trazado 1493" d="M594.891,612.42a.864.864,0,0,0-.589.159q-.61.364-1.219.73c-.112.067-.222.144-.326-.012s-.04-.262.111-.35c.472-.276.929-.579,1.411-.834a1.125,1.125,0,0,1,1.14,1.921c-.453.3-.936.564-1.4.85-.155.1-.265.089-.354-.082s.053-.225.154-.288c.45-.277.917-.528,1.353-.825a.7.7,0,0,0-.1-1.211A.723.723,0,0,0,594.891,612.42Z" transform="translate(-13.29 -155.398)" fill="#1a1818"/>
      <path id="Trazado_1494" data-name="Trazado 1494" d="M592.69,488.026c-.023.244-.089.391-.334.362-.126-.015-.256-.012-.38-.036a.334.334,0,0,0-.414.251,1.305,1.305,0,0,1-.143.294.417.417,0,0,0,.119.651,1.486,1.486,0,0,1,.226.236c.108.129.029.254-.053.341-.114.122-.19-.014-.261-.083-.144-.139-.28-.286-.419-.43l-1.292-1.333c-.1-.106-.2-.2-.1-.377a.308.308,0,0,1,.349-.187Zm-1.345.23a4.847,4.847,0,0,0-1.147-.066,5.033,5.033,0,0,0,.784.763Z" transform="translate(-10.892 -59.533)" fill="#1a1818"/>
      <path id="Trazado_1495" data-name="Trazado 1495" d="M610.3,458.351l-2.123-1.859a13.9,13.9,0,0,1,.964-1.146.15.15,0,0,1,.236-.016.165.165,0,0,1,.028.274c-.218.245-.429.5-.647.749a.644.644,0,0,0,.08.143c.483.475.483.475.937-.012.05-.053.1-.108.149-.16a.153.153,0,0,1,.238,0c.075.069.11.145.036.234-.129.154-.256.309-.394.456s-.131.248.022.362.278.291.483.355a6.714,6.714,0,0,0,.67-.718c.088-.09.163-.214.314-.091s.064.217-.025.318C610.956,457.6,610.646,457.953,610.3,458.351Z" transform="translate(-25.226 -34.516)" fill="#1a1818"/>
      <path id="Trazado_1496" data-name="Trazado 1496" d="M785.49,436.261c.29.2.544.38.795.559.117.083.268.158.132.342-.119.161-.222.045-.321-.023-.33-.228-.655-.464-.988-.688-.154-.1-.172-.2-.062-.356.446-.623.883-1.253,1.325-1.878.051-.072.113-.136.192-.229.4.281.788.552,1.176.822.108.075.145.155.059.271s-.174.1-.278.026c-.192-.139-.4-.261-.581-.41s-.317-.139-.438.067a2.794,2.794,0,0,1-.187.27.193.193,0,0,0,.059.318c.166.113.327.233.491.348a.154.154,0,0,1,.053.232c-.067.11-.154.149-.269.064-.029-.022-.06-.042-.091-.061C785.913,435.53,785.913,435.53,785.49,436.261Z" transform="translate(-161.612 -18.088)" fill="#1a1818"/>
      <path id="Trazado_1497" data-name="Trazado 1497" d="M806.121,634.082l2.071,1.906a12.029,12.029,0,0,1-.982,1.116c-.1.11-.191.072-.278-.017s-.053-.162.015-.236c.172-.189.338-.384.518-.565.143-.143.172-.263,0-.4-.143-.112-.273-.238-.4-.355a3,3,0,0,0-.567.546c-.09.088-.17.125-.28.032s-.081-.178,0-.274a3.259,3.259,0,0,0,.489-.583c-.545-.66-.545-.66-1.1-.054l-.261.28a.154.154,0,0,1-.238.014.167.167,0,0,1-.018-.277c.038-.04.073-.082.11-.122Z" transform="translate(-177.067 -172.447)" fill="#1a1818"/>
      <path id="Trazado_1498" data-name="Trazado 1498" d="M581.858,575.315c.162.241.189.394-.031.516-.111.062-.211.144-.319.211a.285.285,0,0,0-.138.37,2,2,0,0,1,.1.424c.029.3.193.4.475.4.221,0,.573-.053.5.3-.052.266-.366.1-.558.089-.636-.049-1.27-.122-1.905-.186a1.657,1.657,0,0,1-.325-.04.3.3,0,0,1-.094-.54C580.318,576.339,581.078,575.838,581.858,575.315Zm-.872,1.1a3.322,3.322,0,0,0-.977.667,5.235,5.235,0,0,0,1.166.009Z" transform="translate(-3.051 -127.113)" fill="#1a1818"/>
      <path id="Trazado_1499" data-name="Trazado 1499" d="M798.418,443.447c.307.27.581.485.824.729a.848.848,0,0,1,.048,1.225.863.863,0,0,1-1.223.137,2.854,2.854,0,0,0-.522-.4,3.048,3.048,0,0,0-.528.544c-.1.106-.185.165-.32.051s-.114-.2-.011-.318C797.254,444.777,797.816,444.134,798.418,443.447Zm.077.6a1.809,1.809,0,0,0-.168.144c-.122.133-.231.279-.358.406-.155.155-.128.276.035.4.1.075.192.165.294.237a.445.445,0,0,0,.595-.042.492.492,0,0,0,.158-.63A1.386,1.386,0,0,0,798.5,444.047Z" transform="translate(-170.585 -25.387)" fill="#1a1818"/>
      <path id="Trazado_1500" data-name="Trazado 1500" d="M582.012,588.692a.909.909,0,0,1,1.639-.521,1.613,1.613,0,0,1,.205.5c.067.307.233.322.479.219a4.147,4.147,0,0,1,.466-.154.16.16,0,0,1,.215.109c.039.111.047.218-.075.282a1.329,1.329,0,0,1-.206.072c-.674.224-1.352.436-2.02.677-.257.093-.368.024-.433-.222A5.494,5.494,0,0,1,582.012,588.692Zm.386.051c0,.293.19.658.345.661.251,0,.833-.265.839-.388.015-.344-.323-.789-.608-.8A.554.554,0,0,0,582.4,588.743Z" transform="translate(-5.042 -136.745)" fill="#1a1818"/>
      <path id="Trazado_1501" data-name="Trazado 1501" d="M809.9,462.347c.872-.307,1.729-.606,2.582-.914a.268.268,0,0,1,.337.076.282.282,0,0,1,.033.388c-.438.714-.866,1.435-1.3,2.153-.047.078-.1.19-.2.142a.26.26,0,0,1-.163-.31,2.019,2.019,0,0,1,.126-.241c.075-.158.291-.3.181-.481a2.75,2.75,0,0,0-.554-.668c-.153-.131-.347.032-.509.1C810.2,462.687,810.006,462.716,809.9,462.347Zm1.917.505.543-.877a2.472,2.472,0,0,0-1.045.324A1.584,1.584,0,0,0,811.813,462.852Z" transform="translate(-180.837 -39.24)" fill="#1a1818"/>
      <path id="Trazado_1502" data-name="Trazado 1502" d="M577.083,557.2c-.346.019-.692.029-1.037.06-.219.02-.336-.019-.34-.278-.006-.382-.054-.763-.082-1.145-.008-.119.015-.219.165-.226a.185.185,0,0,1,.21.2c.019.236.04.473.041.709s.112.324.339.3c.108-.013.218-.011.328-.014.166,0,.219-.1.209-.249-.013-.2-.026-.4-.034-.6a.163.163,0,0,1,.157-.184c.139-.018.2.053.2.185.007.164.025.327.029.491,0,.24.126.319.352.284a2.376,2.376,0,0,1,.327-.023c.166,0,.219-.087.208-.245-.02-.291-.032-.582-.043-.874,0-.123.035-.21.184-.2.115.006.154.074.164.174.005.054.013.109.015.163.015.435.252.957.017,1.279s-.788.09-1.195.171a2.1,2.1,0,0,1-.218.021Z" transform="translate(-0.113 -111.738)" fill="#1a1818"/>
      <path id="Trazado_1503" data-name="Trazado 1503" d="M836.6,581.108a1.429,1.429,0,0,1,1.026-1.467,1.545,1.545,0,0,1,1.719.651,1.569,1.569,0,0,1-.235,1.822.768.768,0,0,1-.167.139c-.1.054-.174,0-.234-.074a.146.146,0,0,1-.016-.2,3.8,3.8,0,0,0,.278-.335,1.03,1.03,0,0,0-.079-1.265,1.2,1.2,0,0,0-1.31-.274,1.053,1.053,0,0,0-.593,1.125,2.22,2.22,0,0,0,.077.319c.043.141-.035.2-.149.238s-.162-.029-.207-.119A1.173,1.173,0,0,1,836.6,581.108Z" transform="translate(-201.434 -130.408)" fill="#1a1818"/>
      <path id="Trazado_1504" data-name="Trazado 1504" d="M625.4,643.835c-.82.455-1.615.894-2.408,1.337a.275.275,0,0,1-.349-.024.3.3,0,0,1-.085-.39l.926-2.34c.034-.086.078-.185.19-.138s.2.126.178.247a1.832,1.832,0,0,1-.159.462.32.32,0,0,0,.117.468,1.269,1.269,0,0,1,.124.107c.416.37.422.38.915.11C625.056,643.558,625.213,643.536,625.4,643.835Zm-1.971-.183a4.275,4.275,0,0,0-.376,1.053l.967-.545A1.76,1.76,0,0,0,623.424,643.652Z" transform="translate(-36.289 -178.762)" fill="#1a1818"/>
      <path id="Trazado_1505" data-name="Trazado 1505" d="M581.86,505.442a.893.893,0,0,1,.907,1.046c-.027.232-.24.464-.119.675s.417.185.637.261c.154.053.273.111.208.306-.058.172-.189.146-.313.109-.749-.225-1.5-.454-2.245-.682a.205.205,0,0,1-.16-.289c.1-.311.183-.63.308-.931A.77.77,0,0,1,581.86,505.442Zm.536,1.034a.528.528,0,0,0-.44-.592c-.352-.072-.537.092-.677.6-.083.3-.083.3.344.435.121.038.247.064.364.112.158.066.242,0,.287-.141S582.356,506.616,582.4,506.476Z" transform="translate(-4.076 -73.211)" fill="#1a1818"/>
      <path id="Trazado_1506" data-name="Trazado 1506" d="M680.54,414.546a1.715,1.715,0,0,0-.226.02c-.234.046-.428.167-.432.422s.2.33.4.378.433.075.643.135a.733.733,0,0,1,.6.691A.791.791,0,0,1,681,417a1.318,1.318,0,0,1-1.015-.007c-.088-.036-.162-.1-.121-.208s.087-.222.228-.176a1.229,1.229,0,0,0,.536.083c.236-.029.438-.129.474-.381.039-.27-.162-.391-.384-.454s-.431-.082-.641-.141c-.414-.116-.6-.326-.624-.665a.821.821,0,0,1,.545-.806,1.325,1.325,0,0,1,.806-.06c.138.027.243.095.191.264a.183.183,0,0,1-.249.141C680.692,414.578,680.638,414.568,680.54,414.546Z" transform="translate(-80.208 -2.787)" fill="#1a1818"/>
      <path id="Trazado_1507" data-name="Trazado 1507" d="M614.8,636.8a1.18,1.18,0,0,1,1.02,1.045c0,.094,0,.183-.117.211s-.225.022-.265-.111a1.2,1.2,0,0,0-.248-.539c-.148-.149-.314-.269-.531-.159a.389.389,0,0,0-.187.513c.069.226.156.448.215.676a.731.731,0,0,1-.27.872.8.8,0,0,1-.924-.037,1.226,1.226,0,0,1-.5-.693c-.041-.136-.024-.255.14-.3.135-.037.207.032.24.151a.835.835,0,0,0,.278.459.409.409,0,0,0,.5.078.353.353,0,0,0,.141-.433c-.054-.211-.148-.411-.2-.621a.853.853,0,0,1,.127-.875A.734.734,0,0,1,614.8,636.8Z" transform="translate(-28.923 -174.543)" fill="#1a1818"/>
      <path id="Trazado_1508" data-name="Trazado 1508" d="M700.068,413.959a1.1,1.1,0,0,1-.607-.143c-.124-.068-.209-.154-.119-.3a.182.182,0,0,1,.276-.072,1,1,0,0,0,.469.135c.23,0,.451-.054.525-.3.079-.267-.1-.406-.316-.5s-.446-.163-.661-.26a.689.689,0,0,1-.465-.729.771.771,0,0,1,.55-.683,1.161,1.161,0,0,1,.856.008c.13.051.293.093.2.3-.071.168-.188.144-.312.087a.808.808,0,0,0-.427-.071.439.439,0,0,0-.435.35c-.044.22.105.335.282.411s.341.127.511.194c.507.2.74.535.651.933A.889.889,0,0,1,700.068,413.959Z" transform="translate(-95.417 -0.372)" fill="#1a1818"/>
      <path id="Trazado_1509" data-name="Trazado 1509" d="M577.517,522.231a1.437,1.437,0,0,1,.3-.782c.1-.117.192-.152.32-.04.107.093.1.174.014.275a.781.781,0,0,0-.22.543.413.413,0,0,0,.232.4.345.345,0,0,0,.435-.129c.148-.184.272-.388.42-.571a.742.742,0,0,1,.953-.3.826.826,0,0,1,.476.946,1.272,1.272,0,0,1-.392.762c-.089.082-.175.126-.279.017a.181.181,0,0,1-.018-.283.935.935,0,0,0,.292-.628.411.411,0,0,0-.214-.411.346.346,0,0,0-.443.1c-.165.193-.312.4-.465.605a.752.752,0,0,1-.857.326A.863.863,0,0,1,577.517,522.231Z" transform="translate(-1.574 -85.477)" fill="#1a1818"/>
      <path id="Trazado_1510" data-name="Trazado 1510" d="M831.627,496.37c-.12-.012-.155-.1-.188-.183a.154.154,0,0,1,.092-.22c.319-.136.638-.272.958-.4.4-.168.818-.316,1.211-.506.255-.123.359-.043.444.191.106.291.232.575.351.862.056.134.151.279-.064.357s-.225-.119-.284-.238c-.048-.1-.083-.2-.126-.3-.2-.476-.2-.476-.663-.268-.346.155-.346.156-.208.525.045.12.087.241.142.356a.171.171,0,0,1-.1.261c-.136.06-.19-.034-.246-.138-.118-.218-.112-.583-.362-.625-.216-.037-.47.154-.707.244Z" transform="translate(-197.442 -65.154)" fill="#1a1818"/>
      <path id="Trazado_1511" data-name="Trazado 1511" d="M630.72,437.746a2.974,2.974,0,0,0,.655-.415c.1-.062.186-.114.284,0,.125.145.025.221-.079.31-.178.152-.409.243-.55.485.156.213.319.431.476.652.091.128.242.252.021.406-.191.133-.26-.019-.343-.131-.446-.6-.885-1.206-1.335-1.8-.12-.159-.144-.277.04-.405.3-.209.589-.431.881-.65.1-.075.193-.1.279.016s.046.2-.054.277-.176.131-.263.2c-.517.386-.516.386-.111.9A1.187,1.187,0,0,1,630.72,437.746Z" transform="translate(-41.871 -19.742)" fill="#1a1818"/>
      <path id="Trazado_1512" data-name="Trazado 1512" d="M576.3,531.373l2.116.239c.157.018.354-.021.318.247s-.229.187-.379.172c-.563-.058-1.125-.135-1.688-.19-.412-.041-.414-.031-.467.387-.014.109-.025.218-.028.328,0,.144-.083.192-.213.177-.1-.012-.165-.066-.153-.18.069-.654.137-1.308.208-1.961.013-.123.078-.2.218-.18s.155.134.146.245C576.364,530.872,576.336,531.088,576.3,531.373Z" transform="translate(-0.256 -92.471)" fill="#1a1818"/>
      <path id="Trazado_1513" data-name="Trazado 1513" d="M601.406,463.9c-.086.008-.125.073-.168.128q-.17.215-.335.434a.149.149,0,0,1-.232.042c-.1-.074-.145-.16-.054-.273.023-.028.043-.059.065-.088q.53-.7,1.061-1.4c.086-.114.16-.268.342-.125.157.124.038.22-.03.322-.384.578-.384.578.185,1.007l1.18.892c.112.085.188.17.074.314s-.207.118-.326.027q-.742-.564-1.487-1.123A.583.583,0,0,0,601.406,463.9Z" transform="translate(-19.355 -40.136)" fill="#1a1818"/>
      <path id="Trazado_1514" data-name="Trazado 1514" d="M828.144,480.011c-.117-.221-.224-.428-.338-.632-.06-.107-.087-.2.038-.276a.173.173,0,0,1,.271.075c.1.174.193.35.29.525.2.366.408.731.607,1.1.064.118.192.246-.023.359-.179.094-.217-.049-.283-.149-.381-.588-.38-.588-.991-.25l-1.291.712c-.115.063-.223.125-.32-.035s-.024-.261.125-.342c.559-.3,1.116-.614,1.672-.923C827.981,480.13,828.051,480.074,828.144,480.011Z" transform="translate(-193.305 -52.865)" fill="#1a1818"/>
      <path id="Trazado_1515" data-name="Trazado 1515" d="M750.9,419.349c-.393-.123-.847-.26-1.3-.408-.15-.05-.092-.173-.061-.275.227-.751.457-1.5.682-2.251.044-.146.115-.225.275-.173s.175.162.131.3c-.136.435-.269.872-.4,1.307-.027.087-.059.173-.081.261-.15.612-.3.514.382.733.174.056.35.1.519.17.1.039.114.128.071.228C751.091,419.317,751.056,419.373,750.9,419.349Z" transform="translate(-134.253 -4.388)" fill="#1a1818"/>
      <path id="Trazado_1516" data-name="Trazado 1516" d="M759.692,422.281c-.021.127-.089.209-.221.16-.427-.157-.851-.321-1.273-.488-.133-.053-.117-.154-.072-.269q.437-1.118.865-2.239c.055-.142.126-.194.287-.129.176.072.145.179.1.3-.228.594-.441,1.195-.693,1.778-.114.263-.03.356.2.432s.441.169.662.253C759.638,422.119,759.7,422.17,759.692,422.281Z" transform="translate(-140.874 -6.75)" fill="#1a1818"/>
      <path id="Trazado_1517" data-name="Trazado 1517" d="M825.824,607.683l-.493.9c-.054.1-.1.191-.248.127-.168-.074-.144-.186-.076-.31.224-.413.451-.825.692-1.267l2.287,1.219c.118.063.219.125.13.293-.1.185-.21.146-.356.067C827.136,608.377,826.51,608.048,825.824,607.683Z" transform="translate(-192.453 -151.66)" fill="#1a1818"/>
      <path id="Trazado_1518" data-name="Trazado 1518" d="M587.411,499.5c-.171.408-.349.847-.539,1.282-.048.111-.149.067-.236.032-.745-.3-1.49-.6-2.236-.9-.154-.061-.188-.145-.118-.295.078-.165.184-.129.314-.076.575.233,1.16.443,1.726.7.278.124.392.057.474-.213.069-.226.178-.44.267-.659a.155.155,0,0,1,.211-.11C587.371,499.3,587.42,499.364,587.411,499.5Z" transform="translate(-6.766 -68.438)" fill="#1a1818"/>
      <path id="Trazado_1519" data-name="Trazado 1519" d="M806.459,451.555c-.081.091-.148.176-.225.25-.43.419-.855.843-1.3,1.247-.2.18-.193.309,0,.48.176.156.332.336.494.508.083.089.112.181.006.279s-.2.054-.279-.031c-.291-.3-.577-.605-.871-.9-.122-.123-.084-.212.025-.316.577-.553,1.151-1.111,1.727-1.666.062-.06.133-.141.229-.058A2.4,2.4,0,0,1,806.459,451.555Z" transform="translate(-176.451 -31.455)" fill="#1a1818"/>
      <path id="Trazado_1520" data-name="Trazado 1520" d="M832.362,604.253c-.055.12-.094.265-.3.166-.725-.34-1.455-.671-2.185-1-.136-.062-.2-.128-.129-.29s.166-.159.3-.095c.726.338,1.455.672,2.183,1.007C832.316,604.078,832.4,604.122,832.362,604.253Z" transform="translate(-196.124 -148.463)" fill="#1a1818"/>
      <path id="Trazado_1521" data-name="Trazado 1521" d="M745.112,417.618c-.1-.021-.219-.05-.218-.189a1.437,1.437,0,0,1,.056-.322c.172-.69.347-1.378.519-2.067.034-.134.082-.25.254-.208a.206.206,0,0,1,.164.287c-.2.777-.391,1.555-.59,2.331C745.276,417.533,745.239,417.626,745.112,417.618Z" transform="translate(-130.692 -3.305)" fill="#1a1818"/>
      <path id="Trazado_1522" data-name="Trazado 1522" d="M691.348,423.325c-.045.236-.077.429-.121.619-.028.12-.058.265-.226.247-.2-.022-.114-.18-.109-.291s.033-.213.036-.319C690.935,423.326,691.093,423.3,691.348,423.325Z" transform="translate(-89.017 -9.859)" fill="#1a1818"/>
      <path id="Trazado_1523" data-name="Trazado 1523" d="M628.34,604.259c.1-.029.112.035.109.11A.114.114,0,0,1,628.34,604.259Z" transform="translate(-40.78 -149.436)" fill="#1a1818"/>
      <path id="Trazado_1524" data-name="Trazado 1524" d="M628.836,604.767c.065-.016.082.017.076.074C628.858,604.845,628.841,604.813,628.836,604.767Z" transform="translate(-41.163 -149.83)" fill="#1a1818"/>
      <path id="Trazado_1525" data-name="Trazado 1525" d="M659.493,471.567a1.875,1.875,0,0,1-1.6,1.508,1,1,0,0,1-.195-.557c-.031-.19-.059-.381-.106-.69-.085.313-.144.5-.187.7-.054.24-.186.281-.4.2a1.98,1.98,0,0,1-1.1-.941c-.077-.141-.136-.292-.218-.469a2.582,2.582,0,0,1-.645,1.11c-.33.33-.372.331-.656-.061-.125-.173-.229-.362-.379-.6a2.142,2.142,0,0,1-.247,1.1,2.043,2.043,0,0,1-.909.764c-.355.17-.354.172-.2.547.048.119.106.234.143.356.093.3.237.44.6.352s.5.073.458.449a3.5,3.5,0,0,1-.155.748.932.932,0,0,0,.246.931,2.614,2.614,0,0,1,.372-1.268c-.131-.137-.355-.015-.439-.194a.86.86,0,0,1-.051-.53,2.331,2.331,0,0,1,.343-1.029c.2-.279.078-.659.324-.94l.042.417c.035.019.056.035.061.032.253-.19.663-.15.795-.5.072-.192.166-.194.331-.155a2.016,2.016,0,0,1,1.508,1.159c.2-.211.092-.481.228-.681.036.947.056,1.888.151,2.825a5.2,5.2,0,0,0,.086.651.2.2,0,0,0,.361.089,5.947,5.947,0,0,0,.472-.8c.084-.167-.1-.253-.177-.364a1.989,1.989,0,0,1-.333-1.664c.048-.207.125-.269.338-.209a2.946,2.946,0,0,1,.76.3c.2.121.3.055.359-.151.049-.173.111-.343.171-.528.085.078.045.169.035.24a1.912,1.912,0,0,0,.326,1.647l.3-2.094a5.3,5.3,0,0,1,.182,1.6,3.845,3.845,0,0,1,1.229-.125,2.326,2.326,0,0,1,1.062.646c.267-.188.26-.565.548-.71l-.008-.008a1.254,1.254,0,0,1-.241.659c-.163.254.046.508-.048.721s-.4.249-.443.523a.651.651,0,0,1-.072.206c-.1.183-.071.3.143.371a2.041,2.041,0,0,1,.576.309,1.914,1.914,0,0,1,.759,1.359,5.556,5.556,0,0,0,.941-1.65c.088-.347.339-.524.461-.807.01-.023.045-.036.068-.053a.1.1,0,0,0-.007.036c.046.227.2.1.291.07a1.692,1.692,0,0,1,1.976.671c.055.069.112.137.219.266a2.032,2.032,0,0,1,1.145-.978c.391-.14.49-.09.578.3a1.964,1.964,0,0,1-1.281,2.317c-.318.114-.359.095-.453-.243a2.856,2.856,0,0,1-.1-1,2.019,2.019,0,0,1-2.611-.4,1.261,1.261,0,0,0-.3.684c.073.112.166.089.252.08a1.681,1.681,0,0,1,1.815.934c.081.154.151.307.359.162l.152.039c-.078.137-.347.183-.192.453a5.588,5.588,0,0,1,.854-.455c.272-.1.362,0,.418.236a2.142,2.142,0,0,1-.342,1.861c-.04.022-.106.04-.061.1s.094.019.139-.01l.344-.036a1.835,1.835,0,0,1-.576.509,3.757,3.757,0,0,1-1.25.532c-.309.068-.371.208-.331.49a2.013,2.013,0,0,1-.237,1.326,11.945,11.945,0,0,0,3.279-1.408c.035-.186-.125-.288-.2-.422a1.861,1.861,0,0,1,.441-2.542c.335-.286.429-.276.668.111a2.071,2.071,0,0,1,.254,1.728c-.035.122-.078.242-.117.363-.013.044-.051.11-.036.126.059.062.114.02.16-.033l.57-.272a4.309,4.309,0,0,1-1.431,1.516c.162.176.377.181.552.264a1.792,1.792,0,0,1,.971,2.2c-.056.242-.186.27-.4.23a1.979,1.979,0,0,1-1.5-1.867,1.335,1.335,0,0,0-.021-.576l-1.363.707c.062.194.255.187.386.252a1.805,1.805,0,0,1,.885,2.148c-.064.275-.275.214-.437.166a1.893,1.893,0,0,1-1.441-1.426c-.057-.245-.075-.5-.114-.777a7.092,7.092,0,0,0-1.31.512c.164.088.293.15.416.223a1.813,1.813,0,0,1,.765,2.283c-.1.238-.254.218-.443.16a1.932,1.932,0,0,1-1.3-1.678c-.014-.253,0-.507,0-.778a2.524,2.524,0,0,0-.721.2c-.246.067-.486.156-.736.238,0,.19.18.207.285.281a1.8,1.8,0,0,1,.621,2.153c-.077.252-.267.226-.443.16a1.919,1.919,0,0,1-1.3-1.434,2.866,2.866,0,0,1-.013-.853,3.921,3.921,0,0,0-1.359.344c.2.117.351.19.486.28a2.045,2.045,0,0,1,.837,2.4c-.059.236-.169.27-.4.2a1.883,1.883,0,0,1-1.409-2.223c.02-.142.114-.273.068-.429-.163-.07-.276.054-.393.115a5.735,5.735,0,0,0-3.193,4.845,35.811,35.811,0,0,0-.192,5.636,14.837,14.837,0,0,0,.657,3.546,1.9,1.9,0,0,0,1.287,1.17,9.045,9.045,0,0,0,2.027.454c.869.115,1.741.2,2.611.305a.5.5,0,0,1,.336.119c-.389.405-.891.332-1.387.39.213.247.581.221.738.59a14.317,14.317,0,0,1-3.212-.188c.235.458.758.606.968,1.06a.673.673,0,0,1-.686-.043,5.633,5.633,0,0,1-1.072-.656,1.751,1.751,0,0,0-.536-.365c0-.042-.027-.062-.066-.054a.061.061,0,0,0,0,.046c.025.041.052.038.076-.005-.162.213,0,.418.034.617a4.745,4.745,0,0,1,.091.814.728.728,0,0,1-.073.372c-.047.08-.105.165-.2.168s-.144-.1-.163-.186a4.587,4.587,0,0,0-.341-1.038,1.374,1.374,0,0,0-.381-.528c-.088-.068-.186-.138-.293-.056s-.023.171.007.248c.078.2.169.4.254.606a.661.661,0,0,1,.025.616c-.776-.31-1.169-1.04-1.754-1.533-.535.513-.555.64-.2,1.22.194.318.122.442-.259.455a.834.834,0,0,1-.722-.328c-.216-.29-.443-.255-.715-.123a2.9,2.9,0,0,0-1.027.887c-.043.056-.095.105-.145.16a.758.758,0,0,1,.083-1.1,2.815,2.815,0,0,1,1.036-.6,2.055,2.055,0,0,0,.592-.277c.1-.083.2-.183.083-.32-.095-.112-.225-.151-.329-.028a1.426,1.426,0,0,1-1.139.419c-.344.017-.682.125-1.027.163a.768.768,0,0,0-.668.564c-.058.154-.1.312-.169.463s-.181.281-.383.222a.332.332,0,0,1-.232-.386,1.324,1.324,0,0,1,.4-.877,6.064,6.064,0,0,1,1.185-.879,19.566,19.566,0,0,0-3.963.958c-.039-.253.145-.354.161-.518.022-.043.042-.092,0-.126s-.085,0-.115.036c-.165.077-.327.161-.5.228a.635.635,0,0,1-.576.022,1.791,1.791,0,0,0-.862-.1c-.087,0-.193,0-.2-.124a.181.181,0,0,1,.154-.2,3.065,3.065,0,0,1,1.035-.062.987.987,0,0,0,.857-.246c.12-.11.276-.182.4-.292a1.334,1.334,0,0,1,1-.353c.553.028,1.057-.258,1.613-.246.208,0,.327-.217.45-.373a5.552,5.552,0,0,0,.931-1.969,17.3,17.3,0,0,0,.491-5.11,17.853,17.853,0,0,0-.262-3.382,8.8,8.8,0,0,0-1.169-3.051,5.427,5.427,0,0,0-1.094-1.219.571.571,0,0,0-.694-.125c-.213.11-.414.1-.453-.183-.075-.536-.476-.486-.834-.554a.725.725,0,0,0,.03.47,1.8,1.8,0,0,1-1.324,2.157c-.267.083-.363-.024-.437-.25a1.981,1.981,0,0,1,.812-2.209,1.908,1.908,0,0,0,.526-.324l-1.581-.588c-.175.152-.055.3-.046.427a1.817,1.817,0,0,1-1.339,1.958c-.241.075-.329-.024-.4-.224a1.965,1.965,0,0,1,.544-2.1c.135-.118.283-.22.446-.345a6.932,6.932,0,0,0-1-.462c-.151.115-.067.248-.062.363a1.7,1.7,0,0,1-1.228,1.851c-.477.177-.606.116-.659-.368a1.934,1.934,0,0,1,.815-1.914c.1-.074.217-.133.358-.219a2.946,2.946,0,0,0-.982-.491c0,.2,0,.359,0,.522a1.966,1.966,0,0,1-1.394,1.84c-.209.067-.3.019-.359-.184a1.822,1.822,0,0,1,.856-2.342l.293-.153a8.068,8.068,0,0,0-1.218-.74c-.121.182-.026.34-.008.491a1.763,1.763,0,0,1-1.141,1.968c-.283.116-.375.075-.5-.221a1.945,1.945,0,0,1,.632-2.262c.157-.119.328-.221.5-.333l-.483-.434c0-.063-.022-.047-.026,0-.04.5-.112.565-.583.513a2,2,0,0,1-1.793-1.908c-.01-.222.087-.285.286-.294a2.123,2.123,0,0,1,1.622.554,5.693,5.693,0,0,1,0-.895,2.711,2.711,0,0,1,.553-1.178.216.216,0,0,1,.366-.036c.173.16.344.323.562.529a3.531,3.531,0,0,1,.784-.749c-.191-.079-.333-.13-.469-.2a1.975,1.975,0,0,1-1.1-1.656c-.036-.28.1-.356.341-.355a2.4,2.4,0,0,1,1.375.388,2.531,2.531,0,0,1,.811-1.291.366.366,0,0,1,.528-.015l.073.1c.069-.062.024-.106-.024-.15a.511.511,0,0,0-.008-.054c-.237-.914-.359-.946.755-.913a.636.636,0,0,0,.107-.015c.031-.169-.109-.261-.176-.382a2.133,2.133,0,0,1-.1-1.851c.057-.156.116-.243.315-.176a1.966,1.966,0,0,1,1.177,3.039c-.042.071-.07.118-.034.188a1.446,1.446,0,0,0,.085.13c.179-.012.125-.159.154-.246a1.945,1.945,0,0,1,1.529-1.339c.224-.051.323,0,.375.244a1.807,1.807,0,0,1-1.193,2.181.968.968,0,0,0-.373.165,5.634,5.634,0,0,0,.475.949c.171-.006.15-.145.189-.238a1.955,1.955,0,0,1,1.079-1.036c.293-.132.358-.1.487.223a1.99,1.99,0,0,1-.516,2.157c-.122.107-.257.2-.415.324a2.731,2.731,0,0,0,.461.72,4.78,4.78,0,0,1,.651-.563c.477-.292.564-.267.731.244a1.788,1.788,0,0,1-.147,1.63.3.3,0,0,0,.038.428c.161.171.313.352.474.534a.674.674,0,0,0,.276-.777,31.7,31.7,0,0,0-1.415-5.507c-.063-.172-.191-.334.146-.392.088-.015.049-.306-.026-.449a1.322,1.322,0,0,1-.2-.561c-.008-.2,0-.4,0-.627a.47.47,0,0,1-.481.091,2.01,2.01,0,0,1-1.268-2.515c.08-.225.22-.209.387-.155a1.821,1.821,0,0,1,1.412,1.624.527.527,0,0,0,.053.321c.165.008.183-.148.254-.237a2.479,2.479,0,0,1,1.062-.747c.229-.092.321-.013.4.2a1.83,1.83,0,0,1-.824,2.311c-.09.055-.208.073-.271.22a2.965,2.965,0,0,1,1.425.5,6.094,6.094,0,0,1,.206-2.458c.157.951.191,1.911.388,2.929.234-.239.4-.429.59-.6a.27.27,0,0,0,.072-.343,8.7,8.7,0,0,0-.411-1.282,1.641,1.641,0,0,1,.054-1.482c.058-.14.223-.252.147-.438l-.012.012c.171.073.211-.1.293-.17a3.008,3.008,0,0,1,.843-.5.49.49,0,0,1,.472.073,2.33,2.33,0,0,1,.851-1.478.278.278,0,0,1,.461.033,3.226,3.226,0,0,1,.432.806c.055-.14.1-.246.138-.356.055-.17.163-.162.3-.113a1.808,1.808,0,0,1,1.4,1.516.708.708,0,0,0,.045.156c0,.013.029.02.048.032.14-.024.118-.162.153-.248a1.851,1.851,0,0,1,1.2-1.044c.341-.119.372-.093.525.307C659.493,470.991,659.493,471.279,659.493,471.567Zm4.121,8.771c.615-.043,1.031-.472,1.6-.745a3.229,3.229,0,0,1-.673-.822,14.015,14.015,0,0,1-.917,1.573l-.029.079c.014,0,.034-.005.042-.015C663.669,480.375,663.658,480.351,663.614,480.338Zm-6.562,8.457c.564-.341.968-.862,1.59-1.289a5.626,5.626,0,0,1-1.136-.3,14.537,14.537,0,0,0-.445,1.6.144.144,0,0,0-.045.013c-.007,0-.005.023-.007.035Zm-7.218-12.263c.288.551.46,1.152.7,1.755.251-.647.251-.646.876-.436.045.015.1.04.142-.016.012-.452,0-.622-.07-.688-.148-.139-.349-.057-.519-.111a3.08,3.08,0,0,1-.7-.3c-.151-.093-.246-.278-.451-.284A.166.166,0,0,0,649.833,476.532Zm4.118,1.967a.669.669,0,0,0-.15-.652v.657a1.633,1.633,0,0,1-.623,1.049c-.162.139-.443.165-.494.387s.1.451.17.674a1.2,1.2,0,0,0,.225.479A4.886,4.886,0,0,0,653.951,478.5Zm-10.281.429c-.052-.051.05-.032-.023-.038a.1.1,0,0,0-.027,0c0,.037.021.046.058.026a2.35,2.35,0,0,1-.575,1.951c.246.218.414.272.6-.014a1.774,1.774,0,0,1,.732-.552c.122-.062.3-.044.364-.251A5.789,5.789,0,0,0,643.67,478.928Zm23.365.984c-.148-.031-.239.059-.328.154-.462.494-.922.99-1.334,1.527-.074.1-.181.187-.143.37a3.746,3.746,0,0,0,1.219-.115c.241-.026.388-.1.3-.422a1.808,1.808,0,0,1,.165-1.173c.047-.112.17-.2.113-.349.05,0,.063-.006.039-.028Zm-13.121.8c.258-.087.514-.18.774-.258.131-.039.243-.025.288.151a1.823,1.823,0,0,1-1.01,2.273.879.879,0,0,0-.386.186,10.534,10.534,0,0,0,1.021,2.763,29.2,29.2,0,0,0,.649-4.268,11.049,11.049,0,0,0-.046-2.621c-.016-.1.017-.256-.131-.259-.239-.006-.367-.234-.612-.267-.116.777-.448,1.492-.595,2.259a.822.822,0,0,0-.06.058C653.85,480.788,653.886,480.768,653.915,480.717Zm-6.288,4.018c-.024.038-.015.057.028.053a.065.065,0,0,0,0-.033c-.01-.072.017.03-.044-.011a2.063,2.063,0,0,0-.389-.881c-.241.089-.464.165-.681.253-.187.076-.273-.016-.319-.175-.03-.1-.037-.216-.062-.322a2.84,2.84,0,0,1,.121-1.269c-.1-.02-.148-.034-.2-.042-.629-.1-1.284-.353-1.777.315a.108.108,0,0,1-.048.026c-.264.1-.541.377-.8.185a.8.8,0,0,1-.183-.817c.093-.395-.107-.558-.394-.719a.511.511,0,0,0-.771.179c-.135.234-.264.472-.389.7.018.1.086.13.147.168a21.038,21.038,0,0,0,5.388,2.371A.459.459,0,0,0,647.627,484.735Zm-3.185-8.666-.037-.093-.055.053.077.054a.851.851,0,0,0,.075.37,1.923,1.923,0,0,1-.339,1.758c-.079.1-.155.2-.249.324a15.326,15.326,0,0,1,2.542,2.716c.12.161.217.373.379.457.2.105.382-.147.595-.184a2.7,2.7,0,0,0,.413-.147,13.074,13.074,0,0,1-1.356-1.26c-.078-.094-.189-.1-.291-.133a2.052,2.052,0,0,1-1.394-2.6c.106-.4.156-.424.523-.294a1.868,1.868,0,0,1,1.287,2.2c-.019.107-.054.212-.08.318a.253.253,0,0,0,.1.29,12.458,12.458,0,0,0,1.666,1.143.847.847,0,0,0-.122-.848,9.481,9.481,0,0,1-1.661-3.183c-.037-.141-.093-.223-.261-.207A2.3,2.3,0,0,1,644.442,476.069Zm6.988,7.306a6.681,6.681,0,0,0,1.694,1.375c-.333-1.414-.641-2.722-.952-4.028-.024-.1-.047-.218-.176-.254a3.075,3.075,0,0,1-1.069-.7l.287,1.448c.171-.063.287-.109.406-.148.4-.128.431-.107.511.286A1.865,1.865,0,0,1,651.43,483.375Zm4.961-3.6a3.707,3.707,0,0,1,.773-.479c.205-.063.234-.193.216-.374-.039-.4-.086-.8-.1-1.2-.023-.619-.019-1.239-.032-1.858,0-.114.05-.27-.158-.277a2.027,2.027,0,0,1-1.409-.77c-.224.168-.38.4-.616.543-.446.273-.442.284-.046.633.068.06.127.133.238.127.032-.137.058-.278.1-.416.128-.452.226-.5.655-.293a2.031,2.031,0,0,1,1.029,2.583c-.058.16-.149.24-.329.185a2.139,2.139,0,0,0-.278-.047,1.459,1.459,0,0,0-.038.223C656.39,478.791,656.391,479.228,656.391,479.772Zm1.359,1.085a1.958,1.958,0,0,1-.993.842.342.342,0,0,0-.258.409c.056.655.083,1.313.15,1.968a8.417,8.417,0,0,0,.238,1.4c.06.215.2.281.358.144a1.791,1.791,0,0,0,.381-.827c.09-.244-.141-.308-.257-.428a1.978,1.978,0,0,1-.279-2.515c.2-.309.238-.313.546-.086.278.205.476.488.754.726A15.462,15.462,0,0,1,657.751,480.856Zm-2.162-3.281a12.752,12.752,0,0,0,.219,1.9c.034.639.044,1.277.027,1.914s-.063,1.276-.122,1.911-.151,1.261-.23,1.9c.678-.155.677-.155.606-.789-.012-.109-.011-.219-.022-.328a23.391,23.391,0,0,1,.116-5.458A.864.864,0,0,0,655.589,477.575Zm5.876,4.439a1.664,1.664,0,0,0,.591-.733c.069-.282.016-.6.466-.538.045.006.112-.085.156-.141.19-.241.375-.485.578-.748a3.544,3.544,0,0,1-.916-.886c-.08-.132-.466-.127-.518.009a6.256,6.256,0,0,0-.212.787c-.043.176.108.256.194.366.266.342.276.39-.1.631a.588.588,0,0,0-.307.526A1.666,1.666,0,0,0,661.465,482.014Zm-9.867,2.457c-.334-.3-.553-.7-.944-.778-.5-.1-.322-.727-.76-.818-.018,0-.036-.006-.054-.009.228,1.57.228,1.57-.4,2.371a1.81,1.81,0,0,0,.556.333.17.17,0,0,0,.269-.072A2.311,2.311,0,0,1,651.6,484.471Zm11.981-3.191a2.122,2.122,0,0,1,.542,1.087c.354-.442.659-.848.992-1.228s.706-.745,1.085-1.141c-.227-.068-.384-.106-.534-.162a.3.3,0,0,0-.345.076A13.616,13.616,0,0,1,663.579,481.28Zm-15.6.219a2.462,2.462,0,0,1-.025,1.309c-.153.517-.081.712.385,1.088a1.952,1.952,0,0,1,1.472-1.2A16,16,0,0,0,647.982,481.5Zm10.694-.117c.127-.33.4-.655.32-.964-.1-.406.276-.606.248-.942a.22.22,0,0,1,.007-.054c.025-.147-.012-.257-.182-.261a2.922,2.922,0,0,1-1.111-.393A5.4,5.4,0,0,0,658.677,481.381Zm2.753,1.755a2.53,2.53,0,0,1,.966.48,1.823,1.823,0,0,1,.542.964c.209-.418.376-.757.548-1.094.059-.115.061-.213-.074-.261a2.2,2.2,0,0,1-1.2-1.035Zm2.1,2.016a3.508,3.508,0,0,0,.683-.145c.309-.05.423-.168.371-.512a1.751,1.751,0,0,1,.355-1.342c.117-.154.251-.3.373-.438-.57-.186-.869.063-1.066.557-.182.457-.418.892-.623,1.34A.7.7,0,0,0,663.529,485.152Zm-7.186,1.234a1.946,1.946,0,0,1-.947,1.225c-.12.066-.2.137-.131.3a9.951,9.951,0,0,0,.515,1.238c.279-.574.538-1.11.8-1.645a.4.4,0,0,0,.022-.318A3.724,3.724,0,0,0,656.343,486.386Zm2.675-3.814-.787,2.56c.443-.24.791-.427.736-.928a.954.954,0,0,1,.029-.161c.018-.237.136-.341.36-.237.433.2.654-.054.923-.379A2.818,2.818,0,0,1,659.018,482.572Zm.793-3.082a2.634,2.634,0,0,1,1.049-.013c.382.094.391.091.475-.3.026-.119.182-.292-.042-.368a2.836,2.836,0,0,1-1.165-.89Zm-6.943,7.84a18.044,18.044,0,0,1,1.752,1.495,20.06,20.06,0,0,0-.9-2.376A2.3,2.3,0,0,1,652.867,487.33Zm9.448-10.9a3.637,3.637,0,0,1-1.052-.088,4.654,4.654,0,0,1-.861-.522c-.023.208-.041.332-.05.456-.026.384-.026.393.344.44a1.868,1.868,0,0,1,.992.424c.075.063.127.187.286.125Zm-1.382,7.376c-.494.429-.5.431-.235.88a1.7,1.7,0,0,1,.223.78.986.986,0,0,0,.059.5l1.042-.462A2,2,0,0,1,660.933,483.8Zm-1.411-5.7.279-1.591c-.223-.057-.419-.092-.6-.159-.156-.057-.235-.024-.287.131s-.119.3-.185.454a.225.225,0,0,0,.1.324A2.171,2.171,0,0,1,659.522,478.1Zm.732,8.237a3.579,3.579,0,0,1-1-.728c-.381.351-.378.348-.149.7.117.177.22.364.342.568A4.032,4.032,0,0,0,660.254,486.336Zm.646-5.205a2.536,2.536,0,0,1-1.231-.276c-.068-.04-.145-.06-.182.022a.147.147,0,0,0,.108.211,1.928,1.928,0,0,1,1.185,1.056A3.65,3.65,0,0,0,660.9,481.131Zm-9.072,3.591a2.334,2.334,0,0,1-.119,1.654c-.055.1.012.176.1.209.123.045.158-.045.166-.141a2.415,2.415,0,0,1,.2-.728c.073-.176.339-.3.235-.506a1.649,1.649,0,0,0-.426-.41A.749.749,0,0,0,651.827,484.722Zm.455-6.774a2.409,2.409,0,0,1,1.011-.838c.09-.04.163-.1.106-.206s-.137-.1-.226-.027a2.036,2.036,0,0,1-.884.392.18.18,0,0,0-.169.224A.638.638,0,0,0,652.282,477.948Zm-7.136,2.525c0,.318.013.535,0,.749s.106.286.291.281c.137,0,.289.034.412-.118Zm4.1-7.18-.031-.041a.608.608,0,0,0-.027.094c0,.013.016.029.025.043Zm3.834,30.082.091-.031c-.012-.011-.024-.03-.037-.031a.534.534,0,0,0-.091.009Zm.31-.142.039.008-.024-.025ZM641.86,483.087l.018-.037h-.033Z" transform="translate(-48.654 -45.489)" fill="#1a1818"/>
      <path id="Trazado_1526" data-name="Trazado 1526" d="M737.886,481.559c-.02-.147.145-.309-.055-.442a2.187,2.187,0,0,1-.841-1.137,2.051,2.051,0,0,1-1.085,1.235c-.363.181-.425.157-.568-.206a1.985,1.985,0,0,1,1.064-2.518c.191-.08.31-.056.382.146.041.116.094.227.144.346.278-.4.278-.4.732-.209a1.737,1.737,0,0,1,1.09,2.262.62.62,0,0,0,.182.738,1.7,1.7,0,0,1,.286,2.284c-.272.458-.389.471-.781.087a1.973,1.973,0,0,1-.409-2.272c.077-.164.172-.32.258-.478-.252-.22-.3.055-.41.156Z" transform="translate(-123.221 -52.389)" fill="#1a1818"/>
      <path id="Trazado_1527" data-name="Trazado 1527" d="M756.593,484.749c.312-.045.518-.306.815-.392.357-.1.411-.088.5.261a2.36,2.36,0,0,1-.078,1.429,2.072,2.072,0,0,1,1.607.793c.276.355.267.421-.132.661a1.891,1.891,0,0,1-2.365-.268c-.155-.144-.264-.347-.548-.224-.147.063-.2-.1-.245-.226a2,2,0,0,1,.073-1.338c.041-.117.2-.229.053-.376l-.011.009c.151.073.16,0,.118-.118l-.008.008c.134.056.138-.018.119-.117l-.008.008q.163.046.117-.117Z" transform="translate(-139.306 -56.902)" fill="#1a1818"/>
      <path id="Trazado_1528" data-name="Trazado 1528" d="M694.112,469.868c-.2.156-.4.309-.6.47s-.332.1-.449-.09a2.132,2.132,0,0,1,.621-3.026.194.194,0,0,1,.316.058,2.15,2.15,0,0,1,.2,2.41,1.661,1.661,0,0,0-.1.192Z" transform="translate(-90.421 -43.683)" fill="#1a1818"/>
      <path id="Trazado_1529" data-name="Trazado 1529" d="M730.656,470.04a2.084,2.084,0,0,1,.862-1.28c.16-.126.265-.119.4.055a1.955,1.955,0,0,1-.471,2.907c-.216.14-.361.127-.492-.092a1.864,1.864,0,0,1-.28-.7A1.518,1.518,0,0,1,730.656,470.04Z" transform="translate(-119.662 -44.848)" fill="#1a1818"/>
      <path id="Trazado_1530" data-name="Trazado 1530" d="M781.451,525.714a2.205,2.205,0,0,1,.9.4,1.842,1.842,0,0,1,.558,2.246c-.1.2-.229.19-.4.134a1.953,1.953,0,0,1-1.286-1.9A1.745,1.745,0,0,1,781.451,525.714Z" transform="translate(-158.716 -88.85)" fill="#1a1818"/>
      <path id="Trazado_1531" data-name="Trazado 1531" d="M752.82,478.585c-.17,0-.236.152-.352.231-.264.178-.339.169-.531-.09a2.027,2.027,0,0,1,.477-2.771c.182-.122.261-.027.351.1a1.924,1.924,0,0,1,.368,1.941c-.034.088-.142.19.01.275l0-.008c-.15-.072-.159,0-.117.117l.008-.008c-.134-.056-.13.026-.119.117l.008-.008c-.106-.027-.128.029-.118.118Z" transform="translate(-135.854 -50.42)" fill="#1a1818"/>
      <path id="Trazado_1532" data-name="Trazado 1532" d="M781.953,514.218a2,2,0,0,1,1.434-2.016c.232-.067.342.006.393.226a1.8,1.8,0,0,1-1.238,2.383c-.4.133-.476.092-.559-.311A1.911,1.911,0,0,1,781.953,514.218Z" transform="translate(-159.281 -78.408)" fill="#1a1818"/>
      <path id="Trazado_1533" data-name="Trazado 1533" d="M730.338,474.588a1.518,1.518,0,0,0,.017.888.167.167,0,0,1-.172,0q0-.434,0-.864C730.231,474.578,730.279,474.549,730.338,474.588Z" transform="translate(-119.345 -49.396)" fill="#1a1818"/>
      <path id="Trazado_1534" data-name="Trazado 1534" d="M764.633,511.382l-.152-.039a.414.414,0,0,1,.255-.148l0,0C764.756,511.289,764.7,511.339,764.633,511.382Z" transform="translate(-145.803 -77.649)" fill="#1a1818"/>
      <path id="Trazado_1535" data-name="Trazado 1535" d="M684.591,494.508c.012,0,.027,0,.035,0,.031.024.024.052-.019.074,0,0-.027-.022-.032-.038S684.585,494.521,684.591,494.508Z" transform="translate(-84.16 -64.775)" fill="#1a1818"/>
      <path id="Trazado_1536" data-name="Trazado 1536" d="M684.144,493.535c.009.013.026.026.026.038s-.02.023-.031.034c-.009-.013-.027-.026-.026-.038S684.133,493.546,684.144,493.535Z" transform="translate(-83.805 -64.025)" fill="#1a1818"/>
      <path id="Trazado_1537" data-name="Trazado 1537" d="M765.6,511.083c.01-.012.023-.035.029-.033.029.007.019.022-.026.036Z" transform="translate(-146.664 -77.537)" fill="#1a1818"/>
      <path id="Trazado_1538" data-name="Trazado 1538" d="M705.432,506.649a.088.088,0,0,1-.15.006c0-.215,0-.428,0-.658A.669.669,0,0,1,705.432,506.649Z" transform="translate(-100.135 -73.64)" fill="#1a1818"/>
      <path id="Trazado_1539" data-name="Trazado 1539" d="M687.844,499.9a.055.055,0,0,1,.019.081A.167.167,0,0,1,687.844,499.9Z" transform="translate(-86.683 -68.935)" fill="#1a1818"/>
    </g>
  </g>
</svg>
