<svg xmlns="http://www.w3.org/2000/svg" width="113" height="28.538" viewBox="0 0 113 28.538">
  <g id="Grupo_1429" data-name="Grupo 1429" transform="translate(-603.163 -441.893)">
    <path id="Trazado_994" data-name="Trazado 994" d="M976.721,470.388H965.773v-28.5h27.356v28.529a10.414,10.414,0,0,1-1.15-.015.561.561,0,0,1-.355-.315,9.9,9.9,0,0,0-6.413-5.7c-2.085-.687-4.276-1.053-6.413-1.588a10.339,10.339,0,0,1-2.181-.692,2.6,2.6,0,0,1-.666-4.229,4.61,4.61,0,0,1,1.786-1.086,5.142,5.142,0,0,1,6.807,3.747c.025.092.063.18.1.292.137-.017.253-.022.364-.047,2.263-.51,4.526-1.023,6.838-1.547a8.847,8.847,0,0,0-1.255-3.732,10.4,10.4,0,0,0-6.242-4.844c-4.212-1.233-8.344-1.153-12.2,1.21a9.938,9.938,0,0,0-4.443,11.8,8.764,8.764,0,0,0,4.927,5.225C973.952,469.5,975.36,469.9,976.721,470.388Z" transform="translate(-305.45)"/>
    <path id="Trazado_995" data-name="Trazado 995" d="M784.334,441.966H811.71V459.1l-.071.022c-.122-.419-.228-.843-.367-1.256a10.543,10.543,0,0,0-7.5-7.069,18.2,18.2,0,0,0-12.112.359,11.844,11.844,0,0,0-7.166,7.528,1.756,1.756,0,0,1-.062.165c-.007.015-.031.022-.1.066Z" transform="translate(-152.612 -0.061)"/>
    <path id="Trazado_996" data-name="Trazado 996" d="M1146.28,456.98V442.054h27.384v16.635c-2.663-5.689-7.219-8.246-13.154-8.6C1154.559,449.738,1149.887,452.124,1146.28,456.98Z" transform="translate(-457.502 -0.136)"/>
    <path id="Trazado_997" data-name="Trazado 997" d="M603.163,505.449v-12.4a.828.828,0,0,1,.2-.058c3.091.019,6.187-.065,9.271.1a5.642,5.642,0,0,1,5.307,3.433,6.2,6.2,0,0,1-5.019,8.841,12.381,12.381,0,0,1-1.647.114c-2.5.012-5,.006-7.5,0C603.576,505.476,603.385,505.46,603.163,505.449Z" transform="translate(0 -43.035)"/>
    <path id="Trazado_998" data-name="Trazado 998" d="M699.162,469.921c-.955-3.479-3.519-4.842-6.636-5.553,4.2-3.855,5.095-8.546,3.4-13.726-1.752-5.351-5.971-7.748-11.233-8.715h14.471Z" transform="translate(-68.676 -0.029)"/>
    <path id="Trazado_999" data-name="Trazado 999" d="M784.264,550.424V540.86l7.432,1.568c.13-.488.227-.928.364-1.355a5.109,5.109,0,0,1,2.833-3.234,7.345,7.345,0,0,1,6.082-.048,3.68,3.68,0,0,1,2.378,3.441,1.979,1.979,0,0,1-1.634,2.268c-1.419.317-2.871.478-4.305.729-2.5.438-5.061.533-7.47,1.426a9.825,9.825,0,0,0-5.5,4.5C784.421,550.207,784.384,550.252,784.264,550.424Z" transform="translate(-152.553 -80.246)"/>
    <path id="Trazado_1000" data-name="Trazado 1000" d="M1198.173,543.927h-14.481a6.328,6.328,0,0,1,1.419-3.644,7.657,7.657,0,0,1,8.288-2.382,5.956,5.956,0,0,1,4.267,3.889A20.682,20.682,0,0,1,1198.173,543.927Z" transform="translate(-489.017 -80.58)"/>
    <path id="Trazado_1001" data-name="Trazado 1001" d="M1182.552,616.348H1204.2v1.033h-20.8C1182.511,617.381,1182.491,617.356,1182.552,616.348Z" transform="translate(-488.039 -146.955)"/>
    <path id="Trazado_1002" data-name="Trazado 1002" d="M857.812,612v1.686h-8.838l-.033-.127a9.663,9.663,0,0,1,1.219-.361C852.683,612.794,855.209,612.409,857.812,612Z" transform="translate(-207.035 -143.295)"/>
  </g>
</svg>
