<svg xmlns="http://www.w3.org/2000/svg" width="184.055" height="56.754" viewBox="0 0 184.055 56.754">
  <g id="_2pFVvK" data-name="2pFVvK" transform="translate(52.511 1051.935)">
    <g id="Grupo_1442" data-name="Grupo 1442" transform="translate(-52.511 -1051.935)">
      <path id="Trazado_1286" data-name="Trazado 1286" d="M-424.612-326.337h6.45q-.1,10.507-.2,20.959h8.392v2.722l.116.026c.607-1.081,1.209-2.164,1.82-3.243q4.936-8.7,9.876-17.4c.026-.045.052-.09.078-.135.364-.6.411-.61.771-.028,1.766,2.851,3.536,5.7,5.287,8.559q3.66,5.979,7.294,11.973c.044.073.086.147.157.266l-4.769,2.89c-.524-.96-1.027-1.887-1.536-2.81-.545-.989-1.1-1.97-1.64-2.963a.622.622,0,0,0-.662-.366c-3.091.155-6.183.292-9.273.457a.691.691,0,0,0-.462.362c-.766,1.616-1.507,3.245-2.258,4.868-.071.154-.161.3-.254.469l-4.512-2.59v2.191l-14.68-.383Zm30.221,16.943L-397.8-315.9l-3.316,6.815Z" transform="translate(475.789 356.485)"/>
      <path id="Trazado_1287" data-name="Trazado 1287" d="M-825.127-524.622a.982.982,0,0,1-1.176.222c-.948-.349-1.909-.674-2.886-.928-.492-.128-.678-.326-.584-.816a3.8,3.8,0,0,0,.005-.614c-.519.415-.99.78-1.442,1.167-.051.044-.037.247.02.318.355.445.731.873,1.189,1.411l.179-1.433c.862.2,1.705.329,2.089,1.31.529-.213.842.113,1.154.454a5.646,5.646,0,0,1,.977,6.38c-1.141,2.07-4.042,2.99-5.862,1.971.321-.446.657-.875.95-1.331a.987.987,0,0,1,.973-.58c.25.015.516-.243.776-.376.161-.082.324-.161.5-.247a7.228,7.228,0,0,0,.277-1.077,2.361,2.361,0,0,0-1.193-2.519,2.858,2.858,0,0,0-3.15.194,3.384,3.384,0,0,0-.857,4.505.975.975,0,0,1,.011,1.25c-.529.793-.995,1.63-1.461,2.463-.179.319-.35.346-.613.1a8.568,8.568,0,0,0,.69-.948,1.6,1.6,0,0,0,.184-.786.828.828,0,0,0-.786-.775c-.163-.026-.429.2-.552.374a4.73,4.73,0,0,0-1.055,3.788,10.1,10.1,0,0,0,.7,1.671c-.977,1.192-2.006,2.454-3.043,3.709-.947,1.148-1.9,2.293-2.865,3.424-.1.115-.388.221-.483.161a14.024,14.024,0,0,1-4.9-5.044.482.482,0,0,1-.019-.128,2.711,2.711,0,0,0,2.215-2.861c-.093-1.435-.833-2.073-2.687-2.528.353-1.871.022-2.44-1.547-2.655-.388-4.579,2.91-11.288,9.261-13.859-.385.9-.738,1.761-1.122,2.6-.043.094-.261.147-.4.153a1.625,1.625,0,0,0-1.435.869c-.353.6-.777,1.15-1.185,1.711-.2.274-.315.54.05.737a.582.582,0,0,0,.885-.242c.219-.416.428-.836.646-1.253a.262.262,0,0,1,.236-.143c-.189.377-.375.756-.569,1.132s-.374.744-.587,1.1c-.2.332-.25.617.138.836a.634.634,0,0,0,.924-.3c.18-.394.3-.814.455-1.22a4.761,4.761,0,0,1,.591-1.187c-.133.395-.259.792-.4,1.184-.265.736-.542,1.467-.805,2.2-.2.571-.072.875.428,1.022.423.124.734-.113.857-.659.245-1.083.486-2.167.731-3.25a.261.261,0,0,1,.171-.2c-.192.945-.4,1.887-.564,2.837a.979.979,0,0,0,.133.715.822.822,0,0,0,.674.239c.157-.031.346-.336.369-.535.11-.983.169-1.971.249-2.958a1.787,1.787,0,0,1,.125-.559c.053.838.01,1.7,1.008,2.259-.029-.666-.074-1.226-.074-1.787,0-.847-.053-1.654-1.054-2.032.5-.593.935-1.125,1.384-1.648.676-.787,1.369-1.56,2.035-2.356a1.113,1.113,0,0,1,.821-.458,15.823,15.823,0,0,1,7.566,1.245,1,1,0,0,1,.644.73,1.7,1.7,0,0,0,.753.778c.511.329.532.3.346,1.076A2.569,2.569,0,0,1-826.7-527c-.284-.349-.5-.752-.785-1.1-.088-.107-.307-.106-.466-.155-.033.168-.149.388-.083.494a9.966,9.966,0,0,0,1.026,1.436c.158.176.5.178.752.283a.861.861,0,0,1,.335.248.3.3,0,0,1-.065.254c-.145.022-.343.05-.44-.027-.436-.344-.834-.736-1.269-1.081a1.276,1.276,0,0,0-.478-.125c-.034.216-.171.554-.084.629.6.517,1.244.988,1.894,1.445.083.058.325-.009.425-.1C-825.572-525.115-825.327-525.02-825.127-524.622Z" transform="translate(856.231 539.314)"/>
      <path id="Trazado_1288" data-name="Trazado 1288" d="M-423.2-588.915v-26c1.065,0,2.2-.062,3.321.013,2.443.164,4.886.351,7.318.622a11.183,11.183,0,0,1,3.9,1.259,4.65,4.65,0,0,1,1.436,7.427,9.944,9.944,0,0,1-3,2.221c-.105.056-.208.117-.31.179-.011.006-.01.031-.031.1.223.058.447.115.67.175a8.214,8.214,0,0,1,3.19,1.6,5.129,5.129,0,0,1,.516,7.482,11.993,11.993,0,0,1-5.359,3.469,26.863,26.863,0,0,1-8.6,1.448C-421.19-588.9-422.228-588.915-423.2-588.915Zm5.982-11.913v8.061a7.95,7.95,0,0,0,4.748-1.848c1.851-1.7,1.649-4.1-.461-5.318A7.666,7.666,0,0,0-417.223-600.828Zm0-10.735v7.7a5.6,5.6,0,0,0,4.309-2.172c1.253-1.648,1.27-4.208-1.542-5.021A27.42,27.42,0,0,0-417.224-611.562Z" transform="translate(474.529 614.935)"/>
      <path id="Trazado_1289" data-name="Trazado 1289" d="M438.179-561.776a12.108,12.108,0,0,1-7.358-2.251,9.919,9.919,0,0,1-4.056-7.626,12.032,12.032,0,0,1,4.891-10.886,12.385,12.385,0,0,1,6.882-2.44,13.806,13.806,0,0,1,6.49.98,9.623,9.623,0,0,1,5.873,7.335,12.091,12.091,0,0,1-2.644,10.6,11.879,11.879,0,0,1-8.1,4.145C439.5-561.847,438.838-561.823,438.179-561.776Zm-5.691-11.183c.161.9.248,1.828.5,2.707a5.527,5.527,0,0,0,4.306,4.224,5.876,5.876,0,0,0,6.2-2.177c2.081-2.643,2.214-5.676,1.229-8.761a5.384,5.384,0,0,0-4.688-3.921A5.92,5.92,0,0,0,434.3-578.5,9.656,9.656,0,0,0,432.489-572.958Z" transform="translate(-286.62 588.146)"/>
      <path id="Trazado_1290" data-name="Trazado 1290" d="M381.221-273.42a12.113,12.113,0,0,1-7.364-2.235,9.914,9.914,0,0,1-4.074-7.617,12.021,12.021,0,0,1,4.912-10.926,12.519,12.519,0,0,1,7.252-2.446,13.682,13.682,0,0,1,6.122,1.012,9.623,9.623,0,0,1,5.854,7.349,12.089,12.089,0,0,1-2.632,10.55,11.876,11.876,0,0,1-8.094,4.163C382.542-273.493,381.88-273.469,381.221-273.42Zm7.144-11.954a24.517,24.517,0,0,0-.456-2.715,5.577,5.577,0,0,0-4.732-4.413A5.815,5.815,0,0,0,377.216-290a9.2,9.2,0,0,0-1.226,8.073,5.5,5.5,0,0,0,4.288,4.246,6.035,6.035,0,0,0,6.255-2.18A8.98,8.98,0,0,0,388.366-285.374Z" transform="translate(-235.588 329.909)"/>
      <path id="Trazado_1291" data-name="Trazado 1291" d="M185.95-579.579h5.48v9.025l10.415-.587v-8.438h5.466V-557.5h-5.539c.054-3.2.107-6.407.161-9.648l-10.516.593v9.054H185.95Z" transform="translate(-70.99 583.272)"/>
      <path id="Trazado_1292" data-name="Trazado 1292" d="M128.968-291.288h5.481v9.023l10.415-.587v-8.441h5.466v22.084h-5.54c.054-3.2.108-6.388.164-9.649l-10.517.59v9.058h-5.467Z" transform="translate(-19.961 325.103)"/>
      <path id="Trazado_1293" data-name="Trazado 1293" d="M630.205-274.75c.374-7.251.743-14.421,1.114-21.59a6.822,6.822,0,0,1,.067-.726,3.318,3.318,0,0,1,.142-.463,1.789,1.789,0,0,1,.447.2c.874.716,1.747,1.433,2.6,2.173q4.727,4.1,9.441,8.21c1.241,1.082,2.467,2.181,3.833,3.39v-13.381h5.041c-.066,1.24-.13,2.412-.192,3.584-.208,3.923-.422,7.846-.621,11.77-.118,2.327-.21,4.654-.322,6.981-.007.141-.079.383-.151.395a.633.633,0,0,1-.448-.143c-1.874-1.552-3.764-3.084-5.6-4.68-2.951-2.565-5.866-5.172-8.793-7.764a12.713,12.713,0,0,0-1.511-1.234v13.5Z" transform="translate(-468.836 330.688)"/>
      <path id="Trazado_1294" data-name="Trazado 1294" d="M-719.47-456.465c.03.207.113.382.062.5-.429.937-.854,1.88-1.354,2.78a1.079,1.079,0,0,1-.793.351c-.9.044-1.793.016-2.694.128h3.066l.093.161c-.43.5-.849,1.008-1.293,1.493-.416.455-.837.908-1.292,1.323a15.144,15.144,0,0,1-6.68,3.539c-.73.181-1.428.373-1.927-.579a4.429,4.429,0,0,0-.166.487c-.093.492-.424.616-.826.288-.269-.219-.5-.484-.781-.69-.165-.123-.49-.292-.56-.231a2.271,2.271,0,0,0-.449.7c-.039.078,0,.2.008.3l-2.5-.226c.314-.53.576-.94.806-1.368.515-.96,1.036-1.917,1.507-2.9a.711.711,0,0,1,.746-.486c2.364.031,4.727.044,7.091.059.037,0,.074-.053.1-.192h-7.653c.248-.592.43-1.07.656-1.525.046-.093.262-.139.4-.143a11.756,11.756,0,0,0,1.927-.128h-2.248l.523-1.494,4.479-.244.012-.106h-1.039c.486-.511.945-1.014,1.43-1.489a.724.724,0,0,1,.467-.156c2.176,0,4.351.007,6.527.011.178,0,.357-.026.535-.04l-.009-.134h-.546c-2.072,0-4.143,0-6.215,0a.733.733,0,0,1-.768-.369c-.32-.544-.811-.534-1.212-.059a3.414,3.414,0,0,1-.279.267l-.109-.079c.136-.2.27-.4.407-.594a.681.681,0,0,0-.133-1.039.7.7,0,0,0-1.038.2c-.12.163-.238.326-.356.49l-.117-.072c.143-.235.278-.475.431-.7a.646.646,0,0,0-.183-.988.656.656,0,0,0-1,.095c-.1.121-.172.262-.267.386a.974.974,0,0,1-.4.327c.019-.1.006-.233.063-.31.47-.644.943-1.288,1.444-1.908a.5.5,0,0,1,.458-.122,4.839,4.839,0,0,0,5.992-2.389,2.77,2.77,0,0,1,.411-.52,1.871,1.871,0,0,1-.045-.545,5.9,5.9,0,0,0-1.381-5.2.747.747,0,0,1-.091-.127,1.365,1.365,0,0,1-.056-.2c.684.5,1.2.175,1.729-.193.425-.3.628-.2.743.314.023.1.03.236.1.291a4.169,4.169,0,0,0,2.606,1.361c.222,0,.443-.229.682-.362C-718.5-466.159-717.787-457.239-719.47-456.465Zm-7.047,7.351v-.092h-4.578v.092Zm-.424-1.889,0,.09h3.912l0-.09Zm-7.551,3.6v.108h3.5v-.108Zm7.48-7.219.01.089h2.65l0-.089Zm-4.495,1.841v.062h2.441v-.062Zm9.178-1.882,0,.1h1.933v-.1Z" transform="translate(756.044 485.403)"/>
      <path id="Trazado_1295" data-name="Trazado 1295" d="M-198.933-575.139l5.723-.281v3.877h-5.721v5.213h7.16v4.258l-12.518-.328v-22.125l12.018-.571v4.026l-6.662.173Z" transform="translate(278.483 588.213)"/>
      <path id="Trazado_1296" data-name="Trazado 1296" d="M-1.818-585.041l1,4.708c-.832.186-1.629.339-2.412.543a14.014,14.014,0,0,0-6.082,3.066,6.279,6.279,0,0,0-2.338,4.875,5.077,5.077,0,0,0,3.436,4.672,14.065,14.065,0,0,0,7.738.7c.1-.014.206-.032.309-.046a.525.525,0,0,1,.112.036c.095,1.37.2,2.765.276,4.161,0,.083-.154.244-.25.254-4.528.5-8.982.418-13.04-2.017a8.506,8.506,0,0,1-4.33-6.2,9.106,9.106,0,0,1,1.254-5.809,15.753,15.753,0,0,1,6.211-6.013A27.33,27.33,0,0,1-1.818-585.041Z" transform="translate(111.188 588.164)"/>
      <path id="Trazado_1297" data-name="Trazado 1297" d="M-33.551-277.5c1.176-.238,2.3-.4,3.374-.707a8.806,8.806,0,0,0,2.217-1,1.689,1.689,0,0,0,.052-3.078c-1.233-.84-2.564-1.535-3.8-2.377a8.673,8.673,0,0,1-1.884-1.7,4.115,4.115,0,0,1-.106-5.009,9.761,9.761,0,0,1,3.6-3.175,18.981,18.981,0,0,1,6.785-2.124l.757,4.081c-.769.105-1.523.178-2.266.317a6.871,6.871,0,0,0-2.861,1.061,3.281,3.281,0,0,0-.765.762,1.214,1.214,0,0,0,.186,1.777,26,26,0,0,0,2.39,1.56c1,.624,2.06,1.165,3.006,1.861a4.172,4.172,0,0,1,1.5,4.836,7.889,7.889,0,0,1-3.281,4.125,18.745,18.745,0,0,1-7.661,2.828c-.329.056-.448-.029-.511-.374C-33.038-275.073-33.3-276.292-33.551-277.5Z" transform="translate(126.422 329.926)"/>
      <path id="Trazado_1298" data-name="Trazado 1298" d="M696-579.625h5.529c-.056,6-.113,11.967-.169,17.945h7.17v4.5L696-557.512Z" transform="translate(-527.758 583.314)"/>
      <path id="Trazado_1299" data-name="Trazado 1299" d="M-68.621-585.011l3.25,1.483-3.23,5.907-1.841-.815Z" transform="translate(158.617 588.137)"/>
      <path id="Trazado_1300" data-name="Trazado 1300" d="M-696.309-439.148c-.319-.5-.639-.872-.561-1.445.027-.2-.191-.422-.219-.644a2.945,2.945,0,0,1,3.973-2.992,2.16,2.16,0,0,1,.736,3.561,2.564,2.564,0,0,1-1.023.453c-.185.041-.433-.124-.63-.235-.235-.133-.445-.31-.669-.464-.056-.038-.143-.045-.18-.094a1.076,1.076,0,0,1-.085-1.181,1.048,1.048,0,0,1,1.145-.635.83.83,0,0,1,.791.707c.111.537-.224.789-.714.961a.714.714,0,0,0,.917-.69,1.123,1.123,0,0,0-.807-1.145,1.309,1.309,0,0,0-1.434.608,1.062,1.062,0,0,0-.182.686c.213.622-.145,1.039-.42,1.5C-695.863-439.875-696.061-439.554-696.309-439.148Z" transform="translate(719.82 462.257)"/>
      <path id="Trazado_1301" data-name="Trazado 1301" d="M-671.828-221.575l-2.026-1.626-.693,2.694-2.934-3.628.82-.68,1.742,2.374.571-2.38,1.79,1.442.163-.028c0-.63-.005-1.26,0-1.89.01-.933.03-.945,1.048-.7Z" transform="translate(702.243 266.746)"/>
      <path id="Trazado_1302" data-name="Trazado 1302" d="M-576.133-275.061a2.284,2.284,0,0,1-2.2-2.314,2.562,2.562,0,0,1,2.3-2.519,2.36,2.36,0,0,1,2.239,2.353A2.578,2.578,0,0,1-576.133-275.061Zm-1.271-2.645a1.727,1.727,0,0,0,1.537,1.627,1.167,1.167,0,0,0,1.141-1.178,1.738,1.738,0,0,0-1.522-1.588A1.111,1.111,0,0,0-577.4-277.707Z" transform="translate(613.45 314.894)"/>
      <path id="Trazado_1303" data-name="Trazado 1303" d="M-556.7-498.053a2.625,2.625,0,0,1-2.44-2.522,2.2,2.2,0,0,1,2.3-2.075,2.63,2.63,0,0,1,2.472,2.544A2.248,2.248,0,0,1-556.7-498.053Zm-.256-1.017a1.708,1.708,0,0,0,1.644-1.381,1.2,1.2,0,0,0-1.192-1.186,1.65,1.65,0,0,0-1.694,1.366A1.23,1.23,0,0,0-556.959-499.07Z" transform="translate(596.267 514.379)"/>
      <path id="Trazado_1304" data-name="Trazado 1304" d="M-876.186-281.73a2.591,2.591,0,0,1-2.471-2.47,2.234,2.234,0,0,1,2.293-2.091,2.577,2.577,0,0,1,2.495,2.446A2.227,2.227,0,0,1-876.186-281.73Zm.184-3.586a1.7,1.7,0,0,0-1.689,1.467A1.211,1.211,0,0,0-876.5-282.7a1.75,1.75,0,0,0,1.655-1.456A1.16,1.16,0,0,0-876-285.316Z" transform="translate(882.403 320.623)"/>
      <path id="Trazado_1305" data-name="Trazado 1305" d="M-792.551-584.982a2.09,2.09,0,0,1,2.032,2.236,2.493,2.493,0,0,1-2.57,2.4,2.085,2.085,0,0,1-2.06-2.207A2.511,2.511,0,0,1-792.551-584.982Zm1.01,2.459a5.627,5.627,0,0,0-.3-.875,1.152,1.152,0,0,0-1.116-.718,1.109,1.109,0,0,0-.982.669,1.622,1.622,0,0,0,.106,1.546,1.117,1.117,0,0,0,1.336.64A1.284,1.284,0,0,0-791.541-582.523Z" transform="translate(807.619 588.111)"/>
      <path id="Trazado_1306" data-name="Trazado 1306" d="M-844.835-561.991l-1.532,1.323,1.079,1.376-.838.657-2.615-3.4.842-.649,1.05,1.389,1.539-1.328-.992-1.279.824-.667,2.62,3.4-.836.661Z" transform="translate(855.611 569.829)"/>
      <path id="Trazado_1307" data-name="Trazado 1307" d="M-596.006-546.146l-.778-.727,1.282-1.344-1.54-1.31-1.2,1.276-.774-.709,2.931-3.138.77.729-1.193,1.267,1.547,1.3,1.111-1.184.783.712Z" transform="translate(631.974 558.661)"/>
      <path id="Trazado_1308" data-name="Trazado 1308" d="M-538.2-452.993l-2.516.59-.2-.931,4.405-.881-1.877,3.734,2.494-.6.221.928-4.4.893Z" transform="translate(579.95 471.005)"/>
      <path id="Trazado_1309" data-name="Trazado 1309" d="M-554.569-312.9l3.167,1.611-.456.914-3.826-1.948a6.842,6.842,0,0,1,1.429-2.179.86.86,0,0,1,1.379.228,5.906,5.906,0,0,1,.372.866l1.853-.437.218,1.027-2.365.353a5.41,5.41,0,0,0-1-1.118c-.129-.081-.554.309-.843.483Z" transform="translate(593.169 346.114)"/>
      <path id="Trazado_1310" data-name="Trazado 1310" d="M-912.1-440.706c.1-.121.151-.186.205-.249a.907.907,0,0,1,1.647.232,3.732,3.732,0,0,1-.024,2.637l-4.236-.953c.2-.622.362-1.207.584-1.768.16-.4.388-.807.917-.8S-912.286-441.2-912.1-440.706Zm.208,1.252,1.231.255c.038-.716-.171-1.091-.576-1.118C-911.6-440.34-911.841-440.03-911.895-439.453Zm-.531-.119c-.044-.505-.108-.924-.592-.99-.436-.06-.552.305-.648.7Z" transform="translate(914.511 459.713)"/>
      <path id="Trazado_1311" data-name="Trazado 1311" d="M-844.957-256.968c.432.411.847.778,1.228,1.177.328.343.631.737.431,1.252s-.69.505-1.207.5c.054.121.1.2.129.287.3.771-.131,1.447-.942,1.317a7.73,7.73,0,0,1-1.812-.7,3.168,3.168,0,0,1-.585-.447Zm-1.566,3.494c.6.353,1.077.363,1.251.016.232-.462-.091-.731-.42-1.035Zm1.161-1.444c.571.3.962.266,1.14-.087.2-.39-.081-.6-.366-.831Z" transform="translate(854.693 294.363)"/>
      <path id="Trazado_1312" data-name="Trazado 1312" d="M-665.818-583.75l-1.027.244c-.171-.677-.124-1.407-1.138-1.621-.853-.18-1.389-.086-1.8.7l-.738-.806,3.59-3.27Zm-2.627-2.183,1.232.347-.244-1.4Z" transform="translate(696.005 591.263)"/>
      <path id="Trazado_1313" data-name="Trazado 1313" d="M-816.451-227.258l-.566-.838,4.008-2.735.44,4.859-1.025.092a1.756,1.756,0,0,1-.08-.521c.119-.684-.249-.96-.828-1.185C-815.426-227.944-815.413-227.977-816.451-227.258Zm2.687-.76v-1.353l-1.129.872Z" transform="translate(827.202 270.956)"/>
      <path id="Trazado_1314" data-name="Trazado 1314" d="M-906.59-350.483l-.717.365a12.8,12.8,0,0,0-1.187-1.326,1.074,1.074,0,0,0-1.717.126,1.346,1.346,0,0,0,.038,1.366l1.093-.275.262.982-1.774.45a3.779,3.779,0,0,1-.506-2.937,1.591,1.591,0,0,1,2.033-1.063A4.005,4.005,0,0,1-906.59-350.483Z" transform="translate(911.565 380.238)"/>
      <path id="Trazado_1315" data-name="Trazado 1315" d="M-533.181-350.1c.115.555.183,1.089.342,1.594a1.234,1.234,0,0,0,1.265.957,1.311,1.311,0,0,0,.947-1.349c-.172-.052-.351-.107-.531-.159-.163-.047-.327-.092-.539-.151l.235-.959c.568.138,1.09.253,1.6.4a.372.372,0,0,1,.189.3,3.787,3.787,0,0,1-.95,2.523,1.581,1.581,0,0,1-2.21.092,3.929,3.929,0,0,1-1.179-3.251Z" transform="translate(573.768 377.828)"/>
      <path id="Trazado_1316" data-name="Trazado 1316" d="M-900.786-480.048l.95.449.464-1.015.687.3-.477,1,.908.431.6-1.258.738.31-1.048,2.2-3.906-1.743.839-2.163.71.29Z" transform="translate(903.187 495.477)"/>
      <path id="Trazado_1317" data-name="Trazado 1317" d="M-699.342-210.339l.07.712-1.123.081c.025.335.048.651.075,1.007l1.352-.078.093.8-2.433.121-.284-4.281,2.308-.264c.023.275.041.494.062.749l-1.235.156v1.052Z" transform="translate(723.836 254.308)"/>
      <path id="Trazado_1318" data-name="Trazado 1318" d="M-868.571-525.111l.758.36c-.136.426-.281.812-.379,1.21a1.762,1.762,0,0,0-.026.669,1.042,1.042,0,0,0,1.738.732c.369-.257.718-.542,1.075-.814l-.135-.193.727.483a15.942,15.942,0,0,1-1.126,1.249,1.9,1.9,0,0,1-2.154.477,2,2,0,0,1-1.073-1.883A4.194,4.194,0,0,1-868.571-525.111Z" transform="translate(873.909 534.495)"/>
      <path id="Trazado_1319" data-name="Trazado 1319" d="M-615.375-236.811a4.682,4.682,0,0,0,.513-.571c.112-.176.262-.445.2-.583s-.365-.2-.572-.231-.451.005-.676-.011a.859.859,0,0,1-.893-1.075,2.857,2.857,0,0,1,1.133-1.751l.522.567a5.484,5.484,0,0,0-.589.639.593.593,0,0,0-.06.478c.037.093.254.148.4.158.241.017.485-.028.728-.025a.953.953,0,0,1,.992,1.283,3.273,3.273,0,0,1-1.155,1.693Z" transform="translate(647.916 280.092)"/>
      <path id="Trazado_1320" data-name="Trazado 1320" d="M-624.666-563.338l.282-.824a10.381,10.381,0,0,0,1.04.174c.385.026.5-.2.353-.536-.111-.254-.269-.486-.387-.737a.918.918,0,0,1,.779-1.43,13.157,13.157,0,0,1,1.843.119l-.3.861a5.283,5.283,0,0,0-.824-.233.6.6,0,0,0-.455.162c-.066.072-.013.288.038.42a2.575,2.575,0,0,0,.282.5c.642.957-.045,1.631-.867,1.683A11.808,11.808,0,0,1-624.666-563.338Z" transform="translate(654.945 571.74)"/>
      <path id="Trazado_1321" data-name="Trazado 1321" d="M-896.077-316.813l.472.968-3.147,1.5.6,1.235-.773.4-1-2.22Z" transform="translate(901.452 347.956)"/>
      <path id="Trazado_1322" data-name="Trazado 1322" d="M-764.644-213.577l1.055-4.163,1.026.266-.864,3.353,1.332.376-.219.822Z" transform="translate(780.3 259.233)"/>
      <path id="Trazado_1323" data-name="Trazado 1323" d="M-743.34-594.322l1.046-.163.5,3.438,1.356-.178.15.845-2.424.281Z" transform="translate(761.222 596.621)"/>
      <path id="Trazado_1324" data-name="Trazado 1324" d="M-694.535-591.869c.124-1.382.236-2.692.372-4,.01-.091.2-.223.318-.23a4.663,4.663,0,0,1,.77.077l-.361,3.457,1.349.125c-.014.28-.027.545-.043.868Z" transform="translate(717.515 598.069)"/>
      <path id="Trazado_1325" data-name="Trazado 1325" d="M-734.28-206.185l-.408-.815a1.813,1.813,0,0,0,1.039-1.748c.054-.724.127-1.447.191-2.163a1.2,1.2,0,0,1,.19-.041c.877-.014.884-.006.8.847-.063.605-.115,1.211-.188,1.815A2.384,2.384,0,0,1-734.28-206.185Z" transform="translate(753.473 253.155)"/>
      <path id="Trazado_1326" data-name="Trazado 1326" d="M-598.028-471.9l1.262-.445c.706.655.83,1.066.5,1.673C-597.152-470.8-597.966-471.366-598.028-471.9Z" transform="translate(631.089 487.241)"/>
      <path id="Trazado_1327" data-name="Trazado 1327" d="M-845.213-349.631c1.068-.083,1.771-.475,1.983-1.419a1.627,1.627,0,0,0-.666-1.752,1.828,1.828,0,0,0-2.324.161,1.581,1.581,0,0,1,2.044-.587,1.994,1.994,0,0,1,1.071,2.563A1.7,1.7,0,0,1-845.213-349.631Z" transform="translate(853.354 380.692)"/>
      <path id="Trazado_1328" data-name="Trazado 1328" d="M-849.321-369.929c-.07-.49-.154-.906-.17-1.325,0-.1.227-.289.349-.288.362,0,.885.9.661,1.173C-848.655-370.16-849-370.09-849.321-369.929Z" transform="translate(856.284 396.968)"/>
      <path id="Trazado_1329" data-name="Trazado 1329" d="M-615.908-501.042a1.805,1.805,0,0,1-2.284.043,1.9,1.9,0,0,1-.41-2.578C-618.946-501.358-618.1-500.483-615.908-501.042Z" transform="translate(649.816 515.209)"/>
      <path id="Trazado_1330" data-name="Trazado 1330" d="M-843.307-343.566a.932.932,0,0,1,.744-.991,1.046,1.046,0,0,1,1.182.533,1.04,1.04,0,0,1-.308,1.3.937.937,0,0,1-1.266-.084,2.168,2.168,0,0,0,.862.053,1.22,1.22,0,0,0,.609-.613.806.806,0,0,0-.523-1C-842.5-344.543-842.846-344.345-843.307-343.566Z" transform="translate(850.745 372.836)"/>
      <path id="Trazado_1331" data-name="Trazado 1331" d="M-576.27-225.36l.666-.553.534.642-.67.557Z" transform="translate(611.604 266.552)"/>
      <path id="Trazado_1332" data-name="Trazado 1332" d="M-886.9-493.9l-.885-.939.507-.361C-886.653-494.513-886.549-494.18-886.9-493.9Z" transform="translate(890.576 507.71)"/>
      <path id="Trazado_1333" data-name="Trazado 1333" d="M-608.61-495.776a.767.767,0,0,1-1.014-.022.9.9,0,0,1-.318-1.173C-609.923-496.093-609.535-495.641-608.61-495.776Z" transform="translate(641.843 509.294)"/>
    </g>
  </g>
</svg>
