<svg xmlns="http://www.w3.org/2000/svg" width="89.557" height="80.387" viewBox="0 0 89.557 80.387">
  <g id="Grupo_1432" data-name="Grupo 1432" transform="translate(-1559.443 -4779.598)">
    <g id="Grupo_1431" data-name="Grupo 1431" transform="translate(1559.443 4779.598)">
      <path id="Trazado_1046" data-name="Trazado 1046" d="M597.506,461.688a24.418,24.418,0,0,1-8.088-1.146,20.124,20.124,0,0,1-2.682-1.473,1.788,1.788,0,0,0-.642-.259c-8.594-.831-14.818-4.993-18.141-13.079a22.94,22.94,0,0,1-1.676-13.046c.218-1.188.695-2.329,1.031-3.5a1.375,1.375,0,0,0,.073-.824c-1.784-4.071-1.435-8.139-.015-12.2a21.355,21.355,0,0,1,5.7-8.3c1.458-1.4,3.076-2.631,4.608-3.954.654-.564,1.226-1.231,1.914-1.746a16.728,16.728,0,0,1,10.331-3.34c1.974,0,3.964-.088,5.805.864.18.093.472-.012.708-.048a20.108,20.108,0,0,1,8.707.24,29.651,29.651,0,0,1,3.478,1.509,14.215,14.215,0,0,0,1.5.591,24.639,24.639,0,0,1,10.3,5.643,15.226,15.226,0,0,1,4.619,11.981c-.051,1.509-.347,3.009-.5,4.515a1.552,1.552,0,0,0,.107.921,13.508,13.508,0,0,1,1.9,7.606,19.706,19.706,0,0,1-2.212,9.228,6.38,6.38,0,0,0-.868,3.055,9.457,9.457,0,0,1-1.969,4.918,25.005,25.005,0,0,1-5.433,5.891,5.7,5.7,0,0,1-3.462,1.446.746.746,0,0,0-.487.21,11.8,11.8,0,0,1-6.711,3.386c-2.589.526-5.239.759-7.862,1.12Zm-20.087-56.669a4.137,4.137,0,0,0-.485.328c-1.484,1.419-2.989,2.818-4.439,4.272a18.356,18.356,0,0,0-5.392,10.846c-.457,3.572-.025,7.018,2.5,9.827a54.086,54.086,0,0,0,4.269,4.1,24.82,24.82,0,0,0,8.187,5.018,2.758,2.758,0,0,0,1.7-.058,9.864,9.864,0,0,0,1.989-1.089,20.72,20.72,0,0,0,6.966-7.785c.927-1.695,1.673-3.488,2.515-5.268-.871-.288-1.557-.462-2.2-.738a41.851,41.851,0,0,1-8.332-4.519c-4.266-3.127-7.106-7.09-7.279-12.587C577.4,406.627,577.419,405.882,577.419,405.019Zm14.88,41.34c-1.259-.347-2.429-.589-3.541-.992a9.885,9.885,0,0,1-5.177-3.476,4.507,4.507,0,0,0-2.333-1.808,29.555,29.555,0,0,1-9.841-6.611c-1.2-1.156-2.32-2.392-3.592-3.712a31.447,31.447,0,0,0-.788,3.066A22.771,22.771,0,0,0,568.3,444.4c2.9,7.817,8.519,12.311,16.743,13.567a3.5,3.5,0,0,0,3.233-1.122,12.8,12.8,0,0,0,2.556-4.205A20.444,20.444,0,0,0,592.3,446.359ZM584.657,418.9a38.028,38.028,0,0,0,10.513,5.284,1.062,1.062,0,0,0,.637.015,25.032,25.032,0,0,0,3.658-1.53,21.727,21.727,0,0,0,6.6-6.511,15.461,15.461,0,0,0,2.764-12.238,3.553,3.553,0,0,0-.905-1.97,7.527,7.527,0,0,0-2.609-1.252,20.509,20.509,0,0,0-7.978-.394,1.494,1.494,0,0,0-1.441,1.142,52.324,52.324,0,0,1-4.217,9.213,27.638,27.638,0,0,1-6.629,7.823A4.369,4.369,0,0,0,584.657,418.9Zm-.928,21.53a5.364,5.364,0,0,0,2.447,2.681,14.721,14.721,0,0,0,7.351,2.317c3.227.1,6.378-.357,8.952-2.5a23.716,23.716,0,0,0,6.61-8.919,2.925,2.925,0,0,0-.171-2.647,17.283,17.283,0,0,0-5.036-5.437,27.481,27.481,0,0,0-3.511-2.155,1.24,1.24,0,0,0-.905-.011c-.893.313-1.75.727-2.645,1.031a1.443,1.443,0,0,0-.962.968,47.882,47.882,0,0,1-1.971,4.534A21.574,21.574,0,0,1,583.729,440.427Zm17.242-17.584c1.219.82,2.44,1.528,3.529,2.4,2.07,1.659,4.1,3.376,5.281,5.853a.708.708,0,0,0,.419.34,12.336,12.336,0,0,1,4.641,2.741,47.827,47.827,0,0,1,8.36,8.241c.564-1.3,1.142-2.488,1.6-3.718a17.964,17.964,0,0,0,.832-8.236,10.2,10.2,0,0,0-3.721-7.224c-1.875-1.5-3.847-2.889-5.847-4.222a16.8,16.8,0,0,0-8.029-3.253.981.981,0,0,0-.767.3A29.226,29.226,0,0,1,600.972,422.844Zm-13.624,35.88a18,18,0,0,0,2.155,1.039,28.688,28.688,0,0,0,13.965.621,16.609,16.609,0,0,0,7.03-2.577c1.452-1.039,1.661-1.762.8-3.288a33.787,33.787,0,0,0-8.665-9.787.931.931,0,0,0-1.09-.068,26.466,26.466,0,0,1-4.034,1.4,33.373,33.373,0,0,1-4.078.433c-.473,1.875-.847,3.789-1.446,5.629A11.371,11.371,0,0,1,587.347,458.723Zm15.776-15.034c2,2.051,4,4.026,5.914,6.083a15.82,15.82,0,0,1,3.428,5.284c.547,1.5.556,1.548,1.976.759.118-.066.235-.135.345-.212A22.673,22.673,0,0,0,622,447.29a4.551,4.551,0,0,0-.807-5.9c-.076-.077-.137-.168-.21-.248a52.6,52.6,0,0,0-8.657-7.7c-.6-.423-1.274-.746-1.965-1.145C609.644,436.176,607.584,439.365,603.124,443.689ZM578.33,406.477c-.162,4.861,1.926,8.388,5.147,11.4.345.323.587.3.885,0,1.349-1.359,2.818-2.62,4.026-4.094a41.372,41.372,0,0,0,6.576-12.42c.406-1.12.378-1.166-.785-1.468a2.157,2.157,0,0,0-.241-.037c-4.571-.643-8.957-.254-12.978,2.269C579.239,403.208,577.824,404.434,578.33,406.477Zm45.525,17.092c.138-.959.333-1.916.4-2.882a15.357,15.357,0,0,0-1.906-9.226,17.685,17.685,0,0,0-7.942-6.94c-1.55-.733-3.174-1.307-4.963-2.034a16.653,16.653,0,0,1-1.437,12.239C614.293,415.9,619.072,419.625,623.855,423.568Z" transform="translate(-552.372 -381.507)"/>
      <path id="Trazado_1047" data-name="Trazado 1047" d="M852.321,313.611l-2.782,8.469-1.007-.284,1.217-3.826-4.56-1.491-1.286,3.775-.988-.332,2.783-8.448,1.009.276-1.2,3.739,4.57,1.53,1.245-3.733Z" transform="translate(-784.286 -308.373)"/>
      <path id="Trazado_1048" data-name="Trazado 1048" d="M950.832,405.549l1.016.514c-1.425,1.474-2.721,2.928-4.143,4.248a2.435,2.435,0,0,1-3.6-.691,10.683,10.683,0,0,1-.649-1.573l1.069-.064c1.01,2.125,2,2.315,3.32.669-1.729-1.045-2.255-1.966-1.893-3.311a2.422,2.422,0,0,1,2.337-1.8A2.5,2.5,0,0,1,950.832,405.549Zm-2.462-.971a1.454,1.454,0,0,0-1.451,1.511,1.485,1.485,0,0,0,1.53,1.445,1.437,1.437,0,0,0,1.449-1.51A1.485,1.485,0,0,0,948.37,404.578Z" transform="translate(-868.47 -385.465)"/>
      <path id="Trazado_1049" data-name="Trazado 1049" d="M519.569,381.944l-.742.668-1.581-1.834c-.685-.8-1.128-.914-1.687-.449a1.586,1.586,0,0,0-.284,2.184c.463.6.972,1.156,1.515,1.8l-.784.7-6.227-7.272.8-.688,3.646,4.241a8.325,8.325,0,0,1,.519-1.484,1.612,1.612,0,0,1,2.849-.271c.622.715,1.227,1.444,1.838,2.168A2.183,2.183,0,0,1,519.569,381.944Z" transform="translate(-505.342 -363.279)"/>
      <path id="Trazado_1050" data-name="Trazado 1050" d="M664.627,307.793a11.448,11.448,0,0,1,1.116-.844,1.662,1.662,0,0,1,2.733,1.258c.164.905.318,1.812.472,2.719a.975.975,0,0,1-.043.235l-.933.2c-.157-.839-.295-1.6-.444-2.363-.127-.65-.228-1.342-1.153-1.255a1.591,1.591,0,0,0-1.426,1.682c.064.644.219,1.279.323,1.919a3.7,3.7,0,0,1,0,.529l-.958.15-1.716-9.408,1.03-.192Z" transform="translate(-633.305 -300.794)"/>
      <path id="Trazado_1051" data-name="Trazado 1051" d="M485.271,401.893c.17.395.518.719-.1,1.128a3.367,3.367,0,0,0-1.444,4.026,3.64,3.64,0,0,0,3.533,2.492,3.5,3.5,0,0,0,3.3-2.759c.021-.077.037-.155.067-.283h.927a4.4,4.4,0,0,1-4.02,4.06,4.611,4.611,0,0,1-4.946-3.666A4.377,4.377,0,0,1,485.271,401.893Z" transform="translate(-482.505 -384.083)"/>
      <path id="Trazado_1052" data-name="Trazado 1052" d="M566.625,362.853l.851-1c.49.8.9,1.457,1.3,2.121s.811,1.334,1.211,1.992c-.089.109-.139.223-.19.223-.849.007-1.158.776-1.718,1.191a2.51,2.51,0,0,1-3.027,0,2.42,2.42,0,0,1-.892-2.734,2.389,2.389,0,0,1,2.41-1.792C566.653,362.853,566.734,362.847,566.625,362.853Zm-.042,4a1.574,1.574,0,0,0,1.528-1.561,1.536,1.536,0,0,0-1.528-1.465,1.622,1.622,0,0,0-1.5,1.519A1.587,1.587,0,0,0,566.582,366.851Z" transform="translate(-550.778 -350.56)"/>
      <path id="Trazado_1053" data-name="Trazado 1053" d="M631.971,335.551l.959-.759,1.449,4.677c-.281.1-.549.285-.661.217-.444-.271-.641.056-.918.268a2.568,2.568,0,0,1-2.9.2,2.426,2.426,0,0,1-1.184-2.56,2.388,2.388,0,0,1,1.869-2.022A5.905,5.905,0,0,1,631.971,335.551Zm.767,2.41a1.455,1.455,0,0,0-1.425-1.474,1.52,1.52,0,0,0-1.6,1.49,1.51,1.51,0,1,0,3.02-.016Z" transform="translate(-604.901 -327.897)"/>
      <path id="Trazado_1054" data-name="Trazado 1054" d="M984.788,436.207a1.586,1.586,0,0,0,1.059,1.963l-.261.843a2.219,2.219,0,0,1-1.9-2.144,2.483,2.483,0,0,1,1.716-2.564,2.537,2.537,0,0,1,2.867.978,2.416,2.416,0,0,1-.52,3.073Zm2.619.625.317-.194c-.245-.391-.408-.9-.757-1.139a3.437,3.437,0,0,0-1.311-.255l-.057.275Z" transform="translate(-902.157 -411.119)"/>
      <path id="Trazado_1055" data-name="Trazado 1055" d="M730.768,298.511l-.757-.037c-.018-.3-.035-.577-.054-.9l.784-.233c.132-1.3-.388-2.759.776-3.768a11.785,11.785,0,0,1,2.148-1.169v1.144c-1.864.814-2.269,1.682-1.732,3.806h1.341l.117.973-1.47.1v3.853l-.965.059C730.893,301.061,730.833,299.831,730.768,298.511Z" transform="translate(-689.704 -292.405)"/>
      <path id="Trazado_1056" data-name="Trazado 1056" d="M760.158,328.48a2.509,2.509,0,1,1-.1-5.016,2.51,2.51,0,1,1,.1,5.016Zm-.068-3.968a1.468,1.468,0,1,0,.008,2.935,1.468,1.468,0,0,0-.008-2.935Z" transform="translate(-712.835 -318.411)"/>
      <path id="Trazado_1057" data-name="Trazado 1057" d="M895.055,353.89c-.387.775-.723,1.452-1.061,2.127-.484.967-.438,1.394.191,1.746a1.6,1.6,0,0,0,2.175-.616c.364-.657.679-1.341,1.048-2.079l.943.484-2.158,4.359-.921-.422.315-.869a9.952,9.952,0,0,1-1.338.135,1.66,1.66,0,0,1-1.54-2.575c.444-.895.9-1.785,1.388-2.761Z" transform="translate(-825.77 -343.493)"/>
      <path id="Trazado_1058" data-name="Trazado 1058" d="M927.32,374.329l.753.47-.394.788a8.215,8.215,0,0,1,1.783.175,1.574,1.574,0,0,1,.858,2.58c-.547.806-1.123,1.592-1.69,2.384a1.117,1.117,0,0,1-.216.17l-.817-.525c.482-.687.94-1.343,1.4-2,.388-.549.788-1.094.075-1.689a1.588,1.588,0,0,0-2.2.144c-.265.305-.475.657-.711.987-.219.306-.44.611-.707.982l-.885-.568Z" transform="translate(-852.662 -361.003)"/>
      <path id="Trazado_1059" data-name="Trazado 1059" d="M582.7,328.7l.969-.441,4.135,8.657-.954.464Z" transform="translate(-566.399 -322.424)"/>
      <path id="Trazado_1060" data-name="Trazado 1060" d="M598.971,321.843l.964-.447,3.668,8.836-.96.454Z" transform="translate(-580.025 -316.68)"/>
      <path id="Trazado_1061" data-name="Trazado 1061" d="M1002.167,465.462l-.786.468,1.819,1.185-1.04.431c-1.058-1.265-1.4-1.343-2.879-.693-.465.2-.933.4-1.467.63l-.412-.965,4.4-1.882Z" transform="translate(-913.643 -436.619)"/>
      <path id="Trazado_1062" data-name="Trazado 1062" d="M796.521,331.2l.623-4.755.894.12v.908l1.872-.931c.043.761.022,1.183-.768,1.228a1.317,1.317,0,0,0-1.259,1.26c-.1.719-.224,1.434-.353,2.247Z" transform="translate(-745.44 -320.908)"/>
    </g>
  </g>
</svg>
