<svg xmlns="http://www.w3.org/2000/svg" width="150.998" height="75.5" viewBox="0 0 150.998 75.5">
  <g id="Grupo_1433" data-name="Grupo 1433" transform="translate(143 -4154)">
    <g id="Grupo_1433-2" data-name="Grupo 1433" transform="translate(-143 4154)">
      <path id="Trazado_1063" data-name="Trazado 1063" d="M-2102.417,362.747q-3.7.217-7.393.435-4.793.286-9.585.575c-2.464.146-4.929.284-7.393.431q-4.761.282-9.522.572-3.665.218-7.33.431-4.793.285-9.585.572-3.7.219-7.393.432-4.793.285-9.585.575-3.54.211-7.08.416l-.063,0c-.482.012-.492.012-.5-.451-.013-.9-.013-1.8-.018-2.7q-.023-4.206-.047-8.411c0-.126,0-.251,0-.377.012-.464.012-.468.5-.471q4.269-.022,8.537-.04c8.725-.046,17.45-.073,26.175-.147,6.528-.056,13.056-.074,19.584-.107q11.11-.055,22.221-.127l21.907-.126,22.221-.129q10.985-.063,21.969-.126c2.343-.014,4.686-.041,7.029-.061.126,0,.251,0,.377,0,.447.012.454.012.458.448.009.837.009,1.674.012,2.511,0,.314,0,.628,0,.942-.008.441-.01.443-.442.471-1.085.07-2.171.141-3.257.2-3.216.187-6.433.366-9.649.557-3.822.227-7.642.468-11.464.7-3.216.191-6.433.367-9.649.558-3.112.184-6.223.381-9.334.568-2.422.145-4.845.279-7.268.423q-4.824.286-9.648.579-3.7.219-7.393.431t-7.393.439Z" transform="translate(2177.909 -291.695)"/>
      <path id="Trazado_1064" data-name="Trazado 1064" d="M-1591.826-377.654a15.878,15.878,0,0,1-3.952,10.385,18.18,18.18,0,0,1-3.037,2.895c-.2.152-.365.238-.6.019a17.729,17.729,0,0,1-4.627-6.48,11.955,11.955,0,0,1,.2-9.051,19.832,19.832,0,0,1,3.641-5.677,27.2,27.2,0,0,1,3.848-3.592c.4-.308.415-.308.668.078a23.333,23.333,0,0,1,3.513,8.057A14.856,14.856,0,0,1-1591.826-377.654Z" transform="translate(1652.806 389.377)"/>
      <path id="Trazado_1065" data-name="Trazado 1065" d="M-1849.884,146.362c-.516,1.511-1.028,3.009-1.539,4.508-.391,1.147-.779,2.294-1.171,3.44-.165.483-.169.483-.7.486q-1.286.006-2.573.008c-.519,0-.523,0-.691-.5q-1.7-5.014-3.4-10.03-.673-1.988-1.341-3.977a.831.831,0,0,1-.087-.551c.565,0,1.144,0,1.723,0,.711,0,1.424.024,2.133-.02.386-.024.5.146.594.465.616,2.039,1.246,4.074,1.874,6.11a12.327,12.327,0,0,0,.684,1.837c.058-.163.12-.325.173-.49q1.209-3.725,2.417-7.45c.169-.52.17-.518.739-.523.816-.007,1.631-.019,2.447-.022.681,0,.555-.061.771.569.825,2.411,1.63,4.828,2.449,7.241a1.409,1.409,0,0,0,.3.662c.068-.205.133-.385.187-.569q1.082-3.666,2.162-7.333c.168-.571.171-.572.76-.572q1.817,0,3.636,0a.837.837,0,0,1-.094.551q-2.267,6.972-4.54,13.941c-.194.595-.2.593-.807.6-.837,0-1.674-.009-2.51.024a.576.576,0,0,1-.668-.468c-.851-2.446-1.728-4.883-2.6-7.32C-1849.63,146.773-1849.635,146.521-1849.884,146.362Z" transform="translate(1887.898 -95.367)"/>
      <path id="Trazado_1066" data-name="Trazado 1066" d="M-1641.264-67.585c.522,0,1.038,0,1.554,0,.243,0,.355.2.5.344q1.744,1.717,3.479,3.442a1.813,1.813,0,0,0,.381.365c.1-2.959.048-5.887.065-8.8.2-.123.349,0,.5.041,1.086.305,2.167.627,3.254.925a.486.486,0,0,1,.421.558c0,1.924.017,3.848.03,5.772q.021,3.105.043,6.21c0,.1.011.205.016.305.209.074.26-.11.35-.2q1.729-1.731,3.444-3.477a.85.85,0,0,1,.705-.309c.429.024.86.006,1.334.006a2.38,2.38,0,0,1-.335.738c-1.706,3.092-3.409,6.185-5.133,9.267a2.716,2.716,0,0,0-.352,1.423c.039,3.513.056,7.026.08,10.539,0,.1,0,.209,0,.314-.01.468-.01.474-.486.48q-1.6.02-3.2.029c-.508,0-.511,0-.514-.512q-.021-4.988-.04-9.976c-.009-2.028-.028-4.057-.031-6.086a2.08,2.08,0,0,0-.295-1.066q-2.769-4.843-5.515-9.7A1.146,1.146,0,0,1-1641.264-67.585Z" transform="translate(1686.187 98.829)"/>
      <path id="Trazado_1067" data-name="Trazado 1067" d="M-743.631,140.323c0,.891,0,1.782,0,2.673.007,1.694.019,3.388.025,5.083,0,.458-.005.465-.5.47q-1.537.015-3.075.015c-.486,0-.5-.008-.512-.48-.019-.836-.02-1.673-.023-2.51q-.023-5.647-.043-11.295c0-.042,0-.084,0-.125.008-.541.008-.543.555-.547,1.129-.007,2.259,0,3.388-.025a.707.707,0,0,1,.7.4c.952,1.55,1.92,3.09,2.883,4.633.132.211.266.42.4.631.241-.113.3-.326.4-.5.96-1.569,1.925-3.137,2.862-4.719a.89.89,0,0,1,.9-.505c1.087.027,2.175,0,3.263-.005.551,0,.556.007.558.556q.028,6.338.053,12.675c0,.46-.005.921.012,1.38.01.274-.109.375-.366.376-1.15,0-2.3,0-3.451.017-.36,0-.328-.232-.329-.466-.006-1.485-.015-2.97-.02-4.455,0-1.126,0-2.251-.062-3.4-1.33,1.808-2.465,3.735-3.782,5.66l-3.7-5.567Z" transform="translate(867.479 -89.745)"/>
      <path id="Trazado_1068" data-name="Trazado 1068" d="M-1308.194,144.728q0,3.481,0,6.963c0,.416,0,.427-.4.43q-1.662.014-3.325.011c-.433,0-.441-.007-.444-.45q-.017-2.29-.025-4.579a3.122,3.122,0,0,1,0-.314c.024-.251-.1-.327-.331-.319-.355.012-.711,0-1.066,0-1.129.006-2.258.018-3.387.017-.545,0-.5.023-.5.527q.01,2.227.019,4.454c0,.146-.006.293,0,.439.008.192-.09.25-.267.251-1.192,0-2.384,0-3.575.022-.313,0-.316-.174-.316-.4q0-1.725-.014-3.45-.036-5.206-.073-10.412c0-.678-.149-.7.717-.706.962,0,1.924-.01,2.885-.012.552,0,.556,0,.561.529q.023,2.258.04,4.516c.005.564.006.569.529.564q2.164-.018,4.327-.045c.431-.006.436-.013.436-.463,0-1.568,0-3.137-.021-4.7-.005-.335.089-.426.415-.422,1.066.011,2.133-.01,3.2-.014.544,0,.549,0,.549.54q0,3.513,0,7.026Z" transform="translate(1393.563 -93.085)"/>
      <path id="Trazado_1069" data-name="Trazado 1069" d="M-2018.742,148.67v-6.654c0-.146.01-.294,0-.439-.023-.264.073-.371.353-.363.627.016,1.255.006,1.883,0l9.039-.06c.146,0,.293.008.439,0,.306-.019.325.171.325.4,0,.9.017,1.8.017,2.7,0,.436-.011.444-.461.448q-2.071.018-4.143.026c-.963,0-1.925.021-2.888,0-.339-.007-.435.111-.422.43.02.48.019.963,0,1.444-.012.31.117.389.408.385,1.3-.017,2.595-.014,3.892-.022.837,0,1.674-.007,2.51-.029.268-.007.375.069.373.348-.006.879,0,1.758.017,2.636.009.379-.243.315-.464.316-1.841.009-3.683.013-5.524.027-.372,0-.85-.16-1.088.075-.265.262-.082.753-.089,1.143-.006.352-.139.8.072,1.034.244.271.711.1,1.078.1,2.029-.009,4.059-.036,6.088-.056.146,0,.294.01.439,0,.278-.023.359.108.356.371-.008.732.005,1.465.007,2.2,0,1,0,1-.987,1q-5.242.022-10.484.044c-.754,0-.678.063-.679-.666q0-3.421,0-6.843Z" transform="translate(2032.071 -96.742)"/>
      <path id="Trazado_1070" data-name="Trazado 1070" d="M-1775.679-213.863a16.71,16.71,0,0,1-.662,4.625c-.057.2-.115.383-.417.341-4.059-.562-7.451-2.261-9.768-5.762a13.866,13.866,0,0,1-2.085-6.111,21.787,21.787,0,0,1-.117-3.317c.017-.529.025-.542.52-.478a18.23,18.23,0,0,1,8.237,2.943A9.232,9.232,0,0,1-1775.679-213.863Z" transform="translate(1821.322 238.387)"/>
      <path id="Trazado_1071" data-name="Trazado 1071" d="M-1450.339-169.81a15.458,15.458,0,0,1-.53,3.944,9.369,9.369,0,0,1-5.676,6.352,15.45,15.45,0,0,1-4.25,1.019c-.423.047-.437.039-.564-.462-1.348-5.323,0-11.011,5.462-14.534a20.557,20.557,0,0,1,4.159-2.025c.557-.2.561-.2.707.36A22.1,22.1,0,0,1-1450.339-169.81Z" transform="translate(1521.788 193.531)"/>
      <path id="Trazado_1072" data-name="Trazado 1072" d="M-959.918,149.115a.8.8,0,0,1,.123-.508q2.884-6.943,5.775-13.884c.338-.81.13-.676,1.027-.686.92-.011,1.84.009,2.759-.023a.672.672,0,0,1,.741.489c1.263,2.981,2.544,5.954,3.822,8.928q1.1,2.562,2.2,5.123a.675.675,0,0,1,.111.416,1.5,1.5,0,0,1-.615.062c-1.107.015-2.215.017-3.322.044a.546.546,0,0,1-.609-.4c-.236-.625-.522-1.231-.755-1.857a.572.572,0,0,0-.644-.435c-1.629.038-3.26.053-4.89.056a.5.5,0,0,0-.547.391c-.236.647-.5,1.284-.751,1.926-.079.2-.162.366-.433.364C-957.256,149.11-958.589,149.115-959.918,149.115Zm8.244-10a42.935,42.935,0,0,0-1.675,4.07c1.135.005,2.169.023,3.283-.042Z" transform="translate(1061.887 -90.198)"/>
      <path id="Trazado_1073" data-name="Trazado 1073" d="M-1499.61,148.278l2.21-2.672a1.329,1.329,0,0,1,.573.323,7.413,7.413,0,0,0,4.477,1.373,2.517,2.517,0,0,0,.92-.165.92.92,0,0,0,.629-.789.858.858,0,0,0-.511-.86,5.157,5.157,0,0,0-1.292-.469c-.971-.249-1.958-.434-2.909-.758a7.3,7.3,0,0,1-1.912-.922,3.585,3.585,0,0,1-1.547-2.87,4.465,4.465,0,0,1,3.457-4.821,9.55,9.55,0,0,1,8.035,1.29c.445.3.439.311.13.757q-.732,1.057-1.471,2.109c-.306.434-.264.421-.725.132a7.622,7.622,0,0,0-3.154-1.148,3.162,3.162,0,0,0-1.245.053.982.982,0,0,0-.837.819c-.056.406.162.727.655.959a10.247,10.247,0,0,0,2.164.62,15.161,15.161,0,0,1,2.576.775,5.977,5.977,0,0,1,1.456.852,3.273,3.273,0,0,1,1.243,2.046,4.5,4.5,0,0,1-2.471,5.127,7.922,7.922,0,0,1-3.9.733,10.48,10.48,0,0,1-6.035-1.992A1.32,1.32,0,0,1-1499.61,148.278Z" transform="translate(1556.391 -91.364)"/>
      <path id="Trazado_1074" data-name="Trazado 1074" d="M-525.669,140.479q0-3.326,0-6.651c0-.146.011-.294,0-.439-.029-.307.116-.4.405-.392.69.011,1.38,0,2.071-.006,1.422,0,2.845-.013,4.267-.008a7.226,7.226,0,0,1,3.1.659A4.706,4.706,0,0,1-513,137.9a5.831,5.831,0,0,1-.17,1.867,4.729,4.729,0,0,1-2.436,3.042,7.458,7.458,0,0,1-3.25.842c-.668.03-1.338.014-2.008.02-.553.005-.56.006-.56.538,0,1,.006,2.008.01,3.012,0,.125-.01.252,0,.376.026.285-.122.352-.376.351-.816,0-1.631.006-2.447.01-.335,0-.67-.008-1,0-.24.007-.336-.09-.331-.331.009-.439,0-.878,0-1.318q0-2.917,0-5.834Zm5.563-3.983c-.333,0-.667.01-1,0-.258-.01-.385.072-.38.351q.03,1.625.038,3.251c0,.247.112.323.342.318.646-.014,1.292-.012,1.938-.024a2.32,2.32,0,0,0,.846-.2,1.807,1.807,0,0,0,1.167-1.877,1.763,1.763,0,0,0-1.339-1.687A4.988,4.988,0,0,0-520.107,136.5Z" transform="translate(663.987 -89.254)"/>
      <path id="Trazado_1075" data-name="Trazado 1075" d="M-1123.332,142.5l3.115,2.194a7.255,7.255,0,0,1-3.282,2.79,8.024,8.024,0,0,1-7.36-.441,7.4,7.4,0,0,1-3.683-7.493,7.422,7.422,0,0,1,5.947-6.764,7.756,7.756,0,0,1,7.067,1.583,8.707,8.707,0,0,1,.742.763,1.365,1.365,0,0,1,.374.553c-.707.557-1.425,1.125-2.145,1.691-.23.181-.467.353-.694.537a.265.265,0,0,1-.425-.026,6.715,6.715,0,0,0-.575-.577,3.558,3.558,0,0,0-5.914,1.884,4.688,4.688,0,0,0,.118,2.658,3.557,3.557,0,0,0,5.669,1.671C-1124,143.221-1123.7,142.846-1123.332,142.5Z" transform="translate(1221.921 -88.848)"/>
      <path id="Trazado_1076" data-name="Trazado 1076" d="M-2174.5,152.349c.255.282.46.549.705.771a2.252,2.252,0,0,0,1.529.628,1.553,1.553,0,0,0,1.669-1.294,5.868,5.868,0,0,0,.1-1.435q-.037-4.075-.072-8.149c-.006-.742-.064-.676.668-.679.982,0,1.964-.012,2.947-.012.515,0,.518,0,.523.5q.024,2.225.044,4.451c.012,1.526.023,3.051.025,4.577a7.939,7.939,0,0,1-.189,1.8,4.662,4.662,0,0,1-3.365,3.619,7.131,7.131,0,0,1-4.614-.134,5.621,5.621,0,0,1-2.455-1.783c-.131-.159-.219-.286-.021-.472C-2176.187,153.968-2175.378,153.188-2174.5,152.349Z" transform="translate(2177.188 -97.681)"/>
      <path id="Trazado_1077" data-name="Trazado 1077" d="M-1143.794,42.535a2.83,2.83,0,0,0-.3.029.894.894,0,0,1-1-.44c-.378-.544-.816-1.045-1.31-1.666a7.509,7.509,0,0,0-.056,1.313c-.027.881.2.8-.848.808a2.752,2.752,0,0,1-.316-.043c0-1.255,0-2.5,0-3.753,0-.245.112-.314.343-.33a1.054,1.054,0,0,1,1.117.478,18.966,18.966,0,0,0,1.177,1.517,1.039,1.039,0,0,0,.1-.67c.011-.333.007-.668-.008-1-.011-.242.086-.319.325-.335.821-.053.818-.063.821.767,0,.9.015,1.8.016,2.692A1.315,1.315,0,0,1-1143.794,42.535Z" transform="translate(1233.868 -2.609)"/>
      <path id="Trazado_1078" data-name="Trazado 1078" d="M-832.476,38.921a3.631,3.631,0,0,0,.134-1.432c0-.491,0-.5.459-.506.783-.015.694-.1.7.7q.008,1.412.011,2.823c0,.6,0,.577-.564.6a.781.781,0,0,1-.734-.364c-.421-.568-.872-1.113-1.341-1.707a1.382,1.382,0,0,0-.1.771c-.013.334-.009.669,0,1,0,.206-.068.32-.29.3-.021,0-.042,0-.063,0-.955,0-.772.07-.783-.744-.013-.983,0-1.966-.024-2.948-.007-.314.063-.429.408-.437a1.061,1.061,0,0,1,1.052.483C-833.278,37.977-832.86,38.437-832.476,38.921Z" transform="translate(947.486 -1.283)"/>
      <path id="Trazado_1079" data-name="Trazado 1079" d="M-897.739,36.6a2.129,2.129,0,0,1,2.2,2.1,2.172,2.172,0,0,1-2.211,2.166,2.135,2.135,0,0,1-2.222-2.139A2.142,2.142,0,0,1-897.739,36.6Zm1,2.138a1.041,1.041,0,0,0-1.03-1.1,1.029,1.029,0,0,0-1.016,1.1,1.037,1.037,0,0,0,1,1.062A1.011,1.011,0,0,0-896.739,38.743Z" transform="translate(1006.953 -0.945)"/>
      <path id="Trazado_1080" data-name="Trazado 1080" d="M-1269.236,38.588a2.144,2.144,0,0,1,2.212,2.154,2.149,2.149,0,0,1-2.184,2.119,2.108,2.108,0,0,1-2.233-2.114A2.14,2.14,0,0,1-1269.236,38.588Zm.023,1.042a1.069,1.069,0,0,0-1.058,1.026,1.1,1.1,0,0,0,1.044,1.173,1.082,1.082,0,0,0,1.031-1.058A1.106,1.106,0,0,0-1269.213,39.63Z" transform="translate(1347.322 -2.762)"/>
      <path id="Trazado_1081" data-name="Trazado 1081" d="M-1086.838,40.539c0-.543.011-1.087,0-1.63-.008-.283.057-.423.379-.407.5.025,1-.016,1.5.017a1.981,1.981,0,0,1,2.03,2.147,1.941,1.941,0,0,1-1.513,1.847,9.883,9.883,0,0,1-2.122.119c-.24.01-.254-.157-.253-.337,0-.585,0-1.17,0-1.756Zm1.154-.015h0q0,.406,0,.812a.23.23,0,0,0,.2.263,1.138,1.138,0,0,0,1.37-.875,1.019,1.019,0,0,0-.984-1.192c-.527-.061-.58-.018-.588.493C-1085.686,40.19-1085.684,40.357-1085.684,40.523Z" transform="translate(1178.178 -2.682)"/>
      <path id="Trazado_1082" data-name="Trazado 1082" d="M-1203.4,40.452c0,.376.019.752,0,1.126a1.57,1.57,0,0,1-1.358,1.56,2.513,2.513,0,0,1-1.176-.017,1.5,1.5,0,0,1-1.24-1.454c-.042-.77-.018-1.543-.037-2.315-.006-.242.087-.321.322-.34.813-.067.835-.057.843.751.005.522,0,1.044.014,1.565.015.444.182.682.5.778a.719.719,0,0,0,.978-.728c.028-.52,0-1.043,0-1.564,0-.167.009-.335,0-.5-.017-.249.1-.342.335-.321.021,0,.042,0,.063,0,.933,0,.743-.036.759.71C-1203.392,39.951-1203.4,40.2-1203.4,40.452Z" transform="translate(1288.47 -3.127)"/>
      <path id="Trazado_1083" data-name="Trazado 1083" d="M-1029.542,41.988c-.238.122-.43.05-.611.082-.394.07-.7.018-.792-.454a.315.315,0,0,0-.372-.255,4.923,4.923,0,0,1-.626,0c-.421-.028-.791,0-.878.53-.026.16-.167.225-.335.214a4.637,4.637,0,0,1-.843-.032.322.322,0,0,1,.03-.32c.472-1.135.956-2.266,1.408-3.409a.5.5,0,0,1,.6-.384,1.173,1.173,0,0,0,.313,0,.43.43,0,0,1,.515.322C-1030.618,39.516-1030.082,40.736-1029.542,41.988Zm-1.87-1.575a4.285,4.285,0,0,0-.44-.98,2.944,2.944,0,0,0-.345,1A1.939,1.939,0,0,0-1031.412,40.413Z" transform="translate(1129.787 -2.183)"/>
      <path id="Trazado_1084" data-name="Trazado 1084" d="M-1319.419,41.853c0-.564.007-1.129,0-1.693,0-.235.07-.335.32-.332.857.008,1.714.009,2.57-.009.3-.006.43.082.392.389a2.232,2.232,0,0,0,0,.376c.009.194-.1.25-.269.25-.5,0-1,.008-1.5.007-.2,0-.367,0-.366.287,0,.252.053.394.343.381.355-.016.71-.006,1.066,0,.525,0,.532.012.543.5.01.433,0,.45-.442.46-.334.008-.669,0-1,.01-.484.008-.486.009-.494.47,0,.251,0,.5,0,.752,0,.11-.026.222-.153.23a7.372,7.372,0,0,1-.814.012c-.215-.011-.176-.2-.177-.336,0-.585,0-1.17,0-1.756Z" transform="translate(1391.288 -3.891)"/>
      <path id="Trazado_1085" data-name="Trazado 1085" d="M-977.643,37.851c.48,0,.961.011,1.441,0,.24-.008.353.063.329.315a1.814,1.814,0,0,0,.007.376c.033.289-.115.336-.368.341-.859.019-.862.028-.856.92,0,.606.01,1.211.026,1.817.006.231-.06.341-.317.337-1.032-.014-.835.142-.85-.79-.01-.627-.022-1.254-.008-1.88.006-.286-.059-.441-.378-.4a2.522,2.522,0,0,1-.376,0c-.47-.009-.475-.009-.473-.494s-.064-.527.506-.516c.439.009.877,0,1.316,0Z" transform="translate(1079.79 -2.083)"/>
      <path id="Trazado_1086" data-name="Trazado 1086" d="M-643.856,38.312c.234.312.424.558.6.809a3.564,3.564,0,0,1,.528.77.5.5,0,0,1-.706-.207c-.234-.345-.5-.673-.752-1a1.409,1.409,0,0,0-1.254-.28c-.11.059-.11.165-.11.267,0,.355-.011.711,0,1.066.009.217-.115.232-.274.235s-.211-.085-.211-.234q0-1.223-.009-2.446c0-.376-.009-.753-.01-1.129,0-.149,0-.312.212-.305a9.726,9.726,0,0,1,2.124.08,1.185,1.185,0,0,1,.749,1.778A1.613,1.613,0,0,1-643.856,38.312Zm-.833-2.014v.011a4.184,4.184,0,0,1-.5,0c-.317-.038-.4.113-.38.4.02.331.016.664.022,1,0,.137.043.252.206.243a5.32,5.32,0,0,0,1.482-.087.786.786,0,0,0,.58-.791.778.778,0,0,0-.667-.72A5.745,5.745,0,0,0-644.688,36.3Z" transform="translate(774.281 -0.242)"/>
      <path id="Trazado_1087" data-name="Trazado 1087" d="M-707.574,37.66a2.056,2.056,0,0,1,2.093-2.1,2.061,2.061,0,0,1,2.084,2.176,2.087,2.087,0,0,1-2.133,2.077A2.052,2.052,0,0,1-707.574,37.66Zm.5-.033a1.6,1.6,0,0,0,1.52,1.72,1.583,1.583,0,0,0,1.655-1.581,1.611,1.611,0,0,0-1.555-1.75A1.565,1.565,0,0,0-707.075,37.627Z" transform="translate(830.658 0.015)"/>
      <path id="Trazado_1088" data-name="Trazado 1088" d="M-750.047,38.778c0-.544.013-1.088-.005-1.631-.009-.28.042-.42.369-.412.752.018,1.506,0,2.259,0,.134,0,.308-.049.324.183.019.269-.172.235-.335.237-.586.007-1.171.022-1.757.011-.3-.006-.408.116-.392.409.068,1.259-.189,1.021,1.009,1.047.293.006.586,0,.878,0,.157,0,.36-.064.349.213s-.226.19-.372.194c-.481.014-.962.026-1.443.015-.29-.007-.428.088-.408.394.021.334.019.669.024,1,0,.186.039.4-.256.394-.26-.006-.219-.2-.22-.363,0-.564,0-1.129,0-1.693Z" transform="translate(869.581 -1.059)"/>
      <path id="Trazado_1089" data-name="Trazado 1089" d="M-925.132,41.763c-1.112.118-1.11.118-1.112-.939,0-.9.007-1.8-.018-2.695-.01-.338.113-.453.43-.42a1.922,1.922,0,0,0,.376,0c.281-.026.353.11.352.37,0,1.17.012,2.34.017,3.509A.682.682,0,0,1-925.132,41.763Z" transform="translate(1031.04 -1.953)"/>
    </g>
  </g>
</svg>
