<svg xmlns="http://www.w3.org/2000/svg" width="98.162" height="45.585" viewBox="0 0 98.162 45.585">
  <g id="Grupo_1448" data-name="Grupo 1448" transform="translate(-963 -4452)">
    <g id="Grupo_1448-2" data-name="Grupo 1448" transform="translate(963 4452)">
      <path id="Trazado_1543" data-name="Trazado 1543" d="M649.472,414.782c0-4.849.005-9.7-.01-14.546,0-.381.115-.447.462-.445q3.727.022,7.455,0c.337,0,.415.1.414.423-.012,3.446,0,6.893-.017,10.339,0,.4.118.478.493.476q4.85-.023,9.7,0c.379,0,.494-.086.492-.48-.016-3.446,0-6.892-.017-10.339,0-.329.074-.422.412-.42q3.747.023,7.5,0c.345,0,.409.105.409.427q-.013,14.566,0,29.133c0,.329-.077.426-.416.424q-3.747-.022-7.495,0c-.354,0-.405-.115-.4-.43.011-3.513,0-7.026.015-10.539,0-.349-.082-.451-.442-.449q-4.91.022-9.82,0c-.339,0-.421.1-.42.427.011,3.513,0,7.026.015,10.539,0,.352-.086.446-.442.443q-3.747-.025-7.495,0c-.319,0-.393-.088-.392-.4Q649.48,422.076,649.472,414.782Z" transform="translate(-649.462 -399.785)"/>
      <path id="Trazado_1544" data-name="Trazado 1544" d="M1065.541,453.326c-2.445,0-4.89.006-7.334-.007-.34,0-.4.075-.3.4a4.733,4.733,0,0,0,4.311,3.4,6.736,6.736,0,0,0,5.346-1.993c.317-.3.5-.273.808-.006,1.238,1.059,2.5,2.1,3.761,3.122.259.21.275.333.057.592a11.971,11.971,0,0,1-8.946,4.357,13.664,13.664,0,0,1-7.183-1.424,10.819,10.819,0,0,1-5.807-7.779,12.863,12.863,0,0,1,1.5-9.506,10.9,10.9,0,0,1,8.5-5.407,11.786,11.786,0,0,1,8.289,1.894,10.747,10.747,0,0,1,4.142,5.972,17.641,17.641,0,0,1,.635,6.024c-.015.3-.109.373-.4.372C1070.457,453.321,1068,453.326,1065.541,453.326Zm-3.877-4.162c1.229,0,2.457-.008,3.686.006.29,0,.378-.08.32-.365a7.029,7.029,0,0,0-.478-1.566,3.754,3.754,0,0,0-5.875-1.37,5.3,5.3,0,0,0-1.591,3.029c-.061.285.108.267.292.267Q1059.84,449.162,1061.663,449.164Z" transform="translate(-985.713 -432.683)"/>
      <path id="Trazado_1545" data-name="Trazado 1545" d="M1210.5,414.71q0-7.252-.008-14.5c0-.336.056-.451.427-.449,2.444.019,4.889.015,7.333,0,.3,0,.406.05.406.385q-.016,14.6,0,29.208c0,.281-.043.393-.364.391q-3.707-.022-7.414,0c-.336,0-.384-.118-.383-.412Q1210.5,422.022,1210.5,414.71Z" transform="translate(-1120.511 -399.758)"/>
      <path id="Trazado_1546" data-name="Trazado 1546" d="M993.24,414.78c0,4.836-.005,9.673.01,14.509,0,.4-.112.48-.49.477q-3.628-.026-7.256,0c-.34,0-.417-.1-.417-.426q.013-14.569,0-29.139c0-.294.045-.415.385-.413q3.688.024,7.376,0c.318,0,.4.087.4.4Q993.232,407.485,993.24,414.78Z" transform="translate(-931.259 -399.783)"/>
      <path id="Trazado_1547" data-name="Trazado 1547" d="M921.4,414.822q0,7.253.008,14.506c0,.337-.059.451-.43.448-2.445-.019-4.89-.015-7.334,0-.286,0-.383-.054-.383-.367q.014-14.626,0-29.252c0-.321.108-.362.386-.361q3.687.015,7.374,0c.332,0,.386.108.385.406Q921.4,407.509,921.4,414.822Z" transform="translate(-870.955 -399.785)"/>
      <path id="Trazado_1548" data-name="Trazado 1548" d="M841.158,479.118c0-2.978.005-5.955-.008-8.933,0-.334.09-.424.423-.422q3.686.02,7.372,0c.328,0,.363.115.363.392q-.011,7.01-.005,14.02c0,1.322-.008,2.644.006,3.966,0,.286-.05.392-.366.389q-3.706-.027-7.412-.013c-.3,0-.381-.084-.38-.383C841.163,485.127,841.158,482.123,841.158,479.118Z" transform="translate(-810.408 -458.533)"/>
      <path id="Trazado_1549" data-name="Trazado 1549" d="M849.275,407.257a4.053,4.053,0,0,1-4.1,4.045,4.079,4.079,0,1,1,4.1-4.045Z" transform="translate(-810.381 -402.602)"/>
      <path id="Trazado_1550" data-name="Trazado 1550" d="M1131.214,636.427a3.253,3.253,0,0,1,1.4-.978,2.617,2.617,0,0,1,3.6,2.246,27.1,27.1,0,0,1,.069,3.319c.012.521-.009,1.042.007,1.562.008.265-.051.386-.35.374-.56-.023-1.122-.021-1.682,0-.283.01-.363-.085-.36-.363.013-1.255.008-2.51,0-3.765a3.106,3.106,0,0,0-.051-.556c-.14-.751-.555-1.123-1.195-1.086a1.286,1.286,0,0,0-1.179,1.293c-.015,1.3-.006,2.59-.007,3.885,0,.586,0,.586-.579.586-.481,0-.963-.019-1.442.007-.312.017-.379-.1-.375-.391q.021-1.922,0-3.845-.012-1.441-.064-2.881c-.01-.278.066-.382.354-.369.453.02.909.02,1.362,0,.276-.012.385.083.387.358A4.4,4.4,0,0,0,1131.214,636.427Z" transform="translate(-1052.105 -597.524)"/>
      <path id="Trazado_1551" data-name="Trazado 1551" d="M1074.068,639.161A3.754,3.754,0,0,1,1070,643.11a3.667,3.667,0,0,1-3.855-3.9,3.752,3.752,0,0,1,4.086-3.9A3.639,3.639,0,0,1,1074.068,639.161Zm-2.431.079a3.661,3.661,0,0,0-.315-1.486,1.291,1.291,0,0,0-1.16-.791,1.264,1.264,0,0,0-1.227.748,3.331,3.331,0,0,0-.079,2.827,1.3,1.3,0,0,0,1.253.9,1.323,1.323,0,0,0,1.257-.884A3.56,3.56,0,0,0,1071.637,639.24Z" transform="translate(-999.314 -597.534)"/>
      <path id="Trazado_1552" data-name="Trazado 1552" d="M684.554,636.31a9.551,9.551,0,0,1,.732-.617,2.85,2.85,0,0,1,2.9-.243,2.519,2.519,0,0,1,1.444,2.373c.067,1.573.022,3.151.031,4.727,0,.2-.059.287-.273.284-.6-.01-1.2-.015-1.8,0-.3.008-.274-.17-.273-.363,0-1.162,0-2.324,0-3.486a6.37,6.37,0,0,0-.052-.757c-.1-.757-.534-1.186-1.174-1.164a1.283,1.283,0,0,0-1.23,1.246c-.028.493-.012.988-.013,1.482,0,.895-.011,1.79.006,2.684.005.284-.087.369-.365.359-.52-.019-1.043-.027-1.562,0-.359.02-.477-.077-.473-.457.018-1.9.005-3.793,0-5.689,0-.334,0-.669-.026-1-.023-.274.085-.347.341-.338.454.016.909.017,1.362,0,.255-.01.371.081.378.335C684.506,635.869,684.531,636.051,684.554,636.31Z" transform="translate(-677.13 -597.411)"/>
      <path id="Trazado_1553" data-name="Trazado 1553" d="M882.654,636.422a2.9,2.9,0,0,1,3.073-1.045,2.426,2.426,0,0,1,1.865,2.074,4.108,4.108,0,0,1,.1.913c0,1.4-.007,2.806.006,4.208,0,.275-.072.375-.357.365-.547-.021-1.1-.02-1.643,0-.28.01-.366-.077-.363-.359.014-1.242.008-2.485,0-3.727a3.014,3.014,0,0,0-.055-.6c-.162-.781-.579-1.141-1.238-1.088a1.321,1.321,0,0,0-1.17,1.354c-.013,1.216,0,2.431,0,3.647,0,.763,0,.763-.749.763-.414,0-.829-.016-1.242.005-.282.014-.367-.082-.362-.362.015-.935.013-1.87,0-2.805-.013-1.309-.031-2.617-.067-3.925-.008-.294.057-.41.369-.393a11.943,11.943,0,0,0,1.322,0c.309-.017.4.118.4.394A.893.893,0,0,0,882.654,636.422Z" transform="translate(-843.406 -597.512)"/>
      <path id="Trazado_1554" data-name="Trazado 1554" d="M1192.4,642.117a2.955,2.955,0,0,1-2.844.808,2.117,2.117,0,0,1-1.734-1.69,2.336,2.336,0,0,1,.761-2.4,4.8,4.8,0,0,1,2.791-.964,2.848,2.848,0,0,0,.32-.014c.168-.037.42.115.49-.125a.624.624,0,0,0-.236-.609,1.282,1.282,0,0,0-.845-.314,4.032,4.032,0,0,0-2.1.412c-.2.1-.3.108-.356-.151-.066-.312-.177-.615-.273-.92-.065-.207-.036-.35.193-.442a6.2,6.2,0,0,1,4.191-.289,2.52,2.52,0,0,1,1.766,2.224,18.758,18.758,0,0,1,.062,2.479,19.969,19.969,0,0,0,.08,2.44c.031.213-.045.285-.258.28-.467-.011-.936-.021-1.4,0-.319.017-.519-.047-.516-.413A1.37,1.37,0,0,0,1192.4,642.117Zm-.121-2.188c0-.133,0-.267,0-.4,0-.1-.011-.173-.132-.21a2.356,2.356,0,0,0-1.873.6.935.935,0,0,0-.079.987.812.812,0,0,0,.751.431A1.227,1.227,0,0,0,1192.28,639.929Z" transform="translate(-1101.423 -597.424)"/>
      <path id="Trazado_1555" data-name="Trazado 1555" d="M943.776,642.121a2.937,2.937,0,0,1-2.648.9,2.279,2.279,0,0,1-1.949-1.719,2.435,2.435,0,0,1,.99-2.6,5.443,5.443,0,0,1,2.934-.8c.15-.006.372.084.432-.1a.589.589,0,0,0-.162-.552,1.191,1.191,0,0,0-.85-.391,3.944,3.944,0,0,0-2.138.4c-.277.143-.347.049-.4-.191-.045-.195-.1-.387-.156-.579-.185-.63-.19-.64.42-.859a6.383,6.383,0,0,1,3.39-.282,2.646,2.646,0,0,1,2.277,2.688c.023.641.02,1.282.011,1.923-.012.9.021,1.789.089,2.681.016.209-.034.254-.223.251-.481-.008-.964-.03-1.442.006-.366.028-.515-.108-.521-.455A2.875,2.875,0,0,0,943.776,642.121Zm-.127-2.208c-.091-.151.173-.5-.167-.533a2.319,2.319,0,0,0-1.706.415.952.952,0,0,0-.263,1.091.771.771,0,0,0,.824.495C943.205,641.375,943.646,640.9,943.649,639.914Z" transform="translate(-892.658 -597.472)"/>
      <path id="Trazado_1556" data-name="Trazado 1556" d="M785.307,639.768c-.708,0-1.416.008-2.124,0-.306-.005-.344.12-.238.366a1.768,1.768,0,0,0,1.61,1.008,5.537,5.537,0,0,0,2.142-.179c.323-.091.446-.008.464.313a2.944,2.944,0,0,0,.082.432c.165.785.166.789-.629.98a7.659,7.659,0,0,1-2.94.148,3.464,3.464,0,0,1-3.07-3.2,4.087,4.087,0,0,1,1.219-3.543,3.654,3.654,0,0,1,4.03-.7,3.135,3.135,0,0,1,1.927,3.068c.07,1.312.043,1.313-1.272,1.313Zm-1.065-1.6h1.122c.125,0,.235,0,.25-.177a1.337,1.337,0,0,0-1.117-1.323,1.472,1.472,0,0,0-1.618,1.227c-.047.2.006.273.2.273C783.467,638.167,783.854,638.168,784.241,638.168Z" transform="translate(-759.55 -597.336)"/>
      <path id="Trazado_1557" data-name="Trazado 1557" d="M994.032,628.979c0-.547-.01-1.1,0-1.642.006-.24-.066-.323-.316-.326-.717-.009-.717-.02-.717-.75v-.16c0-.744,0-.752.727-.784.221-.01.312-.081.3-.307-.012-.347.007-.695-.007-1.041a.293.293,0,0,1,.279-.351c.588-.119,1.174-.247,1.755-.4.234-.06.287.025.286.228,0,.507.011,1.015-.005,1.522-.009.261.076.358.341.344.36-.018.721,0,1.081-.007.208-.006.285.075.279.281-.01.387-.012.774,0,1.161.007.22-.094.272-.289.267-.36-.009-.722.008-1.081-.006-.234-.009-.335.055-.331.311.013.881-.005,1.763.01,2.644.014.811.308,1.082,1.11,1.054.487-.017.507-.141.508.509,0,.32,0,.641.009.961,0,.167-.034.27-.224.311a4.29,4.29,0,0,1-2.292-.028,2.12,2.12,0,0,1-1.416-2.115c-.041-.558-.008-1.121-.008-1.682Z" transform="translate(-937.907 -587.367)"/>
      <path id="Trazado_1558" data-name="Trazado 1558" d="M740.2,628.957c0-.6-.012-1.109,0-1.617.009-.26-.073-.345-.339-.345-.691,0-.691-.013-.691-.71v-.24c0-.712,0-.722.7-.744.241-.008.336-.088.325-.331-.014-.307.015-.616-.008-.921a.377.377,0,0,1,.354-.468c.562-.11,1.124-.23,1.678-.375.254-.066.3.015.3.242-.008.508.006,1.016-.006,1.523-.006.242.081.336.325.328.36-.013.722,0,1.082-.006.206-.006.287.073.282.281-.01.374-.016.749,0,1.122.013.261-.107.317-.336.308-.334-.013-.669.009-1-.008-.248-.013-.361.047-.356.327.016.881,0,1.764.012,2.645.013.767.331,1.055,1.1,1.04.512-.011.512-.011.514.5a5.37,5.37,0,0,0,.009.76c.061.407-.13.547-.5.579a5.74,5.74,0,0,1-1.6.016,2.08,2.08,0,0,1-1.791-1.884A18.022,18.022,0,0,1,740.2,628.957Z" transform="translate(-724.79 -587.351)"/>
      <path id="Trazado_1559" data-name="Trazado 1559" d="M1249.156,620.738c0,1.681-.008,3.363.007,5.044,0,.3-.082.391-.381.378-.56-.024-1.121-.015-1.681,0-.228.005-.3-.076-.3-.3q.008-5.124,0-10.248c0-.226.081-.3.3-.3.56.01,1.122.021,1.681,0,.311-.014.376.1.375.389C1249.149,617.375,1249.156,619.057,1249.156,620.738Z" transform="translate(-1151 -580.735)"/>
      <path id="Trazado_1560" data-name="Trazado 1560" d="M650.5,623.677c0-1.587.009-3.175-.007-4.762,0-.322.093-.414.406-.4.519.024,1.041.024,1.56,0,.329-.015.437.086.434.424-.015,1.707-.007,3.415-.007,5.123,0,1.454-.009,2.908.007,4.362,0,.32-.065.452-.414.432a14.479,14.479,0,0,0-1.56,0c-.327.017-.431-.075-.427-.416C650.507,626.852,650.5,625.265,650.5,623.677Z" transform="translate(-650.324 -583.43)"/>
      <path id="Trazado_1561" data-name="Trazado 1561" d="M841.057,636.8a5.8,5.8,0,0,1,.542-.8,2.13,2.13,0,0,1,1.767-.676c.2.014.293.08.292.284q-.005.841,0,1.681c0,.178-.083.233-.249.218a4.337,4.337,0,0,0-.44-.016,1.474,1.474,0,0,0-1.613,1.586c-.017,1.147-.02,2.3,0,3.443.007.351-.084.468-.443.446-.532-.032-1.068-.018-1.6,0-.248.007-.354-.049-.354-.327q0-3.423-.024-6.846c0-.219.062-.314.294-.309q.72.018,1.441,0c.234-.006.292.095.3.31C840.977,636.1,841.021,636.407,841.057,636.8Z" transform="translate(-808.548 -597.532)"/>
      <path id="Trazado_1562" data-name="Trazado 1562" d="M1039.88,640.028c0,1.135-.008,2.271.005,3.406,0,.273-.065.379-.356.368-.574-.021-1.149-.016-1.723,0-.243.006-.323-.072-.323-.319q.012-3.406,0-6.813c0-.251.061-.361.335-.352q.861.026,1.723,0c.265-.008.345.083.343.344C1039.873,637.784,1039.88,638.906,1039.88,640.028Z" transform="translate(-975.253 -598.378)"/>
      <path id="Trazado_1563" data-name="Trazado 1563" d="M1038.341,618.351a1.149,1.149,0,0,1-1.24-1.168,1.268,1.268,0,1,1,1.24,1.168Z" transform="translate(-974.931 -581.338)"/>
    </g>
  </g>
</svg>
