<svg xmlns="http://www.w3.org/2000/svg" width="155" height="46.431" viewBox="0 0 155 46.431">
  <g id="Grupo_1441" data-name="Grupo 1441" transform="translate(-685.031 -457.289)">
    <path id="Trazado_1264" data-name="Trazado 1264" d="M685.031,480.224a8.96,8.96,0,0,0,.3-1.451,16.178,16.178,0,0,1,3.419-6.428c1.717-2.12,3.657-4.04,5.472-6.072a30.6,30.6,0,0,0,5.81-8.787,1.53,1.53,0,0,1,.127-.2,16.632,16.632,0,0,1,.958,3.486,20.157,20.157,0,0,1-1.792,11.415c-1.169,2.723-2.44,5.4-3.622,8.119a23.045,23.045,0,0,0-1.952,7.136,16.665,16.665,0,0,0,1.044,7.589c.116-.944.182-1.78.339-2.6a32.33,32.33,0,0,1,3.016-8.186c1.163-2.358,2.418-4.672,3.392-7.12a18.678,18.678,0,0,0,1.491-7.911c-.031-.6-.114-1.2-.1-1.828.385.612.777,1.219,1.152,1.837a33.887,33.887,0,0,1,3.61,7.75,12.032,12.032,0,0,1-2.444,11.863c-1.339,1.6-2.713,3.168-4.035,4.78a16.707,16.707,0,0,0-3.8,7.878,21.115,21.115,0,0,0-.239,2.217c-.127.047-.165-.061-.217-.122a76.575,76.575,0,0,1-8.555-11.645,25.537,25.537,0,0,1-3.154-7.975,4.365,4.365,0,0,0-.227-1.186Z" fill="#020202"/>
    <g id="Grupo_1440" data-name="Grupo 1440" transform="translate(714.287 465.608)">
      <path id="Trazado_1265" data-name="Trazado 1265" d="M798.148,495.317q0,3.149,0,6.3a5.136,5.136,0,0,1-.7,2.79,4.227,4.227,0,0,1-3.552,1.9,5.774,5.774,0,0,1-2.47-.327,4.139,4.139,0,0,1-2.684-4.111c-.028-3.21-.011-6.419-.013-9.629,0-1.232.009-2.465-.007-3.7,0-.284.075-.361.356-.354.792.019,1.585.025,2.377,0,.338-.011.39.112.389.414q-.014,6.412-.005,12.824a4.349,4.349,0,0,0,.072,1,1.457,1.457,0,0,0,1.648,1.238,1.424,1.424,0,0,0,1.488-1.415,9.327,9.327,0,0,0,.049-.956q0-6.3-.006-12.6c0-.385.066-.535.491-.51a20.408,20.408,0,0,0,2.1,0c.372-.017.486.073.482.465-.021,2.221-.01,4.442-.01,6.663Z" transform="translate(-788.716 -487.786)" fill="#020202"/>
      <path id="Trazado_1266" data-name="Trazado 1266" d="M866.836,488.213c.534,0,1.067.008,1.6,0,.225-.005.313.066.355.3q1.223,6.7,2.465,13.4c.232,1.254.458,2.51.7,3.762.064.327.026.457-.356.44-.715-.032-1.433-.033-2.148,0-.348.017-.439-.119-.478-.424-.135-1.07-.306-2.137-.427-3.209-.036-.316-.17-.346-.431-.342-.869.013-1.738.03-2.606-.007-.361-.015-.43.135-.465.427-.123,1.026-.272,2.049-.386,3.077-.038.343-.134.5-.521.478-.714-.035-1.432-.026-2.148,0-.316.01-.387-.083-.33-.384q.81-4.3,1.6-8.6c.525-2.838,1.056-5.675,1.56-8.516.061-.344.191-.413.5-.4C865.83,488.23,866.334,488.213,866.836,488.213Zm0,3.535c-.505,2.563-.8,5.052-1.232,7.518-.039.221.088.213.235.212.64,0,1.28-.012,1.92,0,.264.007.293-.076.253-.316-.215-1.3-.409-2.612-.614-3.917C867.22,494.115,867.035,492.981,866.837,491.748Z" transform="translate(-841.069 -487.801)" fill="#020202"/>
      <path id="Trazado_1267" data-name="Trazado 1267" d="M993.339,493.879c0-1.8.011-3.513-.009-5.23,0-.358.088-.466.449-.449.653.03,1.31.021,1.964,0,.271-.007.367.058.367.35q-.013,8.6,0,17.2c0,.212-.016.332-.284.324-.685-.019-1.371-.016-2.056,0-.23,0-.284-.078-.274-.288.015-.334,0-.668,0-1.047-.27.111-.386.351-.545.529a3.128,3.128,0,0,1-2.574,1.042,2.558,2.558,0,0,1-2.441-1.8,5.57,5.57,0,0,1-.3-1.972q0-3.125,0-6.251a6.007,6.007,0,0,1,.186-1.625,2.761,2.761,0,0,1,4.32-1.665C992.539,493.251,992.9,493.553,993.339,493.879Zm0,5.572c0-1.094-.054-2.191.021-3.279a1.056,1.056,0,0,0-.727-1.135,1.336,1.336,0,0,0-2.15,1.087,9.229,9.229,0,0,0-.062,1.636c.026,1.639-.111,3.283.069,4.915.145,1.311,1.049,1.73,2.216,1.093.107-.058.2-.135.312-.187a.581.581,0,0,0,.327-.623C993.328,501.789,993.339,500.62,993.339,499.451Z" transform="translate(-931.51 -487.796)" fill="#020202"/>
      <path id="Trazado_1268" data-name="Trazado 1268" d="M1096.259,511.331c0,1.248.008,2.5,0,3.743a8.77,8.77,0,0,0,.132,1.725c.039.2.044.3-.213.3-.716-.013-1.433-.021-2.149,0-.345.011-.249-.242-.283-.4-.128-.595-.124-.6-.608-.25a4.466,4.466,0,0,1-2.584.9,2.708,2.708,0,0,1-2.978-2.839,4.962,4.962,0,0,1,2.419-4.474,15.67,15.67,0,0,1,3.17-1.587c.248-.1.365-.2.344-.486a8.15,8.15,0,0,0-.084-1.089,1.178,1.178,0,0,0-1.193-1.042c-.842-.035-1.343.262-1.544.917a1.551,1.551,0,0,1-.04.177c-.107.237.053.6-.158.72a1.851,1.851,0,0,1-.807.043c-.549,0-1.1-.008-1.646,0-.222.005-.279-.052-.257-.284a4.011,4.011,0,0,1,4.087-3.852,7.383,7.383,0,0,1,1.638.1,3.131,3.131,0,0,1,2.743,3.2c.028,1.491.006,2.982.006,4.473Zm-2.76-.977a9.7,9.7,0,0,0-2.457,1.764,2.506,2.506,0,0,0-.673,1.361c-.218,1.48.8,1.731,1.717,1.5.6-.153,1.4-.926,1.408-1.358C1093.508,512.56,1093.5,511.5,1093.5,510.354Z" transform="translate(-1003.245 -498.82)" fill="#020202"/>
      <path id="Trazado_1269" data-name="Trazado 1269" d="M1024.256,510.484a20.23,20.23,0,0,1,.2-3.795,3.7,3.7,0,0,1,3.762-3.076,6.281,6.281,0,0,1,1.679.132,3.753,3.753,0,0,1,2.9,3.458c.155,1.183.054,2.37.1,3.554.011.306-.169.254-.348.254-1.706,0-3.412.008-5.118-.008-.315,0-.422.065-.4.394a18.493,18.493,0,0,0,.089,2.411,1.385,1.385,0,0,0,1.484,1.3,1.414,1.414,0,0,0,1.451-1.352c.025-.15.043-.3.059-.452.069-.665.068-.665.724-.665.594,0,1.188.01,1.782-.005.225-.006.284.066.27.284a6.286,6.286,0,0,1-.565,2.469,3.664,3.664,0,0,1-3.261,1.988,5.5,5.5,0,0,1-2.078-.2,3.709,3.709,0,0,1-2.6-3.257A26.335,26.335,0,0,1,1024.256,510.484Zm4.273-1.756c.426,0,.852,0,1.278,0,.147,0,.265.007.26-.2a5.984,5.984,0,0,0-.137-1.628,1.333,1.333,0,0,0-1.428-1.025,1.317,1.317,0,0,0-1.377,1.029,6.424,6.424,0,0,0-.145,1.536c-.014.255.091.3.317.3C1027.707,508.717,1028.119,508.728,1028.529,508.728Z" transform="translate(-957.796 -498.857)" fill="#020202"/>
      <path id="Trazado_1270" data-name="Trazado 1270" d="M956.607,511.011c-.853,0-1.706.012-2.558-.007-.284-.006-.365.075-.354.357a21.679,21.679,0,0,0,.077,2.368,1.465,1.465,0,0,0,2.007,1.3,1.381,1.381,0,0,0,.911-1.1,3.209,3.209,0,0,0,.1-.995c-.012-.2.023-.3.264-.3q1.119.023,2.239,0c.246-.006.264.094.258.3a6.244,6.244,0,0,1-.393,2.093,3.638,3.638,0,0,1-3.431,2.353,5.571,5.571,0,0,1-2.077-.206,3.52,3.52,0,0,1-2.569-3.219,26.836,26.836,0,0,1,.056-7.18,3.621,3.621,0,0,1,3.769-3.162,6.373,6.373,0,0,1,1.679.133,3.647,3.647,0,0,1,2.841,3.192,24.254,24.254,0,0,1,.138,3.868c.007.256-.161.2-.3.2Q957.931,511.013,956.607,511.011Zm-1.377-2.283c.426,0,.852,0,1.279,0,.159,0,.255-.025.253-.221a6.349,6.349,0,0,0-.113-1.45,1.469,1.469,0,0,0-2.89.038,4.1,4.1,0,0,0-.085.859c-.015.772-.015.772.734.772Z" transform="translate(-905.113 -498.858)" fill="#020202"/>
      <path id="Trazado_1271" data-name="Trazado 1271" d="M918.665,497.264c0-2.844.007-5.688-.01-8.533,0-.352.1-.418.428-.416q3.862.022,7.724,0c.341,0,.447.08.43.427a16.594,16.594,0,0,0,0,1.824c.023.384-.126.439-.462.436-1.554-.016-3.108,0-4.662-.015-.327,0-.4.1-.4.407q.026,1.916,0,3.833c0,.308.094.385.39.381,1.112-.016,2.224,0,3.336-.013.3,0,.434.054.419.394-.028.638-.028,1.278,0,1.916.015.337-.112.4-.416.391-1.081-.017-2.164.018-3.244-.019-.427-.015-.489.127-.486.508.018,2.327,0,4.654.017,6.981,0,.358-.089.469-.453.454-.73-.029-1.463-.028-2.193,0-.341.013-.431-.078-.429-.424C918.671,502.953,918.665,500.109,918.665,497.264Z" transform="translate(-881.991 -487.881)" fill="#020202"/>
      <path id="Trazado_1272" data-name="Trazado 1272" d="M1168.022,510.434a17.088,17.088,0,0,1,.239-3.881,3.656,3.656,0,0,1,3.59-2.943,6.349,6.349,0,0,1,1.817.124,3.482,3.482,0,0,1,2.8,3.059,25.409,25.409,0,0,1,.047,7.094c-.355,2.789-2.337,3.72-4.819,3.453a3.788,3.788,0,0,1-3.616-3.871C1168,512.481,1168.038,511.492,1168.022,510.434Zm2.755-.133c0,.938-.01,1.7,0,2.457a3.89,3.89,0,0,0,.208,1.478,1.319,1.319,0,0,0,1.358.869,1.3,1.3,0,0,0,1.314-.868,2.637,2.637,0,0,0,.192-.977q0-2.78,0-5.56a2.526,2.526,0,0,0-.226-1.061,1.24,1.24,0,0,0-1.1-.767,1.449,1.449,0,0,0-1.7,1.51C1170.727,508.412,1170.8,509.446,1170.777,510.3Z" transform="translate(-1060.996 -498.849)" fill="#020202"/>
      <path id="Trazado_1273" data-name="Trazado 1273" d="M1207.472,505.083c.4-.318.709-.575,1.028-.826a3.6,3.6,0,0,1,2.756-.7,2.163,2.163,0,0,1,1.818,1.907,5.941,5.941,0,0,1,.085,1c.006,3.392,0,6.784.013,10.176,0,.372-.109.455-.456.44-.639-.027-1.281-.028-1.919,0-.333.015-.391-.1-.39-.407.011-3.134.007-6.267.007-9.4,0-.122,0-.243,0-.365a1,1,0,0,0-1.428-1.042,4.27,4.27,0,0,0-1.225.691c-.193.135-.126.328-.126.5,0,3.179-.012,6.359.009,9.538,0,.411-.107.508-.5.487-.653-.035-1.31-.02-1.965,0-.247.006-.336-.048-.336-.318q.013-6.32,0-12.641c0-.275.062-.37.352-.36.654.022,1.31.015,1.965,0,.237,0,.33.067.317.31C1207.458,504.374,1207.472,504.679,1207.472,505.083Z" transform="translate(-1087.427 -498.799)" fill="#020202"/>
      <path id="Trazado_1274" data-name="Trazado 1274" d="M834.352,495.452c0,2.236.04,4.474-.014,6.709a3.993,3.993,0,0,1-1.975,3.588,5.493,5.493,0,0,1-5.878-.581c-.236-.209-.287-.351-.07-.62.429-.532.829-1.09,1.208-1.659.171-.257.286-.3.546-.105a2.472,2.472,0,0,0,1.824.571,1.293,1.293,0,0,0,1.238-1.136,5.265,5.265,0,0,0,.085-1.089c0-4.154,0-8.307-.01-12.461,0-.378.089-.491.474-.473.73.034,1.463.026,2.194,0,.326-.011.4.095.4.409-.013,2.282-.007,4.565-.007,6.847Z" transform="translate(-815.68 -487.792)" fill="#020202"/>
      <path id="Trazado_1275" data-name="Trazado 1275" d="M846.653,577.008q.293-1.948.585-3.9c.132-.887.269-1.773.387-2.661.037-.282.154-.376.439-.357a10.562,10.562,0,0,0,1.142,0c.245-.009.3.052.25.307-.4,2.2-.775,4.4-1.159,6.6-.23,1.316-.477,2.63-.685,3.95-.056.358-.181.5-.546.454-.387-.05-.888.163-1.137-.094-.222-.229-.181-.713-.252-1.085q-.557-2.931-1.111-5.863a.3.3,0,0,0-.144-.206c-.185,1.032-.373,2.064-.554,3.1q-.334,1.907-.656,3.817c-.038.227-.106.354-.372.335-.424-.029-.947.123-1.247-.075s-.226-.774-.305-1.185c-.618-3.221-1.223-6.444-1.859-9.662-.075-.378.043-.416.341-.383.075.008.153,0,.229,0,.392.025.906-.168,1.143.08s.178.741.242,1.129c.318,1.93.632,3.861,1.025,5.8.116-.619.236-1.237.346-1.856q.428-2.4.846-4.8c.045-.265.141-.395.437-.362.406.045.938-.163,1.19.081s.205.759.279,1.159q.522,2.837,1.037,5.677Z" transform="translate(-825.103 -546.554)" fill="#020202"/>
      <path id="Trazado_1276" data-name="Trazado 1276" d="M1124.34,501.967c0-1.338-.01-2.676.007-4.014,0-.32-.043-.471-.413-.439s-.848.128-1.059-.056c-.25-.218-.073-.715-.076-1.09s-.161-.824.065-1.053.7-.08,1.055-.065c.331.014.441-.06.43-.416-.029-.942,0-1.885-.016-2.827,0-.276.06-.367.35-.357.7.023,1.4.019,2.1,0,.267-.007.33.082.327.336-.014.957,0,1.916-.012,2.873-.005.29.062.411.377.388.394-.029.792,0,1.187-.01.227-.008.33.048.323.3q-.025.843,0,1.687c.008.253-.094.309-.321.3-.411-.013-.823,0-1.233-.007-.216-.006-.332.032-.331.293.01,2.478,0,4.956.016,7.434.007.758.32,1.012,1.091,1.021s.773.009.773.8a8.062,8.062,0,0,0,.009,1.048c.063.481-.144.635-.589.666a6.581,6.581,0,0,1-1.954-.088,2.566,2.566,0,0,1-2.1-2.711c-.023-1.337,0-2.676,0-4.013Z" transform="translate(-1028.492 -490.273)" fill="#020202"/>
      <path id="Trazado_1277" data-name="Trazado 1277" d="M790.689,574.581a.7.7,0,0,0-.089.517c0,1.977-.012,3.954.006,5.931,0,.352-.1.451-.435.42a5.737,5.737,0,0,0-.958,0c-.293.022-.354-.1-.353-.367q.011-5.292,0-10.584c0-.241.04-.358.319-.342.484.028,1.06-.137,1.431.073.355.2.375.823.538,1.262.571,1.534,1.131,3.073,1.7,4.609a.633.633,0,0,0,.2.314v-.422c0-1.825.005-3.65-.006-5.474,0-.269.047-.383.345-.362.454.031,1.053-.152,1.329.074s.085.855.086,1.305c.007,3.163,0,6.326.012,9.489,0,.353-.082.486-.449.449-.4-.04-.918.115-1.194-.081s-.327-.719-.463-1.1q-.929-2.638-1.851-5.278C790.81,574.876,790.754,574.746,790.689,574.581Z" transform="translate(-788.82 -546.598)" fill="#020202"/>
      <path id="Trazado_1278" data-name="Trazado 1278" d="M949.06,581.565c-.585,0-1.119-.012-1.65.006-.244.008-.333-.077-.4-.312-.378-1.343-.8-2.675-1.164-4.021-.167-.616-.609-.284-.922-.311-.336-.03-.174.29-.176.443-.015,1.263-.02,2.526,0,3.788.005.329-.1.418-.41.4a8.162,8.162,0,0,0-1.188,0c-.339.026-.4-.111-.4-.416q.015-5.249,0-10.5c0-.314.071-.419.4-.4,1.05.046,2.106-.082,3.15.068a2.493,2.493,0,0,1,2.428,2.406,5.042,5.042,0,0,1-.145,2.348,1.969,1.969,0,0,1-.827,1.164c-.285.166-.311.318-.214.611.5,1.5.97,3,1.45,4.5C949.014,581.4,949.029,581.453,949.06,581.565Zm-4.339-8.007c0,.485,0,.97,0,1.455,0,.109-.042.225.145.272a1.425,1.425,0,0,0,1.975-1.453c0-.091.006-.182.006-.273,0-1.4-.4-1.785-1.8-1.741a.248.248,0,0,1-.046,0c-.222-.032-.291.068-.286.283C944.729,572.587,944.721,573.073,944.721,573.558Z" transform="translate(-899.29 -546.682)" fill="#020202"/>
      <path id="Trazado_1279" data-name="Trazado 1279" d="M1063.849,505.561a4.5,4.5,0,0,1,3.635-2.005c.255-.026.306.08.3.309-.011.821-.019,1.642,0,2.463.008.3-.107.352-.37.338a4.168,4.168,0,0,0-1.441.182,2.58,2.58,0,0,0-2,2.655c-.011,2.387-.014,4.775.006,7.162,0,.372-.111.449-.454.435-.654-.026-1.31-.019-1.964,0-.263.007-.365-.038-.364-.339q.017-6.3,0-12.591c0-.288.057-.4.373-.39.654.025,1.31.017,1.964,0,.241,0,.321.076.313.314C1063.839,504.545,1063.849,505,1063.849,505.561Z" transform="translate(-984.316 -498.817)" fill="#020202"/>
      <path id="Trazado_1280" data-name="Trazado 1280" d="M921.436,575.47q0,1.414,0,2.828a2.626,2.626,0,0,1-1.348,2.6,3.4,3.4,0,0,1-3.362-.062,2.515,2.515,0,0,1-1.24-2.3c-.029-2.037-.04-4.075,0-6.111a2.977,2.977,0,0,1,5.937-.01c.034,1.017.006,2.037.006,3.055Zm-1.951,0h0c0-1.048.019-2.1-.007-3.143a.863.863,0,0,0-.982-.944c-.661-.01-.965.245-1.038.882a5.214,5.214,0,0,0-.032.591c0,1.336-.006,2.673,0,4.009a14.991,14.991,0,0,0,.04,1.911.828.828,0,0,0,.828.811.944.944,0,0,0,1.187-1.018C919.5,577.539,919.486,576.507,919.486,575.474Z" transform="translate(-879.698 -546.275)" fill="#020202"/>
      <path id="Trazado_1281" data-name="Trazado 1281" d="M972.1,574.187l1.185-2.44c.218-.451.434-.9.655-1.352.065-.132.111-.269.317-.264.558.014,1.117,0,1.673,0a.669.669,0,0,1-.147.455c-.552,1.115-1.1,2.232-1.668,3.339a.942.942,0,0,0-.065.809c.716,2.1,1.4,4.2,2.117,6.3.1.308.095.432-.277.4a7.607,7.607,0,0,0-1.188,0c-.31.025-.419-.11-.5-.378-.454-1.542-.921-3.081-1.384-4.62-.021-.071-.051-.139-.111-.3a3.788,3.788,0,0,0-.728,1.994c.071.969.007,1.946.023,2.92,0,.285-.052.412-.369.387a7.108,7.108,0,0,0-1.142,0c-.346.029-.427-.082-.426-.425.015-3.18.005-6.36.013-9.54,0-.434-.2-1.015.086-1.262.243-.213.812-.06,1.236-.063.611,0,.611,0,.611.624v3.378Z" transform="translate(-918.86 -546.591)" fill="#020202"/>
      <path id="Trazado_1282" data-name="Trazado 1282" d="M816.547,575.859c0-1.734.008-3.468-.007-5.2,0-.305.054-.412.388-.407q2.216.03,4.434,0c.33,0,.419.1.394.409-.032.407.134.949-.071,1.193-.242.286-.8.078-1.223.093-.548.019-1.1.016-1.645,0-.247-.007-.346.047-.339.319q.028,1.14,0,2.282c-.006.255.089.3.315.294.609-.014,1.22.01,1.828-.011.288-.01.425.056.39.37-.048.434.19,1.014-.1,1.266-.246.214-.811.058-1.235.077-.389.018-.907-.17-1.129.084-.191.219-.06.723-.063,1.1,0,.609.012,1.218-.007,1.825-.008.25.079.3.309.3.945-.011,1.89.006,2.834-.012.279-.005.376.06.354.349a10.138,10.138,0,0,0,0,1.095c.007.2-.067.261-.263.26-1.63-.006-3.261-.01-4.891,0-.334,0-.269-.2-.269-.391Q816.546,578.506,816.547,575.859Z" transform="translate(-808.689 -546.695)" fill="#020202"/>
      <path id="Trazado_1283" data-name="Trazado 1283" d="M1151.654,511.042c0-2.084.008-4.169-.008-6.253,0-.335.069-.449.423-.433.669.031,1.341.018,2.011,0,.247-.005.341.052.34.323q-.013,6.344,0,12.689c0,.238-.062.31-.3.3-.7-.016-1.4-.023-2.1,0-.314.012-.368-.1-.366-.383C1151.659,515.211,1151.654,513.127,1151.654,511.042Z" transform="translate(-1049.241 -499.394)" fill="#020202"/>
      <path id="Trazado_1284" data-name="Trazado 1284" d="M888.925,570.2c.549,0,1.111.011,1.673,0,.271-.007.27.185.323.352l1.225,3.881a1.965,1.965,0,0,0,.3-.776q.491-1.563.945-3.136c.07-.243.177-.341.442-.324a10.713,10.713,0,0,0,1.233,0c.315-.016.394.045.273.372-.5,1.352-.921,2.732-1.461,4.066a9.658,9.658,0,0,0-.773,4.475c.054.665-.014,1.339.018,2.007.018.361-.11.439-.437.413a7.175,7.175,0,0,0-1.1,0c-.318.024-.412-.073-.407-.4.019-1.308,0-2.617.012-3.925a2.289,2.289,0,0,0-.137-.8q-1.042-2.912-2.07-5.829C888.946,570.465,888.861,570.361,888.925,570.2Z" transform="translate(-860.633 -546.653)" fill="#020202"/>
      <path id="Trazado_1285" data-name="Trazado 1285" d="M1153.881,488.471a1.687,1.687,0,0,1-1.687,1.678,1.718,1.718,0,0,1-1.693-1.686,1.693,1.693,0,0,1,1.724-1.689A1.662,1.662,0,0,1,1153.881,488.471Z" transform="translate(-1048.42 -486.774)" fill="#020202"/>
    </g>
  </g>
</svg>
